<?xml version="1.0" encoding="utf-8"?>
<!-- Generator: Adobe Illustrator 25.0.1, SVG Export Plug-In . SVG Version: 6.00 Build 0)  -->
<svg version="1.1" xmlns="http://www.w3.org/2000/svg" xmlns:xlink="http://www.w3.org/1999/xlink" x="0px" y="0px"
	 width="354.331px" height="141.732px" viewBox="0 0 354.331 141.732" style="enable-background:new 0 0 354.331 141.732;"
	 xml:space="preserve">
<style type="text/css">
	.st0{fill:#C4214C;}
	.st1{fill:#1D1D1B;}
	.st2{fill:#6FB74D;}
	.st3{fill:#C41F4B;}
	.st4{fill:#FFFFFF;}
</style>
<g id="Layer_2">
</g>
<g id="Layer_1">
	<g>
		<g>
			<g>
				<g>
					<path class="st1" d="M93.001,68.422l-0.381-0.685c0-5.174-2.359-7.305-5.174-8.903c0.837-0.228,1.75-0.38,1.978-1.446
						c1.446-0.38,1.75-1.065,1.902-1.75c0.38-0.228,1.674-0.989,1.522-2.207c0.685-0.456,1.141-1.141,0.913-1.978
						c0.761-0.837,0.989-1.522,0.609-2.131c0.913-1.141,0.533-1.75,0.152-2.359c0.685-1.217,0.076-2.587-1.826-2.359
						c-0.761-1.141-2.435-0.837-2.663-0.837c-0.304-0.38-0.685-0.685-1.826-0.533c-0.761-0.685-1.598-0.533-2.511-0.228
						c-1.065-0.837-1.75-0.228-2.587,0.076c-1.294-0.381-1.522,0.152-2.131,0.38c-1.37-0.304-1.826,0.304-2.435,0.989h-0.761
						c-2.054,1.217-3.12,3.652-3.5,4.946c-0.381-1.294-1.37-3.729-3.5-4.946h-0.761c-0.685-0.685-1.065-1.294-2.435-0.989
						c-0.609-0.228-0.913-0.761-2.131-0.38c-0.533-0.152-0.989-0.533-1.522-0.533c-0.304,0-0.609,0.152-0.989,0.38
						c-0.913-0.304-1.75-0.456-2.511,0.228c-1.141-0.152-1.522,0.152-1.826,0.533c-0.228,0-1.902-0.228-2.663,0.837
						c-1.902-0.228-2.511,1.141-1.826,2.359c-0.38,0.609-0.837,1.217,0.152,2.359c-0.304,0.609-0.152,1.294,0.609,2.131
						c-0.228,0.913,0.228,1.522,0.913,2.054c-0.152,1.217,1.141,1.902,1.522,2.207c0.152,0.685,0.456,1.37,1.902,1.75
						c0.228,1.065,1.141,1.217,1.978,1.446c-2.815,1.598-5.174,3.729-5.174,8.903l-0.38,0.685
						c-3.196,1.902-6.087,8.066-1.598,13.088c0.304,1.598,0.761,2.663,1.217,3.957c0.685,5.022,4.946,7.381,6.087,7.685
						c1.674,1.217,3.424,2.435,5.783,3.272c2.283,2.283,4.718,3.196,7.153,3.196h0.076c2.435,0,4.87-0.837,7.153-3.196
						c2.359-0.837,4.185-1.978,5.783-3.272c1.141-0.304,5.402-2.663,6.087-7.685c0.456-1.217,0.913-2.359,1.217-3.957
						C99.088,76.488,96.196,70.324,93.001,68.422z M90.566,67.585c-0.152,2.055-11.033-7.229-9.131-7.533
						C86.533,59.215,90.718,62.182,90.566,67.585z M85.772,77.933c-2.663,1.75-6.62,0.685-8.751-2.511
						c-2.131-3.12-1.674-7.153,1.065-8.903c2.739-1.75,6.696-0.609,8.751,2.511C88.968,72.15,88.511,76.183,85.772,77.933z
						 M78.163,45.823c0.076,0.456,0.152,0.761,0.305,0.837c0.609-0.609,1.141-1.294,1.902-1.902c0,0.38-0.152,0.761,0.304,1.065
						c0.457-0.533,0.989-0.989,1.75-1.446c-0.304,0.609-0.076,0.837,0.152,1.065c0.533-0.456,1.065-0.989,2.131-1.37
						c-0.228,0.304-0.685,0.685-0.228,1.065c0.609-0.38,1.218-0.761,2.587-0.989c-0.304,0.38-0.913,0.685-0.533,1.065
						c0.685-0.304,1.522-0.456,2.435-0.609c-0.456,0.381-0.837,0.685-0.456,0.989c0.837-0.228,1.902-0.609,2.968-0.304l-0.685,0.685
						c-0.076,0.076,1.598,0.076,2.663,0.076c-0.456,0.609-0.837,1.141-1.065,2.054c0.076,0.076,0.609,0.076,1.141,0
						c-0.532,1.065-1.446,1.37-1.674,1.826c0.305,0.228,0.761,0.152,1.218,0c-0.304,0.761-1.141,1.293-1.75,1.902
						c0.152,0.076,0.38,0.152,1.065,0.076c-0.533,0.609-1.218,1.141-2.055,1.674c0.152,0.152,0.685,0.152,1.141,0.152
						c-0.761,0.761-1.674,1.141-2.587,1.598c0.457,0.304,0.761,0.228,1.141,0.228c-0.685,0.533-1.75,0.837-2.739,1.141
						c0.152,0.304,0.381,0.38,0.761,0.456c-1.065,0.609-2.587,0.304-3.043,0.609c0.152,0.304,0.38,0.533,0.761,0.685
						c-1.75,0.152-6.392,0-7.305-3.576c1.75-1.978,4.946-4.185,10.424-7.001c-4.261,1.446-8.066,3.348-11.414,5.935
						C73.673,52.062,76.336,47.573,78.163,45.823z M74.434,58.606c2.663,0,6.011,1.978,6.011,3.957c0,1.674-2.359,2.968-6.011,2.968
						c-3.5-0.076-5.935-1.75-5.935-3.348C68.499,60.813,71.39,58.53,74.434,58.606z M60.661,57.16
						c0.381-0.076,0.609-0.152,0.761-0.456c-0.989-0.304-2.055-0.609-2.739-1.141c0.381,0,0.685,0.076,1.141-0.228
						c-0.913-0.456-1.826-0.837-2.587-1.598c0.456,0,0.989,0,1.141-0.152c-0.837-0.533-1.522-1.065-2.054-1.674
						c0.685,0.076,0.913,0,1.065-0.076c-0.609-0.609-1.446-1.141-1.75-1.902c0.456,0.152,0.913,0.228,1.217,0
						c-0.228-0.457-1.141-0.761-1.674-1.826c0.533,0.076,1.065,0.076,1.142,0c-0.228-0.913-0.609-1.446-1.065-2.054
						c1.065,0,2.739,0,2.663-0.076l-0.685-0.685c1.065-0.304,2.131,0.076,2.968,0.304c0.381-0.304,0-0.609-0.456-0.989
						c0.913,0.152,1.75,0.304,2.435,0.609c0.38-0.381-0.228-0.685-0.533-1.065c1.37,0.228,1.978,0.609,2.587,0.989
						c0.457-0.38,0-0.761-0.228-1.065c1.065,0.381,1.598,0.913,2.131,1.37c0.228-0.228,0.457-0.456,0.152-1.065
						c0.761,0.457,1.293,0.913,1.75,1.446c0.457-0.304,0.305-0.685,0.305-1.065c0.761,0.609,1.293,1.293,1.902,1.902
						c0.152-0.076,0.228-0.381,0.304-0.837c1.826,1.75,4.489,6.239,0.685,7.99c-3.272-2.587-7.153-4.489-11.414-5.935
						c5.479,2.815,8.675,5.022,10.425,7.001c-0.913,3.576-5.555,3.728-7.305,3.576c0.381-0.152,0.609-0.38,0.761-0.685
						C63.249,57.465,61.727,57.769,60.661,57.16z M67.434,59.9c1.826,0.304-8.979,9.588-9.131,7.533
						C58.151,62.03,62.336,59.063,67.434,59.9z M55.944,80.673c-2.663-2.131-3.576-8.218,1.37-10.957
						C60.281,68.954,58.303,81.738,55.944,80.673z M65.988,91.554c-1.522,0.913-5.098,0.533-7.685-3.12
						c-1.75-3.044-1.522-6.163-0.304-7.076c1.902-0.989,4.718,0.456,6.848,2.891C66.749,86.455,67.586,90.412,65.988,91.554z
						 M63.097,78.238c-2.739-1.75-3.196-5.783-1.065-8.903c2.054-3.12,6.011-4.261,8.75-2.511c2.739,1.75,3.196,5.783,1.065,8.903
						C69.716,78.923,65.76,79.988,63.097,78.238z M74.434,97.869c-3.272,0.152-6.468-2.663-6.468-3.576
						c0-1.522,4.033-2.587,6.696-2.511c2.663-0.076,6.163,0.837,6.163,2.131C80.902,95.13,77.63,97.945,74.434,97.869z
						 M74.434,89.88c-3.652,0-6.62-2.663-6.62-5.935v-0.076c0-3.272,2.892-6.011,6.544-6.011c3.652,0,6.62,2.663,6.62,6.011
						C80.978,87.14,78.087,89.88,74.434,89.88z M90.185,88.662c-2.815,3.805-6.62,3.957-8.066,2.892
						c-1.522-1.37-0.381-5.631,1.674-7.99c2.359-2.587,4.87-4.261,6.62-2.968C91.555,81.738,92.24,86.075,90.185,88.662z
						 M92.696,80.52c-2.359,1.065-4.337-11.718-1.369-10.957C96.196,72.303,95.359,78.39,92.696,80.52z"/>
				</g>
			</g>
			<path class="st1" d="M307.469,27.48H46.862c-6.966,0-12.634,5.668-12.634,12.634v61.505c0,6.966,5.668,12.634,12.634,12.634
				h260.606c6.966,0,12.634-5.668,12.634-12.634V40.114C320.102,33.148,314.434,27.48,307.469,27.48z M39.228,101.619V40.114
				c0-4.209,3.425-7.634,7.634-7.634h62.43v76.772h-62.43C42.653,109.252,39.228,105.828,39.228,101.619z M315.102,101.619
				c0,4.209-3.425,7.634-7.634,7.634H114.292V32.48h193.177c4.209,0,7.634,3.425,7.634,7.634V101.619z"/>
		</g>
		<g>
			<path class="st1" d="M132.477,55.927h-3.734v8.328h-4.688v-22.75h8.453c2.688,0,4.76,0.6,6.219,1.797
				c1.458,1.198,2.188,2.891,2.188,5.078c0,1.553-0.336,2.847-1.008,3.883c-0.672,1.037-1.69,1.862-3.055,2.477l4.922,9.297v0.219
				h-5.031L132.477,55.927z M128.743,52.13h3.781c1.177,0,2.088-0.299,2.734-0.898c0.646-0.599,0.969-1.424,0.969-2.477
				c0-1.072-0.305-1.916-0.914-2.531c-0.609-0.614-1.545-0.922-2.805-0.922h-3.766V52.13z"/>
			<path class="st1" d="M153.977,64.255c-0.209-0.406-0.359-0.911-0.453-1.516c-1.094,1.219-2.516,1.828-4.266,1.828
				c-1.656,0-3.029-0.479-4.117-1.438c-1.089-0.958-1.633-2.166-1.633-3.625c0-1.791,0.664-3.166,1.992-4.125
				c1.328-0.958,3.247-1.442,5.758-1.453h2.078v-0.969c0-0.781-0.201-1.406-0.602-1.875c-0.401-0.469-1.034-0.703-1.898-0.703
				c-0.761,0-1.357,0.183-1.789,0.547c-0.433,0.365-0.648,0.865-0.648,1.5h-4.516c0-0.979,0.302-1.885,0.906-2.719
				c0.604-0.833,1.458-1.486,2.562-1.961c1.104-0.474,2.344-0.711,3.719-0.711c2.083,0,3.736,0.523,4.961,1.57
				c1.224,1.047,1.836,2.519,1.836,4.414v7.328c0.01,1.604,0.234,2.818,0.672,3.641v0.266H153.977z M150.243,61.115
				c0.666,0,1.281-0.148,1.844-0.445s0.979-0.695,1.25-1.195v-2.906h-1.688c-2.261,0-3.464,0.781-3.609,2.344l-0.016,0.266
				c0,0.562,0.197,1.026,0.594,1.391C149.014,60.933,149.556,61.115,150.243,61.115z"/>
			<path class="st1" d="M170.493,59.584c0-0.552-0.273-0.986-0.82-1.305c-0.547-0.317-1.425-0.602-2.633-0.852
				c-4.021-0.844-6.031-2.552-6.031-5.125c0-1.5,0.622-2.752,1.867-3.758c1.244-1.005,2.872-1.508,4.883-1.508
				c2.146,0,3.861,0.506,5.148,1.516c1.286,1.011,1.93,2.323,1.93,3.938h-4.516c0-0.646-0.209-1.18-0.625-1.602
				c-0.417-0.422-1.068-0.633-1.953-0.633c-0.761,0-1.35,0.172-1.766,0.516c-0.417,0.344-0.625,0.781-0.625,1.312
				c0,0.5,0.236,0.904,0.711,1.211c0.474,0.308,1.273,0.573,2.398,0.797c1.125,0.225,2.072,0.477,2.844,0.758
				c2.385,0.875,3.578,2.391,3.578,4.547c0,1.542-0.662,2.789-1.984,3.742c-1.323,0.953-3.031,1.43-5.125,1.43
				c-1.417,0-2.675-0.253-3.773-0.758c-1.1-0.505-1.961-1.197-2.586-2.078c-0.625-0.88-0.938-1.83-0.938-2.852h4.281
				c0.041,0.803,0.338,1.417,0.891,1.844c0.552,0.428,1.291,0.641,2.219,0.641c0.864,0,1.518-0.164,1.961-0.492
				C170.271,60.545,170.493,60.115,170.493,59.584z"/>
			<path class="st1" d="M193.009,55.959c0,2.604-0.592,4.69-1.773,6.258c-1.183,1.568-2.779,2.352-4.789,2.352
				c-1.709,0-3.089-0.594-4.141-1.781v7.969h-4.516V47.349h4.188l0.156,1.656c1.094-1.312,2.521-1.969,4.281-1.969
				c2.083,0,3.703,0.771,4.859,2.312c1.156,1.542,1.734,3.667,1.734,6.375V55.959z M188.493,55.63c0-1.572-0.279-2.786-0.836-3.641
				c-0.558-0.854-1.367-1.281-2.43-1.281c-1.417,0-2.391,0.542-2.922,1.625v6.922c0.552,1.115,1.536,1.672,2.953,1.672
				C187.415,60.927,188.493,59.162,188.493,55.63z"/>
			<path class="st1" d="M211.04,55.959c0,2.709-0.578,4.82-1.734,6.336s-2.771,2.273-4.844,2.273c-1.834,0-3.297-0.703-4.391-2.109
				l-0.203,1.797h-4.062v-24h4.516v8.609c1.041-1.219,2.411-1.828,4.109-1.828c2.062,0,3.68,0.758,4.852,2.273
				s1.758,3.648,1.758,6.398V55.959z M206.524,55.63c0-1.708-0.271-2.955-0.812-3.742c-0.542-0.786-1.35-1.18-2.422-1.18
				c-1.438,0-2.428,0.589-2.969,1.766v6.672c0.552,1.188,1.552,1.781,3,1.781c1.458,0,2.416-0.719,2.875-2.156
				C206.415,58.084,206.524,57.037,206.524,55.63z"/>
			<path class="st1" d="M221.602,64.568c-2.479,0-4.498-0.76-6.055-2.281c-1.558-1.521-2.336-3.547-2.336-6.078v-0.438
				c0-1.697,0.328-3.216,0.984-4.555c0.656-1.338,1.586-2.369,2.789-3.094c1.203-0.724,2.575-1.086,4.117-1.086
				c2.312,0,4.133,0.729,5.461,2.188c1.328,1.459,1.992,3.526,1.992,6.203v1.844H217.79c0.146,1.104,0.586,1.99,1.32,2.656
				c0.734,0.667,1.664,1,2.789,1c1.739,0,3.099-0.63,4.078-1.891l2.219,2.484c-0.678,0.959-1.594,1.706-2.75,2.242
				S223.009,64.568,221.602,64.568z M221.087,50.677c-0.896,0-1.623,0.304-2.18,0.91c-0.558,0.607-0.914,1.476-1.07,2.605h6.281
				v-0.361c-0.021-1.004-0.292-1.781-0.812-2.33C222.784,50.952,222.045,50.677,221.087,50.677z"/>
			<path class="st1" d="M240.618,51.584c-0.615-0.083-1.156-0.125-1.625-0.125c-1.709,0-2.828,0.578-3.359,1.734v11.062h-4.516
				V47.349h4.266l0.125,2.016c0.906-1.552,2.161-2.328,3.766-2.328c0.5,0,0.969,0.068,1.406,0.203L240.618,51.584z"/>
			<path class="st1" d="M252.29,51.584c-0.615-0.083-1.156-0.125-1.625-0.125c-1.709,0-2.828,0.578-3.359,1.734v11.062h-4.516
				V47.349h4.266l0.125,2.016c0.906-1.552,2.161-2.328,3.766-2.328c0.5,0,0.969,0.068,1.406,0.203L252.29,51.584z"/>
			<path class="st1" d="M261.056,57.865l3.125-10.516h4.844l-6.797,19.531l-0.375,0.891c-1.011,2.208-2.678,3.312-5,3.312
				c-0.656,0-1.323-0.099-2-0.297v-3.422l0.688,0.016c0.854,0,1.492-0.13,1.914-0.391s0.752-0.692,0.992-1.297l0.531-1.391
				l-5.922-16.953h4.859L261.056,57.865z"/>
			<path class="st1" d="M283.759,56.24v8.016h-4.688v-22.75h8.875c1.708,0,3.211,0.312,4.508,0.938s2.294,1.514,2.992,2.664
				c0.697,1.151,1.047,2.461,1.047,3.93c0,2.229-0.764,3.987-2.289,5.273c-1.526,1.287-3.639,1.93-6.336,1.93H283.759z
				 M283.759,52.443h4.188c1.239,0,2.185-0.291,2.836-0.875c0.65-0.583,0.977-1.416,0.977-2.5c0-1.114-0.328-2.016-0.984-2.703
				s-1.562-1.041-2.719-1.062h-4.297V52.443z"/>
			<path class="st1" d="M299.384,42.974c0-0.677,0.227-1.234,0.68-1.672s1.07-0.656,1.852-0.656c0.771,0,1.385,0.219,1.844,0.656
				c0.458,0.438,0.688,0.995,0.688,1.672c0,0.688-0.232,1.25-0.695,1.688c-0.464,0.438-1.076,0.656-1.836,0.656
				c-0.761,0-1.373-0.219-1.836-0.656C299.615,44.224,299.384,43.662,299.384,42.974z M304.181,64.255h-4.531V47.349h4.531V64.255z"
				/>
			<path class="st1" d="M142.165,89.615c0,2.229-0.375,4.175-1.125,5.836c-0.75,1.662-1.812,2.93-3.188,3.805
				s-2.979,1.312-4.812,1.312c-1.792,0-3.381-0.439-4.766-1.32c-1.386-0.88-2.461-2.135-3.227-3.766
				c-0.766-1.63-1.159-3.518-1.18-5.664v-1.641c0-2.188,0.38-4.119,1.141-5.797c0.76-1.677,1.836-2.961,3.227-3.852
				s2.981-1.336,4.773-1.336c1.822,0,3.43,0.44,4.82,1.32c1.391,0.881,2.461,2.156,3.211,3.828s1.125,3.617,1.125,5.836V89.615z
				 M139.181,88.146c0-2.697-0.542-4.768-1.625-6.211c-1.084-1.442-2.6-2.164-4.547-2.164c-1.896,0-3.389,0.722-4.477,2.164
				c-1.089,1.443-1.648,3.445-1.68,6.008v1.672c0,2.615,0.549,4.67,1.648,6.164c1.099,1.495,2.611,2.242,4.539,2.242
				c1.938,0,3.438-0.705,4.5-2.117c1.062-1.411,1.609-3.435,1.641-6.07V88.146z"/>
			<path class="st1" d="M148.946,83.349l0.094,2.125c1.291-1.625,2.979-2.438,5.062-2.438c3.572,0,5.375,2.016,5.406,6.047v11.172
				h-2.891V89.068c-0.011-1.219-0.289-2.119-0.836-2.703c-0.547-0.583-1.398-0.875-2.555-0.875c-0.938,0-1.761,0.25-2.469,0.75
				c-0.709,0.5-1.261,1.156-1.656,1.969v12.047h-2.891V83.349H148.946z"/>
			<path class="st1" d="M172.243,100.255v-22.75h7.438c2.469,0,4.325,0.511,5.57,1.531c1.244,1.021,1.867,2.531,1.867,4.531
				c0,1.062-0.303,2.003-0.906,2.82c-0.604,0.818-1.428,1.451-2.469,1.898c1.229,0.344,2.2,0.998,2.914,1.961
				c0.713,0.964,1.07,2.112,1.07,3.445c0,2.042-0.662,3.646-1.984,4.812c-1.323,1.167-3.193,1.75-5.609,1.75H172.243z
				 M175.243,87.209h4.531c1.312,0,2.361-0.328,3.148-0.986c0.786-0.658,1.18-1.551,1.18-2.678c0-1.253-0.365-2.164-1.094-2.732
				c-0.729-0.568-1.839-0.854-3.328-0.854h-4.438V87.209z M175.243,89.615v8.188h4.953c1.396,0,2.497-0.361,3.305-1.086
				c0.807-0.724,1.211-1.721,1.211-2.992c0-2.739-1.49-4.109-4.469-4.109H175.243z"/>
			<path class="st1" d="M190.946,91.646c0-1.656,0.325-3.146,0.977-4.469c0.65-1.322,1.557-2.344,2.719-3.062
				c1.161-0.719,2.486-1.078,3.977-1.078c2.302,0,4.164,0.797,5.586,2.391s2.133,3.714,2.133,6.359v0.203
				c0,1.646-0.315,3.123-0.945,4.43c-0.631,1.308-1.531,2.326-2.703,3.055c-1.172,0.729-2.519,1.094-4.039,1.094
				c-2.292,0-4.148-0.797-5.57-2.391s-2.133-3.703-2.133-6.328V91.646z M193.852,91.99c0,1.875,0.435,3.381,1.305,4.516
				c0.869,1.136,2.033,1.703,3.492,1.703c1.469,0,2.635-0.575,3.5-1.727c0.864-1.15,1.297-2.763,1.297-4.836
				c0-1.854-0.44-3.356-1.32-4.508c-0.881-1.15-2.05-1.727-3.508-1.727c-1.428,0-2.578,0.568-3.453,1.703
				C194.29,88.251,193.852,89.876,193.852,91.99z"/>
			<path class="st1" d="M220.399,100.255c-0.167-0.333-0.303-0.927-0.406-1.781c-1.344,1.396-2.948,2.094-4.812,2.094
				c-1.667,0-3.034-0.471-4.102-1.414c-1.068-0.942-1.602-2.138-1.602-3.586c0-1.76,0.669-3.127,2.008-4.102
				c1.338-0.974,3.221-1.461,5.648-1.461h2.812v-1.328c0-1.01-0.303-1.814-0.906-2.414c-0.604-0.599-1.495-0.898-2.672-0.898
				c-1.031,0-1.896,0.261-2.594,0.781c-0.698,0.521-1.047,1.151-1.047,1.891h-2.906c0-0.844,0.299-1.658,0.898-2.445
				c0.599-0.786,1.411-1.408,2.438-1.867c1.025-0.458,2.153-0.688,3.383-0.688c1.947,0,3.474,0.487,4.578,1.461
				c1.104,0.975,1.677,2.315,1.719,4.023v7.781c0,1.553,0.197,2.787,0.594,3.703v0.25H220.399z M215.602,98.052
				c0.906,0,1.766-0.234,2.578-0.703s1.4-1.078,1.766-1.828v-3.469h-2.266c-3.542,0-5.312,1.037-5.312,3.109
				c0,0.906,0.302,1.615,0.906,2.125C213.878,97.797,214.654,98.052,215.602,98.052z"/>
			<path class="st1" d="M235.54,85.943c-0.438-0.072-0.912-0.109-1.422-0.109c-1.896,0-3.183,0.808-3.859,2.422v12h-2.891V83.349
				h2.812l0.047,1.953c0.947-1.51,2.291-2.266,4.031-2.266c0.562,0,0.989,0.073,1.281,0.219V85.943z"/>
			<path class="st1" d="M237.196,91.662c0-2.594,0.614-4.68,1.844-6.258c1.229-1.578,2.838-2.367,4.828-2.367
				c1.979,0,3.547,0.678,4.703,2.031v-8.812h2.891v24h-2.656l-0.141-1.812c-1.156,1.417-2.766,2.125-4.828,2.125
				c-1.959,0-3.555-0.802-4.789-2.406c-1.234-1.604-1.852-3.697-1.852-6.281V91.662z M240.087,91.99c0,1.917,0.396,3.417,1.188,4.5
				c0.791,1.084,1.885,1.625,3.281,1.625c1.833,0,3.172-0.822,4.016-2.469V87.88c-0.865-1.594-2.193-2.391-3.984-2.391
				c-1.417,0-2.521,0.547-3.312,1.641C240.482,88.224,240.087,89.844,240.087,91.99z"/>
		</g>
	</g>
</g>
</svg>
