<?xml version="1.0" encoding="utf-8"?>
<!-- Generator: Adobe Illustrator 25.0.1, SVG Export Plug-In . SVG Version: 6.00 Build 0)  -->
<svg version="1.1" xmlns="http://www.w3.org/2000/svg" xmlns:xlink="http://www.w3.org/1999/xlink" x="0px" y="0px"
	 width="354.331px" height="141.732px" viewBox="0 0 354.331 141.732" style="enable-background:new 0 0 354.331 141.732;"
	 xml:space="preserve">
<style type="text/css">
	.st0{fill:#C4214C;}
	.st1{fill:#1D1D1B;}
	.st2{fill:#6FB74D;}
	.st3{fill:#C41F4B;}
	.st4{fill:#FFFFFF;}
</style>
<g id="Layer_2">
</g>
<g id="Layer_1">
	<g>
		<g>
			<path class="st1" d="M259.747,43.121H94.583c-4.828,0-8.757,3.929-8.757,8.757v37.976c0,4.829,3.929,8.758,8.757,8.758h165.164
				c4.828,0,8.757-3.929,8.757-8.758V51.878C268.504,47.05,264.576,43.121,259.747,43.121z M90.826,89.853V51.878
				c0-2.071,1.686-3.757,3.757-3.757h37.592v45.49H94.583C92.512,93.611,90.826,91.926,90.826,89.853z M263.504,89.853
				c0,2.072-1.686,3.758-3.757,3.758H137.175v-45.49h122.572c2.071,0,3.757,1.686,3.757,3.757V89.853z"/>
			<g>
				<g>
					<path class="st1" d="M123.072,69.356l-0.235-0.423c0-3.195-1.456-4.51-3.195-5.497c0.517-0.141,1.081-0.235,1.222-0.893
						c0.893-0.235,1.081-0.658,1.175-1.081c0.235-0.141,1.034-0.611,0.94-1.363c0.423-0.282,0.705-0.705,0.564-1.221
						c0.47-0.517,0.611-0.94,0.376-1.316c0.564-0.705,0.329-1.081,0.094-1.456c0.423-0.752,0.047-1.597-1.128-1.456
						c-0.47-0.705-1.503-0.517-1.644-0.517c-0.188-0.235-0.423-0.423-1.128-0.329c-0.47-0.423-0.987-0.329-1.55-0.141
						c-0.658-0.517-1.081-0.141-1.597,0.047c-0.799-0.235-0.94,0.094-1.316,0.235c-0.846-0.188-1.128,0.188-1.503,0.611h-0.47
						c-1.269,0.752-1.926,2.255-2.161,3.054c-0.235-0.799-0.846-2.302-2.161-3.054h-0.47c-0.423-0.423-0.658-0.799-1.503-0.611
						c-0.376-0.141-0.564-0.47-1.316-0.235c-0.329-0.094-0.611-0.329-0.94-0.329c-0.188,0-0.376,0.094-0.611,0.235
						c-0.564-0.188-1.081-0.282-1.55,0.141c-0.705-0.094-0.94,0.094-1.128,0.329c-0.141,0-1.175-0.141-1.644,0.517
						c-1.175-0.141-1.55,0.705-1.128,1.456c-0.235,0.376-0.517,0.752,0.094,1.456c-0.188,0.376-0.094,0.799,0.376,1.316
						c-0.141,0.564,0.141,0.94,0.564,1.268c-0.094,0.752,0.705,1.175,0.94,1.363c0.094,0.423,0.282,0.846,1.175,1.081
						c0.141,0.658,0.705,0.752,1.222,0.893c-1.738,0.987-3.195,2.302-3.195,5.497l-0.235,0.423c-1.973,1.175-3.759,4.98-0.987,8.081
						c0.188,0.987,0.47,1.644,0.752,2.443c0.423,3.101,3.054,4.557,3.759,4.745c1.034,0.752,2.114,1.503,3.571,2.02
						c1.41,1.41,2.913,1.973,4.416,1.973h0.047c1.503,0,3.007-0.517,4.416-1.973c1.456-0.517,2.584-1.222,3.571-2.02
						c0.705-0.188,3.336-1.644,3.759-4.745c0.282-0.752,0.564-1.456,0.752-2.443C126.831,74.337,125.045,70.531,123.072,69.356z
						 M121.568,68.84c-0.094,1.269-6.812-4.463-5.638-4.651C119.078,63.672,121.662,65.504,121.568,68.84z M118.609,75.229
						c-1.644,1.081-4.088,0.423-5.403-1.55c-1.316-1.926-1.034-4.416,0.658-5.497c1.691-1.081,4.135-0.376,5.403,1.55
						C120.582,71.659,120.3,74.149,118.609,75.229z M113.91,55.402c0.047,0.282,0.094,0.47,0.188,0.517
						c0.376-0.376,0.705-0.799,1.175-1.175c0,0.235-0.094,0.47,0.188,0.658c0.282-0.329,0.611-0.611,1.081-0.893
						c-0.188,0.376-0.047,0.517,0.094,0.658c0.329-0.282,0.658-0.611,1.316-0.846c-0.141,0.188-0.423,0.423-0.141,0.658
						c0.376-0.235,0.752-0.47,1.598-0.611c-0.188,0.235-0.564,0.423-0.329,0.658c0.423-0.188,0.94-0.282,1.503-0.376
						c-0.282,0.235-0.517,0.423-0.282,0.611c0.517-0.141,1.175-0.376,1.832-0.188l-0.423,0.423
						c-0.047,0.047,0.987,0.047,1.644,0.047c-0.282,0.376-0.517,0.705-0.658,1.268c0.047,0.047,0.376,0.047,0.705,0
						c-0.329,0.658-0.893,0.846-1.034,1.128c0.188,0.141,0.47,0.094,0.752,0c-0.188,0.47-0.705,0.799-1.081,1.175
						c0.094,0.047,0.235,0.094,0.658,0.047c-0.329,0.376-0.752,0.705-1.269,1.034c0.094,0.094,0.423,0.094,0.705,0.094
						c-0.47,0.47-1.034,0.705-1.597,0.986c0.282,0.188,0.47,0.141,0.705,0.141c-0.423,0.329-1.081,0.517-1.691,0.705
						c0.094,0.188,0.235,0.235,0.47,0.282c-0.658,0.376-1.597,0.188-1.879,0.376c0.094,0.188,0.235,0.329,0.47,0.423
						c-1.081,0.094-3.946,0-4.51-2.208c1.081-1.222,3.054-2.584,6.437-4.322c-2.631,0.893-4.98,2.067-7.047,3.665
						C111.138,59.255,112.783,56.483,113.91,55.402z M111.608,63.296c1.645,0,3.712,1.221,3.712,2.443
						c0,1.034-1.456,1.832-3.712,1.832c-2.161-0.047-3.665-1.081-3.665-2.067C107.943,64.658,109.729,63.249,111.608,63.296z
						 M103.104,62.403c0.235-0.047,0.376-0.094,0.47-0.282c-0.611-0.188-1.268-0.376-1.691-0.705c0.235,0,0.423,0.047,0.705-0.141
						c-0.564-0.282-1.128-0.517-1.597-0.986c0.282,0,0.611,0,0.705-0.094c-0.517-0.329-0.94-0.658-1.268-1.034
						c0.423,0.047,0.564,0,0.658-0.047c-0.376-0.376-0.893-0.705-1.081-1.175c0.282,0.094,0.564,0.141,0.752,0
						c-0.141-0.282-0.705-0.47-1.034-1.128c0.329,0.047,0.658,0.047,0.705,0c-0.141-0.564-0.376-0.893-0.658-1.268
						c0.658,0,1.691,0,1.644-0.047l-0.423-0.423c0.658-0.188,1.316,0.047,1.832,0.188c0.235-0.188,0-0.376-0.282-0.611
						c0.564,0.094,1.081,0.188,1.503,0.376c0.235-0.235-0.141-0.423-0.329-0.658c0.846,0.141,1.221,0.376,1.597,0.611
						c0.282-0.235,0-0.47-0.141-0.658c0.658,0.235,0.986,0.564,1.315,0.846c0.141-0.141,0.282-0.282,0.094-0.658
						c0.47,0.282,0.799,0.564,1.081,0.893c0.282-0.188,0.188-0.423,0.188-0.658c0.47,0.376,0.799,0.799,1.175,1.175
						c0.094-0.047,0.141-0.235,0.188-0.517c1.128,1.081,2.772,3.853,0.423,4.933c-2.02-1.597-4.416-2.772-7.047-3.665
						c3.383,1.738,5.356,3.101,6.437,4.322c-0.564,2.208-3.43,2.302-4.51,2.208c0.235-0.094,0.376-0.235,0.47-0.423
						C104.702,62.591,103.762,62.779,103.104,62.403z M107.286,64.094c1.128,0.188-5.544,5.92-5.638,4.651
						C101.554,65.41,104.138,63.578,107.286,64.094z M100.191,76.921c-1.644-1.315-2.208-5.074,0.846-6.765
						C102.869,69.685,101.648,77.578,100.191,76.921z M106.393,83.639c-0.94,0.564-3.148,0.329-4.745-1.926
						c-1.081-1.879-0.94-3.806-0.188-4.369c1.175-0.611,2.913,0.282,4.228,1.785C106.863,80.491,107.38,82.935,106.393,83.639z
						 M104.608,75.417c-1.691-1.081-1.973-3.571-0.658-5.497c1.269-1.926,3.712-2.631,5.403-1.55
						c1.691,1.081,1.973,3.571,0.658,5.497C108.695,75.84,106.252,76.498,104.608,75.417z M111.608,87.539
						c-2.02,0.094-3.994-1.644-3.994-2.208c0-0.94,2.49-1.597,4.135-1.55c1.644-0.047,3.806,0.517,3.806,1.315
						C115.602,85.847,113.581,87.586,111.608,87.539z M111.608,82.606c-2.255,0-4.087-1.645-4.087-3.665v-0.047
						c0-2.02,1.785-3.712,4.041-3.712c2.255,0,4.087,1.644,4.087,3.712C115.649,80.914,113.863,82.606,111.608,82.606z
						 M121.334,81.854c-1.738,2.349-4.087,2.443-4.98,1.785c-0.94-0.846-0.235-3.477,1.034-4.933
						c1.456-1.597,3.007-2.631,4.087-1.832C122.179,77.578,122.602,80.256,121.334,81.854z M122.884,76.827
						c-1.456,0.658-2.678-7.235-0.846-6.766C125.045,71.753,124.528,75.511,122.884,76.827z"/>
				</g>
			</g>
		</g>
		<g>
			<path class="st1" d="M153.85,73.91h-3.734v8.328h-4.688v-22.75h8.453c2.688,0,4.76,0.6,6.219,1.797
				c1.458,1.198,2.188,2.891,2.188,5.078c0,1.553-0.336,2.847-1.008,3.883c-0.672,1.037-1.69,1.862-3.055,2.477l4.922,9.297v0.219
				h-5.031L153.85,73.91z M150.116,70.113h3.781c1.177,0,2.088-0.299,2.734-0.898c0.646-0.599,0.969-1.424,0.969-2.477
				c0-1.072-0.305-1.916-0.914-2.531c-0.609-0.614-1.545-0.922-2.805-0.922h-3.766V70.113z"/>
			<path class="st1" d="M170.537,74.223v8.016h-4.688v-22.75h8.875c1.708,0,3.211,0.312,4.508,0.938s2.294,1.514,2.992,2.664
				c0.697,1.151,1.047,2.461,1.047,3.93c0,2.229-0.764,3.987-2.289,5.273c-1.526,1.287-3.639,1.93-6.336,1.93H170.537z
				 M170.537,70.426h4.188c1.239,0,2.185-0.291,2.836-0.875c0.65-0.583,0.977-1.416,0.977-2.5c0-1.114-0.328-2.016-0.984-2.703
				s-1.562-1.041-2.719-1.062h-4.297V70.426z"/>
			<path class="st1" d="M201.256,82.238H186.35V80.16l7.875-8.75c1.166-1.322,1.971-2.398,2.414-3.227
				c0.442-0.828,0.664-1.685,0.664-2.57c0-1.188-0.359-2.161-1.078-2.922c-0.719-0.76-1.678-1.141-2.875-1.141
				c-1.438,0-2.555,0.409-3.352,1.227c-0.797,0.818-1.195,1.956-1.195,3.414h-2.891c0-2.094,0.674-3.786,2.023-5.078
				c1.349-1.291,3.153-1.938,5.414-1.938c2.114,0,3.786,0.555,5.016,1.664c1.229,1.109,1.844,2.586,1.844,4.43
				c0,2.24-1.428,4.906-4.281,8l-6.094,6.609h11.422V82.238z"/>
			<path class="st1" d="M218.584,72.535c0,3.386-0.578,5.901-1.734,7.547c-1.156,1.646-2.964,2.469-5.422,2.469
				c-2.428,0-4.225-0.805-5.391-2.414c-1.167-1.609-1.771-4.013-1.812-7.211v-3.859c0-3.344,0.578-5.828,1.734-7.453
				s2.969-2.438,5.438-2.438c2.447,0,4.25,0.784,5.406,2.352c1.156,1.568,1.75,3.987,1.781,7.258V72.535z M215.694,68.582
				c0-2.447-0.344-4.231-1.031-5.352c-0.688-1.119-1.776-1.68-3.266-1.68c-1.479,0-2.558,0.558-3.234,1.672
				c-0.678,1.115-1.026,2.828-1.047,5.141v4.625c0,2.459,0.356,4.273,1.07,5.445c0.713,1.172,1.794,1.758,3.242,1.758
				c1.427,0,2.486-0.552,3.18-1.656c0.692-1.104,1.055-2.844,1.086-5.219V68.582z"/>
			<path class="st1" d="M234.491,74.598h3.156v2.359h-3.156v5.281h-2.906v-5.281h-10.359v-1.703l10.188-15.766h3.078V74.598z
				 M224.506,74.598h7.078V63.441l-0.344,0.625L224.506,74.598z"/>
			<path class="st1" d="M254.522,72.535c0,3.386-0.578,5.901-1.734,7.547c-1.156,1.646-2.964,2.469-5.422,2.469
				c-2.428,0-4.225-0.805-5.391-2.414c-1.167-1.609-1.771-4.013-1.812-7.211v-3.859c0-3.344,0.578-5.828,1.734-7.453
				s2.969-2.438,5.438-2.438c2.447,0,4.25,0.784,5.406,2.352c1.156,1.568,1.75,3.987,1.781,7.258V72.535z M251.631,68.582
				c0-2.447-0.344-4.231-1.031-5.352c-0.688-1.119-1.776-1.68-3.266-1.68c-1.479,0-2.558,0.558-3.234,1.672
				c-0.678,1.115-1.026,2.828-1.047,5.141v4.625c0,2.459,0.356,4.273,1.07,5.445c0.713,1.172,1.794,1.758,3.242,1.758
				c1.427,0,2.486-0.552,3.18-1.656c0.692-1.104,1.055-2.844,1.086-5.219V68.582z"/>
		</g>
	</g>
</g>
</svg>
