G04 EAGLE Gerber RS-274X export*
G75*
%MOMM*%
%FSLAX34Y34*%
%LPD*%
%INSolderpaste Top*%
%IPPOS*%
%AMOC8*
5,1,8,0,0,1.08239X$1,22.5*%
G01*
%ADD10R,0.830000X0.630000*%
%ADD11C,0.300000*%
%ADD12R,0.900000X0.800000*%
%ADD13R,2.000000X1.200000*%
%ADD14R,1.350000X0.600000*%
%ADD15R,4.600000X1.000000*%
%ADD16R,3.400000X1.600000*%
%ADD17R,0.600000X0.600000*%
%ADD18R,0.200000X0.650000*%
%ADD19R,0.650000X0.200000*%
%ADD20R,1.100000X1.200000*%
%ADD21R,0.300000X1.000000*%
%ADD22R,0.600000X1.000000*%
%ADD23R,1.524000X0.762000*%
%ADD24R,0.250000X0.637500*%
%ADD25R,0.500000X0.640000*%
%ADD26R,0.700000X0.700000*%
%ADD27R,1.200000X0.550000*%

G36*
X858340Y658631D02*
X858340Y658631D01*
X858341Y658631D01*
X859409Y658650D01*
X859416Y658655D01*
X859420Y658651D01*
X860457Y658907D01*
X860462Y658914D01*
X860468Y658911D01*
X861422Y659392D01*
X861426Y659399D01*
X861431Y659398D01*
X862255Y660079D01*
X862256Y660087D01*
X862262Y660087D01*
X862913Y660934D01*
X862913Y660942D01*
X862919Y660943D01*
X863366Y661914D01*
X863364Y661922D01*
X863369Y661924D01*
X863588Y662970D01*
X863585Y662977D01*
X863589Y662980D01*
X863589Y674980D01*
X863586Y674985D01*
X863589Y674988D01*
X863409Y676083D01*
X863403Y676089D01*
X863406Y676094D01*
X862987Y677122D01*
X862980Y677126D01*
X862982Y677131D01*
X862345Y678040D01*
X862337Y678043D01*
X862337Y678048D01*
X861514Y678792D01*
X861506Y678793D01*
X861505Y678799D01*
X860537Y679341D01*
X860528Y679340D01*
X860526Y679346D01*
X859462Y679659D01*
X859457Y679657D01*
X859453Y679657D01*
X859451Y679661D01*
X858343Y679729D01*
X858337Y679725D01*
X858333Y679729D01*
X857225Y679559D01*
X857219Y679553D01*
X857214Y679556D01*
X856172Y679144D01*
X856168Y679137D01*
X856163Y679139D01*
X855238Y678505D01*
X855236Y678497D01*
X855230Y678498D01*
X854470Y677675D01*
X854469Y677666D01*
X854463Y677666D01*
X853906Y676694D01*
X853907Y676686D01*
X853901Y676684D01*
X853574Y675612D01*
X853577Y675604D01*
X853572Y675601D01*
X853491Y674484D01*
X853492Y674481D01*
X853491Y674480D01*
X853491Y662480D01*
X853496Y662473D01*
X853492Y662469D01*
X853711Y661525D01*
X853717Y661519D01*
X853715Y661514D01*
X854139Y660642D01*
X854146Y660639D01*
X854144Y660633D01*
X854751Y659877D01*
X854759Y659875D01*
X854759Y659869D01*
X855519Y659268D01*
X855528Y659268D01*
X855529Y659262D01*
X856404Y658844D01*
X856412Y658846D01*
X856414Y658841D01*
X857360Y658629D01*
X857367Y658632D01*
X857371Y658627D01*
X858340Y658631D01*
G37*
G36*
X157300Y658631D02*
X157300Y658631D01*
X157301Y658631D01*
X158369Y658650D01*
X158376Y658655D01*
X158380Y658651D01*
X159417Y658907D01*
X159422Y658914D01*
X159428Y658911D01*
X160382Y659392D01*
X160386Y659399D01*
X160391Y659398D01*
X161215Y660079D01*
X161216Y660087D01*
X161222Y660087D01*
X161873Y660934D01*
X161873Y660942D01*
X161879Y660943D01*
X162326Y661914D01*
X162324Y661922D01*
X162329Y661924D01*
X162548Y662970D01*
X162545Y662977D01*
X162549Y662980D01*
X162549Y674980D01*
X162546Y674985D01*
X162549Y674988D01*
X162369Y676083D01*
X162363Y676089D01*
X162366Y676094D01*
X161947Y677122D01*
X161940Y677126D01*
X161942Y677131D01*
X161305Y678040D01*
X161297Y678043D01*
X161297Y678048D01*
X160474Y678792D01*
X160466Y678793D01*
X160465Y678799D01*
X159497Y679341D01*
X159488Y679340D01*
X159486Y679346D01*
X158422Y679659D01*
X158417Y679657D01*
X158413Y679657D01*
X158411Y679661D01*
X157303Y679729D01*
X157297Y679725D01*
X157293Y679729D01*
X156185Y679559D01*
X156179Y679553D01*
X156174Y679556D01*
X155132Y679144D01*
X155128Y679137D01*
X155123Y679139D01*
X154198Y678505D01*
X154196Y678497D01*
X154190Y678498D01*
X153430Y677675D01*
X153429Y677666D01*
X153423Y677666D01*
X152866Y676694D01*
X152867Y676686D01*
X152861Y676684D01*
X152534Y675612D01*
X152537Y675604D01*
X152532Y675601D01*
X152451Y674484D01*
X152452Y674481D01*
X152451Y674480D01*
X152451Y662480D01*
X152456Y662473D01*
X152452Y662469D01*
X152671Y661525D01*
X152677Y661519D01*
X152675Y661514D01*
X153099Y660642D01*
X153106Y660639D01*
X153104Y660633D01*
X153711Y659877D01*
X153719Y659875D01*
X153719Y659869D01*
X154479Y659268D01*
X154488Y659268D01*
X154489Y659262D01*
X155364Y658844D01*
X155372Y658846D01*
X155374Y658841D01*
X156320Y658629D01*
X156327Y658632D01*
X156331Y658627D01*
X157300Y658631D01*
G37*
G36*
X390980Y658631D02*
X390980Y658631D01*
X390981Y658631D01*
X392049Y658650D01*
X392056Y658655D01*
X392060Y658651D01*
X393097Y658907D01*
X393102Y658914D01*
X393108Y658911D01*
X394062Y659392D01*
X394066Y659399D01*
X394071Y659398D01*
X394895Y660079D01*
X394896Y660087D01*
X394902Y660087D01*
X395553Y660934D01*
X395553Y660942D01*
X395559Y660943D01*
X396006Y661914D01*
X396004Y661922D01*
X396009Y661924D01*
X396228Y662970D01*
X396225Y662977D01*
X396229Y662980D01*
X396229Y674980D01*
X396226Y674985D01*
X396229Y674988D01*
X396049Y676083D01*
X396043Y676089D01*
X396046Y676094D01*
X395627Y677122D01*
X395620Y677126D01*
X395622Y677131D01*
X394985Y678040D01*
X394977Y678043D01*
X394977Y678048D01*
X394154Y678792D01*
X394146Y678793D01*
X394145Y678799D01*
X393177Y679341D01*
X393168Y679340D01*
X393166Y679346D01*
X392102Y679659D01*
X392097Y679657D01*
X392093Y679657D01*
X392091Y679661D01*
X390983Y679729D01*
X390977Y679725D01*
X390973Y679729D01*
X389865Y679559D01*
X389859Y679553D01*
X389854Y679556D01*
X388812Y679144D01*
X388808Y679137D01*
X388803Y679139D01*
X387878Y678505D01*
X387876Y678497D01*
X387870Y678498D01*
X387110Y677675D01*
X387109Y677666D01*
X387103Y677666D01*
X386546Y676694D01*
X386547Y676686D01*
X386541Y676684D01*
X386214Y675612D01*
X386217Y675604D01*
X386212Y675601D01*
X386131Y674484D01*
X386132Y674481D01*
X386131Y674480D01*
X386131Y662480D01*
X386136Y662473D01*
X386132Y662469D01*
X386351Y661525D01*
X386357Y661519D01*
X386355Y661514D01*
X386779Y660642D01*
X386786Y660639D01*
X386784Y660633D01*
X387391Y659877D01*
X387399Y659875D01*
X387399Y659869D01*
X388159Y659268D01*
X388168Y659268D01*
X388169Y659262D01*
X389044Y658844D01*
X389052Y658846D01*
X389054Y658841D01*
X390000Y658629D01*
X390007Y658632D01*
X390011Y658627D01*
X390980Y658631D01*
G37*
G36*
X624660Y658631D02*
X624660Y658631D01*
X624661Y658631D01*
X625729Y658650D01*
X625736Y658655D01*
X625740Y658651D01*
X626777Y658907D01*
X626782Y658914D01*
X626788Y658911D01*
X627742Y659392D01*
X627746Y659399D01*
X627751Y659398D01*
X628575Y660079D01*
X628576Y660087D01*
X628582Y660087D01*
X629233Y660934D01*
X629233Y660942D01*
X629239Y660943D01*
X629686Y661914D01*
X629684Y661922D01*
X629689Y661924D01*
X629908Y662970D01*
X629905Y662977D01*
X629909Y662980D01*
X629909Y674980D01*
X629906Y674985D01*
X629909Y674988D01*
X629729Y676083D01*
X629723Y676089D01*
X629726Y676094D01*
X629307Y677122D01*
X629300Y677126D01*
X629302Y677131D01*
X628665Y678040D01*
X628657Y678043D01*
X628657Y678048D01*
X627834Y678792D01*
X627826Y678793D01*
X627825Y678799D01*
X626857Y679341D01*
X626848Y679340D01*
X626846Y679346D01*
X625782Y679659D01*
X625777Y679657D01*
X625773Y679657D01*
X625771Y679661D01*
X624663Y679729D01*
X624657Y679725D01*
X624653Y679729D01*
X623545Y679559D01*
X623539Y679553D01*
X623534Y679556D01*
X622492Y679144D01*
X622488Y679137D01*
X622483Y679139D01*
X621558Y678505D01*
X621556Y678497D01*
X621550Y678498D01*
X620790Y677675D01*
X620789Y677666D01*
X620783Y677666D01*
X620226Y676694D01*
X620227Y676686D01*
X620221Y676684D01*
X619894Y675612D01*
X619897Y675604D01*
X619892Y675601D01*
X619811Y674484D01*
X619812Y674481D01*
X619811Y674480D01*
X619811Y662480D01*
X619816Y662473D01*
X619812Y662469D01*
X620031Y661525D01*
X620037Y661519D01*
X620035Y661514D01*
X620459Y660642D01*
X620466Y660639D01*
X620464Y660633D01*
X621071Y659877D01*
X621079Y659875D01*
X621079Y659869D01*
X621839Y659268D01*
X621848Y659268D01*
X621849Y659262D01*
X622724Y658844D01*
X622732Y658846D01*
X622734Y658841D01*
X623680Y658629D01*
X623687Y658632D01*
X623691Y658627D01*
X624660Y658631D01*
G37*
G36*
X390980Y43951D02*
X390980Y43951D01*
X390981Y43951D01*
X392049Y43970D01*
X392056Y43975D01*
X392060Y43971D01*
X393097Y44227D01*
X393102Y44234D01*
X393108Y44231D01*
X394062Y44712D01*
X394066Y44719D01*
X394071Y44718D01*
X394895Y45399D01*
X394896Y45407D01*
X394902Y45407D01*
X395553Y46254D01*
X395553Y46262D01*
X395559Y46263D01*
X396006Y47234D01*
X396004Y47242D01*
X396009Y47244D01*
X396228Y48290D01*
X396225Y48297D01*
X396229Y48300D01*
X396229Y60300D01*
X396226Y60305D01*
X396229Y60308D01*
X396049Y61403D01*
X396043Y61409D01*
X396046Y61414D01*
X395627Y62442D01*
X395620Y62446D01*
X395622Y62451D01*
X394985Y63360D01*
X394977Y63363D01*
X394977Y63368D01*
X394154Y64112D01*
X394146Y64113D01*
X394145Y64119D01*
X393177Y64661D01*
X393168Y64660D01*
X393166Y64666D01*
X392102Y64979D01*
X392097Y64977D01*
X392093Y64977D01*
X392091Y64981D01*
X390983Y65049D01*
X390977Y65045D01*
X390973Y65049D01*
X389865Y64879D01*
X389859Y64873D01*
X389854Y64876D01*
X388812Y64464D01*
X388808Y64457D01*
X388803Y64459D01*
X387878Y63825D01*
X387876Y63817D01*
X387870Y63818D01*
X387110Y62995D01*
X387109Y62986D01*
X387103Y62986D01*
X386546Y62014D01*
X386547Y62006D01*
X386541Y62004D01*
X386214Y60932D01*
X386217Y60924D01*
X386212Y60921D01*
X386131Y59804D01*
X386132Y59801D01*
X386131Y59800D01*
X386131Y47800D01*
X386136Y47793D01*
X386132Y47789D01*
X386351Y46845D01*
X386357Y46839D01*
X386355Y46834D01*
X386779Y45962D01*
X386786Y45959D01*
X386784Y45953D01*
X387391Y45197D01*
X387399Y45195D01*
X387399Y45189D01*
X388159Y44588D01*
X388168Y44588D01*
X388169Y44582D01*
X389044Y44164D01*
X389052Y44166D01*
X389054Y44161D01*
X390000Y43949D01*
X390007Y43952D01*
X390011Y43947D01*
X390980Y43951D01*
G37*
G36*
X858340Y43951D02*
X858340Y43951D01*
X858341Y43951D01*
X859409Y43970D01*
X859416Y43975D01*
X859420Y43971D01*
X860457Y44227D01*
X860462Y44234D01*
X860468Y44231D01*
X861422Y44712D01*
X861426Y44719D01*
X861431Y44718D01*
X862255Y45399D01*
X862256Y45407D01*
X862262Y45407D01*
X862913Y46254D01*
X862913Y46262D01*
X862919Y46263D01*
X863366Y47234D01*
X863364Y47242D01*
X863369Y47244D01*
X863588Y48290D01*
X863585Y48297D01*
X863589Y48300D01*
X863589Y60300D01*
X863586Y60305D01*
X863589Y60308D01*
X863409Y61403D01*
X863403Y61409D01*
X863406Y61414D01*
X862987Y62442D01*
X862980Y62446D01*
X862982Y62451D01*
X862345Y63360D01*
X862337Y63363D01*
X862337Y63368D01*
X861514Y64112D01*
X861506Y64113D01*
X861505Y64119D01*
X860537Y64661D01*
X860528Y64660D01*
X860526Y64666D01*
X859462Y64979D01*
X859457Y64977D01*
X859453Y64977D01*
X859451Y64981D01*
X858343Y65049D01*
X858337Y65045D01*
X858333Y65049D01*
X857225Y64879D01*
X857219Y64873D01*
X857214Y64876D01*
X856172Y64464D01*
X856168Y64457D01*
X856163Y64459D01*
X855238Y63825D01*
X855236Y63817D01*
X855230Y63818D01*
X854470Y62995D01*
X854469Y62986D01*
X854463Y62986D01*
X853906Y62014D01*
X853907Y62006D01*
X853901Y62004D01*
X853574Y60932D01*
X853577Y60924D01*
X853572Y60921D01*
X853491Y59804D01*
X853492Y59801D01*
X853491Y59800D01*
X853491Y47800D01*
X853496Y47793D01*
X853492Y47789D01*
X853711Y46845D01*
X853717Y46839D01*
X853715Y46834D01*
X854139Y45962D01*
X854146Y45959D01*
X854144Y45953D01*
X854751Y45197D01*
X854759Y45195D01*
X854759Y45189D01*
X855519Y44588D01*
X855528Y44588D01*
X855529Y44582D01*
X856404Y44164D01*
X856412Y44166D01*
X856414Y44161D01*
X857360Y43949D01*
X857367Y43952D01*
X857371Y43947D01*
X858340Y43951D01*
G37*
G36*
X624660Y43951D02*
X624660Y43951D01*
X624661Y43951D01*
X625729Y43970D01*
X625736Y43975D01*
X625740Y43971D01*
X626777Y44227D01*
X626782Y44234D01*
X626788Y44231D01*
X627742Y44712D01*
X627746Y44719D01*
X627751Y44718D01*
X628575Y45399D01*
X628576Y45407D01*
X628582Y45407D01*
X629233Y46254D01*
X629233Y46262D01*
X629239Y46263D01*
X629686Y47234D01*
X629684Y47242D01*
X629689Y47244D01*
X629908Y48290D01*
X629905Y48297D01*
X629909Y48300D01*
X629909Y60300D01*
X629906Y60305D01*
X629909Y60308D01*
X629729Y61403D01*
X629723Y61409D01*
X629726Y61414D01*
X629307Y62442D01*
X629300Y62446D01*
X629302Y62451D01*
X628665Y63360D01*
X628657Y63363D01*
X628657Y63368D01*
X627834Y64112D01*
X627826Y64113D01*
X627825Y64119D01*
X626857Y64661D01*
X626848Y64660D01*
X626846Y64666D01*
X625782Y64979D01*
X625777Y64977D01*
X625773Y64977D01*
X625771Y64981D01*
X624663Y65049D01*
X624657Y65045D01*
X624653Y65049D01*
X623545Y64879D01*
X623539Y64873D01*
X623534Y64876D01*
X622492Y64464D01*
X622488Y64457D01*
X622483Y64459D01*
X621558Y63825D01*
X621556Y63817D01*
X621550Y63818D01*
X620790Y62995D01*
X620789Y62986D01*
X620783Y62986D01*
X620226Y62014D01*
X620227Y62006D01*
X620221Y62004D01*
X619894Y60932D01*
X619897Y60924D01*
X619892Y60921D01*
X619811Y59804D01*
X619812Y59801D01*
X619811Y59800D01*
X619811Y47800D01*
X619816Y47793D01*
X619812Y47789D01*
X620031Y46845D01*
X620037Y46839D01*
X620035Y46834D01*
X620459Y45962D01*
X620466Y45959D01*
X620464Y45953D01*
X621071Y45197D01*
X621079Y45195D01*
X621079Y45189D01*
X621839Y44588D01*
X621848Y44588D01*
X621849Y44582D01*
X622724Y44164D01*
X622732Y44166D01*
X622734Y44161D01*
X623680Y43949D01*
X623687Y43952D01*
X623691Y43947D01*
X624660Y43951D01*
G37*
G36*
X157300Y43951D02*
X157300Y43951D01*
X157301Y43951D01*
X158369Y43970D01*
X158376Y43975D01*
X158380Y43971D01*
X159417Y44227D01*
X159422Y44234D01*
X159428Y44231D01*
X160382Y44712D01*
X160386Y44719D01*
X160391Y44718D01*
X161215Y45399D01*
X161216Y45407D01*
X161222Y45407D01*
X161873Y46254D01*
X161873Y46262D01*
X161879Y46263D01*
X162326Y47234D01*
X162324Y47242D01*
X162329Y47244D01*
X162548Y48290D01*
X162545Y48297D01*
X162549Y48300D01*
X162549Y60300D01*
X162546Y60305D01*
X162549Y60308D01*
X162369Y61403D01*
X162363Y61409D01*
X162366Y61414D01*
X161947Y62442D01*
X161940Y62446D01*
X161942Y62451D01*
X161305Y63360D01*
X161297Y63363D01*
X161297Y63368D01*
X160474Y64112D01*
X160466Y64113D01*
X160465Y64119D01*
X159497Y64661D01*
X159488Y64660D01*
X159486Y64666D01*
X158422Y64979D01*
X158417Y64977D01*
X158413Y64977D01*
X158411Y64981D01*
X157303Y65049D01*
X157297Y65045D01*
X157293Y65049D01*
X156185Y64879D01*
X156179Y64873D01*
X156174Y64876D01*
X155132Y64464D01*
X155128Y64457D01*
X155123Y64459D01*
X154198Y63825D01*
X154196Y63817D01*
X154190Y63818D01*
X153430Y62995D01*
X153429Y62986D01*
X153423Y62986D01*
X152866Y62014D01*
X152867Y62006D01*
X152861Y62004D01*
X152534Y60932D01*
X152537Y60924D01*
X152532Y60921D01*
X152451Y59804D01*
X152452Y59801D01*
X152451Y59800D01*
X152451Y47800D01*
X152456Y47793D01*
X152452Y47789D01*
X152671Y46845D01*
X152677Y46839D01*
X152675Y46834D01*
X153099Y45962D01*
X153106Y45959D01*
X153104Y45953D01*
X153711Y45197D01*
X153719Y45195D01*
X153719Y45189D01*
X154479Y44588D01*
X154488Y44588D01*
X154489Y44582D01*
X155364Y44164D01*
X155372Y44166D01*
X155374Y44161D01*
X156320Y43949D01*
X156327Y43952D01*
X156331Y43947D01*
X157300Y43951D01*
G37*
G36*
X305561Y658640D02*
X305561Y658640D01*
X305568Y658645D01*
X305572Y658641D01*
X306624Y658891D01*
X306629Y658897D01*
X306634Y658894D01*
X307604Y659371D01*
X307607Y659379D01*
X307613Y659377D01*
X308452Y660058D01*
X308454Y660066D01*
X308460Y660066D01*
X309126Y660917D01*
X309127Y660925D01*
X309132Y660926D01*
X309593Y661903D01*
X309591Y661911D01*
X309597Y661914D01*
X309828Y662969D01*
X309825Y662977D01*
X309829Y662980D01*
X309829Y674980D01*
X309825Y674985D01*
X309829Y674988D01*
X309636Y676094D01*
X309630Y676099D01*
X309633Y676104D01*
X309200Y677139D01*
X309193Y677143D01*
X309195Y677148D01*
X308542Y678061D01*
X308534Y678063D01*
X308535Y678069D01*
X307696Y678813D01*
X307687Y678814D01*
X307687Y678819D01*
X306703Y679358D01*
X306695Y679357D01*
X306693Y679362D01*
X305614Y679669D01*
X305606Y679666D01*
X305603Y679671D01*
X304483Y679729D01*
X304478Y679726D01*
X304475Y679729D01*
X303429Y679611D01*
X303423Y679605D01*
X303418Y679609D01*
X302424Y679261D01*
X302420Y679254D01*
X302415Y679256D01*
X301523Y678696D01*
X301521Y678689D01*
X301515Y678689D01*
X300771Y677945D01*
X300769Y677937D01*
X300764Y677937D01*
X300204Y677045D01*
X300204Y677037D01*
X300199Y677036D01*
X299851Y676042D01*
X299854Y676034D01*
X299849Y676031D01*
X299731Y674986D01*
X299733Y674982D01*
X299731Y674980D01*
X299731Y662980D01*
X299734Y662975D01*
X299731Y662972D01*
X299889Y661976D01*
X299895Y661970D01*
X299892Y661965D01*
X300267Y661029D01*
X300274Y661025D01*
X300272Y661019D01*
X300846Y660190D01*
X300854Y660187D01*
X300853Y660182D01*
X301597Y659501D01*
X301606Y659500D01*
X301606Y659494D01*
X302483Y658996D01*
X302492Y658997D01*
X302494Y658992D01*
X303459Y658701D01*
X303467Y658704D01*
X303470Y658699D01*
X304477Y658631D01*
X304479Y658632D01*
X304480Y658631D01*
X305561Y658640D01*
G37*
G36*
X772921Y658640D02*
X772921Y658640D01*
X772928Y658645D01*
X772932Y658641D01*
X773984Y658891D01*
X773989Y658897D01*
X773994Y658894D01*
X774964Y659371D01*
X774967Y659379D01*
X774973Y659377D01*
X775812Y660058D01*
X775814Y660066D01*
X775820Y660066D01*
X776486Y660917D01*
X776487Y660925D01*
X776492Y660926D01*
X776953Y661903D01*
X776951Y661911D01*
X776957Y661914D01*
X777188Y662969D01*
X777185Y662977D01*
X777189Y662980D01*
X777189Y674980D01*
X777185Y674985D01*
X777189Y674988D01*
X776996Y676094D01*
X776990Y676099D01*
X776993Y676104D01*
X776560Y677139D01*
X776553Y677143D01*
X776555Y677148D01*
X775902Y678061D01*
X775894Y678063D01*
X775895Y678069D01*
X775056Y678813D01*
X775047Y678814D01*
X775047Y678819D01*
X774063Y679358D01*
X774055Y679357D01*
X774053Y679362D01*
X772974Y679669D01*
X772966Y679666D01*
X772963Y679671D01*
X771843Y679729D01*
X771838Y679726D01*
X771835Y679729D01*
X770789Y679611D01*
X770783Y679605D01*
X770778Y679609D01*
X769784Y679261D01*
X769780Y679254D01*
X769775Y679256D01*
X768883Y678696D01*
X768881Y678689D01*
X768875Y678689D01*
X768131Y677945D01*
X768129Y677937D01*
X768124Y677937D01*
X767564Y677045D01*
X767564Y677037D01*
X767559Y677036D01*
X767211Y676042D01*
X767214Y676034D01*
X767209Y676031D01*
X767091Y674986D01*
X767093Y674982D01*
X767091Y674980D01*
X767091Y662980D01*
X767094Y662975D01*
X767091Y662972D01*
X767249Y661976D01*
X767255Y661970D01*
X767252Y661965D01*
X767627Y661029D01*
X767634Y661025D01*
X767632Y661019D01*
X768206Y660190D01*
X768214Y660187D01*
X768213Y660182D01*
X768957Y659501D01*
X768966Y659500D01*
X768966Y659494D01*
X769843Y658996D01*
X769852Y658997D01*
X769854Y658992D01*
X770819Y658701D01*
X770827Y658704D01*
X770830Y658699D01*
X771837Y658631D01*
X771839Y658632D01*
X771840Y658631D01*
X772921Y658640D01*
G37*
G36*
X539241Y658640D02*
X539241Y658640D01*
X539248Y658645D01*
X539252Y658641D01*
X540304Y658891D01*
X540309Y658897D01*
X540314Y658894D01*
X541284Y659371D01*
X541287Y659379D01*
X541293Y659377D01*
X542132Y660058D01*
X542134Y660066D01*
X542140Y660066D01*
X542806Y660917D01*
X542807Y660925D01*
X542812Y660926D01*
X543273Y661903D01*
X543271Y661911D01*
X543277Y661914D01*
X543508Y662969D01*
X543505Y662977D01*
X543509Y662980D01*
X543509Y674980D01*
X543505Y674985D01*
X543509Y674988D01*
X543316Y676094D01*
X543310Y676099D01*
X543313Y676104D01*
X542880Y677139D01*
X542873Y677143D01*
X542875Y677148D01*
X542222Y678061D01*
X542214Y678063D01*
X542215Y678069D01*
X541376Y678813D01*
X541367Y678814D01*
X541367Y678819D01*
X540383Y679358D01*
X540375Y679357D01*
X540373Y679362D01*
X539294Y679669D01*
X539286Y679666D01*
X539283Y679671D01*
X538163Y679729D01*
X538158Y679726D01*
X538155Y679729D01*
X537109Y679611D01*
X537103Y679605D01*
X537098Y679609D01*
X536104Y679261D01*
X536100Y679254D01*
X536095Y679256D01*
X535203Y678696D01*
X535201Y678689D01*
X535195Y678689D01*
X534451Y677945D01*
X534449Y677937D01*
X534444Y677937D01*
X533884Y677045D01*
X533884Y677037D01*
X533879Y677036D01*
X533531Y676042D01*
X533534Y676034D01*
X533529Y676031D01*
X533411Y674986D01*
X533413Y674982D01*
X533411Y674980D01*
X533411Y662980D01*
X533414Y662975D01*
X533411Y662972D01*
X533569Y661976D01*
X533575Y661970D01*
X533572Y661965D01*
X533947Y661029D01*
X533954Y661025D01*
X533952Y661019D01*
X534526Y660190D01*
X534534Y660187D01*
X534533Y660182D01*
X535277Y659501D01*
X535286Y659500D01*
X535286Y659494D01*
X536163Y658996D01*
X536172Y658997D01*
X536174Y658992D01*
X537139Y658701D01*
X537147Y658704D01*
X537150Y658699D01*
X538157Y658631D01*
X538159Y658632D01*
X538160Y658631D01*
X539241Y658640D01*
G37*
G36*
X71881Y658640D02*
X71881Y658640D01*
X71888Y658645D01*
X71892Y658641D01*
X72944Y658891D01*
X72949Y658897D01*
X72954Y658894D01*
X73924Y659371D01*
X73927Y659379D01*
X73933Y659377D01*
X74772Y660058D01*
X74774Y660066D01*
X74780Y660066D01*
X75446Y660917D01*
X75447Y660925D01*
X75452Y660926D01*
X75913Y661903D01*
X75911Y661911D01*
X75917Y661914D01*
X76148Y662969D01*
X76145Y662977D01*
X76149Y662980D01*
X76149Y674980D01*
X76145Y674985D01*
X76149Y674988D01*
X75956Y676094D01*
X75950Y676099D01*
X75953Y676104D01*
X75520Y677139D01*
X75513Y677143D01*
X75515Y677148D01*
X74862Y678061D01*
X74854Y678063D01*
X74855Y678069D01*
X74016Y678813D01*
X74007Y678814D01*
X74007Y678819D01*
X73023Y679358D01*
X73015Y679357D01*
X73013Y679362D01*
X71934Y679669D01*
X71926Y679666D01*
X71923Y679671D01*
X70803Y679729D01*
X70798Y679726D01*
X70795Y679729D01*
X69749Y679611D01*
X69743Y679605D01*
X69738Y679609D01*
X68744Y679261D01*
X68740Y679254D01*
X68735Y679256D01*
X67843Y678696D01*
X67841Y678689D01*
X67835Y678689D01*
X67091Y677945D01*
X67089Y677937D01*
X67084Y677937D01*
X66524Y677045D01*
X66524Y677037D01*
X66519Y677036D01*
X66171Y676042D01*
X66174Y676034D01*
X66169Y676031D01*
X66051Y674986D01*
X66053Y674982D01*
X66051Y674980D01*
X66051Y662980D01*
X66054Y662975D01*
X66051Y662972D01*
X66209Y661976D01*
X66215Y661970D01*
X66212Y661965D01*
X66587Y661029D01*
X66594Y661025D01*
X66592Y661019D01*
X67166Y660190D01*
X67174Y660187D01*
X67173Y660182D01*
X67917Y659501D01*
X67926Y659500D01*
X67926Y659494D01*
X68803Y658996D01*
X68812Y658997D01*
X68814Y658992D01*
X69779Y658701D01*
X69787Y658704D01*
X69790Y658699D01*
X70797Y658631D01*
X70799Y658632D01*
X70800Y658631D01*
X71881Y658640D01*
G37*
G36*
X71881Y43960D02*
X71881Y43960D01*
X71888Y43965D01*
X71892Y43961D01*
X72944Y44211D01*
X72949Y44217D01*
X72954Y44214D01*
X73924Y44691D01*
X73927Y44699D01*
X73933Y44697D01*
X74772Y45378D01*
X74774Y45386D01*
X74780Y45386D01*
X75446Y46237D01*
X75447Y46245D01*
X75452Y46246D01*
X75913Y47223D01*
X75911Y47231D01*
X75917Y47234D01*
X76148Y48289D01*
X76145Y48297D01*
X76149Y48300D01*
X76149Y60300D01*
X76145Y60305D01*
X76149Y60308D01*
X75956Y61414D01*
X75950Y61419D01*
X75953Y61424D01*
X75520Y62459D01*
X75513Y62463D01*
X75515Y62468D01*
X74862Y63381D01*
X74854Y63383D01*
X74855Y63389D01*
X74016Y64133D01*
X74007Y64134D01*
X74007Y64139D01*
X73023Y64678D01*
X73015Y64677D01*
X73013Y64682D01*
X71934Y64989D01*
X71926Y64986D01*
X71923Y64991D01*
X70803Y65049D01*
X70798Y65046D01*
X70795Y65049D01*
X69749Y64931D01*
X69743Y64925D01*
X69738Y64929D01*
X68744Y64581D01*
X68740Y64574D01*
X68735Y64576D01*
X67843Y64016D01*
X67841Y64009D01*
X67835Y64009D01*
X67091Y63265D01*
X67089Y63257D01*
X67084Y63257D01*
X66524Y62365D01*
X66524Y62357D01*
X66519Y62356D01*
X66171Y61362D01*
X66174Y61354D01*
X66169Y61351D01*
X66051Y60306D01*
X66053Y60302D01*
X66051Y60300D01*
X66051Y48300D01*
X66054Y48295D01*
X66051Y48292D01*
X66209Y47296D01*
X66215Y47290D01*
X66212Y47285D01*
X66587Y46349D01*
X66594Y46345D01*
X66592Y46339D01*
X67166Y45510D01*
X67174Y45507D01*
X67173Y45502D01*
X67917Y44821D01*
X67926Y44820D01*
X67926Y44814D01*
X68803Y44316D01*
X68812Y44317D01*
X68814Y44312D01*
X69779Y44021D01*
X69787Y44024D01*
X69790Y44019D01*
X70797Y43951D01*
X70799Y43952D01*
X70800Y43951D01*
X71881Y43960D01*
G37*
G36*
X772921Y43960D02*
X772921Y43960D01*
X772928Y43965D01*
X772932Y43961D01*
X773984Y44211D01*
X773989Y44217D01*
X773994Y44214D01*
X774964Y44691D01*
X774967Y44699D01*
X774973Y44697D01*
X775812Y45378D01*
X775814Y45386D01*
X775820Y45386D01*
X776486Y46237D01*
X776487Y46245D01*
X776492Y46246D01*
X776953Y47223D01*
X776951Y47231D01*
X776957Y47234D01*
X777188Y48289D01*
X777185Y48297D01*
X777189Y48300D01*
X777189Y60300D01*
X777185Y60305D01*
X777189Y60308D01*
X776996Y61414D01*
X776990Y61419D01*
X776993Y61424D01*
X776560Y62459D01*
X776553Y62463D01*
X776555Y62468D01*
X775902Y63381D01*
X775894Y63383D01*
X775895Y63389D01*
X775056Y64133D01*
X775047Y64134D01*
X775047Y64139D01*
X774063Y64678D01*
X774055Y64677D01*
X774053Y64682D01*
X772974Y64989D01*
X772966Y64986D01*
X772963Y64991D01*
X771843Y65049D01*
X771838Y65046D01*
X771835Y65049D01*
X770789Y64931D01*
X770783Y64925D01*
X770778Y64929D01*
X769784Y64581D01*
X769780Y64574D01*
X769775Y64576D01*
X768883Y64016D01*
X768881Y64009D01*
X768875Y64009D01*
X768131Y63265D01*
X768129Y63257D01*
X768124Y63257D01*
X767564Y62365D01*
X767564Y62357D01*
X767559Y62356D01*
X767211Y61362D01*
X767214Y61354D01*
X767209Y61351D01*
X767091Y60306D01*
X767093Y60302D01*
X767091Y60300D01*
X767091Y48300D01*
X767094Y48295D01*
X767091Y48292D01*
X767249Y47296D01*
X767255Y47290D01*
X767252Y47285D01*
X767627Y46349D01*
X767634Y46345D01*
X767632Y46339D01*
X768206Y45510D01*
X768214Y45507D01*
X768213Y45502D01*
X768957Y44821D01*
X768966Y44820D01*
X768966Y44814D01*
X769843Y44316D01*
X769852Y44317D01*
X769854Y44312D01*
X770819Y44021D01*
X770827Y44024D01*
X770830Y44019D01*
X771837Y43951D01*
X771839Y43952D01*
X771840Y43951D01*
X772921Y43960D01*
G37*
G36*
X305561Y43960D02*
X305561Y43960D01*
X305568Y43965D01*
X305572Y43961D01*
X306624Y44211D01*
X306629Y44217D01*
X306634Y44214D01*
X307604Y44691D01*
X307607Y44699D01*
X307613Y44697D01*
X308452Y45378D01*
X308454Y45386D01*
X308460Y45386D01*
X309126Y46237D01*
X309127Y46245D01*
X309132Y46246D01*
X309593Y47223D01*
X309591Y47231D01*
X309597Y47234D01*
X309828Y48289D01*
X309825Y48297D01*
X309829Y48300D01*
X309829Y60300D01*
X309825Y60305D01*
X309829Y60308D01*
X309636Y61414D01*
X309630Y61419D01*
X309633Y61424D01*
X309200Y62459D01*
X309193Y62463D01*
X309195Y62468D01*
X308542Y63381D01*
X308534Y63383D01*
X308535Y63389D01*
X307696Y64133D01*
X307687Y64134D01*
X307687Y64139D01*
X306703Y64678D01*
X306695Y64677D01*
X306693Y64682D01*
X305614Y64989D01*
X305606Y64986D01*
X305603Y64991D01*
X304483Y65049D01*
X304478Y65046D01*
X304475Y65049D01*
X303429Y64931D01*
X303423Y64925D01*
X303418Y64929D01*
X302424Y64581D01*
X302420Y64574D01*
X302415Y64576D01*
X301523Y64016D01*
X301521Y64009D01*
X301515Y64009D01*
X300771Y63265D01*
X300769Y63257D01*
X300764Y63257D01*
X300204Y62365D01*
X300204Y62357D01*
X300199Y62356D01*
X299851Y61362D01*
X299854Y61354D01*
X299849Y61351D01*
X299731Y60306D01*
X299733Y60302D01*
X299731Y60300D01*
X299731Y48300D01*
X299734Y48295D01*
X299731Y48292D01*
X299889Y47296D01*
X299895Y47290D01*
X299892Y47285D01*
X300267Y46349D01*
X300274Y46345D01*
X300272Y46339D01*
X300846Y45510D01*
X300854Y45507D01*
X300853Y45502D01*
X301597Y44821D01*
X301606Y44820D01*
X301606Y44814D01*
X302483Y44316D01*
X302492Y44317D01*
X302494Y44312D01*
X303459Y44021D01*
X303467Y44024D01*
X303470Y44019D01*
X304477Y43951D01*
X304479Y43952D01*
X304480Y43951D01*
X305561Y43960D01*
G37*
G36*
X539241Y43960D02*
X539241Y43960D01*
X539248Y43965D01*
X539252Y43961D01*
X540304Y44211D01*
X540309Y44217D01*
X540314Y44214D01*
X541284Y44691D01*
X541287Y44699D01*
X541293Y44697D01*
X542132Y45378D01*
X542134Y45386D01*
X542140Y45386D01*
X542806Y46237D01*
X542807Y46245D01*
X542812Y46246D01*
X543273Y47223D01*
X543271Y47231D01*
X543277Y47234D01*
X543508Y48289D01*
X543505Y48297D01*
X543509Y48300D01*
X543509Y60300D01*
X543505Y60305D01*
X543509Y60308D01*
X543316Y61414D01*
X543310Y61419D01*
X543313Y61424D01*
X542880Y62459D01*
X542873Y62463D01*
X542875Y62468D01*
X542222Y63381D01*
X542214Y63383D01*
X542215Y63389D01*
X541376Y64133D01*
X541367Y64134D01*
X541367Y64139D01*
X540383Y64678D01*
X540375Y64677D01*
X540373Y64682D01*
X539294Y64989D01*
X539286Y64986D01*
X539283Y64991D01*
X538163Y65049D01*
X538158Y65046D01*
X538155Y65049D01*
X537109Y64931D01*
X537103Y64925D01*
X537098Y64929D01*
X536104Y64581D01*
X536100Y64574D01*
X536095Y64576D01*
X535203Y64016D01*
X535201Y64009D01*
X535195Y64009D01*
X534451Y63265D01*
X534449Y63257D01*
X534444Y63257D01*
X533884Y62365D01*
X533884Y62357D01*
X533879Y62356D01*
X533531Y61362D01*
X533534Y61354D01*
X533529Y61351D01*
X533411Y60306D01*
X533413Y60302D01*
X533411Y60300D01*
X533411Y48300D01*
X533414Y48295D01*
X533411Y48292D01*
X533569Y47296D01*
X533575Y47290D01*
X533572Y47285D01*
X533947Y46349D01*
X533954Y46345D01*
X533952Y46339D01*
X534526Y45510D01*
X534534Y45507D01*
X534533Y45502D01*
X535277Y44821D01*
X535286Y44820D01*
X535286Y44814D01*
X536163Y44316D01*
X536172Y44317D01*
X536174Y44312D01*
X537139Y44021D01*
X537147Y44024D01*
X537150Y44019D01*
X538157Y43951D01*
X538159Y43952D01*
X538160Y43951D01*
X539241Y43960D01*
G37*
G36*
X625164Y619135D02*
X625164Y619135D01*
X625167Y619131D01*
X626243Y619286D01*
X626248Y619292D01*
X626253Y619289D01*
X627267Y619679D01*
X627271Y619686D01*
X627277Y619685D01*
X628179Y620291D01*
X628181Y620299D01*
X628187Y620298D01*
X628931Y621090D01*
X628932Y621098D01*
X628938Y621098D01*
X629487Y622036D01*
X629486Y622044D01*
X629492Y622046D01*
X629819Y623082D01*
X629816Y623090D01*
X629821Y623093D01*
X629909Y624176D01*
X629907Y624179D01*
X629909Y624180D01*
X629909Y630180D01*
X629906Y630184D01*
X629909Y630186D01*
X629759Y631319D01*
X629753Y631325D01*
X629756Y631330D01*
X629358Y632400D01*
X629351Y632404D01*
X629353Y632410D01*
X628726Y633365D01*
X628718Y633368D01*
X628719Y633373D01*
X627896Y634165D01*
X627888Y634166D01*
X627887Y634172D01*
X626908Y634761D01*
X626900Y634760D01*
X626898Y634765D01*
X625813Y635121D01*
X625805Y635119D01*
X625802Y635123D01*
X624665Y635229D01*
X624656Y635224D01*
X624651Y635228D01*
X623514Y635021D01*
X623508Y635015D01*
X623503Y635018D01*
X622441Y634563D01*
X622437Y634556D01*
X622431Y634558D01*
X621496Y633878D01*
X621494Y633870D01*
X621488Y633871D01*
X620728Y633000D01*
X620728Y632992D01*
X620722Y632991D01*
X620175Y631972D01*
X620176Y631964D01*
X620171Y631962D01*
X620167Y631949D01*
X620154Y631900D01*
X620153Y631900D01*
X620154Y631900D01*
X620140Y631851D01*
X620126Y631801D01*
X620113Y631752D01*
X620099Y631703D01*
X620086Y631654D01*
X620072Y631604D01*
X620059Y631555D01*
X620045Y631506D01*
X620031Y631457D01*
X620018Y631407D01*
X620004Y631358D01*
X619991Y631309D01*
X619977Y631260D01*
X619964Y631210D01*
X619950Y631161D01*
X619937Y631112D01*
X619936Y631112D01*
X619923Y631063D01*
X619909Y631013D01*
X619864Y630848D01*
X619867Y630840D01*
X619862Y630837D01*
X619811Y629682D01*
X619812Y629681D01*
X619811Y629680D01*
X619811Y623680D01*
X619815Y623674D01*
X619812Y623671D01*
X620024Y622590D01*
X620030Y622585D01*
X620027Y622580D01*
X620474Y621574D01*
X620481Y621570D01*
X620479Y621564D01*
X621139Y620683D01*
X621147Y620680D01*
X621147Y620675D01*
X621986Y619962D01*
X621994Y619962D01*
X621995Y619956D01*
X622972Y619448D01*
X622980Y619449D01*
X622982Y619444D01*
X624047Y619166D01*
X624055Y619169D01*
X624058Y619165D01*
X625159Y619131D01*
X625164Y619135D01*
G37*
G36*
X858844Y619135D02*
X858844Y619135D01*
X858847Y619131D01*
X859923Y619286D01*
X859928Y619292D01*
X859933Y619289D01*
X860947Y619679D01*
X860951Y619686D01*
X860957Y619685D01*
X861859Y620291D01*
X861861Y620299D01*
X861867Y620298D01*
X862611Y621090D01*
X862612Y621098D01*
X862618Y621098D01*
X863167Y622036D01*
X863166Y622044D01*
X863172Y622046D01*
X863499Y623082D01*
X863496Y623090D01*
X863501Y623093D01*
X863589Y624176D01*
X863587Y624179D01*
X863589Y624180D01*
X863589Y630180D01*
X863586Y630184D01*
X863589Y630186D01*
X863439Y631319D01*
X863433Y631325D01*
X863436Y631330D01*
X863038Y632400D01*
X863031Y632404D01*
X863033Y632410D01*
X862406Y633365D01*
X862398Y633368D01*
X862399Y633373D01*
X861576Y634165D01*
X861568Y634166D01*
X861567Y634172D01*
X860588Y634761D01*
X860580Y634760D01*
X860578Y634765D01*
X859493Y635121D01*
X859485Y635119D01*
X859482Y635123D01*
X858345Y635229D01*
X858336Y635224D01*
X858331Y635228D01*
X857194Y635021D01*
X857188Y635015D01*
X857183Y635018D01*
X856121Y634563D01*
X856117Y634556D01*
X856111Y634558D01*
X855176Y633878D01*
X855174Y633870D01*
X855168Y633871D01*
X854408Y633000D01*
X854408Y632992D01*
X854402Y632991D01*
X853855Y631972D01*
X853856Y631964D01*
X853851Y631962D01*
X853847Y631949D01*
X853834Y631900D01*
X853833Y631900D01*
X853834Y631900D01*
X853820Y631851D01*
X853806Y631801D01*
X853793Y631752D01*
X853779Y631703D01*
X853766Y631654D01*
X853752Y631604D01*
X853739Y631555D01*
X853725Y631506D01*
X853711Y631457D01*
X853698Y631407D01*
X853684Y631358D01*
X853671Y631309D01*
X853657Y631260D01*
X853644Y631210D01*
X853630Y631161D01*
X853617Y631112D01*
X853616Y631112D01*
X853603Y631063D01*
X853589Y631013D01*
X853544Y630848D01*
X853547Y630840D01*
X853542Y630837D01*
X853491Y629682D01*
X853492Y629681D01*
X853491Y629680D01*
X853491Y623680D01*
X853495Y623674D01*
X853492Y623671D01*
X853704Y622590D01*
X853710Y622585D01*
X853707Y622580D01*
X854154Y621574D01*
X854161Y621570D01*
X854159Y621564D01*
X854819Y620683D01*
X854827Y620680D01*
X854827Y620675D01*
X855666Y619962D01*
X855674Y619962D01*
X855675Y619956D01*
X856652Y619448D01*
X856660Y619449D01*
X856662Y619444D01*
X857727Y619166D01*
X857735Y619169D01*
X857738Y619165D01*
X858839Y619131D01*
X858844Y619135D01*
G37*
G36*
X391484Y619135D02*
X391484Y619135D01*
X391487Y619131D01*
X392563Y619286D01*
X392568Y619292D01*
X392573Y619289D01*
X393587Y619679D01*
X393591Y619686D01*
X393597Y619685D01*
X394499Y620291D01*
X394501Y620299D01*
X394507Y620298D01*
X395251Y621090D01*
X395252Y621098D01*
X395258Y621098D01*
X395807Y622036D01*
X395806Y622044D01*
X395812Y622046D01*
X396139Y623082D01*
X396136Y623090D01*
X396141Y623093D01*
X396229Y624176D01*
X396227Y624179D01*
X396229Y624180D01*
X396229Y630180D01*
X396226Y630184D01*
X396229Y630186D01*
X396079Y631319D01*
X396073Y631325D01*
X396076Y631330D01*
X395678Y632400D01*
X395671Y632404D01*
X395673Y632410D01*
X395046Y633365D01*
X395038Y633368D01*
X395039Y633373D01*
X394216Y634165D01*
X394208Y634166D01*
X394207Y634172D01*
X393228Y634761D01*
X393220Y634760D01*
X393218Y634765D01*
X392133Y635121D01*
X392125Y635119D01*
X392122Y635123D01*
X390985Y635229D01*
X390976Y635224D01*
X390971Y635228D01*
X389834Y635021D01*
X389828Y635015D01*
X389823Y635018D01*
X388761Y634563D01*
X388757Y634556D01*
X388751Y634558D01*
X387816Y633878D01*
X387814Y633870D01*
X387808Y633871D01*
X387048Y633000D01*
X387048Y632992D01*
X387042Y632991D01*
X386495Y631972D01*
X386496Y631964D01*
X386491Y631962D01*
X386487Y631949D01*
X386474Y631900D01*
X386473Y631900D01*
X386474Y631900D01*
X386460Y631851D01*
X386446Y631801D01*
X386433Y631752D01*
X386419Y631703D01*
X386406Y631654D01*
X386392Y631604D01*
X386379Y631555D01*
X386365Y631506D01*
X386351Y631457D01*
X386338Y631407D01*
X386324Y631358D01*
X386311Y631309D01*
X386297Y631260D01*
X386284Y631210D01*
X386270Y631161D01*
X386257Y631112D01*
X386256Y631112D01*
X386243Y631063D01*
X386229Y631013D01*
X386184Y630848D01*
X386187Y630840D01*
X386182Y630837D01*
X386131Y629682D01*
X386132Y629681D01*
X386131Y629680D01*
X386131Y623680D01*
X386135Y623674D01*
X386132Y623671D01*
X386344Y622590D01*
X386350Y622585D01*
X386347Y622580D01*
X386794Y621574D01*
X386801Y621570D01*
X386799Y621564D01*
X387459Y620683D01*
X387467Y620680D01*
X387467Y620675D01*
X388306Y619962D01*
X388314Y619962D01*
X388315Y619956D01*
X389292Y619448D01*
X389300Y619449D01*
X389302Y619444D01*
X390367Y619166D01*
X390375Y619169D01*
X390378Y619165D01*
X391479Y619131D01*
X391484Y619135D01*
G37*
G36*
X157804Y619135D02*
X157804Y619135D01*
X157807Y619131D01*
X158883Y619286D01*
X158888Y619292D01*
X158893Y619289D01*
X159907Y619679D01*
X159911Y619686D01*
X159917Y619685D01*
X160819Y620291D01*
X160821Y620299D01*
X160827Y620298D01*
X161571Y621090D01*
X161572Y621098D01*
X161578Y621098D01*
X162127Y622036D01*
X162126Y622044D01*
X162132Y622046D01*
X162459Y623082D01*
X162456Y623090D01*
X162461Y623093D01*
X162549Y624176D01*
X162547Y624179D01*
X162549Y624180D01*
X162549Y630180D01*
X162546Y630184D01*
X162549Y630186D01*
X162399Y631319D01*
X162393Y631325D01*
X162396Y631330D01*
X161998Y632400D01*
X161991Y632404D01*
X161993Y632410D01*
X161366Y633365D01*
X161358Y633368D01*
X161359Y633373D01*
X160536Y634165D01*
X160528Y634166D01*
X160527Y634172D01*
X159548Y634761D01*
X159540Y634760D01*
X159538Y634765D01*
X158453Y635121D01*
X158445Y635119D01*
X158442Y635123D01*
X157305Y635229D01*
X157296Y635224D01*
X157291Y635228D01*
X156154Y635021D01*
X156148Y635015D01*
X156143Y635018D01*
X155081Y634563D01*
X155077Y634556D01*
X155071Y634558D01*
X154136Y633878D01*
X154134Y633870D01*
X154128Y633871D01*
X153368Y633000D01*
X153368Y632992D01*
X153362Y632991D01*
X152815Y631972D01*
X152816Y631964D01*
X152811Y631962D01*
X152807Y631949D01*
X152794Y631900D01*
X152793Y631900D01*
X152794Y631900D01*
X152780Y631851D01*
X152766Y631801D01*
X152753Y631752D01*
X152739Y631703D01*
X152726Y631654D01*
X152712Y631604D01*
X152699Y631555D01*
X152685Y631506D01*
X152671Y631457D01*
X152658Y631407D01*
X152644Y631358D01*
X152631Y631309D01*
X152617Y631260D01*
X152604Y631210D01*
X152590Y631161D01*
X152577Y631112D01*
X152576Y631112D01*
X152563Y631063D01*
X152549Y631013D01*
X152504Y630848D01*
X152507Y630840D01*
X152502Y630837D01*
X152451Y629682D01*
X152452Y629681D01*
X152451Y629680D01*
X152451Y623680D01*
X152455Y623674D01*
X152452Y623671D01*
X152664Y622590D01*
X152670Y622585D01*
X152667Y622580D01*
X153114Y621574D01*
X153121Y621570D01*
X153119Y621564D01*
X153779Y620683D01*
X153787Y620680D01*
X153787Y620675D01*
X154626Y619962D01*
X154634Y619962D01*
X154635Y619956D01*
X155612Y619448D01*
X155620Y619449D01*
X155622Y619444D01*
X156687Y619166D01*
X156695Y619169D01*
X156698Y619165D01*
X157799Y619131D01*
X157804Y619135D01*
G37*
G36*
X858844Y4455D02*
X858844Y4455D01*
X858847Y4451D01*
X859923Y4606D01*
X859928Y4612D01*
X859933Y4609D01*
X860947Y4999D01*
X860951Y5006D01*
X860957Y5005D01*
X861859Y5611D01*
X861861Y5619D01*
X861867Y5618D01*
X862611Y6410D01*
X862612Y6418D01*
X862618Y6418D01*
X863167Y7356D01*
X863166Y7364D01*
X863172Y7366D01*
X863499Y8402D01*
X863496Y8410D01*
X863501Y8413D01*
X863589Y9496D01*
X863587Y9499D01*
X863589Y9500D01*
X863589Y15500D01*
X863586Y15504D01*
X863589Y15506D01*
X863439Y16639D01*
X863433Y16645D01*
X863436Y16650D01*
X863038Y17720D01*
X863031Y17724D01*
X863033Y17730D01*
X862406Y18685D01*
X862398Y18688D01*
X862399Y18693D01*
X861576Y19485D01*
X861568Y19486D01*
X861567Y19492D01*
X860588Y20081D01*
X860580Y20080D01*
X860578Y20085D01*
X859493Y20441D01*
X859485Y20439D01*
X859482Y20443D01*
X858345Y20549D01*
X858336Y20544D01*
X858331Y20548D01*
X857194Y20341D01*
X857188Y20335D01*
X857183Y20338D01*
X856121Y19883D01*
X856117Y19876D01*
X856111Y19878D01*
X855176Y19198D01*
X855174Y19190D01*
X855168Y19191D01*
X854408Y18320D01*
X854408Y18312D01*
X854402Y18311D01*
X853855Y17292D01*
X853856Y17284D01*
X853851Y17282D01*
X853847Y17269D01*
X853834Y17220D01*
X853833Y17220D01*
X853834Y17220D01*
X853820Y17171D01*
X853806Y17121D01*
X853793Y17072D01*
X853779Y17023D01*
X853766Y16974D01*
X853752Y16924D01*
X853739Y16875D01*
X853725Y16826D01*
X853711Y16777D01*
X853698Y16727D01*
X853684Y16678D01*
X853671Y16629D01*
X853657Y16580D01*
X853644Y16530D01*
X853630Y16481D01*
X853617Y16432D01*
X853616Y16432D01*
X853603Y16383D01*
X853589Y16333D01*
X853544Y16168D01*
X853547Y16160D01*
X853542Y16157D01*
X853491Y15002D01*
X853492Y15001D01*
X853491Y15000D01*
X853491Y9000D01*
X853495Y8994D01*
X853492Y8991D01*
X853704Y7910D01*
X853710Y7905D01*
X853707Y7900D01*
X854154Y6894D01*
X854161Y6890D01*
X854159Y6884D01*
X854819Y6003D01*
X854827Y6000D01*
X854827Y5995D01*
X855666Y5282D01*
X855674Y5282D01*
X855675Y5276D01*
X856652Y4768D01*
X856660Y4769D01*
X856662Y4764D01*
X857727Y4486D01*
X857735Y4489D01*
X857738Y4485D01*
X858839Y4451D01*
X858844Y4455D01*
G37*
G36*
X625164Y4455D02*
X625164Y4455D01*
X625167Y4451D01*
X626243Y4606D01*
X626248Y4612D01*
X626253Y4609D01*
X627267Y4999D01*
X627271Y5006D01*
X627277Y5005D01*
X628179Y5611D01*
X628181Y5619D01*
X628187Y5618D01*
X628931Y6410D01*
X628932Y6418D01*
X628938Y6418D01*
X629487Y7356D01*
X629486Y7364D01*
X629492Y7366D01*
X629819Y8402D01*
X629816Y8410D01*
X629821Y8413D01*
X629909Y9496D01*
X629907Y9499D01*
X629909Y9500D01*
X629909Y15500D01*
X629906Y15504D01*
X629909Y15506D01*
X629759Y16639D01*
X629753Y16645D01*
X629756Y16650D01*
X629358Y17720D01*
X629351Y17724D01*
X629353Y17730D01*
X628726Y18685D01*
X628718Y18688D01*
X628719Y18693D01*
X627896Y19485D01*
X627888Y19486D01*
X627887Y19492D01*
X626908Y20081D01*
X626900Y20080D01*
X626898Y20085D01*
X625813Y20441D01*
X625805Y20439D01*
X625802Y20443D01*
X624665Y20549D01*
X624656Y20544D01*
X624651Y20548D01*
X623514Y20341D01*
X623508Y20335D01*
X623503Y20338D01*
X622441Y19883D01*
X622437Y19876D01*
X622431Y19878D01*
X621496Y19198D01*
X621494Y19190D01*
X621488Y19191D01*
X620728Y18320D01*
X620728Y18312D01*
X620722Y18311D01*
X620175Y17292D01*
X620176Y17284D01*
X620171Y17282D01*
X620167Y17269D01*
X620154Y17220D01*
X620153Y17220D01*
X620154Y17220D01*
X620140Y17171D01*
X620126Y17121D01*
X620113Y17072D01*
X620099Y17023D01*
X620086Y16974D01*
X620072Y16924D01*
X620059Y16875D01*
X620045Y16826D01*
X620031Y16777D01*
X620018Y16727D01*
X620004Y16678D01*
X619991Y16629D01*
X619977Y16580D01*
X619964Y16530D01*
X619950Y16481D01*
X619937Y16432D01*
X619936Y16432D01*
X619923Y16383D01*
X619909Y16333D01*
X619864Y16168D01*
X619867Y16160D01*
X619862Y16157D01*
X619811Y15002D01*
X619812Y15001D01*
X619811Y15000D01*
X619811Y9000D01*
X619815Y8994D01*
X619812Y8991D01*
X620024Y7910D01*
X620030Y7905D01*
X620027Y7900D01*
X620474Y6894D01*
X620481Y6890D01*
X620479Y6884D01*
X621139Y6003D01*
X621147Y6000D01*
X621147Y5995D01*
X621986Y5282D01*
X621994Y5282D01*
X621995Y5276D01*
X622972Y4768D01*
X622980Y4769D01*
X622982Y4764D01*
X624047Y4486D01*
X624055Y4489D01*
X624058Y4485D01*
X625159Y4451D01*
X625164Y4455D01*
G37*
G36*
X391484Y4455D02*
X391484Y4455D01*
X391487Y4451D01*
X392563Y4606D01*
X392568Y4612D01*
X392573Y4609D01*
X393587Y4999D01*
X393591Y5006D01*
X393597Y5005D01*
X394499Y5611D01*
X394501Y5619D01*
X394507Y5618D01*
X395251Y6410D01*
X395252Y6418D01*
X395258Y6418D01*
X395807Y7356D01*
X395806Y7364D01*
X395812Y7366D01*
X396139Y8402D01*
X396136Y8410D01*
X396141Y8413D01*
X396229Y9496D01*
X396227Y9499D01*
X396229Y9500D01*
X396229Y15500D01*
X396226Y15504D01*
X396229Y15506D01*
X396079Y16639D01*
X396073Y16645D01*
X396076Y16650D01*
X395678Y17720D01*
X395671Y17724D01*
X395673Y17730D01*
X395046Y18685D01*
X395038Y18688D01*
X395039Y18693D01*
X394216Y19485D01*
X394208Y19486D01*
X394207Y19492D01*
X393228Y20081D01*
X393220Y20080D01*
X393218Y20085D01*
X392133Y20441D01*
X392125Y20439D01*
X392122Y20443D01*
X390985Y20549D01*
X390976Y20544D01*
X390971Y20548D01*
X389834Y20341D01*
X389828Y20335D01*
X389823Y20338D01*
X388761Y19883D01*
X388757Y19876D01*
X388751Y19878D01*
X387816Y19198D01*
X387814Y19190D01*
X387808Y19191D01*
X387048Y18320D01*
X387048Y18312D01*
X387042Y18311D01*
X386495Y17292D01*
X386496Y17284D01*
X386491Y17282D01*
X386487Y17269D01*
X386474Y17220D01*
X386473Y17220D01*
X386474Y17220D01*
X386460Y17171D01*
X386446Y17121D01*
X386433Y17072D01*
X386419Y17023D01*
X386406Y16974D01*
X386392Y16924D01*
X386379Y16875D01*
X386365Y16826D01*
X386351Y16777D01*
X386338Y16727D01*
X386324Y16678D01*
X386311Y16629D01*
X386297Y16580D01*
X386284Y16530D01*
X386270Y16481D01*
X386257Y16432D01*
X386256Y16432D01*
X386243Y16383D01*
X386229Y16333D01*
X386184Y16168D01*
X386187Y16160D01*
X386182Y16157D01*
X386131Y15002D01*
X386132Y15001D01*
X386131Y15000D01*
X386131Y9000D01*
X386135Y8994D01*
X386132Y8991D01*
X386344Y7910D01*
X386350Y7905D01*
X386347Y7900D01*
X386794Y6894D01*
X386801Y6890D01*
X386799Y6884D01*
X387459Y6003D01*
X387467Y6000D01*
X387467Y5995D01*
X388306Y5282D01*
X388314Y5282D01*
X388315Y5276D01*
X389292Y4768D01*
X389300Y4769D01*
X389302Y4764D01*
X390367Y4486D01*
X390375Y4489D01*
X390378Y4485D01*
X391479Y4451D01*
X391484Y4455D01*
G37*
G36*
X157804Y4455D02*
X157804Y4455D01*
X157807Y4451D01*
X158883Y4606D01*
X158888Y4612D01*
X158893Y4609D01*
X159907Y4999D01*
X159911Y5006D01*
X159917Y5005D01*
X160819Y5611D01*
X160821Y5619D01*
X160827Y5618D01*
X161571Y6410D01*
X161572Y6418D01*
X161578Y6418D01*
X162127Y7356D01*
X162126Y7364D01*
X162132Y7366D01*
X162459Y8402D01*
X162456Y8410D01*
X162461Y8413D01*
X162549Y9496D01*
X162547Y9499D01*
X162549Y9500D01*
X162549Y15500D01*
X162546Y15504D01*
X162549Y15506D01*
X162399Y16639D01*
X162393Y16645D01*
X162396Y16650D01*
X161998Y17720D01*
X161991Y17724D01*
X161993Y17730D01*
X161366Y18685D01*
X161358Y18688D01*
X161359Y18693D01*
X160536Y19485D01*
X160528Y19486D01*
X160527Y19492D01*
X159548Y20081D01*
X159540Y20080D01*
X159538Y20085D01*
X158453Y20441D01*
X158445Y20439D01*
X158442Y20443D01*
X157305Y20549D01*
X157296Y20544D01*
X157291Y20548D01*
X156154Y20341D01*
X156148Y20335D01*
X156143Y20338D01*
X155081Y19883D01*
X155077Y19876D01*
X155071Y19878D01*
X154136Y19198D01*
X154134Y19190D01*
X154128Y19191D01*
X153368Y18320D01*
X153368Y18312D01*
X153362Y18311D01*
X152815Y17292D01*
X152816Y17284D01*
X152811Y17282D01*
X152807Y17269D01*
X152794Y17220D01*
X152793Y17220D01*
X152794Y17220D01*
X152780Y17171D01*
X152766Y17121D01*
X152753Y17072D01*
X152739Y17023D01*
X152726Y16974D01*
X152712Y16924D01*
X152699Y16875D01*
X152685Y16826D01*
X152671Y16777D01*
X152658Y16727D01*
X152644Y16678D01*
X152631Y16629D01*
X152617Y16580D01*
X152604Y16530D01*
X152590Y16481D01*
X152577Y16432D01*
X152576Y16432D01*
X152563Y16383D01*
X152549Y16333D01*
X152504Y16168D01*
X152507Y16160D01*
X152502Y16157D01*
X152451Y15002D01*
X152452Y15001D01*
X152451Y15000D01*
X152451Y9000D01*
X152455Y8994D01*
X152452Y8991D01*
X152664Y7910D01*
X152670Y7905D01*
X152667Y7900D01*
X153114Y6894D01*
X153121Y6890D01*
X153119Y6884D01*
X153779Y6003D01*
X153787Y6000D01*
X153787Y5995D01*
X154626Y5282D01*
X154634Y5282D01*
X154635Y5276D01*
X155612Y4768D01*
X155620Y4769D01*
X155622Y4764D01*
X156687Y4486D01*
X156695Y4489D01*
X156698Y4485D01*
X157799Y4451D01*
X157804Y4455D01*
G37*
G36*
X538662Y619135D02*
X538662Y619135D01*
X538667Y619131D01*
X539754Y619276D01*
X539760Y619282D01*
X539765Y619279D01*
X540793Y619663D01*
X540798Y619669D01*
X540803Y619668D01*
X541720Y620270D01*
X541723Y620278D01*
X541729Y620277D01*
X542489Y621069D01*
X542490Y621077D01*
X542496Y621078D01*
X543060Y622019D01*
X543060Y622022D01*
X543061Y622023D01*
X543060Y622025D01*
X543059Y622027D01*
X543065Y622029D01*
X543406Y623072D01*
X543404Y623080D01*
X543408Y623083D01*
X543509Y624176D01*
X543507Y624178D01*
X543509Y624180D01*
X543509Y630180D01*
X543507Y630183D01*
X543509Y630185D01*
X543408Y631277D01*
X543403Y631283D01*
X543406Y631288D01*
X543065Y632331D01*
X543058Y632336D01*
X543060Y632341D01*
X542496Y633282D01*
X542488Y633285D01*
X542489Y633291D01*
X541729Y634083D01*
X541721Y634084D01*
X541720Y634090D01*
X540803Y634693D01*
X540795Y634692D01*
X540793Y634698D01*
X539765Y635081D01*
X539757Y635079D01*
X539754Y635084D01*
X538667Y635229D01*
X538659Y635225D01*
X538655Y635229D01*
X537518Y635123D01*
X537512Y635118D01*
X537507Y635121D01*
X536422Y634765D01*
X536417Y634758D01*
X536412Y634761D01*
X535433Y634172D01*
X535430Y634164D01*
X535424Y634165D01*
X534601Y633373D01*
X534600Y633365D01*
X534594Y633365D01*
X533967Y632410D01*
X533968Y632402D01*
X533962Y632400D01*
X533564Y631330D01*
X533566Y631322D01*
X533561Y631319D01*
X533411Y630186D01*
X533414Y630182D01*
X533411Y630180D01*
X533411Y624180D01*
X533414Y624176D01*
X533411Y624174D01*
X533561Y623041D01*
X533567Y623035D01*
X533564Y623030D01*
X533962Y621960D01*
X533969Y621956D01*
X533967Y621950D01*
X534594Y620995D01*
X534602Y620992D01*
X534601Y620987D01*
X535424Y620195D01*
X535432Y620194D01*
X535433Y620188D01*
X536412Y619599D01*
X536420Y619600D01*
X536422Y619595D01*
X537507Y619239D01*
X537515Y619242D01*
X537518Y619237D01*
X538655Y619131D01*
X538662Y619135D01*
G37*
G36*
X304982Y619135D02*
X304982Y619135D01*
X304987Y619131D01*
X306074Y619276D01*
X306080Y619282D01*
X306085Y619279D01*
X307113Y619663D01*
X307118Y619669D01*
X307123Y619668D01*
X308040Y620270D01*
X308043Y620278D01*
X308049Y620277D01*
X308809Y621069D01*
X308810Y621077D01*
X308816Y621078D01*
X309380Y622019D01*
X309380Y622022D01*
X309381Y622023D01*
X309380Y622025D01*
X309379Y622027D01*
X309385Y622029D01*
X309726Y623072D01*
X309724Y623080D01*
X309728Y623083D01*
X309829Y624176D01*
X309827Y624178D01*
X309829Y624180D01*
X309829Y630180D01*
X309827Y630183D01*
X309829Y630185D01*
X309728Y631277D01*
X309723Y631283D01*
X309726Y631288D01*
X309385Y632331D01*
X309378Y632336D01*
X309380Y632341D01*
X308816Y633282D01*
X308808Y633285D01*
X308809Y633291D01*
X308049Y634083D01*
X308041Y634084D01*
X308040Y634090D01*
X307123Y634693D01*
X307115Y634692D01*
X307113Y634698D01*
X306085Y635081D01*
X306077Y635079D01*
X306074Y635084D01*
X304987Y635229D01*
X304979Y635225D01*
X304975Y635229D01*
X303838Y635123D01*
X303832Y635118D01*
X303827Y635121D01*
X302742Y634765D01*
X302737Y634758D01*
X302732Y634761D01*
X301753Y634172D01*
X301750Y634164D01*
X301744Y634165D01*
X300921Y633373D01*
X300920Y633365D01*
X300914Y633365D01*
X300287Y632410D01*
X300288Y632402D01*
X300282Y632400D01*
X299884Y631330D01*
X299886Y631322D01*
X299881Y631319D01*
X299731Y630186D01*
X299734Y630182D01*
X299731Y630180D01*
X299731Y624180D01*
X299734Y624176D01*
X299731Y624174D01*
X299881Y623041D01*
X299887Y623035D01*
X299884Y623030D01*
X300282Y621960D01*
X300289Y621956D01*
X300287Y621950D01*
X300914Y620995D01*
X300922Y620992D01*
X300921Y620987D01*
X301744Y620195D01*
X301752Y620194D01*
X301753Y620188D01*
X302732Y619599D01*
X302740Y619600D01*
X302742Y619595D01*
X303827Y619239D01*
X303835Y619242D01*
X303838Y619237D01*
X304975Y619131D01*
X304982Y619135D01*
G37*
G36*
X772342Y619135D02*
X772342Y619135D01*
X772347Y619131D01*
X773434Y619276D01*
X773440Y619282D01*
X773445Y619279D01*
X774473Y619663D01*
X774478Y619669D01*
X774483Y619668D01*
X775400Y620270D01*
X775403Y620278D01*
X775409Y620277D01*
X776169Y621069D01*
X776170Y621077D01*
X776176Y621078D01*
X776740Y622019D01*
X776740Y622022D01*
X776741Y622023D01*
X776740Y622025D01*
X776739Y622027D01*
X776745Y622029D01*
X777086Y623072D01*
X777084Y623080D01*
X777088Y623083D01*
X777189Y624176D01*
X777187Y624178D01*
X777189Y624180D01*
X777189Y630180D01*
X777187Y630183D01*
X777189Y630185D01*
X777088Y631277D01*
X777083Y631283D01*
X777086Y631288D01*
X776745Y632331D01*
X776738Y632336D01*
X776740Y632341D01*
X776176Y633282D01*
X776168Y633285D01*
X776169Y633291D01*
X775409Y634083D01*
X775401Y634084D01*
X775400Y634090D01*
X774483Y634693D01*
X774475Y634692D01*
X774473Y634698D01*
X773445Y635081D01*
X773437Y635079D01*
X773434Y635084D01*
X772347Y635229D01*
X772339Y635225D01*
X772335Y635229D01*
X771198Y635123D01*
X771192Y635118D01*
X771187Y635121D01*
X770102Y634765D01*
X770097Y634758D01*
X770092Y634761D01*
X769113Y634172D01*
X769110Y634164D01*
X769104Y634165D01*
X768281Y633373D01*
X768280Y633365D01*
X768274Y633365D01*
X767647Y632410D01*
X767648Y632402D01*
X767642Y632400D01*
X767244Y631330D01*
X767246Y631322D01*
X767241Y631319D01*
X767091Y630186D01*
X767094Y630182D01*
X767091Y630180D01*
X767091Y624180D01*
X767094Y624176D01*
X767091Y624174D01*
X767241Y623041D01*
X767247Y623035D01*
X767244Y623030D01*
X767642Y621960D01*
X767649Y621956D01*
X767647Y621950D01*
X768274Y620995D01*
X768282Y620992D01*
X768281Y620987D01*
X769104Y620195D01*
X769112Y620194D01*
X769113Y620188D01*
X770092Y619599D01*
X770100Y619600D01*
X770102Y619595D01*
X771187Y619239D01*
X771195Y619242D01*
X771198Y619237D01*
X772335Y619131D01*
X772342Y619135D01*
G37*
G36*
X71302Y619135D02*
X71302Y619135D01*
X71307Y619131D01*
X72394Y619276D01*
X72400Y619282D01*
X72405Y619279D01*
X73433Y619663D01*
X73438Y619669D01*
X73443Y619668D01*
X74360Y620270D01*
X74363Y620278D01*
X74369Y620277D01*
X75129Y621069D01*
X75130Y621077D01*
X75136Y621078D01*
X75700Y622019D01*
X75700Y622022D01*
X75701Y622023D01*
X75700Y622025D01*
X75699Y622027D01*
X75705Y622029D01*
X76046Y623072D01*
X76044Y623080D01*
X76048Y623083D01*
X76149Y624176D01*
X76147Y624178D01*
X76149Y624180D01*
X76149Y630180D01*
X76147Y630183D01*
X76149Y630185D01*
X76048Y631277D01*
X76043Y631283D01*
X76046Y631288D01*
X75705Y632331D01*
X75698Y632336D01*
X75700Y632341D01*
X75136Y633282D01*
X75128Y633285D01*
X75129Y633291D01*
X74369Y634083D01*
X74361Y634084D01*
X74360Y634090D01*
X73443Y634693D01*
X73435Y634692D01*
X73433Y634698D01*
X72405Y635081D01*
X72397Y635079D01*
X72394Y635084D01*
X71307Y635229D01*
X71299Y635225D01*
X71295Y635229D01*
X70158Y635123D01*
X70152Y635118D01*
X70147Y635121D01*
X69062Y634765D01*
X69057Y634758D01*
X69052Y634761D01*
X68073Y634172D01*
X68070Y634164D01*
X68064Y634165D01*
X67241Y633373D01*
X67240Y633365D01*
X67234Y633365D01*
X66607Y632410D01*
X66608Y632402D01*
X66602Y632400D01*
X66204Y631330D01*
X66206Y631322D01*
X66201Y631319D01*
X66051Y630186D01*
X66054Y630182D01*
X66051Y630180D01*
X66051Y624180D01*
X66054Y624176D01*
X66051Y624174D01*
X66201Y623041D01*
X66207Y623035D01*
X66204Y623030D01*
X66602Y621960D01*
X66609Y621956D01*
X66607Y621950D01*
X67234Y620995D01*
X67242Y620992D01*
X67241Y620987D01*
X68064Y620195D01*
X68072Y620194D01*
X68073Y620188D01*
X69052Y619599D01*
X69060Y619600D01*
X69062Y619595D01*
X70147Y619239D01*
X70155Y619242D01*
X70158Y619237D01*
X71295Y619131D01*
X71302Y619135D01*
G37*
G36*
X772342Y4455D02*
X772342Y4455D01*
X772347Y4451D01*
X773434Y4596D01*
X773440Y4602D01*
X773445Y4599D01*
X774473Y4983D01*
X774478Y4989D01*
X774483Y4988D01*
X775400Y5590D01*
X775403Y5598D01*
X775409Y5597D01*
X776169Y6389D01*
X776170Y6397D01*
X776176Y6398D01*
X776740Y7339D01*
X776740Y7342D01*
X776741Y7343D01*
X776740Y7345D01*
X776739Y7347D01*
X776745Y7349D01*
X777086Y8392D01*
X777084Y8400D01*
X777088Y8403D01*
X777189Y9496D01*
X777187Y9498D01*
X777189Y9500D01*
X777189Y15500D01*
X777187Y15503D01*
X777189Y15505D01*
X777088Y16597D01*
X777083Y16603D01*
X777086Y16608D01*
X776745Y17651D01*
X776738Y17656D01*
X776740Y17661D01*
X776176Y18602D01*
X776168Y18605D01*
X776169Y18611D01*
X775409Y19403D01*
X775401Y19404D01*
X775400Y19410D01*
X774483Y20013D01*
X774475Y20012D01*
X774473Y20018D01*
X773445Y20401D01*
X773437Y20399D01*
X773434Y20404D01*
X772347Y20549D01*
X772339Y20545D01*
X772335Y20549D01*
X771198Y20443D01*
X771192Y20438D01*
X771187Y20441D01*
X770102Y20085D01*
X770097Y20078D01*
X770092Y20081D01*
X769113Y19492D01*
X769110Y19484D01*
X769104Y19485D01*
X768281Y18693D01*
X768280Y18685D01*
X768274Y18685D01*
X767647Y17730D01*
X767648Y17722D01*
X767642Y17720D01*
X767244Y16650D01*
X767246Y16642D01*
X767241Y16639D01*
X767091Y15506D01*
X767094Y15502D01*
X767091Y15500D01*
X767091Y9500D01*
X767094Y9496D01*
X767091Y9494D01*
X767241Y8361D01*
X767247Y8355D01*
X767244Y8350D01*
X767642Y7280D01*
X767649Y7276D01*
X767647Y7270D01*
X768274Y6315D01*
X768282Y6312D01*
X768281Y6307D01*
X769104Y5515D01*
X769112Y5514D01*
X769113Y5508D01*
X770092Y4919D01*
X770100Y4920D01*
X770102Y4915D01*
X771187Y4559D01*
X771195Y4562D01*
X771198Y4557D01*
X772335Y4451D01*
X772342Y4455D01*
G37*
G36*
X304982Y4455D02*
X304982Y4455D01*
X304987Y4451D01*
X306074Y4596D01*
X306080Y4602D01*
X306085Y4599D01*
X307113Y4983D01*
X307118Y4989D01*
X307123Y4988D01*
X308040Y5590D01*
X308043Y5598D01*
X308049Y5597D01*
X308809Y6389D01*
X308810Y6397D01*
X308816Y6398D01*
X309380Y7339D01*
X309380Y7342D01*
X309381Y7343D01*
X309380Y7345D01*
X309379Y7347D01*
X309385Y7349D01*
X309726Y8392D01*
X309724Y8400D01*
X309728Y8403D01*
X309829Y9496D01*
X309827Y9498D01*
X309829Y9500D01*
X309829Y15500D01*
X309827Y15503D01*
X309829Y15505D01*
X309728Y16597D01*
X309723Y16603D01*
X309726Y16608D01*
X309385Y17651D01*
X309378Y17656D01*
X309380Y17661D01*
X308816Y18602D01*
X308808Y18605D01*
X308809Y18611D01*
X308049Y19403D01*
X308041Y19404D01*
X308040Y19410D01*
X307123Y20013D01*
X307115Y20012D01*
X307113Y20018D01*
X306085Y20401D01*
X306077Y20399D01*
X306074Y20404D01*
X304987Y20549D01*
X304979Y20545D01*
X304975Y20549D01*
X303838Y20443D01*
X303832Y20438D01*
X303827Y20441D01*
X302742Y20085D01*
X302737Y20078D01*
X302732Y20081D01*
X301753Y19492D01*
X301750Y19484D01*
X301744Y19485D01*
X300921Y18693D01*
X300920Y18685D01*
X300914Y18685D01*
X300287Y17730D01*
X300288Y17722D01*
X300282Y17720D01*
X299884Y16650D01*
X299886Y16642D01*
X299881Y16639D01*
X299731Y15506D01*
X299734Y15502D01*
X299731Y15500D01*
X299731Y9500D01*
X299734Y9496D01*
X299731Y9494D01*
X299881Y8361D01*
X299887Y8355D01*
X299884Y8350D01*
X300282Y7280D01*
X300289Y7276D01*
X300287Y7270D01*
X300914Y6315D01*
X300922Y6312D01*
X300921Y6307D01*
X301744Y5515D01*
X301752Y5514D01*
X301753Y5508D01*
X302732Y4919D01*
X302740Y4920D01*
X302742Y4915D01*
X303827Y4559D01*
X303835Y4562D01*
X303838Y4557D01*
X304975Y4451D01*
X304982Y4455D01*
G37*
G36*
X71302Y4455D02*
X71302Y4455D01*
X71307Y4451D01*
X72394Y4596D01*
X72400Y4602D01*
X72405Y4599D01*
X73433Y4983D01*
X73438Y4989D01*
X73443Y4988D01*
X74360Y5590D01*
X74363Y5598D01*
X74369Y5597D01*
X75129Y6389D01*
X75130Y6397D01*
X75136Y6398D01*
X75700Y7339D01*
X75700Y7342D01*
X75701Y7343D01*
X75700Y7345D01*
X75699Y7347D01*
X75705Y7349D01*
X76046Y8392D01*
X76044Y8400D01*
X76048Y8403D01*
X76149Y9496D01*
X76147Y9498D01*
X76149Y9500D01*
X76149Y15500D01*
X76147Y15503D01*
X76149Y15505D01*
X76048Y16597D01*
X76043Y16603D01*
X76046Y16608D01*
X75705Y17651D01*
X75698Y17656D01*
X75700Y17661D01*
X75136Y18602D01*
X75128Y18605D01*
X75129Y18611D01*
X74369Y19403D01*
X74361Y19404D01*
X74360Y19410D01*
X73443Y20013D01*
X73435Y20012D01*
X73433Y20018D01*
X72405Y20401D01*
X72397Y20399D01*
X72394Y20404D01*
X71307Y20549D01*
X71299Y20545D01*
X71295Y20549D01*
X70158Y20443D01*
X70152Y20438D01*
X70147Y20441D01*
X69062Y20085D01*
X69057Y20078D01*
X69052Y20081D01*
X68073Y19492D01*
X68070Y19484D01*
X68064Y19485D01*
X67241Y18693D01*
X67240Y18685D01*
X67234Y18685D01*
X66607Y17730D01*
X66608Y17722D01*
X66602Y17720D01*
X66204Y16650D01*
X66206Y16642D01*
X66201Y16639D01*
X66051Y15506D01*
X66054Y15502D01*
X66051Y15500D01*
X66051Y9500D01*
X66054Y9496D01*
X66051Y9494D01*
X66201Y8361D01*
X66207Y8355D01*
X66204Y8350D01*
X66602Y7280D01*
X66609Y7276D01*
X66607Y7270D01*
X67234Y6315D01*
X67242Y6312D01*
X67241Y6307D01*
X68064Y5515D01*
X68072Y5514D01*
X68073Y5508D01*
X69052Y4919D01*
X69060Y4920D01*
X69062Y4915D01*
X70147Y4559D01*
X70155Y4562D01*
X70158Y4557D01*
X71295Y4451D01*
X71302Y4455D01*
G37*
G36*
X538662Y4455D02*
X538662Y4455D01*
X538667Y4451D01*
X539754Y4596D01*
X539760Y4602D01*
X539765Y4599D01*
X540793Y4983D01*
X540798Y4989D01*
X540803Y4988D01*
X541720Y5590D01*
X541723Y5598D01*
X541729Y5597D01*
X542489Y6389D01*
X542490Y6397D01*
X542496Y6398D01*
X543060Y7339D01*
X543060Y7342D01*
X543061Y7343D01*
X543060Y7345D01*
X543059Y7347D01*
X543065Y7349D01*
X543406Y8392D01*
X543404Y8400D01*
X543408Y8403D01*
X543509Y9496D01*
X543507Y9498D01*
X543509Y9500D01*
X543509Y15500D01*
X543507Y15503D01*
X543509Y15505D01*
X543408Y16597D01*
X543403Y16603D01*
X543406Y16608D01*
X543065Y17651D01*
X543058Y17656D01*
X543060Y17661D01*
X542496Y18602D01*
X542488Y18605D01*
X542489Y18611D01*
X541729Y19403D01*
X541721Y19404D01*
X541720Y19410D01*
X540803Y20013D01*
X540795Y20012D01*
X540793Y20018D01*
X539765Y20401D01*
X539757Y20399D01*
X539754Y20404D01*
X538667Y20549D01*
X538659Y20545D01*
X538655Y20549D01*
X537518Y20443D01*
X537512Y20438D01*
X537507Y20441D01*
X536422Y20085D01*
X536417Y20078D01*
X536412Y20081D01*
X535433Y19492D01*
X535430Y19484D01*
X535424Y19485D01*
X534601Y18693D01*
X534600Y18685D01*
X534594Y18685D01*
X533967Y17730D01*
X533968Y17722D01*
X533962Y17720D01*
X533564Y16650D01*
X533566Y16642D01*
X533561Y16639D01*
X533411Y15506D01*
X533414Y15502D01*
X533411Y15500D01*
X533411Y9500D01*
X533414Y9496D01*
X533411Y9494D01*
X533561Y8361D01*
X533567Y8355D01*
X533564Y8350D01*
X533962Y7280D01*
X533969Y7276D01*
X533967Y7270D01*
X534594Y6315D01*
X534602Y6312D01*
X534601Y6307D01*
X535424Y5515D01*
X535432Y5514D01*
X535433Y5508D01*
X536412Y4919D01*
X536420Y4920D01*
X536422Y4915D01*
X537507Y4559D01*
X537515Y4562D01*
X537518Y4557D01*
X538655Y4451D01*
X538662Y4455D01*
G37*
D10*
X152400Y176600D03*
X152400Y153600D03*
D11*
X119570Y301300D02*
X119570Y308300D01*
X126570Y308300D01*
X126570Y301300D01*
X119570Y301300D01*
X119570Y304150D02*
X126570Y304150D01*
X126570Y307000D02*
X119570Y307000D01*
X102030Y308300D02*
X102030Y301300D01*
X102030Y308300D02*
X109030Y308300D01*
X109030Y301300D01*
X102030Y301300D01*
X102030Y304150D02*
X109030Y304150D01*
X109030Y307000D02*
X102030Y307000D01*
D12*
X133190Y155600D03*
X133190Y174600D03*
X112190Y165100D03*
D11*
X109030Y326700D02*
X109030Y333700D01*
X109030Y326700D02*
X102030Y326700D01*
X102030Y333700D01*
X109030Y333700D01*
X109030Y329550D02*
X102030Y329550D01*
X102030Y332400D02*
X109030Y332400D01*
X126570Y333700D02*
X126570Y326700D01*
X119570Y326700D01*
X119570Y333700D01*
X126570Y333700D01*
X126570Y329550D02*
X119570Y329550D01*
X119570Y332400D02*
X126570Y332400D01*
D13*
X14050Y121980D03*
X14050Y65980D03*
D14*
X50800Y108980D03*
X50800Y98980D03*
X50800Y88980D03*
X50800Y78980D03*
D15*
X72560Y170340D03*
X72560Y190340D03*
D16*
X20560Y146340D03*
X20560Y214340D03*
D17*
X59610Y422910D03*
X49610Y422910D03*
X49610Y466090D03*
X59610Y466090D03*
D18*
X122650Y467320D03*
D17*
X130650Y443070D03*
D18*
X126650Y467320D03*
X130650Y467320D03*
X134650Y467320D03*
X138650Y467320D03*
X142650Y467320D03*
X146650Y467320D03*
X94650Y467320D03*
X98650Y467320D03*
X102650Y467320D03*
X106650Y467320D03*
X110650Y467320D03*
X114650Y467320D03*
X118650Y467320D03*
D19*
X86400Y435070D03*
X86400Y439070D03*
X86400Y443070D03*
X86400Y447070D03*
X86400Y451070D03*
X86400Y455070D03*
X86400Y459070D03*
X86400Y407070D03*
X86400Y411070D03*
X86400Y415070D03*
X86400Y419070D03*
X86400Y423070D03*
X86400Y427070D03*
X86400Y431070D03*
D18*
X118650Y398820D03*
X114650Y398820D03*
X110650Y398820D03*
X106650Y398820D03*
X102650Y398820D03*
X98650Y398820D03*
X94650Y398820D03*
X146650Y398820D03*
X142650Y398820D03*
X138650Y398820D03*
X134650Y398820D03*
X130650Y398820D03*
X126650Y398820D03*
X122650Y398820D03*
D19*
X154900Y431070D03*
X154900Y427070D03*
X154900Y423070D03*
X154900Y419070D03*
X154900Y415070D03*
X154900Y411070D03*
X154900Y407070D03*
X154900Y459070D03*
X154900Y455070D03*
X154900Y451070D03*
X154900Y447070D03*
X154900Y443070D03*
X154900Y439070D03*
X154900Y435070D03*
D17*
X110650Y443070D03*
X110650Y423070D03*
X130650Y423070D03*
X120650Y433070D03*
X49610Y413639D03*
X59610Y413639D03*
X59610Y404241D03*
X49610Y404241D03*
X185500Y436245D03*
X195500Y436245D03*
X185500Y401828D03*
X195500Y401828D03*
X185500Y461899D03*
X195500Y461899D03*
X147320Y494110D03*
X147320Y504110D03*
X110490Y495380D03*
X110490Y505380D03*
X185500Y478790D03*
X195500Y478790D03*
X185500Y452755D03*
X195500Y452755D03*
X59610Y394970D03*
X49610Y394970D03*
X117602Y389810D03*
X117602Y379810D03*
X185500Y410972D03*
X195500Y410972D03*
D20*
X47510Y453040D03*
X47510Y436040D03*
X61510Y436040D03*
X61510Y453040D03*
D21*
X121800Y60100D03*
X116800Y60100D03*
D22*
X146550Y60100D03*
X138800Y60100D03*
D21*
X131800Y60100D03*
X126800Y60100D03*
X106800Y60100D03*
X111800Y60100D03*
D22*
X82050Y60100D03*
X89800Y60100D03*
D21*
X96800Y60100D03*
X101800Y60100D03*
D23*
X215900Y83820D03*
X160020Y83820D03*
X215900Y121920D03*
X160020Y121920D03*
D24*
X66160Y269213D03*
X71160Y289588D03*
X66160Y289588D03*
X76160Y289588D03*
X81160Y289588D03*
X71160Y269213D03*
X76160Y269213D03*
X81160Y269213D03*
D25*
X77060Y279400D03*
X70260Y279400D03*
D17*
X69930Y257810D03*
X79930Y257810D03*
D26*
X123450Y551600D03*
X123450Y540600D03*
X105150Y540600D03*
X105150Y551600D03*
D17*
X119761Y505380D03*
X119761Y495380D03*
X109300Y524510D03*
X119300Y524510D03*
D23*
X83820Y121920D03*
X139700Y121920D03*
X83820Y83820D03*
X139700Y83820D03*
D27*
X139399Y212700D03*
X139399Y203200D03*
X139399Y193700D03*
X165401Y193700D03*
X165401Y212700D03*
X132381Y247040D03*
X132381Y256540D03*
X132381Y266040D03*
X106379Y266040D03*
X106379Y247040D03*
D17*
X59690Y30560D03*
X59690Y40560D03*
X168910Y29290D03*
X168910Y39290D03*
X147240Y142240D03*
X137240Y142240D03*
X123190Y195660D03*
X123190Y205660D03*
X123190Y215980D03*
X123190Y225980D03*
X157400Y226060D03*
X147400Y226060D03*
X102950Y289814D03*
X112950Y289814D03*
X90170Y340280D03*
X90170Y330280D03*
X195500Y427101D03*
X185500Y427101D03*
X112950Y280670D03*
X102950Y280670D03*
X148590Y266620D03*
X148590Y256620D03*
X91440Y261540D03*
X91440Y251540D03*
X218440Y68500D03*
X218440Y58500D03*
D11*
X193230Y61270D02*
X193230Y68270D01*
X200230Y68270D01*
X200230Y61270D01*
X193230Y61270D01*
X193230Y64120D02*
X200230Y64120D01*
X200230Y66970D02*
X193230Y66970D01*
X175690Y68270D02*
X175690Y61270D01*
X175690Y68270D02*
X182690Y68270D01*
X182690Y61270D01*
X175690Y61270D01*
X175690Y64120D02*
X182690Y64120D01*
X182690Y66970D02*
X175690Y66970D01*
D10*
X386080Y176600D03*
X386080Y153600D03*
D11*
X353250Y301300D02*
X353250Y308300D01*
X360250Y308300D01*
X360250Y301300D01*
X353250Y301300D01*
X353250Y304150D02*
X360250Y304150D01*
X360250Y307000D02*
X353250Y307000D01*
X335710Y308300D02*
X335710Y301300D01*
X335710Y308300D02*
X342710Y308300D01*
X342710Y301300D01*
X335710Y301300D01*
X335710Y304150D02*
X342710Y304150D01*
X342710Y307000D02*
X335710Y307000D01*
D12*
X366870Y155600D03*
X366870Y174600D03*
X345870Y165100D03*
D11*
X342710Y326700D02*
X342710Y333700D01*
X342710Y326700D02*
X335710Y326700D01*
X335710Y333700D01*
X342710Y333700D01*
X342710Y329550D02*
X335710Y329550D01*
X335710Y332400D02*
X342710Y332400D01*
X360250Y333700D02*
X360250Y326700D01*
X353250Y326700D01*
X353250Y333700D01*
X360250Y333700D01*
X360250Y329550D02*
X353250Y329550D01*
X353250Y332400D02*
X360250Y332400D01*
D13*
X247730Y121980D03*
X247730Y65980D03*
D14*
X284480Y108980D03*
X284480Y98980D03*
X284480Y88980D03*
X284480Y78980D03*
D15*
X306240Y170340D03*
X306240Y190340D03*
D16*
X254240Y146340D03*
X254240Y214340D03*
D17*
X293290Y422910D03*
X283290Y422910D03*
X283290Y466090D03*
X293290Y466090D03*
D18*
X356330Y467320D03*
D17*
X364330Y443070D03*
D18*
X360330Y467320D03*
X364330Y467320D03*
X368330Y467320D03*
X372330Y467320D03*
X376330Y467320D03*
X380330Y467320D03*
X328330Y467320D03*
X332330Y467320D03*
X336330Y467320D03*
X340330Y467320D03*
X344330Y467320D03*
X348330Y467320D03*
X352330Y467320D03*
D19*
X320080Y435070D03*
X320080Y439070D03*
X320080Y443070D03*
X320080Y447070D03*
X320080Y451070D03*
X320080Y455070D03*
X320080Y459070D03*
X320080Y407070D03*
X320080Y411070D03*
X320080Y415070D03*
X320080Y419070D03*
X320080Y423070D03*
X320080Y427070D03*
X320080Y431070D03*
D18*
X352330Y398820D03*
X348330Y398820D03*
X344330Y398820D03*
X340330Y398820D03*
X336330Y398820D03*
X332330Y398820D03*
X328330Y398820D03*
X380330Y398820D03*
X376330Y398820D03*
X372330Y398820D03*
X368330Y398820D03*
X364330Y398820D03*
X360330Y398820D03*
X356330Y398820D03*
D19*
X388580Y431070D03*
X388580Y427070D03*
X388580Y423070D03*
X388580Y419070D03*
X388580Y415070D03*
X388580Y411070D03*
X388580Y407070D03*
X388580Y459070D03*
X388580Y455070D03*
X388580Y451070D03*
X388580Y447070D03*
X388580Y443070D03*
X388580Y439070D03*
X388580Y435070D03*
D17*
X344330Y443070D03*
X344330Y423070D03*
X364330Y423070D03*
X354330Y433070D03*
X283290Y413639D03*
X293290Y413639D03*
X293290Y404241D03*
X283290Y404241D03*
X419180Y436245D03*
X429180Y436245D03*
X419180Y401828D03*
X429180Y401828D03*
X419180Y461899D03*
X429180Y461899D03*
X381000Y494110D03*
X381000Y504110D03*
X344170Y495380D03*
X344170Y505380D03*
X419180Y478790D03*
X429180Y478790D03*
X419180Y452755D03*
X429180Y452755D03*
X293290Y394970D03*
X283290Y394970D03*
X351282Y389810D03*
X351282Y379810D03*
X419180Y410972D03*
X429180Y410972D03*
D20*
X281190Y453040D03*
X281190Y436040D03*
X295190Y436040D03*
X295190Y453040D03*
D21*
X355480Y60100D03*
X350480Y60100D03*
D22*
X380230Y60100D03*
X372480Y60100D03*
D21*
X365480Y60100D03*
X360480Y60100D03*
X340480Y60100D03*
X345480Y60100D03*
D22*
X315730Y60100D03*
X323480Y60100D03*
D21*
X330480Y60100D03*
X335480Y60100D03*
D23*
X449580Y83820D03*
X393700Y83820D03*
X449580Y121920D03*
X393700Y121920D03*
D24*
X299840Y269213D03*
X304840Y289588D03*
X299840Y289588D03*
X309840Y289588D03*
X314840Y289588D03*
X304840Y269213D03*
X309840Y269213D03*
X314840Y269213D03*
D25*
X310740Y279400D03*
X303940Y279400D03*
D17*
X303610Y257810D03*
X313610Y257810D03*
D26*
X357130Y551600D03*
X357130Y540600D03*
X338830Y540600D03*
X338830Y551600D03*
D17*
X353441Y505380D03*
X353441Y495380D03*
X342980Y524510D03*
X352980Y524510D03*
D23*
X317500Y121920D03*
X373380Y121920D03*
X317500Y83820D03*
X373380Y83820D03*
D27*
X373079Y212700D03*
X373079Y203200D03*
X373079Y193700D03*
X399081Y193700D03*
X399081Y212700D03*
X366061Y247040D03*
X366061Y256540D03*
X366061Y266040D03*
X340059Y266040D03*
X340059Y247040D03*
D17*
X293370Y30560D03*
X293370Y40560D03*
X402590Y29290D03*
X402590Y39290D03*
X380920Y142240D03*
X370920Y142240D03*
X356870Y195660D03*
X356870Y205660D03*
X356870Y215980D03*
X356870Y225980D03*
X391080Y226060D03*
X381080Y226060D03*
X336630Y289814D03*
X346630Y289814D03*
X323850Y340280D03*
X323850Y330280D03*
X429180Y427101D03*
X419180Y427101D03*
X346630Y280670D03*
X336630Y280670D03*
X382270Y266620D03*
X382270Y256620D03*
X325120Y261540D03*
X325120Y251540D03*
X452120Y68500D03*
X452120Y58500D03*
D11*
X426910Y61270D02*
X426910Y68270D01*
X433910Y68270D01*
X433910Y61270D01*
X426910Y61270D01*
X426910Y64120D02*
X433910Y64120D01*
X433910Y66970D02*
X426910Y66970D01*
X409370Y68270D02*
X409370Y61270D01*
X409370Y68270D02*
X416370Y68270D01*
X416370Y61270D01*
X409370Y61270D01*
X409370Y64120D02*
X416370Y64120D01*
X416370Y66970D02*
X409370Y66970D01*
D10*
X619760Y176600D03*
X619760Y153600D03*
D11*
X586930Y301300D02*
X586930Y308300D01*
X593930Y308300D01*
X593930Y301300D01*
X586930Y301300D01*
X586930Y304150D02*
X593930Y304150D01*
X593930Y307000D02*
X586930Y307000D01*
X569390Y308300D02*
X569390Y301300D01*
X569390Y308300D02*
X576390Y308300D01*
X576390Y301300D01*
X569390Y301300D01*
X569390Y304150D02*
X576390Y304150D01*
X576390Y307000D02*
X569390Y307000D01*
D12*
X600550Y155600D03*
X600550Y174600D03*
X579550Y165100D03*
D11*
X576390Y326700D02*
X576390Y333700D01*
X576390Y326700D02*
X569390Y326700D01*
X569390Y333700D01*
X576390Y333700D01*
X576390Y329550D02*
X569390Y329550D01*
X569390Y332400D02*
X576390Y332400D01*
X593930Y333700D02*
X593930Y326700D01*
X586930Y326700D01*
X586930Y333700D01*
X593930Y333700D01*
X593930Y329550D02*
X586930Y329550D01*
X586930Y332400D02*
X593930Y332400D01*
D13*
X481410Y121980D03*
X481410Y65980D03*
D14*
X518160Y108980D03*
X518160Y98980D03*
X518160Y88980D03*
X518160Y78980D03*
D15*
X539920Y170340D03*
X539920Y190340D03*
D16*
X487920Y146340D03*
X487920Y214340D03*
D17*
X526970Y422910D03*
X516970Y422910D03*
X516970Y466090D03*
X526970Y466090D03*
D18*
X590010Y467320D03*
D17*
X598010Y443070D03*
D18*
X594010Y467320D03*
X598010Y467320D03*
X602010Y467320D03*
X606010Y467320D03*
X610010Y467320D03*
X614010Y467320D03*
X562010Y467320D03*
X566010Y467320D03*
X570010Y467320D03*
X574010Y467320D03*
X578010Y467320D03*
X582010Y467320D03*
X586010Y467320D03*
D19*
X553760Y435070D03*
X553760Y439070D03*
X553760Y443070D03*
X553760Y447070D03*
X553760Y451070D03*
X553760Y455070D03*
X553760Y459070D03*
X553760Y407070D03*
X553760Y411070D03*
X553760Y415070D03*
X553760Y419070D03*
X553760Y423070D03*
X553760Y427070D03*
X553760Y431070D03*
D18*
X586010Y398820D03*
X582010Y398820D03*
X578010Y398820D03*
X574010Y398820D03*
X570010Y398820D03*
X566010Y398820D03*
X562010Y398820D03*
X614010Y398820D03*
X610010Y398820D03*
X606010Y398820D03*
X602010Y398820D03*
X598010Y398820D03*
X594010Y398820D03*
X590010Y398820D03*
D19*
X622260Y431070D03*
X622260Y427070D03*
X622260Y423070D03*
X622260Y419070D03*
X622260Y415070D03*
X622260Y411070D03*
X622260Y407070D03*
X622260Y459070D03*
X622260Y455070D03*
X622260Y451070D03*
X622260Y447070D03*
X622260Y443070D03*
X622260Y439070D03*
X622260Y435070D03*
D17*
X578010Y443070D03*
X578010Y423070D03*
X598010Y423070D03*
X588010Y433070D03*
X516970Y413639D03*
X526970Y413639D03*
X526970Y404241D03*
X516970Y404241D03*
X652860Y436245D03*
X662860Y436245D03*
X652860Y401828D03*
X662860Y401828D03*
X652860Y461899D03*
X662860Y461899D03*
X614680Y494110D03*
X614680Y504110D03*
X577850Y495380D03*
X577850Y505380D03*
X652860Y478790D03*
X662860Y478790D03*
X652860Y452755D03*
X662860Y452755D03*
X526970Y394970D03*
X516970Y394970D03*
X584962Y389810D03*
X584962Y379810D03*
X652860Y410972D03*
X662860Y410972D03*
D20*
X514870Y453040D03*
X514870Y436040D03*
X528870Y436040D03*
X528870Y453040D03*
D21*
X589160Y60100D03*
X584160Y60100D03*
D22*
X613910Y60100D03*
X606160Y60100D03*
D21*
X599160Y60100D03*
X594160Y60100D03*
X574160Y60100D03*
X579160Y60100D03*
D22*
X549410Y60100D03*
X557160Y60100D03*
D21*
X564160Y60100D03*
X569160Y60100D03*
D23*
X683260Y83820D03*
X627380Y83820D03*
X683260Y121920D03*
X627380Y121920D03*
D24*
X533520Y269213D03*
X538520Y289588D03*
X533520Y289588D03*
X543520Y289588D03*
X548520Y289588D03*
X538520Y269213D03*
X543520Y269213D03*
X548520Y269213D03*
D25*
X544420Y279400D03*
X537620Y279400D03*
D17*
X537290Y257810D03*
X547290Y257810D03*
D26*
X590810Y551600D03*
X590810Y540600D03*
X572510Y540600D03*
X572510Y551600D03*
D17*
X587121Y505380D03*
X587121Y495380D03*
X576660Y524510D03*
X586660Y524510D03*
D23*
X551180Y121920D03*
X607060Y121920D03*
X551180Y83820D03*
X607060Y83820D03*
D27*
X606759Y212700D03*
X606759Y203200D03*
X606759Y193700D03*
X632761Y193700D03*
X632761Y212700D03*
X599741Y247040D03*
X599741Y256540D03*
X599741Y266040D03*
X573739Y266040D03*
X573739Y247040D03*
D17*
X527050Y30560D03*
X527050Y40560D03*
X636270Y29290D03*
X636270Y39290D03*
X614600Y142240D03*
X604600Y142240D03*
X590550Y195660D03*
X590550Y205660D03*
X590550Y215980D03*
X590550Y225980D03*
X624760Y226060D03*
X614760Y226060D03*
X570310Y289814D03*
X580310Y289814D03*
X557530Y340280D03*
X557530Y330280D03*
X662860Y427101D03*
X652860Y427101D03*
X580310Y280670D03*
X570310Y280670D03*
X615950Y266620D03*
X615950Y256620D03*
X558800Y261540D03*
X558800Y251540D03*
X685800Y68500D03*
X685800Y58500D03*
D11*
X660590Y61270D02*
X660590Y68270D01*
X667590Y68270D01*
X667590Y61270D01*
X660590Y61270D01*
X660590Y64120D02*
X667590Y64120D01*
X667590Y66970D02*
X660590Y66970D01*
X643050Y68270D02*
X643050Y61270D01*
X643050Y68270D02*
X650050Y68270D01*
X650050Y61270D01*
X643050Y61270D01*
X643050Y64120D02*
X650050Y64120D01*
X650050Y66970D02*
X643050Y66970D01*
D10*
X853440Y176600D03*
X853440Y153600D03*
D11*
X820610Y301300D02*
X820610Y308300D01*
X827610Y308300D01*
X827610Y301300D01*
X820610Y301300D01*
X820610Y304150D02*
X827610Y304150D01*
X827610Y307000D02*
X820610Y307000D01*
X803070Y308300D02*
X803070Y301300D01*
X803070Y308300D02*
X810070Y308300D01*
X810070Y301300D01*
X803070Y301300D01*
X803070Y304150D02*
X810070Y304150D01*
X810070Y307000D02*
X803070Y307000D01*
D12*
X834230Y155600D03*
X834230Y174600D03*
X813230Y165100D03*
D11*
X810070Y326700D02*
X810070Y333700D01*
X810070Y326700D02*
X803070Y326700D01*
X803070Y333700D01*
X810070Y333700D01*
X810070Y329550D02*
X803070Y329550D01*
X803070Y332400D02*
X810070Y332400D01*
X827610Y333700D02*
X827610Y326700D01*
X820610Y326700D01*
X820610Y333700D01*
X827610Y333700D01*
X827610Y329550D02*
X820610Y329550D01*
X820610Y332400D02*
X827610Y332400D01*
D13*
X715090Y121980D03*
X715090Y65980D03*
D14*
X751840Y108980D03*
X751840Y98980D03*
X751840Y88980D03*
X751840Y78980D03*
D15*
X773600Y170340D03*
X773600Y190340D03*
D16*
X721600Y146340D03*
X721600Y214340D03*
D17*
X760650Y422910D03*
X750650Y422910D03*
X750650Y466090D03*
X760650Y466090D03*
D18*
X823690Y467320D03*
D17*
X831690Y443070D03*
D18*
X827690Y467320D03*
X831690Y467320D03*
X835690Y467320D03*
X839690Y467320D03*
X843690Y467320D03*
X847690Y467320D03*
X795690Y467320D03*
X799690Y467320D03*
X803690Y467320D03*
X807690Y467320D03*
X811690Y467320D03*
X815690Y467320D03*
X819690Y467320D03*
D19*
X787440Y435070D03*
X787440Y439070D03*
X787440Y443070D03*
X787440Y447070D03*
X787440Y451070D03*
X787440Y455070D03*
X787440Y459070D03*
X787440Y407070D03*
X787440Y411070D03*
X787440Y415070D03*
X787440Y419070D03*
X787440Y423070D03*
X787440Y427070D03*
X787440Y431070D03*
D18*
X819690Y398820D03*
X815690Y398820D03*
X811690Y398820D03*
X807690Y398820D03*
X803690Y398820D03*
X799690Y398820D03*
X795690Y398820D03*
X847690Y398820D03*
X843690Y398820D03*
X839690Y398820D03*
X835690Y398820D03*
X831690Y398820D03*
X827690Y398820D03*
X823690Y398820D03*
D19*
X855940Y431070D03*
X855940Y427070D03*
X855940Y423070D03*
X855940Y419070D03*
X855940Y415070D03*
X855940Y411070D03*
X855940Y407070D03*
X855940Y459070D03*
X855940Y455070D03*
X855940Y451070D03*
X855940Y447070D03*
X855940Y443070D03*
X855940Y439070D03*
X855940Y435070D03*
D17*
X811690Y443070D03*
X811690Y423070D03*
X831690Y423070D03*
X821690Y433070D03*
X750650Y413639D03*
X760650Y413639D03*
X760650Y404241D03*
X750650Y404241D03*
X886540Y436245D03*
X896540Y436245D03*
X886540Y401828D03*
X896540Y401828D03*
X886540Y461899D03*
X896540Y461899D03*
X848360Y494110D03*
X848360Y504110D03*
X811530Y495380D03*
X811530Y505380D03*
X886540Y478790D03*
X896540Y478790D03*
X886540Y452755D03*
X896540Y452755D03*
X760650Y394970D03*
X750650Y394970D03*
X818642Y389810D03*
X818642Y379810D03*
X886540Y410972D03*
X896540Y410972D03*
D20*
X748550Y453040D03*
X748550Y436040D03*
X762550Y436040D03*
X762550Y453040D03*
D21*
X822840Y60100D03*
X817840Y60100D03*
D22*
X847590Y60100D03*
X839840Y60100D03*
D21*
X832840Y60100D03*
X827840Y60100D03*
X807840Y60100D03*
X812840Y60100D03*
D22*
X783090Y60100D03*
X790840Y60100D03*
D21*
X797840Y60100D03*
X802840Y60100D03*
D23*
X916940Y83820D03*
X861060Y83820D03*
X916940Y121920D03*
X861060Y121920D03*
D24*
X767200Y269213D03*
X772200Y289588D03*
X767200Y289588D03*
X777200Y289588D03*
X782200Y289588D03*
X772200Y269213D03*
X777200Y269213D03*
X782200Y269213D03*
D25*
X778100Y279400D03*
X771300Y279400D03*
D17*
X770970Y257810D03*
X780970Y257810D03*
D26*
X824490Y551600D03*
X824490Y540600D03*
X806190Y540600D03*
X806190Y551600D03*
D17*
X820801Y505380D03*
X820801Y495380D03*
X810340Y524510D03*
X820340Y524510D03*
D23*
X784860Y121920D03*
X840740Y121920D03*
X784860Y83820D03*
X840740Y83820D03*
D27*
X840439Y212700D03*
X840439Y203200D03*
X840439Y193700D03*
X866441Y193700D03*
X866441Y212700D03*
X833421Y247040D03*
X833421Y256540D03*
X833421Y266040D03*
X807419Y266040D03*
X807419Y247040D03*
D17*
X760730Y30560D03*
X760730Y40560D03*
X869950Y29290D03*
X869950Y39290D03*
X848280Y142240D03*
X838280Y142240D03*
X824230Y195660D03*
X824230Y205660D03*
X824230Y215980D03*
X824230Y225980D03*
X858440Y226060D03*
X848440Y226060D03*
X803990Y289814D03*
X813990Y289814D03*
X791210Y340280D03*
X791210Y330280D03*
X896540Y427101D03*
X886540Y427101D03*
X813990Y280670D03*
X803990Y280670D03*
X849630Y266620D03*
X849630Y256620D03*
X792480Y261540D03*
X792480Y251540D03*
X919480Y68500D03*
X919480Y58500D03*
D11*
X894270Y61270D02*
X894270Y68270D01*
X901270Y68270D01*
X901270Y61270D01*
X894270Y61270D01*
X894270Y64120D02*
X901270Y64120D01*
X901270Y66970D02*
X894270Y66970D01*
X876730Y68270D02*
X876730Y61270D01*
X876730Y68270D02*
X883730Y68270D01*
X883730Y61270D01*
X876730Y61270D01*
X876730Y64120D02*
X883730Y64120D01*
X883730Y66970D02*
X876730Y66970D01*
D10*
X152400Y791280D03*
X152400Y768280D03*
D11*
X119570Y915980D02*
X119570Y922980D01*
X126570Y922980D01*
X126570Y915980D01*
X119570Y915980D01*
X119570Y918830D02*
X126570Y918830D01*
X126570Y921680D02*
X119570Y921680D01*
X102030Y922980D02*
X102030Y915980D01*
X102030Y922980D02*
X109030Y922980D01*
X109030Y915980D01*
X102030Y915980D01*
X102030Y918830D02*
X109030Y918830D01*
X109030Y921680D02*
X102030Y921680D01*
D12*
X133190Y770280D03*
X133190Y789280D03*
X112190Y779780D03*
D11*
X109030Y941380D02*
X109030Y948380D01*
X109030Y941380D02*
X102030Y941380D01*
X102030Y948380D01*
X109030Y948380D01*
X109030Y944230D02*
X102030Y944230D01*
X102030Y947080D02*
X109030Y947080D01*
X126570Y948380D02*
X126570Y941380D01*
X119570Y941380D01*
X119570Y948380D01*
X126570Y948380D01*
X126570Y944230D02*
X119570Y944230D01*
X119570Y947080D02*
X126570Y947080D01*
D13*
X14050Y736660D03*
X14050Y680660D03*
D14*
X50800Y723660D03*
X50800Y713660D03*
X50800Y703660D03*
X50800Y693660D03*
D15*
X72560Y785020D03*
X72560Y805020D03*
D16*
X20560Y761020D03*
X20560Y829020D03*
D17*
X59610Y1037590D03*
X49610Y1037590D03*
X49610Y1080770D03*
X59610Y1080770D03*
D18*
X122650Y1082000D03*
D17*
X130650Y1057750D03*
D18*
X126650Y1082000D03*
X130650Y1082000D03*
X134650Y1082000D03*
X138650Y1082000D03*
X142650Y1082000D03*
X146650Y1082000D03*
X94650Y1082000D03*
X98650Y1082000D03*
X102650Y1082000D03*
X106650Y1082000D03*
X110650Y1082000D03*
X114650Y1082000D03*
X118650Y1082000D03*
D19*
X86400Y1049750D03*
X86400Y1053750D03*
X86400Y1057750D03*
X86400Y1061750D03*
X86400Y1065750D03*
X86400Y1069750D03*
X86400Y1073750D03*
X86400Y1021750D03*
X86400Y1025750D03*
X86400Y1029750D03*
X86400Y1033750D03*
X86400Y1037750D03*
X86400Y1041750D03*
X86400Y1045750D03*
D18*
X118650Y1013500D03*
X114650Y1013500D03*
X110650Y1013500D03*
X106650Y1013500D03*
X102650Y1013500D03*
X98650Y1013500D03*
X94650Y1013500D03*
X146650Y1013500D03*
X142650Y1013500D03*
X138650Y1013500D03*
X134650Y1013500D03*
X130650Y1013500D03*
X126650Y1013500D03*
X122650Y1013500D03*
D19*
X154900Y1045750D03*
X154900Y1041750D03*
X154900Y1037750D03*
X154900Y1033750D03*
X154900Y1029750D03*
X154900Y1025750D03*
X154900Y1021750D03*
X154900Y1073750D03*
X154900Y1069750D03*
X154900Y1065750D03*
X154900Y1061750D03*
X154900Y1057750D03*
X154900Y1053750D03*
X154900Y1049750D03*
D17*
X110650Y1057750D03*
X110650Y1037750D03*
X130650Y1037750D03*
X120650Y1047750D03*
X49610Y1028319D03*
X59610Y1028319D03*
X59610Y1018921D03*
X49610Y1018921D03*
X185500Y1050925D03*
X195500Y1050925D03*
X185500Y1016508D03*
X195500Y1016508D03*
X185500Y1076579D03*
X195500Y1076579D03*
X147320Y1108790D03*
X147320Y1118790D03*
X110490Y1110060D03*
X110490Y1120060D03*
X185500Y1093470D03*
X195500Y1093470D03*
X185500Y1067435D03*
X195500Y1067435D03*
X59610Y1009650D03*
X49610Y1009650D03*
X117602Y1004490D03*
X117602Y994490D03*
X185500Y1025652D03*
X195500Y1025652D03*
D20*
X47510Y1067720D03*
X47510Y1050720D03*
X61510Y1050720D03*
X61510Y1067720D03*
D21*
X121800Y674780D03*
X116800Y674780D03*
D22*
X146550Y674780D03*
X138800Y674780D03*
D21*
X131800Y674780D03*
X126800Y674780D03*
X106800Y674780D03*
X111800Y674780D03*
D22*
X82050Y674780D03*
X89800Y674780D03*
D21*
X96800Y674780D03*
X101800Y674780D03*
D23*
X215900Y698500D03*
X160020Y698500D03*
X215900Y736600D03*
X160020Y736600D03*
D24*
X66160Y883893D03*
X71160Y904268D03*
X66160Y904268D03*
X76160Y904268D03*
X81160Y904268D03*
X71160Y883893D03*
X76160Y883893D03*
X81160Y883893D03*
D25*
X77060Y894080D03*
X70260Y894080D03*
D17*
X69930Y872490D03*
X79930Y872490D03*
D26*
X123450Y1166280D03*
X123450Y1155280D03*
X105150Y1155280D03*
X105150Y1166280D03*
D17*
X119761Y1120060D03*
X119761Y1110060D03*
X109300Y1139190D03*
X119300Y1139190D03*
D23*
X83820Y736600D03*
X139700Y736600D03*
X83820Y698500D03*
X139700Y698500D03*
D27*
X139399Y827380D03*
X139399Y817880D03*
X139399Y808380D03*
X165401Y808380D03*
X165401Y827380D03*
X132381Y861720D03*
X132381Y871220D03*
X132381Y880720D03*
X106379Y880720D03*
X106379Y861720D03*
D17*
X59690Y645240D03*
X59690Y655240D03*
X168910Y643970D03*
X168910Y653970D03*
X147240Y756920D03*
X137240Y756920D03*
X123190Y810340D03*
X123190Y820340D03*
X123190Y830660D03*
X123190Y840660D03*
X157400Y840740D03*
X147400Y840740D03*
X102950Y904494D03*
X112950Y904494D03*
X90170Y954960D03*
X90170Y944960D03*
X195500Y1041781D03*
X185500Y1041781D03*
X112950Y895350D03*
X102950Y895350D03*
X148590Y881300D03*
X148590Y871300D03*
X91440Y876220D03*
X91440Y866220D03*
X218440Y683180D03*
X218440Y673180D03*
D11*
X193230Y675950D02*
X193230Y682950D01*
X200230Y682950D01*
X200230Y675950D01*
X193230Y675950D01*
X193230Y678800D02*
X200230Y678800D01*
X200230Y681650D02*
X193230Y681650D01*
X175690Y682950D02*
X175690Y675950D01*
X175690Y682950D02*
X182690Y682950D01*
X182690Y675950D01*
X175690Y675950D01*
X175690Y678800D02*
X182690Y678800D01*
X182690Y681650D02*
X175690Y681650D01*
D10*
X386080Y791280D03*
X386080Y768280D03*
D11*
X353250Y915980D02*
X353250Y922980D01*
X360250Y922980D01*
X360250Y915980D01*
X353250Y915980D01*
X353250Y918830D02*
X360250Y918830D01*
X360250Y921680D02*
X353250Y921680D01*
X335710Y922980D02*
X335710Y915980D01*
X335710Y922980D02*
X342710Y922980D01*
X342710Y915980D01*
X335710Y915980D01*
X335710Y918830D02*
X342710Y918830D01*
X342710Y921680D02*
X335710Y921680D01*
D12*
X366870Y770280D03*
X366870Y789280D03*
X345870Y779780D03*
D11*
X342710Y941380D02*
X342710Y948380D01*
X342710Y941380D02*
X335710Y941380D01*
X335710Y948380D01*
X342710Y948380D01*
X342710Y944230D02*
X335710Y944230D01*
X335710Y947080D02*
X342710Y947080D01*
X360250Y948380D02*
X360250Y941380D01*
X353250Y941380D01*
X353250Y948380D01*
X360250Y948380D01*
X360250Y944230D02*
X353250Y944230D01*
X353250Y947080D02*
X360250Y947080D01*
D13*
X247730Y736660D03*
X247730Y680660D03*
D14*
X284480Y723660D03*
X284480Y713660D03*
X284480Y703660D03*
X284480Y693660D03*
D15*
X306240Y785020D03*
X306240Y805020D03*
D16*
X254240Y761020D03*
X254240Y829020D03*
D17*
X293290Y1037590D03*
X283290Y1037590D03*
X283290Y1080770D03*
X293290Y1080770D03*
D18*
X356330Y1082000D03*
D17*
X364330Y1057750D03*
D18*
X360330Y1082000D03*
X364330Y1082000D03*
X368330Y1082000D03*
X372330Y1082000D03*
X376330Y1082000D03*
X380330Y1082000D03*
X328330Y1082000D03*
X332330Y1082000D03*
X336330Y1082000D03*
X340330Y1082000D03*
X344330Y1082000D03*
X348330Y1082000D03*
X352330Y1082000D03*
D19*
X320080Y1049750D03*
X320080Y1053750D03*
X320080Y1057750D03*
X320080Y1061750D03*
X320080Y1065750D03*
X320080Y1069750D03*
X320080Y1073750D03*
X320080Y1021750D03*
X320080Y1025750D03*
X320080Y1029750D03*
X320080Y1033750D03*
X320080Y1037750D03*
X320080Y1041750D03*
X320080Y1045750D03*
D18*
X352330Y1013500D03*
X348330Y1013500D03*
X344330Y1013500D03*
X340330Y1013500D03*
X336330Y1013500D03*
X332330Y1013500D03*
X328330Y1013500D03*
X380330Y1013500D03*
X376330Y1013500D03*
X372330Y1013500D03*
X368330Y1013500D03*
X364330Y1013500D03*
X360330Y1013500D03*
X356330Y1013500D03*
D19*
X388580Y1045750D03*
X388580Y1041750D03*
X388580Y1037750D03*
X388580Y1033750D03*
X388580Y1029750D03*
X388580Y1025750D03*
X388580Y1021750D03*
X388580Y1073750D03*
X388580Y1069750D03*
X388580Y1065750D03*
X388580Y1061750D03*
X388580Y1057750D03*
X388580Y1053750D03*
X388580Y1049750D03*
D17*
X344330Y1057750D03*
X344330Y1037750D03*
X364330Y1037750D03*
X354330Y1047750D03*
X283290Y1028319D03*
X293290Y1028319D03*
X293290Y1018921D03*
X283290Y1018921D03*
X419180Y1050925D03*
X429180Y1050925D03*
X419180Y1016508D03*
X429180Y1016508D03*
X419180Y1076579D03*
X429180Y1076579D03*
X381000Y1108790D03*
X381000Y1118790D03*
X344170Y1110060D03*
X344170Y1120060D03*
X419180Y1093470D03*
X429180Y1093470D03*
X419180Y1067435D03*
X429180Y1067435D03*
X293290Y1009650D03*
X283290Y1009650D03*
X351282Y1004490D03*
X351282Y994490D03*
X419180Y1025652D03*
X429180Y1025652D03*
D20*
X281190Y1067720D03*
X281190Y1050720D03*
X295190Y1050720D03*
X295190Y1067720D03*
D21*
X355480Y674780D03*
X350480Y674780D03*
D22*
X380230Y674780D03*
X372480Y674780D03*
D21*
X365480Y674780D03*
X360480Y674780D03*
X340480Y674780D03*
X345480Y674780D03*
D22*
X315730Y674780D03*
X323480Y674780D03*
D21*
X330480Y674780D03*
X335480Y674780D03*
D23*
X449580Y698500D03*
X393700Y698500D03*
X449580Y736600D03*
X393700Y736600D03*
D24*
X299840Y883893D03*
X304840Y904268D03*
X299840Y904268D03*
X309840Y904268D03*
X314840Y904268D03*
X304840Y883893D03*
X309840Y883893D03*
X314840Y883893D03*
D25*
X310740Y894080D03*
X303940Y894080D03*
D17*
X303610Y872490D03*
X313610Y872490D03*
D26*
X357130Y1166280D03*
X357130Y1155280D03*
X338830Y1155280D03*
X338830Y1166280D03*
D17*
X353441Y1120060D03*
X353441Y1110060D03*
X342980Y1139190D03*
X352980Y1139190D03*
D23*
X317500Y736600D03*
X373380Y736600D03*
X317500Y698500D03*
X373380Y698500D03*
D27*
X373079Y827380D03*
X373079Y817880D03*
X373079Y808380D03*
X399081Y808380D03*
X399081Y827380D03*
X366061Y861720D03*
X366061Y871220D03*
X366061Y880720D03*
X340059Y880720D03*
X340059Y861720D03*
D17*
X293370Y645240D03*
X293370Y655240D03*
X402590Y643970D03*
X402590Y653970D03*
X380920Y756920D03*
X370920Y756920D03*
X356870Y810340D03*
X356870Y820340D03*
X356870Y830660D03*
X356870Y840660D03*
X391080Y840740D03*
X381080Y840740D03*
X336630Y904494D03*
X346630Y904494D03*
X323850Y954960D03*
X323850Y944960D03*
X429180Y1041781D03*
X419180Y1041781D03*
X346630Y895350D03*
X336630Y895350D03*
X382270Y881300D03*
X382270Y871300D03*
X325120Y876220D03*
X325120Y866220D03*
X452120Y683180D03*
X452120Y673180D03*
D11*
X426910Y675950D02*
X426910Y682950D01*
X433910Y682950D01*
X433910Y675950D01*
X426910Y675950D01*
X426910Y678800D02*
X433910Y678800D01*
X433910Y681650D02*
X426910Y681650D01*
X409370Y682950D02*
X409370Y675950D01*
X409370Y682950D02*
X416370Y682950D01*
X416370Y675950D01*
X409370Y675950D01*
X409370Y678800D02*
X416370Y678800D01*
X416370Y681650D02*
X409370Y681650D01*
D10*
X619760Y791280D03*
X619760Y768280D03*
D11*
X586930Y915980D02*
X586930Y922980D01*
X593930Y922980D01*
X593930Y915980D01*
X586930Y915980D01*
X586930Y918830D02*
X593930Y918830D01*
X593930Y921680D02*
X586930Y921680D01*
X569390Y922980D02*
X569390Y915980D01*
X569390Y922980D02*
X576390Y922980D01*
X576390Y915980D01*
X569390Y915980D01*
X569390Y918830D02*
X576390Y918830D01*
X576390Y921680D02*
X569390Y921680D01*
D12*
X600550Y770280D03*
X600550Y789280D03*
X579550Y779780D03*
D11*
X576390Y941380D02*
X576390Y948380D01*
X576390Y941380D02*
X569390Y941380D01*
X569390Y948380D01*
X576390Y948380D01*
X576390Y944230D02*
X569390Y944230D01*
X569390Y947080D02*
X576390Y947080D01*
X593930Y948380D02*
X593930Y941380D01*
X586930Y941380D01*
X586930Y948380D01*
X593930Y948380D01*
X593930Y944230D02*
X586930Y944230D01*
X586930Y947080D02*
X593930Y947080D01*
D13*
X481410Y736660D03*
X481410Y680660D03*
D14*
X518160Y723660D03*
X518160Y713660D03*
X518160Y703660D03*
X518160Y693660D03*
D15*
X539920Y785020D03*
X539920Y805020D03*
D16*
X487920Y761020D03*
X487920Y829020D03*
D17*
X526970Y1037590D03*
X516970Y1037590D03*
X516970Y1080770D03*
X526970Y1080770D03*
D18*
X590010Y1082000D03*
D17*
X598010Y1057750D03*
D18*
X594010Y1082000D03*
X598010Y1082000D03*
X602010Y1082000D03*
X606010Y1082000D03*
X610010Y1082000D03*
X614010Y1082000D03*
X562010Y1082000D03*
X566010Y1082000D03*
X570010Y1082000D03*
X574010Y1082000D03*
X578010Y1082000D03*
X582010Y1082000D03*
X586010Y1082000D03*
D19*
X553760Y1049750D03*
X553760Y1053750D03*
X553760Y1057750D03*
X553760Y1061750D03*
X553760Y1065750D03*
X553760Y1069750D03*
X553760Y1073750D03*
X553760Y1021750D03*
X553760Y1025750D03*
X553760Y1029750D03*
X553760Y1033750D03*
X553760Y1037750D03*
X553760Y1041750D03*
X553760Y1045750D03*
D18*
X586010Y1013500D03*
X582010Y1013500D03*
X578010Y1013500D03*
X574010Y1013500D03*
X570010Y1013500D03*
X566010Y1013500D03*
X562010Y1013500D03*
X614010Y1013500D03*
X610010Y1013500D03*
X606010Y1013500D03*
X602010Y1013500D03*
X598010Y1013500D03*
X594010Y1013500D03*
X590010Y1013500D03*
D19*
X622260Y1045750D03*
X622260Y1041750D03*
X622260Y1037750D03*
X622260Y1033750D03*
X622260Y1029750D03*
X622260Y1025750D03*
X622260Y1021750D03*
X622260Y1073750D03*
X622260Y1069750D03*
X622260Y1065750D03*
X622260Y1061750D03*
X622260Y1057750D03*
X622260Y1053750D03*
X622260Y1049750D03*
D17*
X578010Y1057750D03*
X578010Y1037750D03*
X598010Y1037750D03*
X588010Y1047750D03*
X516970Y1028319D03*
X526970Y1028319D03*
X526970Y1018921D03*
X516970Y1018921D03*
X652860Y1050925D03*
X662860Y1050925D03*
X652860Y1016508D03*
X662860Y1016508D03*
X652860Y1076579D03*
X662860Y1076579D03*
X614680Y1108790D03*
X614680Y1118790D03*
X577850Y1110060D03*
X577850Y1120060D03*
X652860Y1093470D03*
X662860Y1093470D03*
X652860Y1067435D03*
X662860Y1067435D03*
X526970Y1009650D03*
X516970Y1009650D03*
X584962Y1004490D03*
X584962Y994490D03*
X652860Y1025652D03*
X662860Y1025652D03*
D20*
X514870Y1067720D03*
X514870Y1050720D03*
X528870Y1050720D03*
X528870Y1067720D03*
D21*
X589160Y674780D03*
X584160Y674780D03*
D22*
X613910Y674780D03*
X606160Y674780D03*
D21*
X599160Y674780D03*
X594160Y674780D03*
X574160Y674780D03*
X579160Y674780D03*
D22*
X549410Y674780D03*
X557160Y674780D03*
D21*
X564160Y674780D03*
X569160Y674780D03*
D23*
X683260Y698500D03*
X627380Y698500D03*
X683260Y736600D03*
X627380Y736600D03*
D24*
X533520Y883893D03*
X538520Y904268D03*
X533520Y904268D03*
X543520Y904268D03*
X548520Y904268D03*
X538520Y883893D03*
X543520Y883893D03*
X548520Y883893D03*
D25*
X544420Y894080D03*
X537620Y894080D03*
D17*
X537290Y872490D03*
X547290Y872490D03*
D26*
X590810Y1166280D03*
X590810Y1155280D03*
X572510Y1155280D03*
X572510Y1166280D03*
D17*
X587121Y1120060D03*
X587121Y1110060D03*
X576660Y1139190D03*
X586660Y1139190D03*
D23*
X551180Y736600D03*
X607060Y736600D03*
X551180Y698500D03*
X607060Y698500D03*
D27*
X606759Y827380D03*
X606759Y817880D03*
X606759Y808380D03*
X632761Y808380D03*
X632761Y827380D03*
X599741Y861720D03*
X599741Y871220D03*
X599741Y880720D03*
X573739Y880720D03*
X573739Y861720D03*
D17*
X527050Y645240D03*
X527050Y655240D03*
X636270Y643970D03*
X636270Y653970D03*
X614600Y756920D03*
X604600Y756920D03*
X590550Y810340D03*
X590550Y820340D03*
X590550Y830660D03*
X590550Y840660D03*
X624760Y840740D03*
X614760Y840740D03*
X570310Y904494D03*
X580310Y904494D03*
X557530Y954960D03*
X557530Y944960D03*
X662860Y1041781D03*
X652860Y1041781D03*
X580310Y895350D03*
X570310Y895350D03*
X615950Y881300D03*
X615950Y871300D03*
X558800Y876220D03*
X558800Y866220D03*
X685800Y683180D03*
X685800Y673180D03*
D11*
X660590Y675950D02*
X660590Y682950D01*
X667590Y682950D01*
X667590Y675950D01*
X660590Y675950D01*
X660590Y678800D02*
X667590Y678800D01*
X667590Y681650D02*
X660590Y681650D01*
X643050Y682950D02*
X643050Y675950D01*
X643050Y682950D02*
X650050Y682950D01*
X650050Y675950D01*
X643050Y675950D01*
X643050Y678800D02*
X650050Y678800D01*
X650050Y681650D02*
X643050Y681650D01*
D10*
X853440Y791280D03*
X853440Y768280D03*
D11*
X820610Y915980D02*
X820610Y922980D01*
X827610Y922980D01*
X827610Y915980D01*
X820610Y915980D01*
X820610Y918830D02*
X827610Y918830D01*
X827610Y921680D02*
X820610Y921680D01*
X803070Y922980D02*
X803070Y915980D01*
X803070Y922980D02*
X810070Y922980D01*
X810070Y915980D01*
X803070Y915980D01*
X803070Y918830D02*
X810070Y918830D01*
X810070Y921680D02*
X803070Y921680D01*
D12*
X834230Y770280D03*
X834230Y789280D03*
X813230Y779780D03*
D11*
X810070Y941380D02*
X810070Y948380D01*
X810070Y941380D02*
X803070Y941380D01*
X803070Y948380D01*
X810070Y948380D01*
X810070Y944230D02*
X803070Y944230D01*
X803070Y947080D02*
X810070Y947080D01*
X827610Y948380D02*
X827610Y941380D01*
X820610Y941380D01*
X820610Y948380D01*
X827610Y948380D01*
X827610Y944230D02*
X820610Y944230D01*
X820610Y947080D02*
X827610Y947080D01*
D13*
X715090Y736660D03*
X715090Y680660D03*
D14*
X751840Y723660D03*
X751840Y713660D03*
X751840Y703660D03*
X751840Y693660D03*
D15*
X773600Y785020D03*
X773600Y805020D03*
D16*
X721600Y761020D03*
X721600Y829020D03*
D17*
X760650Y1037590D03*
X750650Y1037590D03*
X750650Y1080770D03*
X760650Y1080770D03*
D18*
X823690Y1082000D03*
D17*
X831690Y1057750D03*
D18*
X827690Y1082000D03*
X831690Y1082000D03*
X835690Y1082000D03*
X839690Y1082000D03*
X843690Y1082000D03*
X847690Y1082000D03*
X795690Y1082000D03*
X799690Y1082000D03*
X803690Y1082000D03*
X807690Y1082000D03*
X811690Y1082000D03*
X815690Y1082000D03*
X819690Y1082000D03*
D19*
X787440Y1049750D03*
X787440Y1053750D03*
X787440Y1057750D03*
X787440Y1061750D03*
X787440Y1065750D03*
X787440Y1069750D03*
X787440Y1073750D03*
X787440Y1021750D03*
X787440Y1025750D03*
X787440Y1029750D03*
X787440Y1033750D03*
X787440Y1037750D03*
X787440Y1041750D03*
X787440Y1045750D03*
D18*
X819690Y1013500D03*
X815690Y1013500D03*
X811690Y1013500D03*
X807690Y1013500D03*
X803690Y1013500D03*
X799690Y1013500D03*
X795690Y1013500D03*
X847690Y1013500D03*
X843690Y1013500D03*
X839690Y1013500D03*
X835690Y1013500D03*
X831690Y1013500D03*
X827690Y1013500D03*
X823690Y1013500D03*
D19*
X855940Y1045750D03*
X855940Y1041750D03*
X855940Y1037750D03*
X855940Y1033750D03*
X855940Y1029750D03*
X855940Y1025750D03*
X855940Y1021750D03*
X855940Y1073750D03*
X855940Y1069750D03*
X855940Y1065750D03*
X855940Y1061750D03*
X855940Y1057750D03*
X855940Y1053750D03*
X855940Y1049750D03*
D17*
X811690Y1057750D03*
X811690Y1037750D03*
X831690Y1037750D03*
X821690Y1047750D03*
X750650Y1028319D03*
X760650Y1028319D03*
X760650Y1018921D03*
X750650Y1018921D03*
X886540Y1050925D03*
X896540Y1050925D03*
X886540Y1016508D03*
X896540Y1016508D03*
X886540Y1076579D03*
X896540Y1076579D03*
X848360Y1108790D03*
X848360Y1118790D03*
X811530Y1110060D03*
X811530Y1120060D03*
X886540Y1093470D03*
X896540Y1093470D03*
X886540Y1067435D03*
X896540Y1067435D03*
X760650Y1009650D03*
X750650Y1009650D03*
X818642Y1004490D03*
X818642Y994490D03*
X886540Y1025652D03*
X896540Y1025652D03*
D20*
X748550Y1067720D03*
X748550Y1050720D03*
X762550Y1050720D03*
X762550Y1067720D03*
D21*
X822840Y674780D03*
X817840Y674780D03*
D22*
X847590Y674780D03*
X839840Y674780D03*
D21*
X832840Y674780D03*
X827840Y674780D03*
X807840Y674780D03*
X812840Y674780D03*
D22*
X783090Y674780D03*
X790840Y674780D03*
D21*
X797840Y674780D03*
X802840Y674780D03*
D23*
X916940Y698500D03*
X861060Y698500D03*
X916940Y736600D03*
X861060Y736600D03*
D24*
X767200Y883893D03*
X772200Y904268D03*
X767200Y904268D03*
X777200Y904268D03*
X782200Y904268D03*
X772200Y883893D03*
X777200Y883893D03*
X782200Y883893D03*
D25*
X778100Y894080D03*
X771300Y894080D03*
D17*
X770970Y872490D03*
X780970Y872490D03*
D26*
X824490Y1166280D03*
X824490Y1155280D03*
X806190Y1155280D03*
X806190Y1166280D03*
D17*
X820801Y1120060D03*
X820801Y1110060D03*
X810340Y1139190D03*
X820340Y1139190D03*
D23*
X784860Y736600D03*
X840740Y736600D03*
X784860Y698500D03*
X840740Y698500D03*
D27*
X840439Y827380D03*
X840439Y817880D03*
X840439Y808380D03*
X866441Y808380D03*
X866441Y827380D03*
X833421Y861720D03*
X833421Y871220D03*
X833421Y880720D03*
X807419Y880720D03*
X807419Y861720D03*
D17*
X760730Y645240D03*
X760730Y655240D03*
X869950Y643970D03*
X869950Y653970D03*
X848280Y756920D03*
X838280Y756920D03*
X824230Y810340D03*
X824230Y820340D03*
X824230Y830660D03*
X824230Y840660D03*
X858440Y840740D03*
X848440Y840740D03*
X803990Y904494D03*
X813990Y904494D03*
X791210Y954960D03*
X791210Y944960D03*
X896540Y1041781D03*
X886540Y1041781D03*
X813990Y895350D03*
X803990Y895350D03*
X849630Y881300D03*
X849630Y871300D03*
X792480Y876220D03*
X792480Y866220D03*
X919480Y683180D03*
X919480Y673180D03*
D11*
X894270Y675950D02*
X894270Y682950D01*
X901270Y682950D01*
X901270Y675950D01*
X894270Y675950D01*
X894270Y678800D02*
X901270Y678800D01*
X901270Y681650D02*
X894270Y681650D01*
X876730Y682950D02*
X876730Y675950D01*
X876730Y682950D02*
X883730Y682950D01*
X883730Y675950D01*
X876730Y675950D01*
X876730Y678800D02*
X883730Y678800D01*
X883730Y681650D02*
X876730Y681650D01*
M02*
