G04 EAGLE Gerber RS-274X export*
G75*
%MOMM*%
%FSLAX34Y34*%
%LPD*%
%INSoldermask Top*%
%IPPOS*%
%AMOC8*
5,1,8,0,0,1.08239X$1,22.5*%
G01*
%ADD10R,1.033200X0.833200*%
%ADD11C,0.505344*%
%ADD12R,1.103200X1.003200*%
%ADD13C,0.838200*%
%ADD14R,2.203200X1.403200*%
%ADD15R,1.553200X0.803200*%
%ADD16R,4.803200X1.203200*%
%ADD17R,3.603200X1.803200*%
%ADD18C,3.505200*%
%ADD19R,0.803200X0.803200*%
%ADD20C,0.282238*%
%ADD21R,3.403200X3.403200*%
%ADD22R,1.303200X1.403200*%
%ADD23R,0.503200X1.203200*%
%ADD24R,0.803200X1.203200*%
%ADD25C,0.853200*%
%ADD26R,1.727200X0.965200*%
%ADD27R,0.440000X0.840000*%
%ADD28R,1.520000X0.940000*%
%ADD29R,0.903200X0.903200*%
%ADD30C,2.082800*%
%ADD31R,1.403200X0.753200*%
%ADD32C,1.203200*%
%ADD33C,1.270000*%
%ADD34C,1.703200*%

G36*
X859824Y657563D02*
X859824Y657563D01*
X859830Y657569D01*
X859835Y657565D01*
X861065Y657930D01*
X861070Y657937D01*
X861075Y657935D01*
X862194Y658565D01*
X862197Y658572D01*
X862203Y658571D01*
X863153Y659434D01*
X863154Y659442D01*
X863160Y659442D01*
X863894Y660495D01*
X863894Y660503D01*
X863899Y660505D01*
X864381Y661695D01*
X864379Y661700D01*
X864383Y661703D01*
X864382Y661704D01*
X864384Y661705D01*
X864589Y662972D01*
X864586Y662977D01*
X864589Y662980D01*
X864589Y674980D01*
X864586Y674984D01*
X864589Y674987D01*
X864434Y676109D01*
X864429Y676114D01*
X864432Y676118D01*
X864061Y677189D01*
X864055Y677193D01*
X864057Y677198D01*
X863484Y678175D01*
X863478Y678178D01*
X863479Y678183D01*
X862726Y679030D01*
X862719Y679032D01*
X862719Y679037D01*
X861816Y679721D01*
X861809Y679721D01*
X861808Y679726D01*
X860789Y680221D01*
X860782Y680219D01*
X860780Y680224D01*
X859683Y680511D01*
X859677Y680508D01*
X859674Y680512D01*
X858543Y680579D01*
X858537Y680579D01*
X857406Y680512D01*
X857401Y680507D01*
X857397Y680511D01*
X856300Y680224D01*
X856296Y680218D01*
X856291Y680221D01*
X855272Y679726D01*
X855269Y679720D01*
X855264Y679721D01*
X854361Y679037D01*
X854359Y679030D01*
X854354Y679030D01*
X853601Y678183D01*
X853601Y678176D01*
X853596Y678175D01*
X853023Y677198D01*
X853024Y677195D01*
X853023Y677194D01*
X853024Y677193D01*
X853024Y677191D01*
X853019Y677189D01*
X852648Y676118D01*
X852650Y676113D01*
X852647Y676111D01*
X852647Y676110D01*
X852646Y676109D01*
X852491Y674987D01*
X852494Y674982D01*
X852491Y674980D01*
X852491Y662980D01*
X852494Y662975D01*
X852491Y662972D01*
X852696Y661705D01*
X852702Y661699D01*
X852699Y661695D01*
X853181Y660505D01*
X853188Y660501D01*
X853186Y660495D01*
X853920Y659442D01*
X853928Y659440D01*
X853927Y659434D01*
X854877Y658571D01*
X854886Y658570D01*
X854886Y658565D01*
X856005Y657935D01*
X856013Y657936D01*
X856015Y657930D01*
X857245Y657565D01*
X857253Y657568D01*
X857256Y657563D01*
X858537Y657481D01*
X858541Y657484D01*
X858543Y657481D01*
X859824Y657563D01*
G37*
G36*
X306064Y657563D02*
X306064Y657563D01*
X306070Y657569D01*
X306075Y657565D01*
X307305Y657930D01*
X307310Y657937D01*
X307315Y657935D01*
X308434Y658565D01*
X308437Y658572D01*
X308443Y658571D01*
X309393Y659434D01*
X309394Y659442D01*
X309400Y659442D01*
X310134Y660495D01*
X310134Y660503D01*
X310139Y660505D01*
X310621Y661695D01*
X310619Y661700D01*
X310623Y661703D01*
X310622Y661704D01*
X310624Y661705D01*
X310829Y662972D01*
X310826Y662977D01*
X310829Y662980D01*
X310829Y674980D01*
X310826Y674984D01*
X310829Y674987D01*
X310674Y676109D01*
X310669Y676114D01*
X310672Y676118D01*
X310301Y677189D01*
X310295Y677193D01*
X310297Y677198D01*
X309724Y678175D01*
X309718Y678178D01*
X309719Y678183D01*
X308966Y679030D01*
X308959Y679032D01*
X308959Y679037D01*
X308056Y679721D01*
X308049Y679721D01*
X308048Y679726D01*
X307029Y680221D01*
X307022Y680219D01*
X307020Y680224D01*
X305923Y680511D01*
X305917Y680508D01*
X305914Y680512D01*
X304783Y680579D01*
X304777Y680579D01*
X303646Y680512D01*
X303641Y680507D01*
X303637Y680511D01*
X302540Y680224D01*
X302536Y680218D01*
X302531Y680221D01*
X301512Y679726D01*
X301509Y679720D01*
X301504Y679721D01*
X300601Y679037D01*
X300599Y679030D01*
X300594Y679030D01*
X299841Y678183D01*
X299841Y678176D01*
X299836Y678175D01*
X299263Y677198D01*
X299264Y677195D01*
X299263Y677194D01*
X299264Y677193D01*
X299264Y677191D01*
X299259Y677189D01*
X298888Y676118D01*
X298890Y676113D01*
X298887Y676111D01*
X298887Y676110D01*
X298886Y676109D01*
X298731Y674987D01*
X298734Y674982D01*
X298731Y674980D01*
X298731Y662980D01*
X298734Y662975D01*
X298731Y662972D01*
X298936Y661705D01*
X298942Y661699D01*
X298939Y661695D01*
X299421Y660505D01*
X299428Y660501D01*
X299426Y660495D01*
X300160Y659442D01*
X300168Y659440D01*
X300167Y659434D01*
X301117Y658571D01*
X301126Y658570D01*
X301126Y658565D01*
X302245Y657935D01*
X302253Y657936D01*
X302255Y657930D01*
X303485Y657565D01*
X303493Y657568D01*
X303496Y657563D01*
X304777Y657481D01*
X304781Y657484D01*
X304783Y657481D01*
X306064Y657563D01*
G37*
G36*
X392464Y657563D02*
X392464Y657563D01*
X392470Y657569D01*
X392475Y657565D01*
X393705Y657930D01*
X393710Y657937D01*
X393715Y657935D01*
X394834Y658565D01*
X394837Y658572D01*
X394843Y658571D01*
X395793Y659434D01*
X395794Y659442D01*
X395800Y659442D01*
X396534Y660495D01*
X396534Y660503D01*
X396539Y660505D01*
X397021Y661695D01*
X397019Y661700D01*
X397023Y661703D01*
X397022Y661704D01*
X397024Y661705D01*
X397229Y662972D01*
X397226Y662977D01*
X397229Y662980D01*
X397229Y674980D01*
X397226Y674984D01*
X397229Y674987D01*
X397074Y676109D01*
X397069Y676114D01*
X397072Y676118D01*
X396701Y677189D01*
X396695Y677193D01*
X396697Y677198D01*
X396124Y678175D01*
X396118Y678178D01*
X396119Y678183D01*
X395366Y679030D01*
X395359Y679032D01*
X395359Y679037D01*
X394456Y679721D01*
X394449Y679721D01*
X394448Y679726D01*
X393429Y680221D01*
X393422Y680219D01*
X393420Y680224D01*
X392323Y680511D01*
X392317Y680508D01*
X392314Y680512D01*
X391183Y680579D01*
X391177Y680579D01*
X390046Y680512D01*
X390041Y680507D01*
X390037Y680511D01*
X388940Y680224D01*
X388936Y680218D01*
X388931Y680221D01*
X387912Y679726D01*
X387909Y679720D01*
X387904Y679721D01*
X387001Y679037D01*
X386999Y679030D01*
X386994Y679030D01*
X386241Y678183D01*
X386241Y678176D01*
X386236Y678175D01*
X385663Y677198D01*
X385664Y677195D01*
X385663Y677194D01*
X385664Y677193D01*
X385664Y677191D01*
X385659Y677189D01*
X385288Y676118D01*
X385290Y676113D01*
X385287Y676111D01*
X385287Y676110D01*
X385286Y676109D01*
X385131Y674987D01*
X385134Y674982D01*
X385131Y674980D01*
X385131Y662980D01*
X385134Y662975D01*
X385131Y662972D01*
X385336Y661705D01*
X385342Y661699D01*
X385339Y661695D01*
X385821Y660505D01*
X385828Y660501D01*
X385826Y660495D01*
X386560Y659442D01*
X386568Y659440D01*
X386567Y659434D01*
X387517Y658571D01*
X387526Y658570D01*
X387526Y658565D01*
X388645Y657935D01*
X388653Y657936D01*
X388655Y657930D01*
X389885Y657565D01*
X389893Y657568D01*
X389896Y657563D01*
X391177Y657481D01*
X391181Y657484D01*
X391183Y657481D01*
X392464Y657563D01*
G37*
G36*
X539744Y657563D02*
X539744Y657563D01*
X539750Y657569D01*
X539755Y657565D01*
X540985Y657930D01*
X540990Y657937D01*
X540995Y657935D01*
X542114Y658565D01*
X542117Y658572D01*
X542123Y658571D01*
X543073Y659434D01*
X543074Y659442D01*
X543080Y659442D01*
X543814Y660495D01*
X543814Y660503D01*
X543819Y660505D01*
X544301Y661695D01*
X544299Y661700D01*
X544303Y661703D01*
X544302Y661704D01*
X544304Y661705D01*
X544509Y662972D01*
X544506Y662977D01*
X544509Y662980D01*
X544509Y674980D01*
X544506Y674984D01*
X544509Y674987D01*
X544354Y676109D01*
X544349Y676114D01*
X544352Y676118D01*
X543981Y677189D01*
X543975Y677193D01*
X543977Y677198D01*
X543404Y678175D01*
X543398Y678178D01*
X543399Y678183D01*
X542646Y679030D01*
X542639Y679032D01*
X542639Y679037D01*
X541736Y679721D01*
X541729Y679721D01*
X541728Y679726D01*
X540709Y680221D01*
X540702Y680219D01*
X540700Y680224D01*
X539603Y680511D01*
X539597Y680508D01*
X539594Y680512D01*
X538463Y680579D01*
X538457Y680579D01*
X537326Y680512D01*
X537321Y680507D01*
X537317Y680511D01*
X536220Y680224D01*
X536216Y680218D01*
X536211Y680221D01*
X535192Y679726D01*
X535189Y679720D01*
X535184Y679721D01*
X534281Y679037D01*
X534279Y679030D01*
X534274Y679030D01*
X533521Y678183D01*
X533521Y678176D01*
X533516Y678175D01*
X532943Y677198D01*
X532944Y677195D01*
X532943Y677194D01*
X532944Y677193D01*
X532944Y677191D01*
X532939Y677189D01*
X532568Y676118D01*
X532570Y676113D01*
X532567Y676111D01*
X532567Y676110D01*
X532566Y676109D01*
X532411Y674987D01*
X532414Y674982D01*
X532411Y674980D01*
X532411Y662980D01*
X532414Y662975D01*
X532411Y662972D01*
X532616Y661705D01*
X532622Y661699D01*
X532619Y661695D01*
X533101Y660505D01*
X533108Y660501D01*
X533106Y660495D01*
X533840Y659442D01*
X533848Y659440D01*
X533847Y659434D01*
X534797Y658571D01*
X534806Y658570D01*
X534806Y658565D01*
X535925Y657935D01*
X535933Y657936D01*
X535935Y657930D01*
X537165Y657565D01*
X537173Y657568D01*
X537176Y657563D01*
X538457Y657481D01*
X538461Y657484D01*
X538463Y657481D01*
X539744Y657563D01*
G37*
G36*
X626144Y657563D02*
X626144Y657563D01*
X626150Y657569D01*
X626155Y657565D01*
X627385Y657930D01*
X627390Y657937D01*
X627395Y657935D01*
X628514Y658565D01*
X628517Y658572D01*
X628523Y658571D01*
X629473Y659434D01*
X629474Y659442D01*
X629480Y659442D01*
X630214Y660495D01*
X630214Y660503D01*
X630219Y660505D01*
X630701Y661695D01*
X630699Y661700D01*
X630703Y661703D01*
X630702Y661704D01*
X630704Y661705D01*
X630909Y662972D01*
X630906Y662977D01*
X630909Y662980D01*
X630909Y674980D01*
X630906Y674984D01*
X630909Y674987D01*
X630754Y676109D01*
X630749Y676114D01*
X630752Y676118D01*
X630381Y677189D01*
X630375Y677193D01*
X630377Y677198D01*
X629804Y678175D01*
X629798Y678178D01*
X629799Y678183D01*
X629046Y679030D01*
X629039Y679032D01*
X629039Y679037D01*
X628136Y679721D01*
X628129Y679721D01*
X628128Y679726D01*
X627109Y680221D01*
X627102Y680219D01*
X627100Y680224D01*
X626003Y680511D01*
X625997Y680508D01*
X625994Y680512D01*
X624863Y680579D01*
X624857Y680579D01*
X623726Y680512D01*
X623721Y680507D01*
X623717Y680511D01*
X622620Y680224D01*
X622616Y680218D01*
X622611Y680221D01*
X621592Y679726D01*
X621589Y679720D01*
X621584Y679721D01*
X620681Y679037D01*
X620679Y679030D01*
X620674Y679030D01*
X619921Y678183D01*
X619921Y678176D01*
X619916Y678175D01*
X619343Y677198D01*
X619344Y677195D01*
X619343Y677194D01*
X619344Y677193D01*
X619344Y677191D01*
X619339Y677189D01*
X618968Y676118D01*
X618970Y676113D01*
X618967Y676111D01*
X618967Y676110D01*
X618966Y676109D01*
X618811Y674987D01*
X618814Y674982D01*
X618811Y674980D01*
X618811Y662980D01*
X618814Y662975D01*
X618811Y662972D01*
X619016Y661705D01*
X619022Y661699D01*
X619019Y661695D01*
X619501Y660505D01*
X619508Y660501D01*
X619506Y660495D01*
X620240Y659442D01*
X620248Y659440D01*
X620247Y659434D01*
X621197Y658571D01*
X621206Y658570D01*
X621206Y658565D01*
X622325Y657935D01*
X622333Y657936D01*
X622335Y657930D01*
X623565Y657565D01*
X623573Y657568D01*
X623576Y657563D01*
X624857Y657481D01*
X624861Y657484D01*
X624863Y657481D01*
X626144Y657563D01*
G37*
G36*
X158784Y657563D02*
X158784Y657563D01*
X158790Y657569D01*
X158795Y657565D01*
X160025Y657930D01*
X160030Y657937D01*
X160035Y657935D01*
X161154Y658565D01*
X161157Y658572D01*
X161163Y658571D01*
X162113Y659434D01*
X162114Y659442D01*
X162120Y659442D01*
X162854Y660495D01*
X162854Y660503D01*
X162859Y660505D01*
X163341Y661695D01*
X163339Y661700D01*
X163343Y661703D01*
X163342Y661704D01*
X163344Y661705D01*
X163549Y662972D01*
X163546Y662977D01*
X163549Y662980D01*
X163549Y674980D01*
X163546Y674984D01*
X163549Y674987D01*
X163394Y676109D01*
X163389Y676114D01*
X163392Y676118D01*
X163021Y677189D01*
X163015Y677193D01*
X163017Y677198D01*
X162444Y678175D01*
X162438Y678178D01*
X162439Y678183D01*
X161686Y679030D01*
X161679Y679032D01*
X161679Y679037D01*
X160776Y679721D01*
X160769Y679721D01*
X160768Y679726D01*
X159749Y680221D01*
X159742Y680219D01*
X159740Y680224D01*
X158643Y680511D01*
X158637Y680508D01*
X158634Y680512D01*
X157503Y680579D01*
X157497Y680579D01*
X156366Y680512D01*
X156361Y680507D01*
X156357Y680511D01*
X155260Y680224D01*
X155256Y680218D01*
X155251Y680221D01*
X154232Y679726D01*
X154229Y679720D01*
X154224Y679721D01*
X153321Y679037D01*
X153319Y679030D01*
X153314Y679030D01*
X152561Y678183D01*
X152561Y678176D01*
X152556Y678175D01*
X151983Y677198D01*
X151984Y677195D01*
X151983Y677194D01*
X151984Y677193D01*
X151984Y677191D01*
X151979Y677189D01*
X151608Y676118D01*
X151610Y676113D01*
X151607Y676111D01*
X151607Y676110D01*
X151606Y676109D01*
X151451Y674987D01*
X151454Y674982D01*
X151451Y674980D01*
X151451Y662980D01*
X151454Y662975D01*
X151451Y662972D01*
X151656Y661705D01*
X151662Y661699D01*
X151659Y661695D01*
X152141Y660505D01*
X152148Y660501D01*
X152146Y660495D01*
X152880Y659442D01*
X152888Y659440D01*
X152887Y659434D01*
X153837Y658571D01*
X153846Y658570D01*
X153846Y658565D01*
X154965Y657935D01*
X154973Y657936D01*
X154975Y657930D01*
X156205Y657565D01*
X156213Y657568D01*
X156216Y657563D01*
X157497Y657481D01*
X157501Y657484D01*
X157503Y657481D01*
X158784Y657563D01*
G37*
G36*
X773424Y657563D02*
X773424Y657563D01*
X773430Y657569D01*
X773435Y657565D01*
X774665Y657930D01*
X774670Y657937D01*
X774675Y657935D01*
X775794Y658565D01*
X775797Y658572D01*
X775803Y658571D01*
X776753Y659434D01*
X776754Y659442D01*
X776760Y659442D01*
X777494Y660495D01*
X777494Y660503D01*
X777499Y660505D01*
X777981Y661695D01*
X777979Y661700D01*
X777983Y661703D01*
X777982Y661704D01*
X777984Y661705D01*
X778189Y662972D01*
X778186Y662977D01*
X778189Y662980D01*
X778189Y674980D01*
X778186Y674984D01*
X778189Y674987D01*
X778034Y676109D01*
X778029Y676114D01*
X778032Y676118D01*
X777661Y677189D01*
X777655Y677193D01*
X777657Y677198D01*
X777084Y678175D01*
X777078Y678178D01*
X777079Y678183D01*
X776326Y679030D01*
X776319Y679032D01*
X776319Y679037D01*
X775416Y679721D01*
X775409Y679721D01*
X775408Y679726D01*
X774389Y680221D01*
X774382Y680219D01*
X774380Y680224D01*
X773283Y680511D01*
X773277Y680508D01*
X773274Y680512D01*
X772143Y680579D01*
X772137Y680579D01*
X771006Y680512D01*
X771001Y680507D01*
X770997Y680511D01*
X769900Y680224D01*
X769896Y680218D01*
X769891Y680221D01*
X768872Y679726D01*
X768869Y679720D01*
X768864Y679721D01*
X767961Y679037D01*
X767959Y679030D01*
X767954Y679030D01*
X767201Y678183D01*
X767201Y678176D01*
X767196Y678175D01*
X766623Y677198D01*
X766624Y677195D01*
X766623Y677194D01*
X766624Y677193D01*
X766624Y677191D01*
X766619Y677189D01*
X766248Y676118D01*
X766250Y676113D01*
X766247Y676111D01*
X766247Y676110D01*
X766246Y676109D01*
X766091Y674987D01*
X766094Y674982D01*
X766091Y674980D01*
X766091Y662980D01*
X766094Y662975D01*
X766091Y662972D01*
X766296Y661705D01*
X766302Y661699D01*
X766299Y661695D01*
X766781Y660505D01*
X766788Y660501D01*
X766786Y660495D01*
X767520Y659442D01*
X767528Y659440D01*
X767527Y659434D01*
X768477Y658571D01*
X768486Y658570D01*
X768486Y658565D01*
X769605Y657935D01*
X769613Y657936D01*
X769615Y657930D01*
X770845Y657565D01*
X770853Y657568D01*
X770856Y657563D01*
X772137Y657481D01*
X772141Y657484D01*
X772143Y657481D01*
X773424Y657563D01*
G37*
G36*
X72384Y657563D02*
X72384Y657563D01*
X72390Y657569D01*
X72395Y657565D01*
X73625Y657930D01*
X73630Y657937D01*
X73635Y657935D01*
X74754Y658565D01*
X74757Y658572D01*
X74763Y658571D01*
X75713Y659434D01*
X75714Y659442D01*
X75720Y659442D01*
X76454Y660495D01*
X76454Y660503D01*
X76459Y660505D01*
X76941Y661695D01*
X76939Y661700D01*
X76943Y661703D01*
X76942Y661704D01*
X76944Y661705D01*
X77149Y662972D01*
X77146Y662977D01*
X77149Y662980D01*
X77149Y674980D01*
X77146Y674984D01*
X77149Y674987D01*
X76994Y676109D01*
X76989Y676114D01*
X76992Y676118D01*
X76621Y677189D01*
X76615Y677193D01*
X76617Y677198D01*
X76044Y678175D01*
X76038Y678178D01*
X76039Y678183D01*
X75286Y679030D01*
X75279Y679032D01*
X75279Y679037D01*
X74376Y679721D01*
X74369Y679721D01*
X74368Y679726D01*
X73349Y680221D01*
X73342Y680219D01*
X73340Y680224D01*
X72243Y680511D01*
X72237Y680508D01*
X72234Y680512D01*
X71103Y680579D01*
X71097Y680579D01*
X69966Y680512D01*
X69961Y680507D01*
X69957Y680511D01*
X68860Y680224D01*
X68856Y680218D01*
X68851Y680221D01*
X67832Y679726D01*
X67829Y679720D01*
X67824Y679721D01*
X66921Y679037D01*
X66919Y679030D01*
X66914Y679030D01*
X66161Y678183D01*
X66161Y678176D01*
X66156Y678175D01*
X65583Y677198D01*
X65584Y677195D01*
X65583Y677194D01*
X65584Y677193D01*
X65584Y677191D01*
X65579Y677189D01*
X65208Y676118D01*
X65210Y676113D01*
X65207Y676111D01*
X65207Y676110D01*
X65206Y676109D01*
X65051Y674987D01*
X65054Y674982D01*
X65051Y674980D01*
X65051Y662980D01*
X65054Y662975D01*
X65051Y662972D01*
X65256Y661705D01*
X65262Y661699D01*
X65259Y661695D01*
X65741Y660505D01*
X65748Y660501D01*
X65746Y660495D01*
X66480Y659442D01*
X66488Y659440D01*
X66487Y659434D01*
X67437Y658571D01*
X67446Y658570D01*
X67446Y658565D01*
X68565Y657935D01*
X68573Y657936D01*
X68575Y657930D01*
X69805Y657565D01*
X69813Y657568D01*
X69816Y657563D01*
X71097Y657481D01*
X71101Y657484D01*
X71103Y657481D01*
X72384Y657563D01*
G37*
G36*
X158784Y42883D02*
X158784Y42883D01*
X158790Y42889D01*
X158795Y42885D01*
X160025Y43250D01*
X160030Y43257D01*
X160035Y43255D01*
X161154Y43885D01*
X161157Y43892D01*
X161163Y43891D01*
X162113Y44754D01*
X162114Y44762D01*
X162120Y44762D01*
X162854Y45815D01*
X162854Y45823D01*
X162859Y45825D01*
X163341Y47015D01*
X163339Y47020D01*
X163343Y47023D01*
X163342Y47024D01*
X163344Y47025D01*
X163549Y48292D01*
X163546Y48297D01*
X163549Y48300D01*
X163549Y60300D01*
X163546Y60304D01*
X163549Y60307D01*
X163394Y61429D01*
X163389Y61434D01*
X163392Y61438D01*
X163021Y62509D01*
X163015Y62513D01*
X163017Y62518D01*
X162444Y63495D01*
X162438Y63498D01*
X162439Y63503D01*
X161686Y64350D01*
X161679Y64352D01*
X161679Y64357D01*
X160776Y65041D01*
X160769Y65041D01*
X160768Y65046D01*
X159749Y65541D01*
X159742Y65539D01*
X159740Y65544D01*
X158643Y65831D01*
X158637Y65828D01*
X158634Y65832D01*
X157503Y65899D01*
X157497Y65899D01*
X156366Y65832D01*
X156361Y65827D01*
X156357Y65831D01*
X155260Y65544D01*
X155256Y65538D01*
X155251Y65541D01*
X154232Y65046D01*
X154229Y65040D01*
X154224Y65041D01*
X153321Y64357D01*
X153319Y64350D01*
X153314Y64350D01*
X152561Y63503D01*
X152561Y63496D01*
X152556Y63495D01*
X151983Y62518D01*
X151984Y62515D01*
X151983Y62514D01*
X151984Y62513D01*
X151984Y62511D01*
X151979Y62509D01*
X151608Y61438D01*
X151610Y61433D01*
X151607Y61431D01*
X151607Y61430D01*
X151606Y61429D01*
X151451Y60307D01*
X151454Y60302D01*
X151451Y60300D01*
X151451Y48300D01*
X151454Y48295D01*
X151451Y48292D01*
X151656Y47025D01*
X151662Y47019D01*
X151659Y47015D01*
X152141Y45825D01*
X152148Y45821D01*
X152146Y45815D01*
X152880Y44762D01*
X152888Y44760D01*
X152887Y44754D01*
X153837Y43891D01*
X153846Y43890D01*
X153846Y43885D01*
X154965Y43255D01*
X154973Y43256D01*
X154975Y43250D01*
X156205Y42885D01*
X156213Y42888D01*
X156216Y42883D01*
X157497Y42801D01*
X157501Y42804D01*
X157503Y42801D01*
X158784Y42883D01*
G37*
G36*
X539744Y42883D02*
X539744Y42883D01*
X539750Y42889D01*
X539755Y42885D01*
X540985Y43250D01*
X540990Y43257D01*
X540995Y43255D01*
X542114Y43885D01*
X542117Y43892D01*
X542123Y43891D01*
X543073Y44754D01*
X543074Y44762D01*
X543080Y44762D01*
X543814Y45815D01*
X543814Y45823D01*
X543819Y45825D01*
X544301Y47015D01*
X544299Y47020D01*
X544303Y47023D01*
X544302Y47024D01*
X544304Y47025D01*
X544509Y48292D01*
X544506Y48297D01*
X544509Y48300D01*
X544509Y60300D01*
X544506Y60304D01*
X544509Y60307D01*
X544354Y61429D01*
X544349Y61434D01*
X544352Y61438D01*
X543981Y62509D01*
X543975Y62513D01*
X543977Y62518D01*
X543404Y63495D01*
X543398Y63498D01*
X543399Y63503D01*
X542646Y64350D01*
X542639Y64352D01*
X542639Y64357D01*
X541736Y65041D01*
X541729Y65041D01*
X541728Y65046D01*
X540709Y65541D01*
X540702Y65539D01*
X540700Y65544D01*
X539603Y65831D01*
X539597Y65828D01*
X539594Y65832D01*
X538463Y65899D01*
X538457Y65899D01*
X537326Y65832D01*
X537321Y65827D01*
X537317Y65831D01*
X536220Y65544D01*
X536216Y65538D01*
X536211Y65541D01*
X535192Y65046D01*
X535189Y65040D01*
X535184Y65041D01*
X534281Y64357D01*
X534279Y64350D01*
X534274Y64350D01*
X533521Y63503D01*
X533521Y63496D01*
X533516Y63495D01*
X532943Y62518D01*
X532944Y62515D01*
X532943Y62514D01*
X532944Y62513D01*
X532944Y62511D01*
X532939Y62509D01*
X532568Y61438D01*
X532570Y61433D01*
X532567Y61431D01*
X532567Y61430D01*
X532566Y61429D01*
X532411Y60307D01*
X532414Y60302D01*
X532411Y60300D01*
X532411Y48300D01*
X532414Y48295D01*
X532411Y48292D01*
X532616Y47025D01*
X532622Y47019D01*
X532619Y47015D01*
X533101Y45825D01*
X533108Y45821D01*
X533106Y45815D01*
X533840Y44762D01*
X533848Y44760D01*
X533847Y44754D01*
X534797Y43891D01*
X534806Y43890D01*
X534806Y43885D01*
X535925Y43255D01*
X535933Y43256D01*
X535935Y43250D01*
X537165Y42885D01*
X537173Y42888D01*
X537176Y42883D01*
X538457Y42801D01*
X538461Y42804D01*
X538463Y42801D01*
X539744Y42883D01*
G37*
G36*
X72384Y42883D02*
X72384Y42883D01*
X72390Y42889D01*
X72395Y42885D01*
X73625Y43250D01*
X73630Y43257D01*
X73635Y43255D01*
X74754Y43885D01*
X74757Y43892D01*
X74763Y43891D01*
X75713Y44754D01*
X75714Y44762D01*
X75720Y44762D01*
X76454Y45815D01*
X76454Y45823D01*
X76459Y45825D01*
X76941Y47015D01*
X76939Y47020D01*
X76943Y47023D01*
X76942Y47024D01*
X76944Y47025D01*
X77149Y48292D01*
X77146Y48297D01*
X77149Y48300D01*
X77149Y60300D01*
X77146Y60304D01*
X77149Y60307D01*
X76994Y61429D01*
X76989Y61434D01*
X76992Y61438D01*
X76621Y62509D01*
X76615Y62513D01*
X76617Y62518D01*
X76044Y63495D01*
X76038Y63498D01*
X76039Y63503D01*
X75286Y64350D01*
X75279Y64352D01*
X75279Y64357D01*
X74376Y65041D01*
X74369Y65041D01*
X74368Y65046D01*
X73349Y65541D01*
X73342Y65539D01*
X73340Y65544D01*
X72243Y65831D01*
X72237Y65828D01*
X72234Y65832D01*
X71103Y65899D01*
X71097Y65899D01*
X69966Y65832D01*
X69961Y65827D01*
X69957Y65831D01*
X68860Y65544D01*
X68856Y65538D01*
X68851Y65541D01*
X67832Y65046D01*
X67829Y65040D01*
X67824Y65041D01*
X66921Y64357D01*
X66919Y64350D01*
X66914Y64350D01*
X66161Y63503D01*
X66161Y63496D01*
X66156Y63495D01*
X65583Y62518D01*
X65584Y62515D01*
X65583Y62514D01*
X65584Y62513D01*
X65584Y62511D01*
X65579Y62509D01*
X65208Y61438D01*
X65210Y61433D01*
X65207Y61431D01*
X65207Y61430D01*
X65206Y61429D01*
X65051Y60307D01*
X65054Y60302D01*
X65051Y60300D01*
X65051Y48300D01*
X65054Y48295D01*
X65051Y48292D01*
X65256Y47025D01*
X65262Y47019D01*
X65259Y47015D01*
X65741Y45825D01*
X65748Y45821D01*
X65746Y45815D01*
X66480Y44762D01*
X66488Y44760D01*
X66487Y44754D01*
X67437Y43891D01*
X67446Y43890D01*
X67446Y43885D01*
X68565Y43255D01*
X68573Y43256D01*
X68575Y43250D01*
X69805Y42885D01*
X69813Y42888D01*
X69816Y42883D01*
X71097Y42801D01*
X71101Y42804D01*
X71103Y42801D01*
X72384Y42883D01*
G37*
G36*
X773424Y42883D02*
X773424Y42883D01*
X773430Y42889D01*
X773435Y42885D01*
X774665Y43250D01*
X774670Y43257D01*
X774675Y43255D01*
X775794Y43885D01*
X775797Y43892D01*
X775803Y43891D01*
X776753Y44754D01*
X776754Y44762D01*
X776760Y44762D01*
X777494Y45815D01*
X777494Y45823D01*
X777499Y45825D01*
X777981Y47015D01*
X777979Y47020D01*
X777983Y47023D01*
X777982Y47024D01*
X777984Y47025D01*
X778189Y48292D01*
X778186Y48297D01*
X778189Y48300D01*
X778189Y60300D01*
X778186Y60304D01*
X778189Y60307D01*
X778034Y61429D01*
X778029Y61434D01*
X778032Y61438D01*
X777661Y62509D01*
X777655Y62513D01*
X777657Y62518D01*
X777084Y63495D01*
X777078Y63498D01*
X777079Y63503D01*
X776326Y64350D01*
X776319Y64352D01*
X776319Y64357D01*
X775416Y65041D01*
X775409Y65041D01*
X775408Y65046D01*
X774389Y65541D01*
X774382Y65539D01*
X774380Y65544D01*
X773283Y65831D01*
X773277Y65828D01*
X773274Y65832D01*
X772143Y65899D01*
X772137Y65899D01*
X771006Y65832D01*
X771001Y65827D01*
X770997Y65831D01*
X769900Y65544D01*
X769896Y65538D01*
X769891Y65541D01*
X768872Y65046D01*
X768869Y65040D01*
X768864Y65041D01*
X767961Y64357D01*
X767959Y64350D01*
X767954Y64350D01*
X767201Y63503D01*
X767201Y63496D01*
X767196Y63495D01*
X766623Y62518D01*
X766624Y62515D01*
X766623Y62514D01*
X766624Y62513D01*
X766624Y62511D01*
X766619Y62509D01*
X766248Y61438D01*
X766250Y61433D01*
X766247Y61431D01*
X766247Y61430D01*
X766246Y61429D01*
X766091Y60307D01*
X766094Y60302D01*
X766091Y60300D01*
X766091Y48300D01*
X766094Y48295D01*
X766091Y48292D01*
X766296Y47025D01*
X766302Y47019D01*
X766299Y47015D01*
X766781Y45825D01*
X766788Y45821D01*
X766786Y45815D01*
X767520Y44762D01*
X767528Y44760D01*
X767527Y44754D01*
X768477Y43891D01*
X768486Y43890D01*
X768486Y43885D01*
X769605Y43255D01*
X769613Y43256D01*
X769615Y43250D01*
X770845Y42885D01*
X770853Y42888D01*
X770856Y42883D01*
X772137Y42801D01*
X772141Y42804D01*
X772143Y42801D01*
X773424Y42883D01*
G37*
G36*
X306064Y42883D02*
X306064Y42883D01*
X306070Y42889D01*
X306075Y42885D01*
X307305Y43250D01*
X307310Y43257D01*
X307315Y43255D01*
X308434Y43885D01*
X308437Y43892D01*
X308443Y43891D01*
X309393Y44754D01*
X309394Y44762D01*
X309400Y44762D01*
X310134Y45815D01*
X310134Y45823D01*
X310139Y45825D01*
X310621Y47015D01*
X310619Y47020D01*
X310623Y47023D01*
X310622Y47024D01*
X310624Y47025D01*
X310829Y48292D01*
X310826Y48297D01*
X310829Y48300D01*
X310829Y60300D01*
X310826Y60304D01*
X310829Y60307D01*
X310674Y61429D01*
X310669Y61434D01*
X310672Y61438D01*
X310301Y62509D01*
X310295Y62513D01*
X310297Y62518D01*
X309724Y63495D01*
X309718Y63498D01*
X309719Y63503D01*
X308966Y64350D01*
X308959Y64352D01*
X308959Y64357D01*
X308056Y65041D01*
X308049Y65041D01*
X308048Y65046D01*
X307029Y65541D01*
X307022Y65539D01*
X307020Y65544D01*
X305923Y65831D01*
X305917Y65828D01*
X305914Y65832D01*
X304783Y65899D01*
X304777Y65899D01*
X303646Y65832D01*
X303641Y65827D01*
X303637Y65831D01*
X302540Y65544D01*
X302536Y65538D01*
X302531Y65541D01*
X301512Y65046D01*
X301509Y65040D01*
X301504Y65041D01*
X300601Y64357D01*
X300599Y64350D01*
X300594Y64350D01*
X299841Y63503D01*
X299841Y63496D01*
X299836Y63495D01*
X299263Y62518D01*
X299264Y62515D01*
X299263Y62514D01*
X299264Y62513D01*
X299264Y62511D01*
X299259Y62509D01*
X298888Y61438D01*
X298890Y61433D01*
X298887Y61431D01*
X298887Y61430D01*
X298886Y61429D01*
X298731Y60307D01*
X298734Y60302D01*
X298731Y60300D01*
X298731Y48300D01*
X298734Y48295D01*
X298731Y48292D01*
X298936Y47025D01*
X298942Y47019D01*
X298939Y47015D01*
X299421Y45825D01*
X299428Y45821D01*
X299426Y45815D01*
X300160Y44762D01*
X300168Y44760D01*
X300167Y44754D01*
X301117Y43891D01*
X301126Y43890D01*
X301126Y43885D01*
X302245Y43255D01*
X302253Y43256D01*
X302255Y43250D01*
X303485Y42885D01*
X303493Y42888D01*
X303496Y42883D01*
X304777Y42801D01*
X304781Y42804D01*
X304783Y42801D01*
X306064Y42883D01*
G37*
G36*
X626144Y42883D02*
X626144Y42883D01*
X626150Y42889D01*
X626155Y42885D01*
X627385Y43250D01*
X627390Y43257D01*
X627395Y43255D01*
X628514Y43885D01*
X628517Y43892D01*
X628523Y43891D01*
X629473Y44754D01*
X629474Y44762D01*
X629480Y44762D01*
X630214Y45815D01*
X630214Y45823D01*
X630219Y45825D01*
X630701Y47015D01*
X630699Y47020D01*
X630703Y47023D01*
X630702Y47024D01*
X630704Y47025D01*
X630909Y48292D01*
X630906Y48297D01*
X630909Y48300D01*
X630909Y60300D01*
X630906Y60304D01*
X630909Y60307D01*
X630754Y61429D01*
X630749Y61434D01*
X630752Y61438D01*
X630381Y62509D01*
X630375Y62513D01*
X630377Y62518D01*
X629804Y63495D01*
X629798Y63498D01*
X629799Y63503D01*
X629046Y64350D01*
X629039Y64352D01*
X629039Y64357D01*
X628136Y65041D01*
X628129Y65041D01*
X628128Y65046D01*
X627109Y65541D01*
X627102Y65539D01*
X627100Y65544D01*
X626003Y65831D01*
X625997Y65828D01*
X625994Y65832D01*
X624863Y65899D01*
X624857Y65899D01*
X623726Y65832D01*
X623721Y65827D01*
X623717Y65831D01*
X622620Y65544D01*
X622616Y65538D01*
X622611Y65541D01*
X621592Y65046D01*
X621589Y65040D01*
X621584Y65041D01*
X620681Y64357D01*
X620679Y64350D01*
X620674Y64350D01*
X619921Y63503D01*
X619921Y63496D01*
X619916Y63495D01*
X619343Y62518D01*
X619344Y62515D01*
X619343Y62514D01*
X619344Y62513D01*
X619344Y62511D01*
X619339Y62509D01*
X618968Y61438D01*
X618970Y61433D01*
X618967Y61431D01*
X618967Y61430D01*
X618966Y61429D01*
X618811Y60307D01*
X618814Y60302D01*
X618811Y60300D01*
X618811Y48300D01*
X618814Y48295D01*
X618811Y48292D01*
X619016Y47025D01*
X619022Y47019D01*
X619019Y47015D01*
X619501Y45825D01*
X619508Y45821D01*
X619506Y45815D01*
X620240Y44762D01*
X620248Y44760D01*
X620247Y44754D01*
X621197Y43891D01*
X621206Y43890D01*
X621206Y43885D01*
X622325Y43255D01*
X622333Y43256D01*
X622335Y43250D01*
X623565Y42885D01*
X623573Y42888D01*
X623576Y42883D01*
X624857Y42801D01*
X624861Y42804D01*
X624863Y42801D01*
X626144Y42883D01*
G37*
G36*
X392464Y42883D02*
X392464Y42883D01*
X392470Y42889D01*
X392475Y42885D01*
X393705Y43250D01*
X393710Y43257D01*
X393715Y43255D01*
X394834Y43885D01*
X394837Y43892D01*
X394843Y43891D01*
X395793Y44754D01*
X395794Y44762D01*
X395800Y44762D01*
X396534Y45815D01*
X396534Y45823D01*
X396539Y45825D01*
X397021Y47015D01*
X397019Y47020D01*
X397023Y47023D01*
X397022Y47024D01*
X397024Y47025D01*
X397229Y48292D01*
X397226Y48297D01*
X397229Y48300D01*
X397229Y60300D01*
X397226Y60304D01*
X397229Y60307D01*
X397074Y61429D01*
X397069Y61434D01*
X397072Y61438D01*
X396701Y62509D01*
X396695Y62513D01*
X396697Y62518D01*
X396124Y63495D01*
X396118Y63498D01*
X396119Y63503D01*
X395366Y64350D01*
X395359Y64352D01*
X395359Y64357D01*
X394456Y65041D01*
X394449Y65041D01*
X394448Y65046D01*
X393429Y65541D01*
X393422Y65539D01*
X393420Y65544D01*
X392323Y65831D01*
X392317Y65828D01*
X392314Y65832D01*
X391183Y65899D01*
X391177Y65899D01*
X390046Y65832D01*
X390041Y65827D01*
X390037Y65831D01*
X388940Y65544D01*
X388936Y65538D01*
X388931Y65541D01*
X387912Y65046D01*
X387909Y65040D01*
X387904Y65041D01*
X387001Y64357D01*
X386999Y64350D01*
X386994Y64350D01*
X386241Y63503D01*
X386241Y63496D01*
X386236Y63495D01*
X385663Y62518D01*
X385664Y62515D01*
X385663Y62514D01*
X385664Y62513D01*
X385664Y62511D01*
X385659Y62509D01*
X385288Y61438D01*
X385290Y61433D01*
X385287Y61431D01*
X385287Y61430D01*
X385286Y61429D01*
X385131Y60307D01*
X385134Y60302D01*
X385131Y60300D01*
X385131Y48300D01*
X385134Y48295D01*
X385131Y48292D01*
X385336Y47025D01*
X385342Y47019D01*
X385339Y47015D01*
X385821Y45825D01*
X385828Y45821D01*
X385826Y45815D01*
X386560Y44762D01*
X386568Y44760D01*
X386567Y44754D01*
X387517Y43891D01*
X387526Y43890D01*
X387526Y43885D01*
X388645Y43255D01*
X388653Y43256D01*
X388655Y43250D01*
X389885Y42885D01*
X389893Y42888D01*
X389896Y42883D01*
X391177Y42801D01*
X391181Y42804D01*
X391183Y42801D01*
X392464Y42883D01*
G37*
G36*
X859824Y42883D02*
X859824Y42883D01*
X859830Y42889D01*
X859835Y42885D01*
X861065Y43250D01*
X861070Y43257D01*
X861075Y43255D01*
X862194Y43885D01*
X862197Y43892D01*
X862203Y43891D01*
X863153Y44754D01*
X863154Y44762D01*
X863160Y44762D01*
X863894Y45815D01*
X863894Y45823D01*
X863899Y45825D01*
X864381Y47015D01*
X864379Y47020D01*
X864383Y47023D01*
X864382Y47024D01*
X864384Y47025D01*
X864589Y48292D01*
X864586Y48297D01*
X864589Y48300D01*
X864589Y60300D01*
X864586Y60304D01*
X864589Y60307D01*
X864434Y61429D01*
X864429Y61434D01*
X864432Y61438D01*
X864061Y62509D01*
X864055Y62513D01*
X864057Y62518D01*
X863484Y63495D01*
X863478Y63498D01*
X863479Y63503D01*
X862726Y64350D01*
X862719Y64352D01*
X862719Y64357D01*
X861816Y65041D01*
X861809Y65041D01*
X861808Y65046D01*
X860789Y65541D01*
X860782Y65539D01*
X860780Y65544D01*
X859683Y65831D01*
X859677Y65828D01*
X859674Y65832D01*
X858543Y65899D01*
X858537Y65899D01*
X857406Y65832D01*
X857401Y65827D01*
X857397Y65831D01*
X856300Y65544D01*
X856296Y65538D01*
X856291Y65541D01*
X855272Y65046D01*
X855269Y65040D01*
X855264Y65041D01*
X854361Y64357D01*
X854359Y64350D01*
X854354Y64350D01*
X853601Y63503D01*
X853601Y63496D01*
X853596Y63495D01*
X853023Y62518D01*
X853024Y62515D01*
X853023Y62514D01*
X853024Y62513D01*
X853024Y62511D01*
X853019Y62509D01*
X852648Y61438D01*
X852650Y61433D01*
X852647Y61431D01*
X852647Y61430D01*
X852646Y61429D01*
X852491Y60307D01*
X852494Y60302D01*
X852491Y60300D01*
X852491Y48300D01*
X852494Y48295D01*
X852491Y48292D01*
X852696Y47025D01*
X852702Y47019D01*
X852699Y47015D01*
X853181Y45825D01*
X853188Y45821D01*
X853186Y45815D01*
X853920Y44762D01*
X853928Y44760D01*
X853927Y44754D01*
X854877Y43891D01*
X854886Y43890D01*
X854886Y43885D01*
X856005Y43255D01*
X856013Y43256D01*
X856015Y43250D01*
X857245Y42885D01*
X857253Y42888D01*
X857256Y42883D01*
X858537Y42801D01*
X858541Y42804D01*
X858543Y42801D01*
X859824Y42883D01*
G37*
G36*
X392351Y618291D02*
X392351Y618291D01*
X392356Y618296D01*
X392360Y618293D01*
X393483Y618628D01*
X393487Y618634D01*
X393491Y618632D01*
X394527Y619180D01*
X394530Y619186D01*
X394535Y619185D01*
X395443Y619924D01*
X395445Y619931D01*
X395450Y619931D01*
X396197Y620833D01*
X396197Y620841D01*
X396203Y620841D01*
X396759Y621872D01*
X396758Y621879D01*
X396763Y621881D01*
X397107Y623000D01*
X397105Y623007D01*
X397109Y623010D01*
X397229Y624175D01*
X397227Y624178D01*
X397229Y624180D01*
X397229Y630180D01*
X397227Y630183D01*
X397229Y630185D01*
X397118Y631361D01*
X397113Y631366D01*
X397116Y631370D01*
X396778Y632502D01*
X396772Y632506D01*
X396774Y632511D01*
X396222Y633555D01*
X396215Y633558D01*
X396217Y633563D01*
X395471Y634479D01*
X395464Y634480D01*
X395464Y634486D01*
X394555Y635239D01*
X394547Y635239D01*
X394547Y635244D01*
X393507Y635805D01*
X393500Y635804D01*
X393498Y635809D01*
X392369Y636156D01*
X392363Y636154D01*
X392360Y636158D01*
X391185Y636279D01*
X391178Y636275D01*
X391174Y636279D01*
X389834Y636122D01*
X389828Y636117D01*
X389823Y636120D01*
X388552Y635669D01*
X388547Y635662D01*
X388542Y635664D01*
X387403Y634942D01*
X387400Y634934D01*
X387394Y634935D01*
X386444Y633977D01*
X386443Y633969D01*
X386437Y633968D01*
X385724Y632823D01*
X385725Y632815D01*
X385719Y632813D01*
X385279Y631537D01*
X385281Y631530D01*
X385277Y631527D01*
X385131Y630185D01*
X385133Y630182D01*
X385131Y630180D01*
X385131Y624180D01*
X385133Y624177D01*
X385131Y624174D01*
X385286Y622845D01*
X385292Y622839D01*
X385289Y622835D01*
X385736Y621574D01*
X385743Y621569D01*
X385741Y621564D01*
X386458Y620434D01*
X386465Y620431D01*
X386464Y620425D01*
X387415Y619483D01*
X387423Y619482D01*
X387423Y619476D01*
X388559Y618769D01*
X388567Y618770D01*
X388569Y618764D01*
X389834Y618328D01*
X389839Y618329D01*
X389840Y618329D01*
X389843Y618329D01*
X389845Y618325D01*
X391175Y618181D01*
X391181Y618185D01*
X391185Y618181D01*
X392351Y618291D01*
G37*
G36*
X773311Y618291D02*
X773311Y618291D01*
X773316Y618296D01*
X773320Y618293D01*
X774443Y618628D01*
X774447Y618634D01*
X774451Y618632D01*
X775487Y619180D01*
X775490Y619186D01*
X775495Y619185D01*
X776403Y619924D01*
X776405Y619931D01*
X776410Y619931D01*
X777157Y620833D01*
X777157Y620841D01*
X777163Y620841D01*
X777719Y621872D01*
X777718Y621879D01*
X777723Y621881D01*
X778067Y623000D01*
X778065Y623007D01*
X778069Y623010D01*
X778189Y624175D01*
X778187Y624178D01*
X778189Y624180D01*
X778189Y630180D01*
X778187Y630183D01*
X778189Y630185D01*
X778078Y631361D01*
X778073Y631366D01*
X778076Y631370D01*
X777738Y632502D01*
X777732Y632506D01*
X777734Y632511D01*
X777182Y633555D01*
X777175Y633558D01*
X777177Y633563D01*
X776431Y634479D01*
X776424Y634480D01*
X776424Y634486D01*
X775515Y635239D01*
X775507Y635239D01*
X775507Y635244D01*
X774467Y635805D01*
X774460Y635804D01*
X774458Y635809D01*
X773329Y636156D01*
X773323Y636154D01*
X773320Y636158D01*
X772145Y636279D01*
X772138Y636275D01*
X772134Y636279D01*
X770794Y636122D01*
X770788Y636117D01*
X770783Y636120D01*
X769512Y635669D01*
X769507Y635662D01*
X769502Y635664D01*
X768363Y634942D01*
X768360Y634934D01*
X768354Y634935D01*
X767404Y633977D01*
X767403Y633969D01*
X767397Y633968D01*
X766684Y632823D01*
X766685Y632815D01*
X766679Y632813D01*
X766239Y631537D01*
X766241Y631530D01*
X766237Y631527D01*
X766091Y630185D01*
X766093Y630182D01*
X766091Y630180D01*
X766091Y624180D01*
X766093Y624177D01*
X766091Y624174D01*
X766246Y622845D01*
X766252Y622839D01*
X766249Y622835D01*
X766696Y621574D01*
X766703Y621569D01*
X766701Y621564D01*
X767418Y620434D01*
X767425Y620431D01*
X767424Y620425D01*
X768375Y619483D01*
X768383Y619482D01*
X768383Y619476D01*
X769519Y618769D01*
X769527Y618770D01*
X769529Y618764D01*
X770794Y618328D01*
X770799Y618329D01*
X770800Y618329D01*
X770803Y618329D01*
X770805Y618325D01*
X772135Y618181D01*
X772141Y618185D01*
X772145Y618181D01*
X773311Y618291D01*
G37*
G36*
X539631Y618291D02*
X539631Y618291D01*
X539636Y618296D01*
X539640Y618293D01*
X540763Y618628D01*
X540767Y618634D01*
X540771Y618632D01*
X541807Y619180D01*
X541810Y619186D01*
X541815Y619185D01*
X542723Y619924D01*
X542725Y619931D01*
X542730Y619931D01*
X543477Y620833D01*
X543477Y620841D01*
X543483Y620841D01*
X544039Y621872D01*
X544038Y621879D01*
X544043Y621881D01*
X544387Y623000D01*
X544385Y623007D01*
X544389Y623010D01*
X544509Y624175D01*
X544507Y624178D01*
X544509Y624180D01*
X544509Y630180D01*
X544507Y630183D01*
X544509Y630185D01*
X544398Y631361D01*
X544393Y631366D01*
X544396Y631370D01*
X544058Y632502D01*
X544052Y632506D01*
X544054Y632511D01*
X543502Y633555D01*
X543495Y633558D01*
X543497Y633563D01*
X542751Y634479D01*
X542744Y634480D01*
X542744Y634486D01*
X541835Y635239D01*
X541827Y635239D01*
X541827Y635244D01*
X540787Y635805D01*
X540780Y635804D01*
X540778Y635809D01*
X539649Y636156D01*
X539643Y636154D01*
X539640Y636158D01*
X538465Y636279D01*
X538458Y636275D01*
X538454Y636279D01*
X537114Y636122D01*
X537108Y636117D01*
X537103Y636120D01*
X535832Y635669D01*
X535827Y635662D01*
X535822Y635664D01*
X534683Y634942D01*
X534680Y634934D01*
X534674Y634935D01*
X533724Y633977D01*
X533723Y633969D01*
X533717Y633968D01*
X533004Y632823D01*
X533005Y632815D01*
X532999Y632813D01*
X532559Y631537D01*
X532561Y631530D01*
X532557Y631527D01*
X532411Y630185D01*
X532413Y630182D01*
X532411Y630180D01*
X532411Y624180D01*
X532413Y624177D01*
X532411Y624174D01*
X532566Y622845D01*
X532572Y622839D01*
X532569Y622835D01*
X533016Y621574D01*
X533023Y621569D01*
X533021Y621564D01*
X533738Y620434D01*
X533745Y620431D01*
X533744Y620425D01*
X534695Y619483D01*
X534703Y619482D01*
X534703Y619476D01*
X535839Y618769D01*
X535847Y618770D01*
X535849Y618764D01*
X537114Y618328D01*
X537119Y618329D01*
X537120Y618329D01*
X537123Y618329D01*
X537125Y618325D01*
X538455Y618181D01*
X538461Y618185D01*
X538465Y618181D01*
X539631Y618291D01*
G37*
G36*
X859711Y618291D02*
X859711Y618291D01*
X859716Y618296D01*
X859720Y618293D01*
X860843Y618628D01*
X860847Y618634D01*
X860851Y618632D01*
X861887Y619180D01*
X861890Y619186D01*
X861895Y619185D01*
X862803Y619924D01*
X862805Y619931D01*
X862810Y619931D01*
X863557Y620833D01*
X863557Y620841D01*
X863563Y620841D01*
X864119Y621872D01*
X864118Y621879D01*
X864123Y621881D01*
X864467Y623000D01*
X864465Y623007D01*
X864469Y623010D01*
X864589Y624175D01*
X864587Y624178D01*
X864589Y624180D01*
X864589Y630180D01*
X864587Y630183D01*
X864589Y630185D01*
X864478Y631361D01*
X864473Y631366D01*
X864476Y631370D01*
X864138Y632502D01*
X864132Y632506D01*
X864134Y632511D01*
X863582Y633555D01*
X863575Y633558D01*
X863577Y633563D01*
X862831Y634479D01*
X862824Y634480D01*
X862824Y634486D01*
X861915Y635239D01*
X861907Y635239D01*
X861907Y635244D01*
X860867Y635805D01*
X860860Y635804D01*
X860858Y635809D01*
X859729Y636156D01*
X859723Y636154D01*
X859720Y636158D01*
X858545Y636279D01*
X858538Y636275D01*
X858534Y636279D01*
X857194Y636122D01*
X857188Y636117D01*
X857183Y636120D01*
X855912Y635669D01*
X855907Y635662D01*
X855902Y635664D01*
X854763Y634942D01*
X854760Y634934D01*
X854754Y634935D01*
X853804Y633977D01*
X853803Y633969D01*
X853797Y633968D01*
X853084Y632823D01*
X853085Y632815D01*
X853079Y632813D01*
X852639Y631537D01*
X852641Y631530D01*
X852637Y631527D01*
X852491Y630185D01*
X852493Y630182D01*
X852491Y630180D01*
X852491Y624180D01*
X852493Y624177D01*
X852491Y624174D01*
X852646Y622845D01*
X852652Y622839D01*
X852649Y622835D01*
X853096Y621574D01*
X853103Y621569D01*
X853101Y621564D01*
X853818Y620434D01*
X853825Y620431D01*
X853824Y620425D01*
X854775Y619483D01*
X854783Y619482D01*
X854783Y619476D01*
X855919Y618769D01*
X855927Y618770D01*
X855929Y618764D01*
X857194Y618328D01*
X857199Y618329D01*
X857200Y618329D01*
X857203Y618329D01*
X857205Y618325D01*
X858535Y618181D01*
X858541Y618185D01*
X858545Y618181D01*
X859711Y618291D01*
G37*
G36*
X72271Y618291D02*
X72271Y618291D01*
X72276Y618296D01*
X72280Y618293D01*
X73403Y618628D01*
X73407Y618634D01*
X73411Y618632D01*
X74447Y619180D01*
X74450Y619186D01*
X74455Y619185D01*
X75363Y619924D01*
X75365Y619931D01*
X75370Y619931D01*
X76117Y620833D01*
X76117Y620841D01*
X76123Y620841D01*
X76679Y621872D01*
X76678Y621879D01*
X76683Y621881D01*
X77027Y623000D01*
X77025Y623007D01*
X77029Y623010D01*
X77149Y624175D01*
X77147Y624178D01*
X77149Y624180D01*
X77149Y630180D01*
X77147Y630183D01*
X77149Y630185D01*
X77038Y631361D01*
X77033Y631366D01*
X77036Y631370D01*
X76698Y632502D01*
X76692Y632506D01*
X76694Y632511D01*
X76142Y633555D01*
X76135Y633558D01*
X76137Y633563D01*
X75391Y634479D01*
X75384Y634480D01*
X75384Y634486D01*
X74475Y635239D01*
X74467Y635239D01*
X74467Y635244D01*
X73427Y635805D01*
X73420Y635804D01*
X73418Y635809D01*
X72289Y636156D01*
X72283Y636154D01*
X72280Y636158D01*
X71105Y636279D01*
X71098Y636275D01*
X71094Y636279D01*
X69754Y636122D01*
X69748Y636117D01*
X69743Y636120D01*
X68472Y635669D01*
X68467Y635662D01*
X68462Y635664D01*
X67323Y634942D01*
X67320Y634934D01*
X67314Y634935D01*
X66364Y633977D01*
X66363Y633969D01*
X66357Y633968D01*
X65644Y632823D01*
X65645Y632815D01*
X65639Y632813D01*
X65199Y631537D01*
X65201Y631530D01*
X65197Y631527D01*
X65051Y630185D01*
X65053Y630182D01*
X65051Y630180D01*
X65051Y624180D01*
X65053Y624177D01*
X65051Y624174D01*
X65206Y622845D01*
X65212Y622839D01*
X65209Y622835D01*
X65656Y621574D01*
X65663Y621569D01*
X65661Y621564D01*
X66378Y620434D01*
X66385Y620431D01*
X66384Y620425D01*
X67335Y619483D01*
X67343Y619482D01*
X67343Y619476D01*
X68479Y618769D01*
X68487Y618770D01*
X68489Y618764D01*
X69754Y618328D01*
X69759Y618329D01*
X69760Y618329D01*
X69763Y618329D01*
X69765Y618325D01*
X71095Y618181D01*
X71101Y618185D01*
X71105Y618181D01*
X72271Y618291D01*
G37*
G36*
X305951Y618291D02*
X305951Y618291D01*
X305956Y618296D01*
X305960Y618293D01*
X307083Y618628D01*
X307087Y618634D01*
X307091Y618632D01*
X308127Y619180D01*
X308130Y619186D01*
X308135Y619185D01*
X309043Y619924D01*
X309045Y619931D01*
X309050Y619931D01*
X309797Y620833D01*
X309797Y620841D01*
X309803Y620841D01*
X310359Y621872D01*
X310358Y621879D01*
X310363Y621881D01*
X310707Y623000D01*
X310705Y623007D01*
X310709Y623010D01*
X310829Y624175D01*
X310827Y624178D01*
X310829Y624180D01*
X310829Y630180D01*
X310827Y630183D01*
X310829Y630185D01*
X310718Y631361D01*
X310713Y631366D01*
X310716Y631370D01*
X310378Y632502D01*
X310372Y632506D01*
X310374Y632511D01*
X309822Y633555D01*
X309815Y633558D01*
X309817Y633563D01*
X309071Y634479D01*
X309064Y634480D01*
X309064Y634486D01*
X308155Y635239D01*
X308147Y635239D01*
X308147Y635244D01*
X307107Y635805D01*
X307100Y635804D01*
X307098Y635809D01*
X305969Y636156D01*
X305963Y636154D01*
X305960Y636158D01*
X304785Y636279D01*
X304778Y636275D01*
X304774Y636279D01*
X303434Y636122D01*
X303428Y636117D01*
X303423Y636120D01*
X302152Y635669D01*
X302147Y635662D01*
X302142Y635664D01*
X301003Y634942D01*
X301000Y634934D01*
X300994Y634935D01*
X300044Y633977D01*
X300043Y633969D01*
X300037Y633968D01*
X299324Y632823D01*
X299325Y632815D01*
X299319Y632813D01*
X298879Y631537D01*
X298881Y631530D01*
X298877Y631527D01*
X298731Y630185D01*
X298733Y630182D01*
X298731Y630180D01*
X298731Y624180D01*
X298733Y624177D01*
X298731Y624174D01*
X298886Y622845D01*
X298892Y622839D01*
X298889Y622835D01*
X299336Y621574D01*
X299343Y621569D01*
X299341Y621564D01*
X300058Y620434D01*
X300065Y620431D01*
X300064Y620425D01*
X301015Y619483D01*
X301023Y619482D01*
X301023Y619476D01*
X302159Y618769D01*
X302167Y618770D01*
X302169Y618764D01*
X303434Y618328D01*
X303439Y618329D01*
X303440Y618329D01*
X303443Y618329D01*
X303445Y618325D01*
X304775Y618181D01*
X304781Y618185D01*
X304785Y618181D01*
X305951Y618291D01*
G37*
G36*
X158671Y618291D02*
X158671Y618291D01*
X158676Y618296D01*
X158680Y618293D01*
X159803Y618628D01*
X159807Y618634D01*
X159811Y618632D01*
X160847Y619180D01*
X160850Y619186D01*
X160855Y619185D01*
X161763Y619924D01*
X161765Y619931D01*
X161770Y619931D01*
X162517Y620833D01*
X162517Y620841D01*
X162523Y620841D01*
X163079Y621872D01*
X163078Y621879D01*
X163083Y621881D01*
X163427Y623000D01*
X163425Y623007D01*
X163429Y623010D01*
X163549Y624175D01*
X163547Y624178D01*
X163549Y624180D01*
X163549Y630180D01*
X163547Y630183D01*
X163549Y630185D01*
X163438Y631361D01*
X163433Y631366D01*
X163436Y631370D01*
X163098Y632502D01*
X163092Y632506D01*
X163094Y632511D01*
X162542Y633555D01*
X162535Y633558D01*
X162537Y633563D01*
X161791Y634479D01*
X161784Y634480D01*
X161784Y634486D01*
X160875Y635239D01*
X160867Y635239D01*
X160867Y635244D01*
X159827Y635805D01*
X159820Y635804D01*
X159818Y635809D01*
X158689Y636156D01*
X158683Y636154D01*
X158680Y636158D01*
X157505Y636279D01*
X157498Y636275D01*
X157494Y636279D01*
X156154Y636122D01*
X156148Y636117D01*
X156143Y636120D01*
X154872Y635669D01*
X154867Y635662D01*
X154862Y635664D01*
X153723Y634942D01*
X153720Y634934D01*
X153714Y634935D01*
X152764Y633977D01*
X152763Y633969D01*
X152757Y633968D01*
X152044Y632823D01*
X152045Y632815D01*
X152039Y632813D01*
X151599Y631537D01*
X151601Y631530D01*
X151597Y631527D01*
X151451Y630185D01*
X151453Y630182D01*
X151451Y630180D01*
X151451Y624180D01*
X151453Y624177D01*
X151451Y624174D01*
X151606Y622845D01*
X151612Y622839D01*
X151609Y622835D01*
X152056Y621574D01*
X152063Y621569D01*
X152061Y621564D01*
X152778Y620434D01*
X152785Y620431D01*
X152784Y620425D01*
X153735Y619483D01*
X153743Y619482D01*
X153743Y619476D01*
X154879Y618769D01*
X154887Y618770D01*
X154889Y618764D01*
X156154Y618328D01*
X156159Y618329D01*
X156160Y618329D01*
X156163Y618329D01*
X156165Y618325D01*
X157495Y618181D01*
X157501Y618185D01*
X157505Y618181D01*
X158671Y618291D01*
G37*
G36*
X626031Y618291D02*
X626031Y618291D01*
X626036Y618296D01*
X626040Y618293D01*
X627163Y618628D01*
X627167Y618634D01*
X627171Y618632D01*
X628207Y619180D01*
X628210Y619186D01*
X628215Y619185D01*
X629123Y619924D01*
X629125Y619931D01*
X629130Y619931D01*
X629877Y620833D01*
X629877Y620841D01*
X629883Y620841D01*
X630439Y621872D01*
X630438Y621879D01*
X630443Y621881D01*
X630787Y623000D01*
X630785Y623007D01*
X630789Y623010D01*
X630909Y624175D01*
X630907Y624178D01*
X630909Y624180D01*
X630909Y630180D01*
X630907Y630183D01*
X630909Y630185D01*
X630798Y631361D01*
X630793Y631366D01*
X630796Y631370D01*
X630458Y632502D01*
X630452Y632506D01*
X630454Y632511D01*
X629902Y633555D01*
X629895Y633558D01*
X629897Y633563D01*
X629151Y634479D01*
X629144Y634480D01*
X629144Y634486D01*
X628235Y635239D01*
X628227Y635239D01*
X628227Y635244D01*
X627187Y635805D01*
X627180Y635804D01*
X627178Y635809D01*
X626049Y636156D01*
X626043Y636154D01*
X626040Y636158D01*
X624865Y636279D01*
X624858Y636275D01*
X624854Y636279D01*
X623514Y636122D01*
X623508Y636117D01*
X623503Y636120D01*
X622232Y635669D01*
X622227Y635662D01*
X622222Y635664D01*
X621083Y634942D01*
X621080Y634934D01*
X621074Y634935D01*
X620124Y633977D01*
X620123Y633969D01*
X620117Y633968D01*
X619404Y632823D01*
X619405Y632815D01*
X619399Y632813D01*
X618959Y631537D01*
X618961Y631530D01*
X618957Y631527D01*
X618811Y630185D01*
X618813Y630182D01*
X618811Y630180D01*
X618811Y624180D01*
X618813Y624177D01*
X618811Y624174D01*
X618966Y622845D01*
X618972Y622839D01*
X618969Y622835D01*
X619416Y621574D01*
X619423Y621569D01*
X619421Y621564D01*
X620138Y620434D01*
X620145Y620431D01*
X620144Y620425D01*
X621095Y619483D01*
X621103Y619482D01*
X621103Y619476D01*
X622239Y618769D01*
X622247Y618770D01*
X622249Y618764D01*
X623514Y618328D01*
X623519Y618329D01*
X623520Y618329D01*
X623523Y618329D01*
X623525Y618325D01*
X624855Y618181D01*
X624861Y618185D01*
X624865Y618181D01*
X626031Y618291D01*
G37*
G36*
X158671Y3611D02*
X158671Y3611D01*
X158676Y3616D01*
X158680Y3613D01*
X159803Y3948D01*
X159807Y3954D01*
X159811Y3952D01*
X160847Y4500D01*
X160850Y4506D01*
X160855Y4505D01*
X161763Y5244D01*
X161765Y5251D01*
X161770Y5251D01*
X162517Y6153D01*
X162517Y6161D01*
X162523Y6161D01*
X163079Y7192D01*
X163078Y7199D01*
X163083Y7201D01*
X163427Y8320D01*
X163425Y8327D01*
X163429Y8330D01*
X163549Y9495D01*
X163547Y9498D01*
X163549Y9500D01*
X163549Y15500D01*
X163547Y15503D01*
X163549Y15505D01*
X163438Y16681D01*
X163433Y16686D01*
X163436Y16690D01*
X163098Y17822D01*
X163092Y17826D01*
X163094Y17831D01*
X162542Y18875D01*
X162535Y18878D01*
X162537Y18883D01*
X161791Y19799D01*
X161784Y19800D01*
X161784Y19806D01*
X160875Y20559D01*
X160867Y20559D01*
X160867Y20564D01*
X159827Y21125D01*
X159820Y21124D01*
X159818Y21129D01*
X158689Y21476D01*
X158683Y21474D01*
X158680Y21478D01*
X157505Y21599D01*
X157498Y21595D01*
X157494Y21599D01*
X156154Y21442D01*
X156148Y21437D01*
X156143Y21440D01*
X154872Y20989D01*
X154867Y20982D01*
X154862Y20984D01*
X153723Y20262D01*
X153720Y20254D01*
X153714Y20255D01*
X152764Y19297D01*
X152763Y19289D01*
X152757Y19288D01*
X152044Y18143D01*
X152045Y18135D01*
X152039Y18133D01*
X151599Y16857D01*
X151601Y16850D01*
X151597Y16847D01*
X151451Y15505D01*
X151453Y15502D01*
X151451Y15500D01*
X151451Y9500D01*
X151453Y9497D01*
X151451Y9494D01*
X151606Y8165D01*
X151612Y8159D01*
X151609Y8155D01*
X152056Y6894D01*
X152063Y6889D01*
X152061Y6884D01*
X152778Y5754D01*
X152785Y5751D01*
X152784Y5745D01*
X153735Y4803D01*
X153743Y4802D01*
X153743Y4796D01*
X154879Y4089D01*
X154887Y4090D01*
X154889Y4084D01*
X156154Y3648D01*
X156159Y3649D01*
X156160Y3649D01*
X156163Y3649D01*
X156165Y3645D01*
X157495Y3501D01*
X157501Y3505D01*
X157505Y3501D01*
X158671Y3611D01*
G37*
G36*
X305951Y3611D02*
X305951Y3611D01*
X305956Y3616D01*
X305960Y3613D01*
X307083Y3948D01*
X307087Y3954D01*
X307091Y3952D01*
X308127Y4500D01*
X308130Y4506D01*
X308135Y4505D01*
X309043Y5244D01*
X309045Y5251D01*
X309050Y5251D01*
X309797Y6153D01*
X309797Y6161D01*
X309803Y6161D01*
X310359Y7192D01*
X310358Y7199D01*
X310363Y7201D01*
X310707Y8320D01*
X310705Y8327D01*
X310709Y8330D01*
X310829Y9495D01*
X310827Y9498D01*
X310829Y9500D01*
X310829Y15500D01*
X310827Y15503D01*
X310829Y15505D01*
X310718Y16681D01*
X310713Y16686D01*
X310716Y16690D01*
X310378Y17822D01*
X310372Y17826D01*
X310374Y17831D01*
X309822Y18875D01*
X309815Y18878D01*
X309817Y18883D01*
X309071Y19799D01*
X309064Y19800D01*
X309064Y19806D01*
X308155Y20559D01*
X308147Y20559D01*
X308147Y20564D01*
X307107Y21125D01*
X307100Y21124D01*
X307098Y21129D01*
X305969Y21476D01*
X305963Y21474D01*
X305960Y21478D01*
X304785Y21599D01*
X304778Y21595D01*
X304774Y21599D01*
X303434Y21442D01*
X303428Y21437D01*
X303423Y21440D01*
X302152Y20989D01*
X302147Y20982D01*
X302142Y20984D01*
X301003Y20262D01*
X301000Y20254D01*
X300994Y20255D01*
X300044Y19297D01*
X300043Y19289D01*
X300037Y19288D01*
X299324Y18143D01*
X299325Y18135D01*
X299319Y18133D01*
X298879Y16857D01*
X298881Y16850D01*
X298877Y16847D01*
X298731Y15505D01*
X298733Y15502D01*
X298731Y15500D01*
X298731Y9500D01*
X298733Y9497D01*
X298731Y9494D01*
X298886Y8165D01*
X298892Y8159D01*
X298889Y8155D01*
X299336Y6894D01*
X299343Y6889D01*
X299341Y6884D01*
X300058Y5754D01*
X300065Y5751D01*
X300064Y5745D01*
X301015Y4803D01*
X301023Y4802D01*
X301023Y4796D01*
X302159Y4089D01*
X302167Y4090D01*
X302169Y4084D01*
X303434Y3648D01*
X303439Y3649D01*
X303440Y3649D01*
X303443Y3649D01*
X303445Y3645D01*
X304775Y3501D01*
X304781Y3505D01*
X304785Y3501D01*
X305951Y3611D01*
G37*
G36*
X392351Y3611D02*
X392351Y3611D01*
X392356Y3616D01*
X392360Y3613D01*
X393483Y3948D01*
X393487Y3954D01*
X393491Y3952D01*
X394527Y4500D01*
X394530Y4506D01*
X394535Y4505D01*
X395443Y5244D01*
X395445Y5251D01*
X395450Y5251D01*
X396197Y6153D01*
X396197Y6161D01*
X396203Y6161D01*
X396759Y7192D01*
X396758Y7199D01*
X396763Y7201D01*
X397107Y8320D01*
X397105Y8327D01*
X397109Y8330D01*
X397229Y9495D01*
X397227Y9498D01*
X397229Y9500D01*
X397229Y15500D01*
X397227Y15503D01*
X397229Y15505D01*
X397118Y16681D01*
X397113Y16686D01*
X397116Y16690D01*
X396778Y17822D01*
X396772Y17826D01*
X396774Y17831D01*
X396222Y18875D01*
X396215Y18878D01*
X396217Y18883D01*
X395471Y19799D01*
X395464Y19800D01*
X395464Y19806D01*
X394555Y20559D01*
X394547Y20559D01*
X394547Y20564D01*
X393507Y21125D01*
X393500Y21124D01*
X393498Y21129D01*
X392369Y21476D01*
X392363Y21474D01*
X392360Y21478D01*
X391185Y21599D01*
X391178Y21595D01*
X391174Y21599D01*
X389834Y21442D01*
X389828Y21437D01*
X389823Y21440D01*
X388552Y20989D01*
X388547Y20982D01*
X388542Y20984D01*
X387403Y20262D01*
X387400Y20254D01*
X387394Y20255D01*
X386444Y19297D01*
X386443Y19289D01*
X386437Y19288D01*
X385724Y18143D01*
X385725Y18135D01*
X385719Y18133D01*
X385279Y16857D01*
X385281Y16850D01*
X385277Y16847D01*
X385131Y15505D01*
X385133Y15502D01*
X385131Y15500D01*
X385131Y9500D01*
X385133Y9497D01*
X385131Y9494D01*
X385286Y8165D01*
X385292Y8159D01*
X385289Y8155D01*
X385736Y6894D01*
X385743Y6889D01*
X385741Y6884D01*
X386458Y5754D01*
X386465Y5751D01*
X386464Y5745D01*
X387415Y4803D01*
X387423Y4802D01*
X387423Y4796D01*
X388559Y4089D01*
X388567Y4090D01*
X388569Y4084D01*
X389834Y3648D01*
X389839Y3649D01*
X389840Y3649D01*
X389843Y3649D01*
X389845Y3645D01*
X391175Y3501D01*
X391181Y3505D01*
X391185Y3501D01*
X392351Y3611D01*
G37*
G36*
X773311Y3611D02*
X773311Y3611D01*
X773316Y3616D01*
X773320Y3613D01*
X774443Y3948D01*
X774447Y3954D01*
X774451Y3952D01*
X775487Y4500D01*
X775490Y4506D01*
X775495Y4505D01*
X776403Y5244D01*
X776405Y5251D01*
X776410Y5251D01*
X777157Y6153D01*
X777157Y6161D01*
X777163Y6161D01*
X777719Y7192D01*
X777718Y7199D01*
X777723Y7201D01*
X778067Y8320D01*
X778065Y8327D01*
X778069Y8330D01*
X778189Y9495D01*
X778187Y9498D01*
X778189Y9500D01*
X778189Y15500D01*
X778187Y15503D01*
X778189Y15505D01*
X778078Y16681D01*
X778073Y16686D01*
X778076Y16690D01*
X777738Y17822D01*
X777732Y17826D01*
X777734Y17831D01*
X777182Y18875D01*
X777175Y18878D01*
X777177Y18883D01*
X776431Y19799D01*
X776424Y19800D01*
X776424Y19806D01*
X775515Y20559D01*
X775507Y20559D01*
X775507Y20564D01*
X774467Y21125D01*
X774460Y21124D01*
X774458Y21129D01*
X773329Y21476D01*
X773323Y21474D01*
X773320Y21478D01*
X772145Y21599D01*
X772138Y21595D01*
X772134Y21599D01*
X770794Y21442D01*
X770788Y21437D01*
X770783Y21440D01*
X769512Y20989D01*
X769507Y20982D01*
X769502Y20984D01*
X768363Y20262D01*
X768360Y20254D01*
X768354Y20255D01*
X767404Y19297D01*
X767403Y19289D01*
X767397Y19288D01*
X766684Y18143D01*
X766685Y18135D01*
X766679Y18133D01*
X766239Y16857D01*
X766241Y16850D01*
X766237Y16847D01*
X766091Y15505D01*
X766093Y15502D01*
X766091Y15500D01*
X766091Y9500D01*
X766093Y9497D01*
X766091Y9494D01*
X766246Y8165D01*
X766252Y8159D01*
X766249Y8155D01*
X766696Y6894D01*
X766703Y6889D01*
X766701Y6884D01*
X767418Y5754D01*
X767425Y5751D01*
X767424Y5745D01*
X768375Y4803D01*
X768383Y4802D01*
X768383Y4796D01*
X769519Y4089D01*
X769527Y4090D01*
X769529Y4084D01*
X770794Y3648D01*
X770799Y3649D01*
X770800Y3649D01*
X770803Y3649D01*
X770805Y3645D01*
X772135Y3501D01*
X772141Y3505D01*
X772145Y3501D01*
X773311Y3611D01*
G37*
G36*
X626031Y3611D02*
X626031Y3611D01*
X626036Y3616D01*
X626040Y3613D01*
X627163Y3948D01*
X627167Y3954D01*
X627171Y3952D01*
X628207Y4500D01*
X628210Y4506D01*
X628215Y4505D01*
X629123Y5244D01*
X629125Y5251D01*
X629130Y5251D01*
X629877Y6153D01*
X629877Y6161D01*
X629883Y6161D01*
X630439Y7192D01*
X630438Y7199D01*
X630443Y7201D01*
X630787Y8320D01*
X630785Y8327D01*
X630789Y8330D01*
X630909Y9495D01*
X630907Y9498D01*
X630909Y9500D01*
X630909Y15500D01*
X630907Y15503D01*
X630909Y15505D01*
X630798Y16681D01*
X630793Y16686D01*
X630796Y16690D01*
X630458Y17822D01*
X630452Y17826D01*
X630454Y17831D01*
X629902Y18875D01*
X629895Y18878D01*
X629897Y18883D01*
X629151Y19799D01*
X629144Y19800D01*
X629144Y19806D01*
X628235Y20559D01*
X628227Y20559D01*
X628227Y20564D01*
X627187Y21125D01*
X627180Y21124D01*
X627178Y21129D01*
X626049Y21476D01*
X626043Y21474D01*
X626040Y21478D01*
X624865Y21599D01*
X624858Y21595D01*
X624854Y21599D01*
X623514Y21442D01*
X623508Y21437D01*
X623503Y21440D01*
X622232Y20989D01*
X622227Y20982D01*
X622222Y20984D01*
X621083Y20262D01*
X621080Y20254D01*
X621074Y20255D01*
X620124Y19297D01*
X620123Y19289D01*
X620117Y19288D01*
X619404Y18143D01*
X619405Y18135D01*
X619399Y18133D01*
X618959Y16857D01*
X618961Y16850D01*
X618957Y16847D01*
X618811Y15505D01*
X618813Y15502D01*
X618811Y15500D01*
X618811Y9500D01*
X618813Y9497D01*
X618811Y9494D01*
X618966Y8165D01*
X618972Y8159D01*
X618969Y8155D01*
X619416Y6894D01*
X619423Y6889D01*
X619421Y6884D01*
X620138Y5754D01*
X620145Y5751D01*
X620144Y5745D01*
X621095Y4803D01*
X621103Y4802D01*
X621103Y4796D01*
X622239Y4089D01*
X622247Y4090D01*
X622249Y4084D01*
X623514Y3648D01*
X623519Y3649D01*
X623520Y3649D01*
X623523Y3649D01*
X623525Y3645D01*
X624855Y3501D01*
X624861Y3505D01*
X624865Y3501D01*
X626031Y3611D01*
G37*
G36*
X72271Y3611D02*
X72271Y3611D01*
X72276Y3616D01*
X72280Y3613D01*
X73403Y3948D01*
X73407Y3954D01*
X73411Y3952D01*
X74447Y4500D01*
X74450Y4506D01*
X74455Y4505D01*
X75363Y5244D01*
X75365Y5251D01*
X75370Y5251D01*
X76117Y6153D01*
X76117Y6161D01*
X76123Y6161D01*
X76679Y7192D01*
X76678Y7199D01*
X76683Y7201D01*
X77027Y8320D01*
X77025Y8327D01*
X77029Y8330D01*
X77149Y9495D01*
X77147Y9498D01*
X77149Y9500D01*
X77149Y15500D01*
X77147Y15503D01*
X77149Y15505D01*
X77038Y16681D01*
X77033Y16686D01*
X77036Y16690D01*
X76698Y17822D01*
X76692Y17826D01*
X76694Y17831D01*
X76142Y18875D01*
X76135Y18878D01*
X76137Y18883D01*
X75391Y19799D01*
X75384Y19800D01*
X75384Y19806D01*
X74475Y20559D01*
X74467Y20559D01*
X74467Y20564D01*
X73427Y21125D01*
X73420Y21124D01*
X73418Y21129D01*
X72289Y21476D01*
X72283Y21474D01*
X72280Y21478D01*
X71105Y21599D01*
X71098Y21595D01*
X71094Y21599D01*
X69754Y21442D01*
X69748Y21437D01*
X69743Y21440D01*
X68472Y20989D01*
X68467Y20982D01*
X68462Y20984D01*
X67323Y20262D01*
X67320Y20254D01*
X67314Y20255D01*
X66364Y19297D01*
X66363Y19289D01*
X66357Y19288D01*
X65644Y18143D01*
X65645Y18135D01*
X65639Y18133D01*
X65199Y16857D01*
X65201Y16850D01*
X65197Y16847D01*
X65051Y15505D01*
X65053Y15502D01*
X65051Y15500D01*
X65051Y9500D01*
X65053Y9497D01*
X65051Y9494D01*
X65206Y8165D01*
X65212Y8159D01*
X65209Y8155D01*
X65656Y6894D01*
X65663Y6889D01*
X65661Y6884D01*
X66378Y5754D01*
X66385Y5751D01*
X66384Y5745D01*
X67335Y4803D01*
X67343Y4802D01*
X67343Y4796D01*
X68479Y4089D01*
X68487Y4090D01*
X68489Y4084D01*
X69754Y3648D01*
X69759Y3649D01*
X69760Y3649D01*
X69763Y3649D01*
X69765Y3645D01*
X71095Y3501D01*
X71101Y3505D01*
X71105Y3501D01*
X72271Y3611D01*
G37*
G36*
X539631Y3611D02*
X539631Y3611D01*
X539636Y3616D01*
X539640Y3613D01*
X540763Y3948D01*
X540767Y3954D01*
X540771Y3952D01*
X541807Y4500D01*
X541810Y4506D01*
X541815Y4505D01*
X542723Y5244D01*
X542725Y5251D01*
X542730Y5251D01*
X543477Y6153D01*
X543477Y6161D01*
X543483Y6161D01*
X544039Y7192D01*
X544038Y7199D01*
X544043Y7201D01*
X544387Y8320D01*
X544385Y8327D01*
X544389Y8330D01*
X544509Y9495D01*
X544507Y9498D01*
X544509Y9500D01*
X544509Y15500D01*
X544507Y15503D01*
X544509Y15505D01*
X544398Y16681D01*
X544393Y16686D01*
X544396Y16690D01*
X544058Y17822D01*
X544052Y17826D01*
X544054Y17831D01*
X543502Y18875D01*
X543495Y18878D01*
X543497Y18883D01*
X542751Y19799D01*
X542744Y19800D01*
X542744Y19806D01*
X541835Y20559D01*
X541827Y20559D01*
X541827Y20564D01*
X540787Y21125D01*
X540780Y21124D01*
X540778Y21129D01*
X539649Y21476D01*
X539643Y21474D01*
X539640Y21478D01*
X538465Y21599D01*
X538458Y21595D01*
X538454Y21599D01*
X537114Y21442D01*
X537108Y21437D01*
X537103Y21440D01*
X535832Y20989D01*
X535827Y20982D01*
X535822Y20984D01*
X534683Y20262D01*
X534680Y20254D01*
X534674Y20255D01*
X533724Y19297D01*
X533723Y19289D01*
X533717Y19288D01*
X533004Y18143D01*
X533005Y18135D01*
X532999Y18133D01*
X532559Y16857D01*
X532561Y16850D01*
X532557Y16847D01*
X532411Y15505D01*
X532413Y15502D01*
X532411Y15500D01*
X532411Y9500D01*
X532413Y9497D01*
X532411Y9494D01*
X532566Y8165D01*
X532572Y8159D01*
X532569Y8155D01*
X533016Y6894D01*
X533023Y6889D01*
X533021Y6884D01*
X533738Y5754D01*
X533745Y5751D01*
X533744Y5745D01*
X534695Y4803D01*
X534703Y4802D01*
X534703Y4796D01*
X535839Y4089D01*
X535847Y4090D01*
X535849Y4084D01*
X537114Y3648D01*
X537119Y3649D01*
X537120Y3649D01*
X537123Y3649D01*
X537125Y3645D01*
X538455Y3501D01*
X538461Y3505D01*
X538465Y3501D01*
X539631Y3611D01*
G37*
G36*
X859711Y3611D02*
X859711Y3611D01*
X859716Y3616D01*
X859720Y3613D01*
X860843Y3948D01*
X860847Y3954D01*
X860851Y3952D01*
X861887Y4500D01*
X861890Y4506D01*
X861895Y4505D01*
X862803Y5244D01*
X862805Y5251D01*
X862810Y5251D01*
X863557Y6153D01*
X863557Y6161D01*
X863563Y6161D01*
X864119Y7192D01*
X864118Y7199D01*
X864123Y7201D01*
X864467Y8320D01*
X864465Y8327D01*
X864469Y8330D01*
X864589Y9495D01*
X864587Y9498D01*
X864589Y9500D01*
X864589Y15500D01*
X864587Y15503D01*
X864589Y15505D01*
X864478Y16681D01*
X864473Y16686D01*
X864476Y16690D01*
X864138Y17822D01*
X864132Y17826D01*
X864134Y17831D01*
X863582Y18875D01*
X863575Y18878D01*
X863577Y18883D01*
X862831Y19799D01*
X862824Y19800D01*
X862824Y19806D01*
X861915Y20559D01*
X861907Y20559D01*
X861907Y20564D01*
X860867Y21125D01*
X860860Y21124D01*
X860858Y21129D01*
X859729Y21476D01*
X859723Y21474D01*
X859720Y21478D01*
X858545Y21599D01*
X858538Y21595D01*
X858534Y21599D01*
X857194Y21442D01*
X857188Y21437D01*
X857183Y21440D01*
X855912Y20989D01*
X855907Y20982D01*
X855902Y20984D01*
X854763Y20262D01*
X854760Y20254D01*
X854754Y20255D01*
X853804Y19297D01*
X853803Y19289D01*
X853797Y19288D01*
X853084Y18143D01*
X853085Y18135D01*
X853079Y18133D01*
X852639Y16857D01*
X852641Y16850D01*
X852637Y16847D01*
X852491Y15505D01*
X852493Y15502D01*
X852491Y15500D01*
X852491Y9500D01*
X852493Y9497D01*
X852491Y9494D01*
X852646Y8165D01*
X852652Y8159D01*
X852649Y8155D01*
X853096Y6894D01*
X853103Y6889D01*
X853101Y6884D01*
X853818Y5754D01*
X853825Y5751D01*
X853824Y5745D01*
X854775Y4803D01*
X854783Y4802D01*
X854783Y4796D01*
X855919Y4089D01*
X855927Y4090D01*
X855929Y4084D01*
X857194Y3648D01*
X857199Y3649D01*
X857200Y3649D01*
X857203Y3649D01*
X857205Y3645D01*
X858535Y3501D01*
X858541Y3505D01*
X858545Y3501D01*
X859711Y3611D01*
G37*
D10*
X152400Y176600D03*
X152400Y153600D03*
D11*
X119580Y301310D02*
X119580Y308290D01*
X126560Y308290D01*
X126560Y301310D01*
X119580Y301310D01*
X119580Y306110D02*
X126560Y306110D01*
X102040Y308290D02*
X102040Y301310D01*
X102040Y308290D02*
X109020Y308290D01*
X109020Y301310D01*
X102040Y301310D01*
X102040Y306110D02*
X109020Y306110D01*
D12*
X133190Y155600D03*
X133190Y174600D03*
X112190Y165100D03*
D11*
X109020Y326710D02*
X109020Y333690D01*
X109020Y326710D02*
X102040Y326710D01*
X102040Y333690D01*
X109020Y333690D01*
X109020Y331510D02*
X102040Y331510D01*
X126560Y333690D02*
X126560Y326710D01*
X119580Y326710D01*
X119580Y333690D01*
X126560Y333690D01*
X126560Y331510D02*
X119580Y331510D01*
D13*
X12700Y50800D03*
X177800Y571500D03*
D14*
X14050Y121980D03*
X14050Y65980D03*
D15*
X50800Y108980D03*
X50800Y98980D03*
X50800Y88980D03*
X50800Y78980D03*
D16*
X72560Y170340D03*
X72560Y190340D03*
D17*
X20560Y146340D03*
X20560Y214340D03*
D18*
X25400Y558800D03*
X203200Y558800D03*
X203200Y25400D03*
X25400Y25400D03*
D19*
X59610Y422910D03*
X49610Y422910D03*
X49610Y466090D03*
X59610Y466090D03*
D20*
X147255Y463455D02*
X147255Y471415D01*
X147255Y463455D02*
X146045Y463455D01*
X146045Y471415D01*
X147255Y471415D01*
X147255Y466136D02*
X146045Y466136D01*
X146045Y468817D02*
X147255Y468817D01*
X143255Y471415D02*
X143255Y463455D01*
X142045Y463455D01*
X142045Y471415D01*
X143255Y471415D01*
X143255Y466136D02*
X142045Y466136D01*
X142045Y468817D02*
X143255Y468817D01*
X139255Y471415D02*
X139255Y463455D01*
X138045Y463455D01*
X138045Y471415D01*
X139255Y471415D01*
X139255Y466136D02*
X138045Y466136D01*
X138045Y468817D02*
X139255Y468817D01*
X135255Y471415D02*
X135255Y463455D01*
X134045Y463455D01*
X134045Y471415D01*
X135255Y471415D01*
X135255Y466136D02*
X134045Y466136D01*
X134045Y468817D02*
X135255Y468817D01*
X131255Y471415D02*
X131255Y463455D01*
X130045Y463455D01*
X130045Y471415D01*
X131255Y471415D01*
X131255Y466136D02*
X130045Y466136D01*
X130045Y468817D02*
X131255Y468817D01*
X127255Y471415D02*
X127255Y463455D01*
X126045Y463455D01*
X126045Y471415D01*
X127255Y471415D01*
X127255Y466136D02*
X126045Y466136D01*
X126045Y468817D02*
X127255Y468817D01*
X122045Y471415D02*
X122045Y463455D01*
X122045Y471415D02*
X123255Y471415D01*
X123255Y463455D01*
X122045Y463455D01*
X122045Y466136D02*
X123255Y466136D01*
X123255Y468817D02*
X122045Y468817D01*
D21*
X120650Y433070D03*
D20*
X119255Y463455D02*
X119255Y471415D01*
X119255Y463455D02*
X118045Y463455D01*
X118045Y471415D01*
X119255Y471415D01*
X119255Y466136D02*
X118045Y466136D01*
X118045Y468817D02*
X119255Y468817D01*
X115255Y471415D02*
X115255Y463455D01*
X114045Y463455D01*
X114045Y471415D01*
X115255Y471415D01*
X115255Y466136D02*
X114045Y466136D01*
X114045Y468817D02*
X115255Y468817D01*
X111255Y471415D02*
X111255Y463455D01*
X110045Y463455D01*
X110045Y471415D01*
X111255Y471415D01*
X111255Y466136D02*
X110045Y466136D01*
X110045Y468817D02*
X111255Y468817D01*
X107255Y471415D02*
X107255Y463455D01*
X106045Y463455D01*
X106045Y471415D01*
X107255Y471415D01*
X107255Y466136D02*
X106045Y466136D01*
X106045Y468817D02*
X107255Y468817D01*
X103255Y471415D02*
X103255Y463455D01*
X102045Y463455D01*
X102045Y471415D01*
X103255Y471415D01*
X103255Y466136D02*
X102045Y466136D01*
X102045Y468817D02*
X103255Y468817D01*
X99255Y471415D02*
X99255Y463455D01*
X98045Y463455D01*
X98045Y471415D01*
X99255Y471415D01*
X99255Y466136D02*
X98045Y466136D01*
X98045Y468817D02*
X99255Y468817D01*
X94045Y471415D02*
X94045Y463455D01*
X94045Y471415D02*
X95255Y471415D01*
X95255Y463455D01*
X94045Y463455D01*
X94045Y466136D02*
X95255Y466136D01*
X95255Y468817D02*
X94045Y468817D01*
X90265Y459675D02*
X82305Y459675D01*
X90265Y459675D02*
X90265Y458465D01*
X82305Y458465D01*
X82305Y459675D01*
X82305Y455675D02*
X90265Y455675D01*
X90265Y454465D01*
X82305Y454465D01*
X82305Y455675D01*
X82305Y451675D02*
X90265Y451675D01*
X90265Y450465D01*
X82305Y450465D01*
X82305Y451675D01*
X82305Y447675D02*
X90265Y447675D01*
X90265Y446465D01*
X82305Y446465D01*
X82305Y447675D01*
X82305Y443675D02*
X90265Y443675D01*
X90265Y442465D01*
X82305Y442465D01*
X82305Y443675D01*
X82305Y439675D02*
X90265Y439675D01*
X90265Y438465D01*
X82305Y438465D01*
X82305Y439675D01*
X82305Y434465D02*
X90265Y434465D01*
X82305Y434465D02*
X82305Y435675D01*
X90265Y435675D01*
X90265Y434465D01*
X90265Y431675D02*
X82305Y431675D01*
X90265Y431675D02*
X90265Y430465D01*
X82305Y430465D01*
X82305Y431675D01*
X82305Y427675D02*
X90265Y427675D01*
X90265Y426465D01*
X82305Y426465D01*
X82305Y427675D01*
X82305Y423675D02*
X90265Y423675D01*
X90265Y422465D01*
X82305Y422465D01*
X82305Y423675D01*
X82305Y419675D02*
X90265Y419675D01*
X90265Y418465D01*
X82305Y418465D01*
X82305Y419675D01*
X82305Y415675D02*
X90265Y415675D01*
X90265Y414465D01*
X82305Y414465D01*
X82305Y415675D01*
X82305Y411675D02*
X90265Y411675D01*
X90265Y410465D01*
X82305Y410465D01*
X82305Y411675D01*
X82305Y406465D02*
X90265Y406465D01*
X82305Y406465D02*
X82305Y407675D01*
X90265Y407675D01*
X90265Y406465D01*
X94045Y402685D02*
X94045Y394725D01*
X94045Y402685D02*
X95255Y402685D01*
X95255Y394725D01*
X94045Y394725D01*
X94045Y397406D02*
X95255Y397406D01*
X95255Y400087D02*
X94045Y400087D01*
X98045Y402685D02*
X98045Y394725D01*
X98045Y402685D02*
X99255Y402685D01*
X99255Y394725D01*
X98045Y394725D01*
X98045Y397406D02*
X99255Y397406D01*
X99255Y400087D02*
X98045Y400087D01*
X102045Y402685D02*
X102045Y394725D01*
X102045Y402685D02*
X103255Y402685D01*
X103255Y394725D01*
X102045Y394725D01*
X102045Y397406D02*
X103255Y397406D01*
X103255Y400087D02*
X102045Y400087D01*
X106045Y402685D02*
X106045Y394725D01*
X106045Y402685D02*
X107255Y402685D01*
X107255Y394725D01*
X106045Y394725D01*
X106045Y397406D02*
X107255Y397406D01*
X107255Y400087D02*
X106045Y400087D01*
X110045Y402685D02*
X110045Y394725D01*
X110045Y402685D02*
X111255Y402685D01*
X111255Y394725D01*
X110045Y394725D01*
X110045Y397406D02*
X111255Y397406D01*
X111255Y400087D02*
X110045Y400087D01*
X114045Y402685D02*
X114045Y394725D01*
X114045Y402685D02*
X115255Y402685D01*
X115255Y394725D01*
X114045Y394725D01*
X114045Y397406D02*
X115255Y397406D01*
X115255Y400087D02*
X114045Y400087D01*
X119255Y402685D02*
X119255Y394725D01*
X118045Y394725D01*
X118045Y402685D01*
X119255Y402685D01*
X119255Y397406D02*
X118045Y397406D01*
X118045Y400087D02*
X119255Y400087D01*
X122045Y402685D02*
X122045Y394725D01*
X122045Y402685D02*
X123255Y402685D01*
X123255Y394725D01*
X122045Y394725D01*
X122045Y397406D02*
X123255Y397406D01*
X123255Y400087D02*
X122045Y400087D01*
X126045Y402685D02*
X126045Y394725D01*
X126045Y402685D02*
X127255Y402685D01*
X127255Y394725D01*
X126045Y394725D01*
X126045Y397406D02*
X127255Y397406D01*
X127255Y400087D02*
X126045Y400087D01*
X130045Y402685D02*
X130045Y394725D01*
X130045Y402685D02*
X131255Y402685D01*
X131255Y394725D01*
X130045Y394725D01*
X130045Y397406D02*
X131255Y397406D01*
X131255Y400087D02*
X130045Y400087D01*
X134045Y402685D02*
X134045Y394725D01*
X134045Y402685D02*
X135255Y402685D01*
X135255Y394725D01*
X134045Y394725D01*
X134045Y397406D02*
X135255Y397406D01*
X135255Y400087D02*
X134045Y400087D01*
X138045Y402685D02*
X138045Y394725D01*
X138045Y402685D02*
X139255Y402685D01*
X139255Y394725D01*
X138045Y394725D01*
X138045Y397406D02*
X139255Y397406D01*
X139255Y400087D02*
X138045Y400087D01*
X142045Y402685D02*
X142045Y394725D01*
X142045Y402685D02*
X143255Y402685D01*
X143255Y394725D01*
X142045Y394725D01*
X142045Y397406D02*
X143255Y397406D01*
X143255Y400087D02*
X142045Y400087D01*
X147255Y402685D02*
X147255Y394725D01*
X146045Y394725D01*
X146045Y402685D01*
X147255Y402685D01*
X147255Y397406D02*
X146045Y397406D01*
X146045Y400087D02*
X147255Y400087D01*
X151035Y406465D02*
X158995Y406465D01*
X151035Y406465D02*
X151035Y407675D01*
X158995Y407675D01*
X158995Y406465D01*
X158995Y410465D02*
X151035Y410465D01*
X151035Y411675D01*
X158995Y411675D01*
X158995Y410465D01*
X158995Y414465D02*
X151035Y414465D01*
X151035Y415675D01*
X158995Y415675D01*
X158995Y414465D01*
X158995Y418465D02*
X151035Y418465D01*
X151035Y419675D01*
X158995Y419675D01*
X158995Y418465D01*
X158995Y422465D02*
X151035Y422465D01*
X151035Y423675D01*
X158995Y423675D01*
X158995Y422465D01*
X158995Y426465D02*
X151035Y426465D01*
X151035Y427675D01*
X158995Y427675D01*
X158995Y426465D01*
X158995Y431675D02*
X151035Y431675D01*
X158995Y431675D02*
X158995Y430465D01*
X151035Y430465D01*
X151035Y431675D01*
X151035Y434465D02*
X158995Y434465D01*
X151035Y434465D02*
X151035Y435675D01*
X158995Y435675D01*
X158995Y434465D01*
X158995Y438465D02*
X151035Y438465D01*
X151035Y439675D01*
X158995Y439675D01*
X158995Y438465D01*
X158995Y442465D02*
X151035Y442465D01*
X151035Y443675D01*
X158995Y443675D01*
X158995Y442465D01*
X158995Y446465D02*
X151035Y446465D01*
X151035Y447675D01*
X158995Y447675D01*
X158995Y446465D01*
X158995Y450465D02*
X151035Y450465D01*
X151035Y451675D01*
X158995Y451675D01*
X158995Y450465D01*
X158995Y454465D02*
X151035Y454465D01*
X151035Y455675D01*
X158995Y455675D01*
X158995Y454465D01*
X158995Y459675D02*
X151035Y459675D01*
X158995Y459675D02*
X158995Y458465D01*
X151035Y458465D01*
X151035Y459675D01*
D19*
X49610Y413639D03*
X59610Y413639D03*
X59610Y404241D03*
X49610Y404241D03*
X185500Y436245D03*
X195500Y436245D03*
X185500Y401828D03*
X195500Y401828D03*
X185500Y461899D03*
X195500Y461899D03*
X147320Y494110D03*
X147320Y504110D03*
X110490Y495380D03*
X110490Y505380D03*
X185500Y478790D03*
X195500Y478790D03*
X185500Y452755D03*
X195500Y452755D03*
X59610Y394970D03*
X49610Y394970D03*
X117602Y389810D03*
X117602Y379810D03*
X185500Y410972D03*
X195500Y410972D03*
D22*
X47510Y453040D03*
X47510Y436040D03*
X61510Y436040D03*
X61510Y453040D03*
D23*
X121800Y60100D03*
X116800Y60100D03*
D24*
X146550Y60100D03*
X138800Y60100D03*
D23*
X131800Y60100D03*
X126800Y60100D03*
X106800Y60100D03*
X111800Y60100D03*
D24*
X82050Y60100D03*
X89800Y60100D03*
D23*
X96800Y60100D03*
X101800Y60100D03*
D25*
X85400Y49050D03*
X143200Y49050D03*
D26*
X215900Y83820D03*
X160020Y83820D03*
X215900Y121920D03*
X160020Y121920D03*
D27*
X66160Y289300D03*
X71160Y289300D03*
X76160Y289300D03*
X81160Y289300D03*
X81160Y269300D03*
X76160Y269300D03*
X71160Y269300D03*
X66160Y269300D03*
D28*
X73660Y279400D03*
D19*
X69930Y257810D03*
X79930Y257810D03*
D29*
X123450Y551600D03*
X123450Y540600D03*
X105150Y540600D03*
X105150Y551600D03*
D30*
X215900Y139700D03*
X215900Y165100D03*
X215900Y190500D03*
X215900Y215900D03*
X215900Y241300D03*
X215900Y266700D03*
X215900Y292100D03*
X215900Y317500D03*
X215900Y342900D03*
X215900Y368300D03*
X215900Y393700D03*
X215900Y419100D03*
X215900Y444500D03*
X215900Y469900D03*
X215900Y495300D03*
X215900Y520700D03*
X12700Y241300D03*
X12700Y266700D03*
X12700Y292100D03*
X12700Y317500D03*
X12700Y342900D03*
X12700Y368300D03*
X12700Y393700D03*
X12700Y419100D03*
X12700Y444500D03*
X12700Y469900D03*
X12700Y495300D03*
X12700Y520700D03*
D19*
X119761Y505380D03*
X119761Y495380D03*
X109300Y524510D03*
X119300Y524510D03*
D26*
X83820Y121920D03*
X139700Y121920D03*
X83820Y83820D03*
X139700Y83820D03*
D31*
X139399Y212700D03*
X139399Y203200D03*
X139399Y193700D03*
X165401Y193700D03*
X165401Y212700D03*
X132381Y247040D03*
X132381Y256540D03*
X132381Y266040D03*
X106379Y266040D03*
X106379Y247040D03*
D19*
X59690Y30560D03*
X59690Y40560D03*
X168910Y29290D03*
X168910Y39290D03*
X147240Y142240D03*
X137240Y142240D03*
X123190Y195660D03*
X123190Y205660D03*
X123190Y215980D03*
X123190Y225980D03*
X157400Y226060D03*
X147400Y226060D03*
X102950Y289814D03*
X112950Y289814D03*
X90170Y340280D03*
X90170Y330280D03*
D32*
X69850Y330200D03*
X69850Y342900D03*
X69850Y355600D03*
X69850Y368300D03*
X69850Y317500D03*
X57150Y330200D03*
X57150Y342900D03*
X57150Y355600D03*
X57150Y368300D03*
X57150Y317500D03*
D19*
X195500Y427101D03*
X185500Y427101D03*
X112950Y280670D03*
X102950Y280670D03*
X148590Y266620D03*
X148590Y256620D03*
X91440Y261540D03*
X91440Y251540D03*
X218440Y68500D03*
X218440Y58500D03*
D11*
X193240Y61280D02*
X193240Y68260D01*
X200220Y68260D01*
X200220Y61280D01*
X193240Y61280D01*
X193240Y66080D02*
X200220Y66080D01*
X175700Y68260D02*
X175700Y61280D01*
X175700Y68260D02*
X182680Y68260D01*
X182680Y61280D01*
X175700Y61280D01*
X175700Y66080D02*
X182680Y66080D01*
D10*
X386080Y176600D03*
X386080Y153600D03*
D11*
X353260Y301310D02*
X353260Y308290D01*
X360240Y308290D01*
X360240Y301310D01*
X353260Y301310D01*
X353260Y306110D02*
X360240Y306110D01*
X335720Y308290D02*
X335720Y301310D01*
X335720Y308290D02*
X342700Y308290D01*
X342700Y301310D01*
X335720Y301310D01*
X335720Y306110D02*
X342700Y306110D01*
D12*
X366870Y155600D03*
X366870Y174600D03*
X345870Y165100D03*
D11*
X342700Y326710D02*
X342700Y333690D01*
X342700Y326710D02*
X335720Y326710D01*
X335720Y333690D01*
X342700Y333690D01*
X342700Y331510D02*
X335720Y331510D01*
X360240Y333690D02*
X360240Y326710D01*
X353260Y326710D01*
X353260Y333690D01*
X360240Y333690D01*
X360240Y331510D02*
X353260Y331510D01*
D13*
X246380Y50800D03*
X411480Y571500D03*
D14*
X247730Y121980D03*
X247730Y65980D03*
D15*
X284480Y108980D03*
X284480Y98980D03*
X284480Y88980D03*
X284480Y78980D03*
D16*
X306240Y170340D03*
X306240Y190340D03*
D17*
X254240Y146340D03*
X254240Y214340D03*
D18*
X259080Y558800D03*
X436880Y558800D03*
X436880Y25400D03*
X259080Y25400D03*
D19*
X293290Y422910D03*
X283290Y422910D03*
X283290Y466090D03*
X293290Y466090D03*
D20*
X380935Y463455D02*
X380935Y471415D01*
X380935Y463455D02*
X379725Y463455D01*
X379725Y471415D01*
X380935Y471415D01*
X380935Y466136D02*
X379725Y466136D01*
X379725Y468817D02*
X380935Y468817D01*
X376935Y471415D02*
X376935Y463455D01*
X375725Y463455D01*
X375725Y471415D01*
X376935Y471415D01*
X376935Y466136D02*
X375725Y466136D01*
X375725Y468817D02*
X376935Y468817D01*
X372935Y471415D02*
X372935Y463455D01*
X371725Y463455D01*
X371725Y471415D01*
X372935Y471415D01*
X372935Y466136D02*
X371725Y466136D01*
X371725Y468817D02*
X372935Y468817D01*
X368935Y471415D02*
X368935Y463455D01*
X367725Y463455D01*
X367725Y471415D01*
X368935Y471415D01*
X368935Y466136D02*
X367725Y466136D01*
X367725Y468817D02*
X368935Y468817D01*
X364935Y471415D02*
X364935Y463455D01*
X363725Y463455D01*
X363725Y471415D01*
X364935Y471415D01*
X364935Y466136D02*
X363725Y466136D01*
X363725Y468817D02*
X364935Y468817D01*
X360935Y471415D02*
X360935Y463455D01*
X359725Y463455D01*
X359725Y471415D01*
X360935Y471415D01*
X360935Y466136D02*
X359725Y466136D01*
X359725Y468817D02*
X360935Y468817D01*
X355725Y471415D02*
X355725Y463455D01*
X355725Y471415D02*
X356935Y471415D01*
X356935Y463455D01*
X355725Y463455D01*
X355725Y466136D02*
X356935Y466136D01*
X356935Y468817D02*
X355725Y468817D01*
D21*
X354330Y433070D03*
D20*
X352935Y463455D02*
X352935Y471415D01*
X352935Y463455D02*
X351725Y463455D01*
X351725Y471415D01*
X352935Y471415D01*
X352935Y466136D02*
X351725Y466136D01*
X351725Y468817D02*
X352935Y468817D01*
X348935Y471415D02*
X348935Y463455D01*
X347725Y463455D01*
X347725Y471415D01*
X348935Y471415D01*
X348935Y466136D02*
X347725Y466136D01*
X347725Y468817D02*
X348935Y468817D01*
X344935Y471415D02*
X344935Y463455D01*
X343725Y463455D01*
X343725Y471415D01*
X344935Y471415D01*
X344935Y466136D02*
X343725Y466136D01*
X343725Y468817D02*
X344935Y468817D01*
X340935Y471415D02*
X340935Y463455D01*
X339725Y463455D01*
X339725Y471415D01*
X340935Y471415D01*
X340935Y466136D02*
X339725Y466136D01*
X339725Y468817D02*
X340935Y468817D01*
X336935Y471415D02*
X336935Y463455D01*
X335725Y463455D01*
X335725Y471415D01*
X336935Y471415D01*
X336935Y466136D02*
X335725Y466136D01*
X335725Y468817D02*
X336935Y468817D01*
X332935Y471415D02*
X332935Y463455D01*
X331725Y463455D01*
X331725Y471415D01*
X332935Y471415D01*
X332935Y466136D02*
X331725Y466136D01*
X331725Y468817D02*
X332935Y468817D01*
X327725Y471415D02*
X327725Y463455D01*
X327725Y471415D02*
X328935Y471415D01*
X328935Y463455D01*
X327725Y463455D01*
X327725Y466136D02*
X328935Y466136D01*
X328935Y468817D02*
X327725Y468817D01*
X323945Y459675D02*
X315985Y459675D01*
X323945Y459675D02*
X323945Y458465D01*
X315985Y458465D01*
X315985Y459675D01*
X315985Y455675D02*
X323945Y455675D01*
X323945Y454465D01*
X315985Y454465D01*
X315985Y455675D01*
X315985Y451675D02*
X323945Y451675D01*
X323945Y450465D01*
X315985Y450465D01*
X315985Y451675D01*
X315985Y447675D02*
X323945Y447675D01*
X323945Y446465D01*
X315985Y446465D01*
X315985Y447675D01*
X315985Y443675D02*
X323945Y443675D01*
X323945Y442465D01*
X315985Y442465D01*
X315985Y443675D01*
X315985Y439675D02*
X323945Y439675D01*
X323945Y438465D01*
X315985Y438465D01*
X315985Y439675D01*
X315985Y434465D02*
X323945Y434465D01*
X315985Y434465D02*
X315985Y435675D01*
X323945Y435675D01*
X323945Y434465D01*
X323945Y431675D02*
X315985Y431675D01*
X323945Y431675D02*
X323945Y430465D01*
X315985Y430465D01*
X315985Y431675D01*
X315985Y427675D02*
X323945Y427675D01*
X323945Y426465D01*
X315985Y426465D01*
X315985Y427675D01*
X315985Y423675D02*
X323945Y423675D01*
X323945Y422465D01*
X315985Y422465D01*
X315985Y423675D01*
X315985Y419675D02*
X323945Y419675D01*
X323945Y418465D01*
X315985Y418465D01*
X315985Y419675D01*
X315985Y415675D02*
X323945Y415675D01*
X323945Y414465D01*
X315985Y414465D01*
X315985Y415675D01*
X315985Y411675D02*
X323945Y411675D01*
X323945Y410465D01*
X315985Y410465D01*
X315985Y411675D01*
X315985Y406465D02*
X323945Y406465D01*
X315985Y406465D02*
X315985Y407675D01*
X323945Y407675D01*
X323945Y406465D01*
X327725Y402685D02*
X327725Y394725D01*
X327725Y402685D02*
X328935Y402685D01*
X328935Y394725D01*
X327725Y394725D01*
X327725Y397406D02*
X328935Y397406D01*
X328935Y400087D02*
X327725Y400087D01*
X331725Y402685D02*
X331725Y394725D01*
X331725Y402685D02*
X332935Y402685D01*
X332935Y394725D01*
X331725Y394725D01*
X331725Y397406D02*
X332935Y397406D01*
X332935Y400087D02*
X331725Y400087D01*
X335725Y402685D02*
X335725Y394725D01*
X335725Y402685D02*
X336935Y402685D01*
X336935Y394725D01*
X335725Y394725D01*
X335725Y397406D02*
X336935Y397406D01*
X336935Y400087D02*
X335725Y400087D01*
X339725Y402685D02*
X339725Y394725D01*
X339725Y402685D02*
X340935Y402685D01*
X340935Y394725D01*
X339725Y394725D01*
X339725Y397406D02*
X340935Y397406D01*
X340935Y400087D02*
X339725Y400087D01*
X343725Y402685D02*
X343725Y394725D01*
X343725Y402685D02*
X344935Y402685D01*
X344935Y394725D01*
X343725Y394725D01*
X343725Y397406D02*
X344935Y397406D01*
X344935Y400087D02*
X343725Y400087D01*
X347725Y402685D02*
X347725Y394725D01*
X347725Y402685D02*
X348935Y402685D01*
X348935Y394725D01*
X347725Y394725D01*
X347725Y397406D02*
X348935Y397406D01*
X348935Y400087D02*
X347725Y400087D01*
X352935Y402685D02*
X352935Y394725D01*
X351725Y394725D01*
X351725Y402685D01*
X352935Y402685D01*
X352935Y397406D02*
X351725Y397406D01*
X351725Y400087D02*
X352935Y400087D01*
X355725Y402685D02*
X355725Y394725D01*
X355725Y402685D02*
X356935Y402685D01*
X356935Y394725D01*
X355725Y394725D01*
X355725Y397406D02*
X356935Y397406D01*
X356935Y400087D02*
X355725Y400087D01*
X359725Y402685D02*
X359725Y394725D01*
X359725Y402685D02*
X360935Y402685D01*
X360935Y394725D01*
X359725Y394725D01*
X359725Y397406D02*
X360935Y397406D01*
X360935Y400087D02*
X359725Y400087D01*
X363725Y402685D02*
X363725Y394725D01*
X363725Y402685D02*
X364935Y402685D01*
X364935Y394725D01*
X363725Y394725D01*
X363725Y397406D02*
X364935Y397406D01*
X364935Y400087D02*
X363725Y400087D01*
X367725Y402685D02*
X367725Y394725D01*
X367725Y402685D02*
X368935Y402685D01*
X368935Y394725D01*
X367725Y394725D01*
X367725Y397406D02*
X368935Y397406D01*
X368935Y400087D02*
X367725Y400087D01*
X371725Y402685D02*
X371725Y394725D01*
X371725Y402685D02*
X372935Y402685D01*
X372935Y394725D01*
X371725Y394725D01*
X371725Y397406D02*
X372935Y397406D01*
X372935Y400087D02*
X371725Y400087D01*
X375725Y402685D02*
X375725Y394725D01*
X375725Y402685D02*
X376935Y402685D01*
X376935Y394725D01*
X375725Y394725D01*
X375725Y397406D02*
X376935Y397406D01*
X376935Y400087D02*
X375725Y400087D01*
X380935Y402685D02*
X380935Y394725D01*
X379725Y394725D01*
X379725Y402685D01*
X380935Y402685D01*
X380935Y397406D02*
X379725Y397406D01*
X379725Y400087D02*
X380935Y400087D01*
X384715Y406465D02*
X392675Y406465D01*
X384715Y406465D02*
X384715Y407675D01*
X392675Y407675D01*
X392675Y406465D01*
X392675Y410465D02*
X384715Y410465D01*
X384715Y411675D01*
X392675Y411675D01*
X392675Y410465D01*
X392675Y414465D02*
X384715Y414465D01*
X384715Y415675D01*
X392675Y415675D01*
X392675Y414465D01*
X392675Y418465D02*
X384715Y418465D01*
X384715Y419675D01*
X392675Y419675D01*
X392675Y418465D01*
X392675Y422465D02*
X384715Y422465D01*
X384715Y423675D01*
X392675Y423675D01*
X392675Y422465D01*
X392675Y426465D02*
X384715Y426465D01*
X384715Y427675D01*
X392675Y427675D01*
X392675Y426465D01*
X392675Y431675D02*
X384715Y431675D01*
X392675Y431675D02*
X392675Y430465D01*
X384715Y430465D01*
X384715Y431675D01*
X384715Y434465D02*
X392675Y434465D01*
X384715Y434465D02*
X384715Y435675D01*
X392675Y435675D01*
X392675Y434465D01*
X392675Y438465D02*
X384715Y438465D01*
X384715Y439675D01*
X392675Y439675D01*
X392675Y438465D01*
X392675Y442465D02*
X384715Y442465D01*
X384715Y443675D01*
X392675Y443675D01*
X392675Y442465D01*
X392675Y446465D02*
X384715Y446465D01*
X384715Y447675D01*
X392675Y447675D01*
X392675Y446465D01*
X392675Y450465D02*
X384715Y450465D01*
X384715Y451675D01*
X392675Y451675D01*
X392675Y450465D01*
X392675Y454465D02*
X384715Y454465D01*
X384715Y455675D01*
X392675Y455675D01*
X392675Y454465D01*
X392675Y459675D02*
X384715Y459675D01*
X392675Y459675D02*
X392675Y458465D01*
X384715Y458465D01*
X384715Y459675D01*
D19*
X283290Y413639D03*
X293290Y413639D03*
X293290Y404241D03*
X283290Y404241D03*
X419180Y436245D03*
X429180Y436245D03*
X419180Y401828D03*
X429180Y401828D03*
X419180Y461899D03*
X429180Y461899D03*
X381000Y494110D03*
X381000Y504110D03*
X344170Y495380D03*
X344170Y505380D03*
X419180Y478790D03*
X429180Y478790D03*
X419180Y452755D03*
X429180Y452755D03*
X293290Y394970D03*
X283290Y394970D03*
X351282Y389810D03*
X351282Y379810D03*
X419180Y410972D03*
X429180Y410972D03*
D22*
X281190Y453040D03*
X281190Y436040D03*
X295190Y436040D03*
X295190Y453040D03*
D23*
X355480Y60100D03*
X350480Y60100D03*
D24*
X380230Y60100D03*
X372480Y60100D03*
D23*
X365480Y60100D03*
X360480Y60100D03*
X340480Y60100D03*
X345480Y60100D03*
D24*
X315730Y60100D03*
X323480Y60100D03*
D23*
X330480Y60100D03*
X335480Y60100D03*
D25*
X319080Y49050D03*
X376880Y49050D03*
D26*
X449580Y83820D03*
X393700Y83820D03*
X449580Y121920D03*
X393700Y121920D03*
D27*
X299840Y289300D03*
X304840Y289300D03*
X309840Y289300D03*
X314840Y289300D03*
X314840Y269300D03*
X309840Y269300D03*
X304840Y269300D03*
X299840Y269300D03*
D28*
X307340Y279400D03*
D19*
X303610Y257810D03*
X313610Y257810D03*
D29*
X357130Y551600D03*
X357130Y540600D03*
X338830Y540600D03*
X338830Y551600D03*
D30*
X449580Y139700D03*
X449580Y165100D03*
X449580Y190500D03*
X449580Y215900D03*
X449580Y241300D03*
X449580Y266700D03*
X449580Y292100D03*
X449580Y317500D03*
X449580Y342900D03*
X449580Y368300D03*
X449580Y393700D03*
X449580Y419100D03*
X449580Y444500D03*
X449580Y469900D03*
X449580Y495300D03*
X449580Y520700D03*
X246380Y241300D03*
X246380Y266700D03*
X246380Y292100D03*
X246380Y317500D03*
X246380Y342900D03*
X246380Y368300D03*
X246380Y393700D03*
X246380Y419100D03*
X246380Y444500D03*
X246380Y469900D03*
X246380Y495300D03*
X246380Y520700D03*
D19*
X353441Y505380D03*
X353441Y495380D03*
X342980Y524510D03*
X352980Y524510D03*
D26*
X317500Y121920D03*
X373380Y121920D03*
X317500Y83820D03*
X373380Y83820D03*
D31*
X373079Y212700D03*
X373079Y203200D03*
X373079Y193700D03*
X399081Y193700D03*
X399081Y212700D03*
X366061Y247040D03*
X366061Y256540D03*
X366061Y266040D03*
X340059Y266040D03*
X340059Y247040D03*
D19*
X293370Y30560D03*
X293370Y40560D03*
X402590Y29290D03*
X402590Y39290D03*
X380920Y142240D03*
X370920Y142240D03*
X356870Y195660D03*
X356870Y205660D03*
X356870Y215980D03*
X356870Y225980D03*
X391080Y226060D03*
X381080Y226060D03*
X336630Y289814D03*
X346630Y289814D03*
X323850Y340280D03*
X323850Y330280D03*
D32*
X303530Y330200D03*
X303530Y342900D03*
X303530Y355600D03*
X303530Y368300D03*
X303530Y317500D03*
X290830Y330200D03*
X290830Y342900D03*
X290830Y355600D03*
X290830Y368300D03*
X290830Y317500D03*
D19*
X429180Y427101D03*
X419180Y427101D03*
X346630Y280670D03*
X336630Y280670D03*
X382270Y266620D03*
X382270Y256620D03*
X325120Y261540D03*
X325120Y251540D03*
X452120Y68500D03*
X452120Y58500D03*
D11*
X426920Y61280D02*
X426920Y68260D01*
X433900Y68260D01*
X433900Y61280D01*
X426920Y61280D01*
X426920Y66080D02*
X433900Y66080D01*
X409380Y68260D02*
X409380Y61280D01*
X409380Y68260D02*
X416360Y68260D01*
X416360Y61280D01*
X409380Y61280D01*
X409380Y66080D02*
X416360Y66080D01*
D10*
X619760Y176600D03*
X619760Y153600D03*
D11*
X586940Y301310D02*
X586940Y308290D01*
X593920Y308290D01*
X593920Y301310D01*
X586940Y301310D01*
X586940Y306110D02*
X593920Y306110D01*
X569400Y308290D02*
X569400Y301310D01*
X569400Y308290D02*
X576380Y308290D01*
X576380Y301310D01*
X569400Y301310D01*
X569400Y306110D02*
X576380Y306110D01*
D12*
X600550Y155600D03*
X600550Y174600D03*
X579550Y165100D03*
D11*
X576380Y326710D02*
X576380Y333690D01*
X576380Y326710D02*
X569400Y326710D01*
X569400Y333690D01*
X576380Y333690D01*
X576380Y331510D02*
X569400Y331510D01*
X593920Y333690D02*
X593920Y326710D01*
X586940Y326710D01*
X586940Y333690D01*
X593920Y333690D01*
X593920Y331510D02*
X586940Y331510D01*
D13*
X480060Y50800D03*
X645160Y571500D03*
D14*
X481410Y121980D03*
X481410Y65980D03*
D15*
X518160Y108980D03*
X518160Y98980D03*
X518160Y88980D03*
X518160Y78980D03*
D16*
X539920Y170340D03*
X539920Y190340D03*
D17*
X487920Y146340D03*
X487920Y214340D03*
D18*
X492760Y558800D03*
X670560Y558800D03*
X670560Y25400D03*
X492760Y25400D03*
D19*
X526970Y422910D03*
X516970Y422910D03*
X516970Y466090D03*
X526970Y466090D03*
D20*
X614615Y463455D02*
X614615Y471415D01*
X614615Y463455D02*
X613405Y463455D01*
X613405Y471415D01*
X614615Y471415D01*
X614615Y466136D02*
X613405Y466136D01*
X613405Y468817D02*
X614615Y468817D01*
X610615Y471415D02*
X610615Y463455D01*
X609405Y463455D01*
X609405Y471415D01*
X610615Y471415D01*
X610615Y466136D02*
X609405Y466136D01*
X609405Y468817D02*
X610615Y468817D01*
X606615Y471415D02*
X606615Y463455D01*
X605405Y463455D01*
X605405Y471415D01*
X606615Y471415D01*
X606615Y466136D02*
X605405Y466136D01*
X605405Y468817D02*
X606615Y468817D01*
X602615Y471415D02*
X602615Y463455D01*
X601405Y463455D01*
X601405Y471415D01*
X602615Y471415D01*
X602615Y466136D02*
X601405Y466136D01*
X601405Y468817D02*
X602615Y468817D01*
X598615Y471415D02*
X598615Y463455D01*
X597405Y463455D01*
X597405Y471415D01*
X598615Y471415D01*
X598615Y466136D02*
X597405Y466136D01*
X597405Y468817D02*
X598615Y468817D01*
X594615Y471415D02*
X594615Y463455D01*
X593405Y463455D01*
X593405Y471415D01*
X594615Y471415D01*
X594615Y466136D02*
X593405Y466136D01*
X593405Y468817D02*
X594615Y468817D01*
X589405Y471415D02*
X589405Y463455D01*
X589405Y471415D02*
X590615Y471415D01*
X590615Y463455D01*
X589405Y463455D01*
X589405Y466136D02*
X590615Y466136D01*
X590615Y468817D02*
X589405Y468817D01*
D21*
X588010Y433070D03*
D20*
X586615Y463455D02*
X586615Y471415D01*
X586615Y463455D02*
X585405Y463455D01*
X585405Y471415D01*
X586615Y471415D01*
X586615Y466136D02*
X585405Y466136D01*
X585405Y468817D02*
X586615Y468817D01*
X582615Y471415D02*
X582615Y463455D01*
X581405Y463455D01*
X581405Y471415D01*
X582615Y471415D01*
X582615Y466136D02*
X581405Y466136D01*
X581405Y468817D02*
X582615Y468817D01*
X578615Y471415D02*
X578615Y463455D01*
X577405Y463455D01*
X577405Y471415D01*
X578615Y471415D01*
X578615Y466136D02*
X577405Y466136D01*
X577405Y468817D02*
X578615Y468817D01*
X574615Y471415D02*
X574615Y463455D01*
X573405Y463455D01*
X573405Y471415D01*
X574615Y471415D01*
X574615Y466136D02*
X573405Y466136D01*
X573405Y468817D02*
X574615Y468817D01*
X570615Y471415D02*
X570615Y463455D01*
X569405Y463455D01*
X569405Y471415D01*
X570615Y471415D01*
X570615Y466136D02*
X569405Y466136D01*
X569405Y468817D02*
X570615Y468817D01*
X566615Y471415D02*
X566615Y463455D01*
X565405Y463455D01*
X565405Y471415D01*
X566615Y471415D01*
X566615Y466136D02*
X565405Y466136D01*
X565405Y468817D02*
X566615Y468817D01*
X561405Y471415D02*
X561405Y463455D01*
X561405Y471415D02*
X562615Y471415D01*
X562615Y463455D01*
X561405Y463455D01*
X561405Y466136D02*
X562615Y466136D01*
X562615Y468817D02*
X561405Y468817D01*
X557625Y459675D02*
X549665Y459675D01*
X557625Y459675D02*
X557625Y458465D01*
X549665Y458465D01*
X549665Y459675D01*
X549665Y455675D02*
X557625Y455675D01*
X557625Y454465D01*
X549665Y454465D01*
X549665Y455675D01*
X549665Y451675D02*
X557625Y451675D01*
X557625Y450465D01*
X549665Y450465D01*
X549665Y451675D01*
X549665Y447675D02*
X557625Y447675D01*
X557625Y446465D01*
X549665Y446465D01*
X549665Y447675D01*
X549665Y443675D02*
X557625Y443675D01*
X557625Y442465D01*
X549665Y442465D01*
X549665Y443675D01*
X549665Y439675D02*
X557625Y439675D01*
X557625Y438465D01*
X549665Y438465D01*
X549665Y439675D01*
X549665Y434465D02*
X557625Y434465D01*
X549665Y434465D02*
X549665Y435675D01*
X557625Y435675D01*
X557625Y434465D01*
X557625Y431675D02*
X549665Y431675D01*
X557625Y431675D02*
X557625Y430465D01*
X549665Y430465D01*
X549665Y431675D01*
X549665Y427675D02*
X557625Y427675D01*
X557625Y426465D01*
X549665Y426465D01*
X549665Y427675D01*
X549665Y423675D02*
X557625Y423675D01*
X557625Y422465D01*
X549665Y422465D01*
X549665Y423675D01*
X549665Y419675D02*
X557625Y419675D01*
X557625Y418465D01*
X549665Y418465D01*
X549665Y419675D01*
X549665Y415675D02*
X557625Y415675D01*
X557625Y414465D01*
X549665Y414465D01*
X549665Y415675D01*
X549665Y411675D02*
X557625Y411675D01*
X557625Y410465D01*
X549665Y410465D01*
X549665Y411675D01*
X549665Y406465D02*
X557625Y406465D01*
X549665Y406465D02*
X549665Y407675D01*
X557625Y407675D01*
X557625Y406465D01*
X561405Y402685D02*
X561405Y394725D01*
X561405Y402685D02*
X562615Y402685D01*
X562615Y394725D01*
X561405Y394725D01*
X561405Y397406D02*
X562615Y397406D01*
X562615Y400087D02*
X561405Y400087D01*
X565405Y402685D02*
X565405Y394725D01*
X565405Y402685D02*
X566615Y402685D01*
X566615Y394725D01*
X565405Y394725D01*
X565405Y397406D02*
X566615Y397406D01*
X566615Y400087D02*
X565405Y400087D01*
X569405Y402685D02*
X569405Y394725D01*
X569405Y402685D02*
X570615Y402685D01*
X570615Y394725D01*
X569405Y394725D01*
X569405Y397406D02*
X570615Y397406D01*
X570615Y400087D02*
X569405Y400087D01*
X573405Y402685D02*
X573405Y394725D01*
X573405Y402685D02*
X574615Y402685D01*
X574615Y394725D01*
X573405Y394725D01*
X573405Y397406D02*
X574615Y397406D01*
X574615Y400087D02*
X573405Y400087D01*
X577405Y402685D02*
X577405Y394725D01*
X577405Y402685D02*
X578615Y402685D01*
X578615Y394725D01*
X577405Y394725D01*
X577405Y397406D02*
X578615Y397406D01*
X578615Y400087D02*
X577405Y400087D01*
X581405Y402685D02*
X581405Y394725D01*
X581405Y402685D02*
X582615Y402685D01*
X582615Y394725D01*
X581405Y394725D01*
X581405Y397406D02*
X582615Y397406D01*
X582615Y400087D02*
X581405Y400087D01*
X586615Y402685D02*
X586615Y394725D01*
X585405Y394725D01*
X585405Y402685D01*
X586615Y402685D01*
X586615Y397406D02*
X585405Y397406D01*
X585405Y400087D02*
X586615Y400087D01*
X589405Y402685D02*
X589405Y394725D01*
X589405Y402685D02*
X590615Y402685D01*
X590615Y394725D01*
X589405Y394725D01*
X589405Y397406D02*
X590615Y397406D01*
X590615Y400087D02*
X589405Y400087D01*
X593405Y402685D02*
X593405Y394725D01*
X593405Y402685D02*
X594615Y402685D01*
X594615Y394725D01*
X593405Y394725D01*
X593405Y397406D02*
X594615Y397406D01*
X594615Y400087D02*
X593405Y400087D01*
X597405Y402685D02*
X597405Y394725D01*
X597405Y402685D02*
X598615Y402685D01*
X598615Y394725D01*
X597405Y394725D01*
X597405Y397406D02*
X598615Y397406D01*
X598615Y400087D02*
X597405Y400087D01*
X601405Y402685D02*
X601405Y394725D01*
X601405Y402685D02*
X602615Y402685D01*
X602615Y394725D01*
X601405Y394725D01*
X601405Y397406D02*
X602615Y397406D01*
X602615Y400087D02*
X601405Y400087D01*
X605405Y402685D02*
X605405Y394725D01*
X605405Y402685D02*
X606615Y402685D01*
X606615Y394725D01*
X605405Y394725D01*
X605405Y397406D02*
X606615Y397406D01*
X606615Y400087D02*
X605405Y400087D01*
X609405Y402685D02*
X609405Y394725D01*
X609405Y402685D02*
X610615Y402685D01*
X610615Y394725D01*
X609405Y394725D01*
X609405Y397406D02*
X610615Y397406D01*
X610615Y400087D02*
X609405Y400087D01*
X614615Y402685D02*
X614615Y394725D01*
X613405Y394725D01*
X613405Y402685D01*
X614615Y402685D01*
X614615Y397406D02*
X613405Y397406D01*
X613405Y400087D02*
X614615Y400087D01*
X618395Y406465D02*
X626355Y406465D01*
X618395Y406465D02*
X618395Y407675D01*
X626355Y407675D01*
X626355Y406465D01*
X626355Y410465D02*
X618395Y410465D01*
X618395Y411675D01*
X626355Y411675D01*
X626355Y410465D01*
X626355Y414465D02*
X618395Y414465D01*
X618395Y415675D01*
X626355Y415675D01*
X626355Y414465D01*
X626355Y418465D02*
X618395Y418465D01*
X618395Y419675D01*
X626355Y419675D01*
X626355Y418465D01*
X626355Y422465D02*
X618395Y422465D01*
X618395Y423675D01*
X626355Y423675D01*
X626355Y422465D01*
X626355Y426465D02*
X618395Y426465D01*
X618395Y427675D01*
X626355Y427675D01*
X626355Y426465D01*
X626355Y431675D02*
X618395Y431675D01*
X626355Y431675D02*
X626355Y430465D01*
X618395Y430465D01*
X618395Y431675D01*
X618395Y434465D02*
X626355Y434465D01*
X618395Y434465D02*
X618395Y435675D01*
X626355Y435675D01*
X626355Y434465D01*
X626355Y438465D02*
X618395Y438465D01*
X618395Y439675D01*
X626355Y439675D01*
X626355Y438465D01*
X626355Y442465D02*
X618395Y442465D01*
X618395Y443675D01*
X626355Y443675D01*
X626355Y442465D01*
X626355Y446465D02*
X618395Y446465D01*
X618395Y447675D01*
X626355Y447675D01*
X626355Y446465D01*
X626355Y450465D02*
X618395Y450465D01*
X618395Y451675D01*
X626355Y451675D01*
X626355Y450465D01*
X626355Y454465D02*
X618395Y454465D01*
X618395Y455675D01*
X626355Y455675D01*
X626355Y454465D01*
X626355Y459675D02*
X618395Y459675D01*
X626355Y459675D02*
X626355Y458465D01*
X618395Y458465D01*
X618395Y459675D01*
D19*
X516970Y413639D03*
X526970Y413639D03*
X526970Y404241D03*
X516970Y404241D03*
X652860Y436245D03*
X662860Y436245D03*
X652860Y401828D03*
X662860Y401828D03*
X652860Y461899D03*
X662860Y461899D03*
X614680Y494110D03*
X614680Y504110D03*
X577850Y495380D03*
X577850Y505380D03*
X652860Y478790D03*
X662860Y478790D03*
X652860Y452755D03*
X662860Y452755D03*
X526970Y394970D03*
X516970Y394970D03*
X584962Y389810D03*
X584962Y379810D03*
X652860Y410972D03*
X662860Y410972D03*
D22*
X514870Y453040D03*
X514870Y436040D03*
X528870Y436040D03*
X528870Y453040D03*
D23*
X589160Y60100D03*
X584160Y60100D03*
D24*
X613910Y60100D03*
X606160Y60100D03*
D23*
X599160Y60100D03*
X594160Y60100D03*
X574160Y60100D03*
X579160Y60100D03*
D24*
X549410Y60100D03*
X557160Y60100D03*
D23*
X564160Y60100D03*
X569160Y60100D03*
D25*
X552760Y49050D03*
X610560Y49050D03*
D26*
X683260Y83820D03*
X627380Y83820D03*
X683260Y121920D03*
X627380Y121920D03*
D27*
X533520Y289300D03*
X538520Y289300D03*
X543520Y289300D03*
X548520Y289300D03*
X548520Y269300D03*
X543520Y269300D03*
X538520Y269300D03*
X533520Y269300D03*
D28*
X541020Y279400D03*
D19*
X537290Y257810D03*
X547290Y257810D03*
D29*
X590810Y551600D03*
X590810Y540600D03*
X572510Y540600D03*
X572510Y551600D03*
D30*
X683260Y139700D03*
X683260Y165100D03*
X683260Y190500D03*
X683260Y215900D03*
X683260Y241300D03*
X683260Y266700D03*
X683260Y292100D03*
X683260Y317500D03*
X683260Y342900D03*
X683260Y368300D03*
X683260Y393700D03*
X683260Y419100D03*
X683260Y444500D03*
X683260Y469900D03*
X683260Y495300D03*
X683260Y520700D03*
X480060Y241300D03*
X480060Y266700D03*
X480060Y292100D03*
X480060Y317500D03*
X480060Y342900D03*
X480060Y368300D03*
X480060Y393700D03*
X480060Y419100D03*
X480060Y444500D03*
X480060Y469900D03*
X480060Y495300D03*
X480060Y520700D03*
D19*
X587121Y505380D03*
X587121Y495380D03*
X576660Y524510D03*
X586660Y524510D03*
D26*
X551180Y121920D03*
X607060Y121920D03*
X551180Y83820D03*
X607060Y83820D03*
D31*
X606759Y212700D03*
X606759Y203200D03*
X606759Y193700D03*
X632761Y193700D03*
X632761Y212700D03*
X599741Y247040D03*
X599741Y256540D03*
X599741Y266040D03*
X573739Y266040D03*
X573739Y247040D03*
D19*
X527050Y30560D03*
X527050Y40560D03*
X636270Y29290D03*
X636270Y39290D03*
X614600Y142240D03*
X604600Y142240D03*
X590550Y195660D03*
X590550Y205660D03*
X590550Y215980D03*
X590550Y225980D03*
X624760Y226060D03*
X614760Y226060D03*
X570310Y289814D03*
X580310Y289814D03*
X557530Y340280D03*
X557530Y330280D03*
D32*
X537210Y330200D03*
X537210Y342900D03*
X537210Y355600D03*
X537210Y368300D03*
X537210Y317500D03*
X524510Y330200D03*
X524510Y342900D03*
X524510Y355600D03*
X524510Y368300D03*
X524510Y317500D03*
D19*
X662860Y427101D03*
X652860Y427101D03*
X580310Y280670D03*
X570310Y280670D03*
X615950Y266620D03*
X615950Y256620D03*
X558800Y261540D03*
X558800Y251540D03*
X685800Y68500D03*
X685800Y58500D03*
D11*
X660600Y61280D02*
X660600Y68260D01*
X667580Y68260D01*
X667580Y61280D01*
X660600Y61280D01*
X660600Y66080D02*
X667580Y66080D01*
X643060Y68260D02*
X643060Y61280D01*
X643060Y68260D02*
X650040Y68260D01*
X650040Y61280D01*
X643060Y61280D01*
X643060Y66080D02*
X650040Y66080D01*
D10*
X853440Y176600D03*
X853440Y153600D03*
D11*
X820620Y301310D02*
X820620Y308290D01*
X827600Y308290D01*
X827600Y301310D01*
X820620Y301310D01*
X820620Y306110D02*
X827600Y306110D01*
X803080Y308290D02*
X803080Y301310D01*
X803080Y308290D02*
X810060Y308290D01*
X810060Y301310D01*
X803080Y301310D01*
X803080Y306110D02*
X810060Y306110D01*
D12*
X834230Y155600D03*
X834230Y174600D03*
X813230Y165100D03*
D11*
X810060Y326710D02*
X810060Y333690D01*
X810060Y326710D02*
X803080Y326710D01*
X803080Y333690D01*
X810060Y333690D01*
X810060Y331510D02*
X803080Y331510D01*
X827600Y333690D02*
X827600Y326710D01*
X820620Y326710D01*
X820620Y333690D01*
X827600Y333690D01*
X827600Y331510D02*
X820620Y331510D01*
D13*
X713740Y50800D03*
X878840Y571500D03*
D14*
X715090Y121980D03*
X715090Y65980D03*
D15*
X751840Y108980D03*
X751840Y98980D03*
X751840Y88980D03*
X751840Y78980D03*
D16*
X773600Y170340D03*
X773600Y190340D03*
D17*
X721600Y146340D03*
X721600Y214340D03*
D18*
X726440Y558800D03*
X904240Y558800D03*
X904240Y25400D03*
X726440Y25400D03*
D19*
X760650Y422910D03*
X750650Y422910D03*
X750650Y466090D03*
X760650Y466090D03*
D20*
X848295Y463455D02*
X848295Y471415D01*
X848295Y463455D02*
X847085Y463455D01*
X847085Y471415D01*
X848295Y471415D01*
X848295Y466136D02*
X847085Y466136D01*
X847085Y468817D02*
X848295Y468817D01*
X844295Y471415D02*
X844295Y463455D01*
X843085Y463455D01*
X843085Y471415D01*
X844295Y471415D01*
X844295Y466136D02*
X843085Y466136D01*
X843085Y468817D02*
X844295Y468817D01*
X840295Y471415D02*
X840295Y463455D01*
X839085Y463455D01*
X839085Y471415D01*
X840295Y471415D01*
X840295Y466136D02*
X839085Y466136D01*
X839085Y468817D02*
X840295Y468817D01*
X836295Y471415D02*
X836295Y463455D01*
X835085Y463455D01*
X835085Y471415D01*
X836295Y471415D01*
X836295Y466136D02*
X835085Y466136D01*
X835085Y468817D02*
X836295Y468817D01*
X832295Y471415D02*
X832295Y463455D01*
X831085Y463455D01*
X831085Y471415D01*
X832295Y471415D01*
X832295Y466136D02*
X831085Y466136D01*
X831085Y468817D02*
X832295Y468817D01*
X828295Y471415D02*
X828295Y463455D01*
X827085Y463455D01*
X827085Y471415D01*
X828295Y471415D01*
X828295Y466136D02*
X827085Y466136D01*
X827085Y468817D02*
X828295Y468817D01*
X823085Y471415D02*
X823085Y463455D01*
X823085Y471415D02*
X824295Y471415D01*
X824295Y463455D01*
X823085Y463455D01*
X823085Y466136D02*
X824295Y466136D01*
X824295Y468817D02*
X823085Y468817D01*
D21*
X821690Y433070D03*
D20*
X820295Y463455D02*
X820295Y471415D01*
X820295Y463455D02*
X819085Y463455D01*
X819085Y471415D01*
X820295Y471415D01*
X820295Y466136D02*
X819085Y466136D01*
X819085Y468817D02*
X820295Y468817D01*
X816295Y471415D02*
X816295Y463455D01*
X815085Y463455D01*
X815085Y471415D01*
X816295Y471415D01*
X816295Y466136D02*
X815085Y466136D01*
X815085Y468817D02*
X816295Y468817D01*
X812295Y471415D02*
X812295Y463455D01*
X811085Y463455D01*
X811085Y471415D01*
X812295Y471415D01*
X812295Y466136D02*
X811085Y466136D01*
X811085Y468817D02*
X812295Y468817D01*
X808295Y471415D02*
X808295Y463455D01*
X807085Y463455D01*
X807085Y471415D01*
X808295Y471415D01*
X808295Y466136D02*
X807085Y466136D01*
X807085Y468817D02*
X808295Y468817D01*
X804295Y471415D02*
X804295Y463455D01*
X803085Y463455D01*
X803085Y471415D01*
X804295Y471415D01*
X804295Y466136D02*
X803085Y466136D01*
X803085Y468817D02*
X804295Y468817D01*
X800295Y471415D02*
X800295Y463455D01*
X799085Y463455D01*
X799085Y471415D01*
X800295Y471415D01*
X800295Y466136D02*
X799085Y466136D01*
X799085Y468817D02*
X800295Y468817D01*
X795085Y471415D02*
X795085Y463455D01*
X795085Y471415D02*
X796295Y471415D01*
X796295Y463455D01*
X795085Y463455D01*
X795085Y466136D02*
X796295Y466136D01*
X796295Y468817D02*
X795085Y468817D01*
X791305Y459675D02*
X783345Y459675D01*
X791305Y459675D02*
X791305Y458465D01*
X783345Y458465D01*
X783345Y459675D01*
X783345Y455675D02*
X791305Y455675D01*
X791305Y454465D01*
X783345Y454465D01*
X783345Y455675D01*
X783345Y451675D02*
X791305Y451675D01*
X791305Y450465D01*
X783345Y450465D01*
X783345Y451675D01*
X783345Y447675D02*
X791305Y447675D01*
X791305Y446465D01*
X783345Y446465D01*
X783345Y447675D01*
X783345Y443675D02*
X791305Y443675D01*
X791305Y442465D01*
X783345Y442465D01*
X783345Y443675D01*
X783345Y439675D02*
X791305Y439675D01*
X791305Y438465D01*
X783345Y438465D01*
X783345Y439675D01*
X783345Y434465D02*
X791305Y434465D01*
X783345Y434465D02*
X783345Y435675D01*
X791305Y435675D01*
X791305Y434465D01*
X791305Y431675D02*
X783345Y431675D01*
X791305Y431675D02*
X791305Y430465D01*
X783345Y430465D01*
X783345Y431675D01*
X783345Y427675D02*
X791305Y427675D01*
X791305Y426465D01*
X783345Y426465D01*
X783345Y427675D01*
X783345Y423675D02*
X791305Y423675D01*
X791305Y422465D01*
X783345Y422465D01*
X783345Y423675D01*
X783345Y419675D02*
X791305Y419675D01*
X791305Y418465D01*
X783345Y418465D01*
X783345Y419675D01*
X783345Y415675D02*
X791305Y415675D01*
X791305Y414465D01*
X783345Y414465D01*
X783345Y415675D01*
X783345Y411675D02*
X791305Y411675D01*
X791305Y410465D01*
X783345Y410465D01*
X783345Y411675D01*
X783345Y406465D02*
X791305Y406465D01*
X783345Y406465D02*
X783345Y407675D01*
X791305Y407675D01*
X791305Y406465D01*
X795085Y402685D02*
X795085Y394725D01*
X795085Y402685D02*
X796295Y402685D01*
X796295Y394725D01*
X795085Y394725D01*
X795085Y397406D02*
X796295Y397406D01*
X796295Y400087D02*
X795085Y400087D01*
X799085Y402685D02*
X799085Y394725D01*
X799085Y402685D02*
X800295Y402685D01*
X800295Y394725D01*
X799085Y394725D01*
X799085Y397406D02*
X800295Y397406D01*
X800295Y400087D02*
X799085Y400087D01*
X803085Y402685D02*
X803085Y394725D01*
X803085Y402685D02*
X804295Y402685D01*
X804295Y394725D01*
X803085Y394725D01*
X803085Y397406D02*
X804295Y397406D01*
X804295Y400087D02*
X803085Y400087D01*
X807085Y402685D02*
X807085Y394725D01*
X807085Y402685D02*
X808295Y402685D01*
X808295Y394725D01*
X807085Y394725D01*
X807085Y397406D02*
X808295Y397406D01*
X808295Y400087D02*
X807085Y400087D01*
X811085Y402685D02*
X811085Y394725D01*
X811085Y402685D02*
X812295Y402685D01*
X812295Y394725D01*
X811085Y394725D01*
X811085Y397406D02*
X812295Y397406D01*
X812295Y400087D02*
X811085Y400087D01*
X815085Y402685D02*
X815085Y394725D01*
X815085Y402685D02*
X816295Y402685D01*
X816295Y394725D01*
X815085Y394725D01*
X815085Y397406D02*
X816295Y397406D01*
X816295Y400087D02*
X815085Y400087D01*
X820295Y402685D02*
X820295Y394725D01*
X819085Y394725D01*
X819085Y402685D01*
X820295Y402685D01*
X820295Y397406D02*
X819085Y397406D01*
X819085Y400087D02*
X820295Y400087D01*
X823085Y402685D02*
X823085Y394725D01*
X823085Y402685D02*
X824295Y402685D01*
X824295Y394725D01*
X823085Y394725D01*
X823085Y397406D02*
X824295Y397406D01*
X824295Y400087D02*
X823085Y400087D01*
X827085Y402685D02*
X827085Y394725D01*
X827085Y402685D02*
X828295Y402685D01*
X828295Y394725D01*
X827085Y394725D01*
X827085Y397406D02*
X828295Y397406D01*
X828295Y400087D02*
X827085Y400087D01*
X831085Y402685D02*
X831085Y394725D01*
X831085Y402685D02*
X832295Y402685D01*
X832295Y394725D01*
X831085Y394725D01*
X831085Y397406D02*
X832295Y397406D01*
X832295Y400087D02*
X831085Y400087D01*
X835085Y402685D02*
X835085Y394725D01*
X835085Y402685D02*
X836295Y402685D01*
X836295Y394725D01*
X835085Y394725D01*
X835085Y397406D02*
X836295Y397406D01*
X836295Y400087D02*
X835085Y400087D01*
X839085Y402685D02*
X839085Y394725D01*
X839085Y402685D02*
X840295Y402685D01*
X840295Y394725D01*
X839085Y394725D01*
X839085Y397406D02*
X840295Y397406D01*
X840295Y400087D02*
X839085Y400087D01*
X843085Y402685D02*
X843085Y394725D01*
X843085Y402685D02*
X844295Y402685D01*
X844295Y394725D01*
X843085Y394725D01*
X843085Y397406D02*
X844295Y397406D01*
X844295Y400087D02*
X843085Y400087D01*
X848295Y402685D02*
X848295Y394725D01*
X847085Y394725D01*
X847085Y402685D01*
X848295Y402685D01*
X848295Y397406D02*
X847085Y397406D01*
X847085Y400087D02*
X848295Y400087D01*
X852075Y406465D02*
X860035Y406465D01*
X852075Y406465D02*
X852075Y407675D01*
X860035Y407675D01*
X860035Y406465D01*
X860035Y410465D02*
X852075Y410465D01*
X852075Y411675D01*
X860035Y411675D01*
X860035Y410465D01*
X860035Y414465D02*
X852075Y414465D01*
X852075Y415675D01*
X860035Y415675D01*
X860035Y414465D01*
X860035Y418465D02*
X852075Y418465D01*
X852075Y419675D01*
X860035Y419675D01*
X860035Y418465D01*
X860035Y422465D02*
X852075Y422465D01*
X852075Y423675D01*
X860035Y423675D01*
X860035Y422465D01*
X860035Y426465D02*
X852075Y426465D01*
X852075Y427675D01*
X860035Y427675D01*
X860035Y426465D01*
X860035Y431675D02*
X852075Y431675D01*
X860035Y431675D02*
X860035Y430465D01*
X852075Y430465D01*
X852075Y431675D01*
X852075Y434465D02*
X860035Y434465D01*
X852075Y434465D02*
X852075Y435675D01*
X860035Y435675D01*
X860035Y434465D01*
X860035Y438465D02*
X852075Y438465D01*
X852075Y439675D01*
X860035Y439675D01*
X860035Y438465D01*
X860035Y442465D02*
X852075Y442465D01*
X852075Y443675D01*
X860035Y443675D01*
X860035Y442465D01*
X860035Y446465D02*
X852075Y446465D01*
X852075Y447675D01*
X860035Y447675D01*
X860035Y446465D01*
X860035Y450465D02*
X852075Y450465D01*
X852075Y451675D01*
X860035Y451675D01*
X860035Y450465D01*
X860035Y454465D02*
X852075Y454465D01*
X852075Y455675D01*
X860035Y455675D01*
X860035Y454465D01*
X860035Y459675D02*
X852075Y459675D01*
X860035Y459675D02*
X860035Y458465D01*
X852075Y458465D01*
X852075Y459675D01*
D19*
X750650Y413639D03*
X760650Y413639D03*
X760650Y404241D03*
X750650Y404241D03*
X886540Y436245D03*
X896540Y436245D03*
X886540Y401828D03*
X896540Y401828D03*
X886540Y461899D03*
X896540Y461899D03*
X848360Y494110D03*
X848360Y504110D03*
X811530Y495380D03*
X811530Y505380D03*
X886540Y478790D03*
X896540Y478790D03*
X886540Y452755D03*
X896540Y452755D03*
X760650Y394970D03*
X750650Y394970D03*
X818642Y389810D03*
X818642Y379810D03*
X886540Y410972D03*
X896540Y410972D03*
D22*
X748550Y453040D03*
X748550Y436040D03*
X762550Y436040D03*
X762550Y453040D03*
D23*
X822840Y60100D03*
X817840Y60100D03*
D24*
X847590Y60100D03*
X839840Y60100D03*
D23*
X832840Y60100D03*
X827840Y60100D03*
X807840Y60100D03*
X812840Y60100D03*
D24*
X783090Y60100D03*
X790840Y60100D03*
D23*
X797840Y60100D03*
X802840Y60100D03*
D25*
X786440Y49050D03*
X844240Y49050D03*
D26*
X916940Y83820D03*
X861060Y83820D03*
X916940Y121920D03*
X861060Y121920D03*
D27*
X767200Y289300D03*
X772200Y289300D03*
X777200Y289300D03*
X782200Y289300D03*
X782200Y269300D03*
X777200Y269300D03*
X772200Y269300D03*
X767200Y269300D03*
D28*
X774700Y279400D03*
D19*
X770970Y257810D03*
X780970Y257810D03*
D29*
X824490Y551600D03*
X824490Y540600D03*
X806190Y540600D03*
X806190Y551600D03*
D30*
X916940Y139700D03*
X916940Y165100D03*
X916940Y190500D03*
X916940Y215900D03*
X916940Y241300D03*
X916940Y266700D03*
X916940Y292100D03*
X916940Y317500D03*
X916940Y342900D03*
X916940Y368300D03*
X916940Y393700D03*
X916940Y419100D03*
X916940Y444500D03*
X916940Y469900D03*
X916940Y495300D03*
X916940Y520700D03*
X713740Y241300D03*
X713740Y266700D03*
X713740Y292100D03*
X713740Y317500D03*
X713740Y342900D03*
X713740Y368300D03*
X713740Y393700D03*
X713740Y419100D03*
X713740Y444500D03*
X713740Y469900D03*
X713740Y495300D03*
X713740Y520700D03*
D19*
X820801Y505380D03*
X820801Y495380D03*
X810340Y524510D03*
X820340Y524510D03*
D26*
X784860Y121920D03*
X840740Y121920D03*
X784860Y83820D03*
X840740Y83820D03*
D31*
X840439Y212700D03*
X840439Y203200D03*
X840439Y193700D03*
X866441Y193700D03*
X866441Y212700D03*
X833421Y247040D03*
X833421Y256540D03*
X833421Y266040D03*
X807419Y266040D03*
X807419Y247040D03*
D19*
X760730Y30560D03*
X760730Y40560D03*
X869950Y29290D03*
X869950Y39290D03*
X848280Y142240D03*
X838280Y142240D03*
X824230Y195660D03*
X824230Y205660D03*
X824230Y215980D03*
X824230Y225980D03*
X858440Y226060D03*
X848440Y226060D03*
X803990Y289814D03*
X813990Y289814D03*
X791210Y340280D03*
X791210Y330280D03*
D32*
X770890Y330200D03*
X770890Y342900D03*
X770890Y355600D03*
X770890Y368300D03*
X770890Y317500D03*
X758190Y330200D03*
X758190Y342900D03*
X758190Y355600D03*
X758190Y368300D03*
X758190Y317500D03*
D19*
X896540Y427101D03*
X886540Y427101D03*
X813990Y280670D03*
X803990Y280670D03*
X849630Y266620D03*
X849630Y256620D03*
X792480Y261540D03*
X792480Y251540D03*
X919480Y68500D03*
X919480Y58500D03*
D11*
X894280Y61280D02*
X894280Y68260D01*
X901260Y68260D01*
X901260Y61280D01*
X894280Y61280D01*
X894280Y66080D02*
X901260Y66080D01*
X876740Y68260D02*
X876740Y61280D01*
X876740Y68260D02*
X883720Y68260D01*
X883720Y61280D01*
X876740Y61280D01*
X876740Y66080D02*
X883720Y66080D01*
D10*
X152400Y791280D03*
X152400Y768280D03*
D11*
X119580Y915990D02*
X119580Y922970D01*
X126560Y922970D01*
X126560Y915990D01*
X119580Y915990D01*
X119580Y920790D02*
X126560Y920790D01*
X102040Y922970D02*
X102040Y915990D01*
X102040Y922970D02*
X109020Y922970D01*
X109020Y915990D01*
X102040Y915990D01*
X102040Y920790D02*
X109020Y920790D01*
D12*
X133190Y770280D03*
X133190Y789280D03*
X112190Y779780D03*
D11*
X109020Y941390D02*
X109020Y948370D01*
X109020Y941390D02*
X102040Y941390D01*
X102040Y948370D01*
X109020Y948370D01*
X109020Y946190D02*
X102040Y946190D01*
X126560Y948370D02*
X126560Y941390D01*
X119580Y941390D01*
X119580Y948370D01*
X126560Y948370D01*
X126560Y946190D02*
X119580Y946190D01*
D13*
X12700Y665480D03*
X177800Y1186180D03*
D14*
X14050Y736660D03*
X14050Y680660D03*
D15*
X50800Y723660D03*
X50800Y713660D03*
X50800Y703660D03*
X50800Y693660D03*
D16*
X72560Y785020D03*
X72560Y805020D03*
D17*
X20560Y761020D03*
X20560Y829020D03*
D18*
X25400Y1173480D03*
X203200Y1173480D03*
X203200Y640080D03*
X25400Y640080D03*
D19*
X59610Y1037590D03*
X49610Y1037590D03*
X49610Y1080770D03*
X59610Y1080770D03*
D20*
X147255Y1078135D02*
X147255Y1086095D01*
X147255Y1078135D02*
X146045Y1078135D01*
X146045Y1086095D01*
X147255Y1086095D01*
X147255Y1080816D02*
X146045Y1080816D01*
X146045Y1083497D02*
X147255Y1083497D01*
X143255Y1086095D02*
X143255Y1078135D01*
X142045Y1078135D01*
X142045Y1086095D01*
X143255Y1086095D01*
X143255Y1080816D02*
X142045Y1080816D01*
X142045Y1083497D02*
X143255Y1083497D01*
X139255Y1086095D02*
X139255Y1078135D01*
X138045Y1078135D01*
X138045Y1086095D01*
X139255Y1086095D01*
X139255Y1080816D02*
X138045Y1080816D01*
X138045Y1083497D02*
X139255Y1083497D01*
X135255Y1086095D02*
X135255Y1078135D01*
X134045Y1078135D01*
X134045Y1086095D01*
X135255Y1086095D01*
X135255Y1080816D02*
X134045Y1080816D01*
X134045Y1083497D02*
X135255Y1083497D01*
X131255Y1086095D02*
X131255Y1078135D01*
X130045Y1078135D01*
X130045Y1086095D01*
X131255Y1086095D01*
X131255Y1080816D02*
X130045Y1080816D01*
X130045Y1083497D02*
X131255Y1083497D01*
X127255Y1086095D02*
X127255Y1078135D01*
X126045Y1078135D01*
X126045Y1086095D01*
X127255Y1086095D01*
X127255Y1080816D02*
X126045Y1080816D01*
X126045Y1083497D02*
X127255Y1083497D01*
X122045Y1086095D02*
X122045Y1078135D01*
X122045Y1086095D02*
X123255Y1086095D01*
X123255Y1078135D01*
X122045Y1078135D01*
X122045Y1080816D02*
X123255Y1080816D01*
X123255Y1083497D02*
X122045Y1083497D01*
D21*
X120650Y1047750D03*
D20*
X119255Y1078135D02*
X119255Y1086095D01*
X119255Y1078135D02*
X118045Y1078135D01*
X118045Y1086095D01*
X119255Y1086095D01*
X119255Y1080816D02*
X118045Y1080816D01*
X118045Y1083497D02*
X119255Y1083497D01*
X115255Y1086095D02*
X115255Y1078135D01*
X114045Y1078135D01*
X114045Y1086095D01*
X115255Y1086095D01*
X115255Y1080816D02*
X114045Y1080816D01*
X114045Y1083497D02*
X115255Y1083497D01*
X111255Y1086095D02*
X111255Y1078135D01*
X110045Y1078135D01*
X110045Y1086095D01*
X111255Y1086095D01*
X111255Y1080816D02*
X110045Y1080816D01*
X110045Y1083497D02*
X111255Y1083497D01*
X107255Y1086095D02*
X107255Y1078135D01*
X106045Y1078135D01*
X106045Y1086095D01*
X107255Y1086095D01*
X107255Y1080816D02*
X106045Y1080816D01*
X106045Y1083497D02*
X107255Y1083497D01*
X103255Y1086095D02*
X103255Y1078135D01*
X102045Y1078135D01*
X102045Y1086095D01*
X103255Y1086095D01*
X103255Y1080816D02*
X102045Y1080816D01*
X102045Y1083497D02*
X103255Y1083497D01*
X99255Y1086095D02*
X99255Y1078135D01*
X98045Y1078135D01*
X98045Y1086095D01*
X99255Y1086095D01*
X99255Y1080816D02*
X98045Y1080816D01*
X98045Y1083497D02*
X99255Y1083497D01*
X94045Y1086095D02*
X94045Y1078135D01*
X94045Y1086095D02*
X95255Y1086095D01*
X95255Y1078135D01*
X94045Y1078135D01*
X94045Y1080816D02*
X95255Y1080816D01*
X95255Y1083497D02*
X94045Y1083497D01*
X90265Y1074355D02*
X82305Y1074355D01*
X90265Y1074355D02*
X90265Y1073145D01*
X82305Y1073145D01*
X82305Y1074355D01*
X82305Y1070355D02*
X90265Y1070355D01*
X90265Y1069145D01*
X82305Y1069145D01*
X82305Y1070355D01*
X82305Y1066355D02*
X90265Y1066355D01*
X90265Y1065145D01*
X82305Y1065145D01*
X82305Y1066355D01*
X82305Y1062355D02*
X90265Y1062355D01*
X90265Y1061145D01*
X82305Y1061145D01*
X82305Y1062355D01*
X82305Y1058355D02*
X90265Y1058355D01*
X90265Y1057145D01*
X82305Y1057145D01*
X82305Y1058355D01*
X82305Y1054355D02*
X90265Y1054355D01*
X90265Y1053145D01*
X82305Y1053145D01*
X82305Y1054355D01*
X82305Y1049145D02*
X90265Y1049145D01*
X82305Y1049145D02*
X82305Y1050355D01*
X90265Y1050355D01*
X90265Y1049145D01*
X90265Y1046355D02*
X82305Y1046355D01*
X90265Y1046355D02*
X90265Y1045145D01*
X82305Y1045145D01*
X82305Y1046355D01*
X82305Y1042355D02*
X90265Y1042355D01*
X90265Y1041145D01*
X82305Y1041145D01*
X82305Y1042355D01*
X82305Y1038355D02*
X90265Y1038355D01*
X90265Y1037145D01*
X82305Y1037145D01*
X82305Y1038355D01*
X82305Y1034355D02*
X90265Y1034355D01*
X90265Y1033145D01*
X82305Y1033145D01*
X82305Y1034355D01*
X82305Y1030355D02*
X90265Y1030355D01*
X90265Y1029145D01*
X82305Y1029145D01*
X82305Y1030355D01*
X82305Y1026355D02*
X90265Y1026355D01*
X90265Y1025145D01*
X82305Y1025145D01*
X82305Y1026355D01*
X82305Y1021145D02*
X90265Y1021145D01*
X82305Y1021145D02*
X82305Y1022355D01*
X90265Y1022355D01*
X90265Y1021145D01*
X94045Y1017365D02*
X94045Y1009405D01*
X94045Y1017365D02*
X95255Y1017365D01*
X95255Y1009405D01*
X94045Y1009405D01*
X94045Y1012086D02*
X95255Y1012086D01*
X95255Y1014767D02*
X94045Y1014767D01*
X98045Y1017365D02*
X98045Y1009405D01*
X98045Y1017365D02*
X99255Y1017365D01*
X99255Y1009405D01*
X98045Y1009405D01*
X98045Y1012086D02*
X99255Y1012086D01*
X99255Y1014767D02*
X98045Y1014767D01*
X102045Y1017365D02*
X102045Y1009405D01*
X102045Y1017365D02*
X103255Y1017365D01*
X103255Y1009405D01*
X102045Y1009405D01*
X102045Y1012086D02*
X103255Y1012086D01*
X103255Y1014767D02*
X102045Y1014767D01*
X106045Y1017365D02*
X106045Y1009405D01*
X106045Y1017365D02*
X107255Y1017365D01*
X107255Y1009405D01*
X106045Y1009405D01*
X106045Y1012086D02*
X107255Y1012086D01*
X107255Y1014767D02*
X106045Y1014767D01*
X110045Y1017365D02*
X110045Y1009405D01*
X110045Y1017365D02*
X111255Y1017365D01*
X111255Y1009405D01*
X110045Y1009405D01*
X110045Y1012086D02*
X111255Y1012086D01*
X111255Y1014767D02*
X110045Y1014767D01*
X114045Y1017365D02*
X114045Y1009405D01*
X114045Y1017365D02*
X115255Y1017365D01*
X115255Y1009405D01*
X114045Y1009405D01*
X114045Y1012086D02*
X115255Y1012086D01*
X115255Y1014767D02*
X114045Y1014767D01*
X119255Y1017365D02*
X119255Y1009405D01*
X118045Y1009405D01*
X118045Y1017365D01*
X119255Y1017365D01*
X119255Y1012086D02*
X118045Y1012086D01*
X118045Y1014767D02*
X119255Y1014767D01*
X122045Y1017365D02*
X122045Y1009405D01*
X122045Y1017365D02*
X123255Y1017365D01*
X123255Y1009405D01*
X122045Y1009405D01*
X122045Y1012086D02*
X123255Y1012086D01*
X123255Y1014767D02*
X122045Y1014767D01*
X126045Y1017365D02*
X126045Y1009405D01*
X126045Y1017365D02*
X127255Y1017365D01*
X127255Y1009405D01*
X126045Y1009405D01*
X126045Y1012086D02*
X127255Y1012086D01*
X127255Y1014767D02*
X126045Y1014767D01*
X130045Y1017365D02*
X130045Y1009405D01*
X130045Y1017365D02*
X131255Y1017365D01*
X131255Y1009405D01*
X130045Y1009405D01*
X130045Y1012086D02*
X131255Y1012086D01*
X131255Y1014767D02*
X130045Y1014767D01*
X134045Y1017365D02*
X134045Y1009405D01*
X134045Y1017365D02*
X135255Y1017365D01*
X135255Y1009405D01*
X134045Y1009405D01*
X134045Y1012086D02*
X135255Y1012086D01*
X135255Y1014767D02*
X134045Y1014767D01*
X138045Y1017365D02*
X138045Y1009405D01*
X138045Y1017365D02*
X139255Y1017365D01*
X139255Y1009405D01*
X138045Y1009405D01*
X138045Y1012086D02*
X139255Y1012086D01*
X139255Y1014767D02*
X138045Y1014767D01*
X142045Y1017365D02*
X142045Y1009405D01*
X142045Y1017365D02*
X143255Y1017365D01*
X143255Y1009405D01*
X142045Y1009405D01*
X142045Y1012086D02*
X143255Y1012086D01*
X143255Y1014767D02*
X142045Y1014767D01*
X147255Y1017365D02*
X147255Y1009405D01*
X146045Y1009405D01*
X146045Y1017365D01*
X147255Y1017365D01*
X147255Y1012086D02*
X146045Y1012086D01*
X146045Y1014767D02*
X147255Y1014767D01*
X151035Y1021145D02*
X158995Y1021145D01*
X151035Y1021145D02*
X151035Y1022355D01*
X158995Y1022355D01*
X158995Y1021145D01*
X158995Y1025145D02*
X151035Y1025145D01*
X151035Y1026355D01*
X158995Y1026355D01*
X158995Y1025145D01*
X158995Y1029145D02*
X151035Y1029145D01*
X151035Y1030355D01*
X158995Y1030355D01*
X158995Y1029145D01*
X158995Y1033145D02*
X151035Y1033145D01*
X151035Y1034355D01*
X158995Y1034355D01*
X158995Y1033145D01*
X158995Y1037145D02*
X151035Y1037145D01*
X151035Y1038355D01*
X158995Y1038355D01*
X158995Y1037145D01*
X158995Y1041145D02*
X151035Y1041145D01*
X151035Y1042355D01*
X158995Y1042355D01*
X158995Y1041145D01*
X158995Y1046355D02*
X151035Y1046355D01*
X158995Y1046355D02*
X158995Y1045145D01*
X151035Y1045145D01*
X151035Y1046355D01*
X151035Y1049145D02*
X158995Y1049145D01*
X151035Y1049145D02*
X151035Y1050355D01*
X158995Y1050355D01*
X158995Y1049145D01*
X158995Y1053145D02*
X151035Y1053145D01*
X151035Y1054355D01*
X158995Y1054355D01*
X158995Y1053145D01*
X158995Y1057145D02*
X151035Y1057145D01*
X151035Y1058355D01*
X158995Y1058355D01*
X158995Y1057145D01*
X158995Y1061145D02*
X151035Y1061145D01*
X151035Y1062355D01*
X158995Y1062355D01*
X158995Y1061145D01*
X158995Y1065145D02*
X151035Y1065145D01*
X151035Y1066355D01*
X158995Y1066355D01*
X158995Y1065145D01*
X158995Y1069145D02*
X151035Y1069145D01*
X151035Y1070355D01*
X158995Y1070355D01*
X158995Y1069145D01*
X158995Y1074355D02*
X151035Y1074355D01*
X158995Y1074355D02*
X158995Y1073145D01*
X151035Y1073145D01*
X151035Y1074355D01*
D19*
X49610Y1028319D03*
X59610Y1028319D03*
X59610Y1018921D03*
X49610Y1018921D03*
X185500Y1050925D03*
X195500Y1050925D03*
X185500Y1016508D03*
X195500Y1016508D03*
X185500Y1076579D03*
X195500Y1076579D03*
X147320Y1108790D03*
X147320Y1118790D03*
X110490Y1110060D03*
X110490Y1120060D03*
X185500Y1093470D03*
X195500Y1093470D03*
X185500Y1067435D03*
X195500Y1067435D03*
X59610Y1009650D03*
X49610Y1009650D03*
X117602Y1004490D03*
X117602Y994490D03*
X185500Y1025652D03*
X195500Y1025652D03*
D22*
X47510Y1067720D03*
X47510Y1050720D03*
X61510Y1050720D03*
X61510Y1067720D03*
D23*
X121800Y674780D03*
X116800Y674780D03*
D24*
X146550Y674780D03*
X138800Y674780D03*
D23*
X131800Y674780D03*
X126800Y674780D03*
X106800Y674780D03*
X111800Y674780D03*
D24*
X82050Y674780D03*
X89800Y674780D03*
D23*
X96800Y674780D03*
X101800Y674780D03*
D25*
X85400Y663730D03*
X143200Y663730D03*
D26*
X215900Y698500D03*
X160020Y698500D03*
X215900Y736600D03*
X160020Y736600D03*
D27*
X66160Y903980D03*
X71160Y903980D03*
X76160Y903980D03*
X81160Y903980D03*
X81160Y883980D03*
X76160Y883980D03*
X71160Y883980D03*
X66160Y883980D03*
D28*
X73660Y894080D03*
D19*
X69930Y872490D03*
X79930Y872490D03*
D29*
X123450Y1166280D03*
X123450Y1155280D03*
X105150Y1155280D03*
X105150Y1166280D03*
D30*
X215900Y754380D03*
X215900Y779780D03*
X215900Y805180D03*
X215900Y830580D03*
X215900Y855980D03*
X215900Y881380D03*
X215900Y906780D03*
X215900Y932180D03*
X215900Y957580D03*
X215900Y982980D03*
X215900Y1008380D03*
X215900Y1033780D03*
X215900Y1059180D03*
X215900Y1084580D03*
X215900Y1109980D03*
X215900Y1135380D03*
X12700Y855980D03*
X12700Y881380D03*
X12700Y906780D03*
X12700Y932180D03*
X12700Y957580D03*
X12700Y982980D03*
X12700Y1008380D03*
X12700Y1033780D03*
X12700Y1059180D03*
X12700Y1084580D03*
X12700Y1109980D03*
X12700Y1135380D03*
D19*
X119761Y1120060D03*
X119761Y1110060D03*
X109300Y1139190D03*
X119300Y1139190D03*
D26*
X83820Y736600D03*
X139700Y736600D03*
X83820Y698500D03*
X139700Y698500D03*
D31*
X139399Y827380D03*
X139399Y817880D03*
X139399Y808380D03*
X165401Y808380D03*
X165401Y827380D03*
X132381Y861720D03*
X132381Y871220D03*
X132381Y880720D03*
X106379Y880720D03*
X106379Y861720D03*
D19*
X59690Y645240D03*
X59690Y655240D03*
X168910Y643970D03*
X168910Y653970D03*
X147240Y756920D03*
X137240Y756920D03*
X123190Y810340D03*
X123190Y820340D03*
X123190Y830660D03*
X123190Y840660D03*
X157400Y840740D03*
X147400Y840740D03*
X102950Y904494D03*
X112950Y904494D03*
X90170Y954960D03*
X90170Y944960D03*
D32*
X69850Y944880D03*
X69850Y957580D03*
X69850Y970280D03*
X69850Y982980D03*
X69850Y932180D03*
X57150Y944880D03*
X57150Y957580D03*
X57150Y970280D03*
X57150Y982980D03*
X57150Y932180D03*
D19*
X195500Y1041781D03*
X185500Y1041781D03*
X112950Y895350D03*
X102950Y895350D03*
X148590Y881300D03*
X148590Y871300D03*
X91440Y876220D03*
X91440Y866220D03*
X218440Y683180D03*
X218440Y673180D03*
D11*
X193240Y675960D02*
X193240Y682940D01*
X200220Y682940D01*
X200220Y675960D01*
X193240Y675960D01*
X193240Y680760D02*
X200220Y680760D01*
X175700Y682940D02*
X175700Y675960D01*
X175700Y682940D02*
X182680Y682940D01*
X182680Y675960D01*
X175700Y675960D01*
X175700Y680760D02*
X182680Y680760D01*
D10*
X386080Y791280D03*
X386080Y768280D03*
D11*
X353260Y915990D02*
X353260Y922970D01*
X360240Y922970D01*
X360240Y915990D01*
X353260Y915990D01*
X353260Y920790D02*
X360240Y920790D01*
X335720Y922970D02*
X335720Y915990D01*
X335720Y922970D02*
X342700Y922970D01*
X342700Y915990D01*
X335720Y915990D01*
X335720Y920790D02*
X342700Y920790D01*
D12*
X366870Y770280D03*
X366870Y789280D03*
X345870Y779780D03*
D11*
X342700Y941390D02*
X342700Y948370D01*
X342700Y941390D02*
X335720Y941390D01*
X335720Y948370D01*
X342700Y948370D01*
X342700Y946190D02*
X335720Y946190D01*
X360240Y948370D02*
X360240Y941390D01*
X353260Y941390D01*
X353260Y948370D01*
X360240Y948370D01*
X360240Y946190D02*
X353260Y946190D01*
D13*
X246380Y665480D03*
X411480Y1186180D03*
D14*
X247730Y736660D03*
X247730Y680660D03*
D15*
X284480Y723660D03*
X284480Y713660D03*
X284480Y703660D03*
X284480Y693660D03*
D16*
X306240Y785020D03*
X306240Y805020D03*
D17*
X254240Y761020D03*
X254240Y829020D03*
D18*
X259080Y1173480D03*
X436880Y1173480D03*
X436880Y640080D03*
X259080Y640080D03*
D19*
X293290Y1037590D03*
X283290Y1037590D03*
X283290Y1080770D03*
X293290Y1080770D03*
D20*
X380935Y1078135D02*
X380935Y1086095D01*
X380935Y1078135D02*
X379725Y1078135D01*
X379725Y1086095D01*
X380935Y1086095D01*
X380935Y1080816D02*
X379725Y1080816D01*
X379725Y1083497D02*
X380935Y1083497D01*
X376935Y1086095D02*
X376935Y1078135D01*
X375725Y1078135D01*
X375725Y1086095D01*
X376935Y1086095D01*
X376935Y1080816D02*
X375725Y1080816D01*
X375725Y1083497D02*
X376935Y1083497D01*
X372935Y1086095D02*
X372935Y1078135D01*
X371725Y1078135D01*
X371725Y1086095D01*
X372935Y1086095D01*
X372935Y1080816D02*
X371725Y1080816D01*
X371725Y1083497D02*
X372935Y1083497D01*
X368935Y1086095D02*
X368935Y1078135D01*
X367725Y1078135D01*
X367725Y1086095D01*
X368935Y1086095D01*
X368935Y1080816D02*
X367725Y1080816D01*
X367725Y1083497D02*
X368935Y1083497D01*
X364935Y1086095D02*
X364935Y1078135D01*
X363725Y1078135D01*
X363725Y1086095D01*
X364935Y1086095D01*
X364935Y1080816D02*
X363725Y1080816D01*
X363725Y1083497D02*
X364935Y1083497D01*
X360935Y1086095D02*
X360935Y1078135D01*
X359725Y1078135D01*
X359725Y1086095D01*
X360935Y1086095D01*
X360935Y1080816D02*
X359725Y1080816D01*
X359725Y1083497D02*
X360935Y1083497D01*
X355725Y1086095D02*
X355725Y1078135D01*
X355725Y1086095D02*
X356935Y1086095D01*
X356935Y1078135D01*
X355725Y1078135D01*
X355725Y1080816D02*
X356935Y1080816D01*
X356935Y1083497D02*
X355725Y1083497D01*
D21*
X354330Y1047750D03*
D20*
X352935Y1078135D02*
X352935Y1086095D01*
X352935Y1078135D02*
X351725Y1078135D01*
X351725Y1086095D01*
X352935Y1086095D01*
X352935Y1080816D02*
X351725Y1080816D01*
X351725Y1083497D02*
X352935Y1083497D01*
X348935Y1086095D02*
X348935Y1078135D01*
X347725Y1078135D01*
X347725Y1086095D01*
X348935Y1086095D01*
X348935Y1080816D02*
X347725Y1080816D01*
X347725Y1083497D02*
X348935Y1083497D01*
X344935Y1086095D02*
X344935Y1078135D01*
X343725Y1078135D01*
X343725Y1086095D01*
X344935Y1086095D01*
X344935Y1080816D02*
X343725Y1080816D01*
X343725Y1083497D02*
X344935Y1083497D01*
X340935Y1086095D02*
X340935Y1078135D01*
X339725Y1078135D01*
X339725Y1086095D01*
X340935Y1086095D01*
X340935Y1080816D02*
X339725Y1080816D01*
X339725Y1083497D02*
X340935Y1083497D01*
X336935Y1086095D02*
X336935Y1078135D01*
X335725Y1078135D01*
X335725Y1086095D01*
X336935Y1086095D01*
X336935Y1080816D02*
X335725Y1080816D01*
X335725Y1083497D02*
X336935Y1083497D01*
X332935Y1086095D02*
X332935Y1078135D01*
X331725Y1078135D01*
X331725Y1086095D01*
X332935Y1086095D01*
X332935Y1080816D02*
X331725Y1080816D01*
X331725Y1083497D02*
X332935Y1083497D01*
X327725Y1086095D02*
X327725Y1078135D01*
X327725Y1086095D02*
X328935Y1086095D01*
X328935Y1078135D01*
X327725Y1078135D01*
X327725Y1080816D02*
X328935Y1080816D01*
X328935Y1083497D02*
X327725Y1083497D01*
X323945Y1074355D02*
X315985Y1074355D01*
X323945Y1074355D02*
X323945Y1073145D01*
X315985Y1073145D01*
X315985Y1074355D01*
X315985Y1070355D02*
X323945Y1070355D01*
X323945Y1069145D01*
X315985Y1069145D01*
X315985Y1070355D01*
X315985Y1066355D02*
X323945Y1066355D01*
X323945Y1065145D01*
X315985Y1065145D01*
X315985Y1066355D01*
X315985Y1062355D02*
X323945Y1062355D01*
X323945Y1061145D01*
X315985Y1061145D01*
X315985Y1062355D01*
X315985Y1058355D02*
X323945Y1058355D01*
X323945Y1057145D01*
X315985Y1057145D01*
X315985Y1058355D01*
X315985Y1054355D02*
X323945Y1054355D01*
X323945Y1053145D01*
X315985Y1053145D01*
X315985Y1054355D01*
X315985Y1049145D02*
X323945Y1049145D01*
X315985Y1049145D02*
X315985Y1050355D01*
X323945Y1050355D01*
X323945Y1049145D01*
X323945Y1046355D02*
X315985Y1046355D01*
X323945Y1046355D02*
X323945Y1045145D01*
X315985Y1045145D01*
X315985Y1046355D01*
X315985Y1042355D02*
X323945Y1042355D01*
X323945Y1041145D01*
X315985Y1041145D01*
X315985Y1042355D01*
X315985Y1038355D02*
X323945Y1038355D01*
X323945Y1037145D01*
X315985Y1037145D01*
X315985Y1038355D01*
X315985Y1034355D02*
X323945Y1034355D01*
X323945Y1033145D01*
X315985Y1033145D01*
X315985Y1034355D01*
X315985Y1030355D02*
X323945Y1030355D01*
X323945Y1029145D01*
X315985Y1029145D01*
X315985Y1030355D01*
X315985Y1026355D02*
X323945Y1026355D01*
X323945Y1025145D01*
X315985Y1025145D01*
X315985Y1026355D01*
X315985Y1021145D02*
X323945Y1021145D01*
X315985Y1021145D02*
X315985Y1022355D01*
X323945Y1022355D01*
X323945Y1021145D01*
X327725Y1017365D02*
X327725Y1009405D01*
X327725Y1017365D02*
X328935Y1017365D01*
X328935Y1009405D01*
X327725Y1009405D01*
X327725Y1012086D02*
X328935Y1012086D01*
X328935Y1014767D02*
X327725Y1014767D01*
X331725Y1017365D02*
X331725Y1009405D01*
X331725Y1017365D02*
X332935Y1017365D01*
X332935Y1009405D01*
X331725Y1009405D01*
X331725Y1012086D02*
X332935Y1012086D01*
X332935Y1014767D02*
X331725Y1014767D01*
X335725Y1017365D02*
X335725Y1009405D01*
X335725Y1017365D02*
X336935Y1017365D01*
X336935Y1009405D01*
X335725Y1009405D01*
X335725Y1012086D02*
X336935Y1012086D01*
X336935Y1014767D02*
X335725Y1014767D01*
X339725Y1017365D02*
X339725Y1009405D01*
X339725Y1017365D02*
X340935Y1017365D01*
X340935Y1009405D01*
X339725Y1009405D01*
X339725Y1012086D02*
X340935Y1012086D01*
X340935Y1014767D02*
X339725Y1014767D01*
X343725Y1017365D02*
X343725Y1009405D01*
X343725Y1017365D02*
X344935Y1017365D01*
X344935Y1009405D01*
X343725Y1009405D01*
X343725Y1012086D02*
X344935Y1012086D01*
X344935Y1014767D02*
X343725Y1014767D01*
X347725Y1017365D02*
X347725Y1009405D01*
X347725Y1017365D02*
X348935Y1017365D01*
X348935Y1009405D01*
X347725Y1009405D01*
X347725Y1012086D02*
X348935Y1012086D01*
X348935Y1014767D02*
X347725Y1014767D01*
X352935Y1017365D02*
X352935Y1009405D01*
X351725Y1009405D01*
X351725Y1017365D01*
X352935Y1017365D01*
X352935Y1012086D02*
X351725Y1012086D01*
X351725Y1014767D02*
X352935Y1014767D01*
X355725Y1017365D02*
X355725Y1009405D01*
X355725Y1017365D02*
X356935Y1017365D01*
X356935Y1009405D01*
X355725Y1009405D01*
X355725Y1012086D02*
X356935Y1012086D01*
X356935Y1014767D02*
X355725Y1014767D01*
X359725Y1017365D02*
X359725Y1009405D01*
X359725Y1017365D02*
X360935Y1017365D01*
X360935Y1009405D01*
X359725Y1009405D01*
X359725Y1012086D02*
X360935Y1012086D01*
X360935Y1014767D02*
X359725Y1014767D01*
X363725Y1017365D02*
X363725Y1009405D01*
X363725Y1017365D02*
X364935Y1017365D01*
X364935Y1009405D01*
X363725Y1009405D01*
X363725Y1012086D02*
X364935Y1012086D01*
X364935Y1014767D02*
X363725Y1014767D01*
X367725Y1017365D02*
X367725Y1009405D01*
X367725Y1017365D02*
X368935Y1017365D01*
X368935Y1009405D01*
X367725Y1009405D01*
X367725Y1012086D02*
X368935Y1012086D01*
X368935Y1014767D02*
X367725Y1014767D01*
X371725Y1017365D02*
X371725Y1009405D01*
X371725Y1017365D02*
X372935Y1017365D01*
X372935Y1009405D01*
X371725Y1009405D01*
X371725Y1012086D02*
X372935Y1012086D01*
X372935Y1014767D02*
X371725Y1014767D01*
X375725Y1017365D02*
X375725Y1009405D01*
X375725Y1017365D02*
X376935Y1017365D01*
X376935Y1009405D01*
X375725Y1009405D01*
X375725Y1012086D02*
X376935Y1012086D01*
X376935Y1014767D02*
X375725Y1014767D01*
X380935Y1017365D02*
X380935Y1009405D01*
X379725Y1009405D01*
X379725Y1017365D01*
X380935Y1017365D01*
X380935Y1012086D02*
X379725Y1012086D01*
X379725Y1014767D02*
X380935Y1014767D01*
X384715Y1021145D02*
X392675Y1021145D01*
X384715Y1021145D02*
X384715Y1022355D01*
X392675Y1022355D01*
X392675Y1021145D01*
X392675Y1025145D02*
X384715Y1025145D01*
X384715Y1026355D01*
X392675Y1026355D01*
X392675Y1025145D01*
X392675Y1029145D02*
X384715Y1029145D01*
X384715Y1030355D01*
X392675Y1030355D01*
X392675Y1029145D01*
X392675Y1033145D02*
X384715Y1033145D01*
X384715Y1034355D01*
X392675Y1034355D01*
X392675Y1033145D01*
X392675Y1037145D02*
X384715Y1037145D01*
X384715Y1038355D01*
X392675Y1038355D01*
X392675Y1037145D01*
X392675Y1041145D02*
X384715Y1041145D01*
X384715Y1042355D01*
X392675Y1042355D01*
X392675Y1041145D01*
X392675Y1046355D02*
X384715Y1046355D01*
X392675Y1046355D02*
X392675Y1045145D01*
X384715Y1045145D01*
X384715Y1046355D01*
X384715Y1049145D02*
X392675Y1049145D01*
X384715Y1049145D02*
X384715Y1050355D01*
X392675Y1050355D01*
X392675Y1049145D01*
X392675Y1053145D02*
X384715Y1053145D01*
X384715Y1054355D01*
X392675Y1054355D01*
X392675Y1053145D01*
X392675Y1057145D02*
X384715Y1057145D01*
X384715Y1058355D01*
X392675Y1058355D01*
X392675Y1057145D01*
X392675Y1061145D02*
X384715Y1061145D01*
X384715Y1062355D01*
X392675Y1062355D01*
X392675Y1061145D01*
X392675Y1065145D02*
X384715Y1065145D01*
X384715Y1066355D01*
X392675Y1066355D01*
X392675Y1065145D01*
X392675Y1069145D02*
X384715Y1069145D01*
X384715Y1070355D01*
X392675Y1070355D01*
X392675Y1069145D01*
X392675Y1074355D02*
X384715Y1074355D01*
X392675Y1074355D02*
X392675Y1073145D01*
X384715Y1073145D01*
X384715Y1074355D01*
D19*
X283290Y1028319D03*
X293290Y1028319D03*
X293290Y1018921D03*
X283290Y1018921D03*
X419180Y1050925D03*
X429180Y1050925D03*
X419180Y1016508D03*
X429180Y1016508D03*
X419180Y1076579D03*
X429180Y1076579D03*
X381000Y1108790D03*
X381000Y1118790D03*
X344170Y1110060D03*
X344170Y1120060D03*
X419180Y1093470D03*
X429180Y1093470D03*
X419180Y1067435D03*
X429180Y1067435D03*
X293290Y1009650D03*
X283290Y1009650D03*
X351282Y1004490D03*
X351282Y994490D03*
X419180Y1025652D03*
X429180Y1025652D03*
D22*
X281190Y1067720D03*
X281190Y1050720D03*
X295190Y1050720D03*
X295190Y1067720D03*
D23*
X355480Y674780D03*
X350480Y674780D03*
D24*
X380230Y674780D03*
X372480Y674780D03*
D23*
X365480Y674780D03*
X360480Y674780D03*
X340480Y674780D03*
X345480Y674780D03*
D24*
X315730Y674780D03*
X323480Y674780D03*
D23*
X330480Y674780D03*
X335480Y674780D03*
D25*
X319080Y663730D03*
X376880Y663730D03*
D26*
X449580Y698500D03*
X393700Y698500D03*
X449580Y736600D03*
X393700Y736600D03*
D27*
X299840Y903980D03*
X304840Y903980D03*
X309840Y903980D03*
X314840Y903980D03*
X314840Y883980D03*
X309840Y883980D03*
X304840Y883980D03*
X299840Y883980D03*
D28*
X307340Y894080D03*
D19*
X303610Y872490D03*
X313610Y872490D03*
D29*
X357130Y1166280D03*
X357130Y1155280D03*
X338830Y1155280D03*
X338830Y1166280D03*
D30*
X449580Y754380D03*
X449580Y779780D03*
X449580Y805180D03*
X449580Y830580D03*
X449580Y855980D03*
X449580Y881380D03*
X449580Y906780D03*
X449580Y932180D03*
X449580Y957580D03*
X449580Y982980D03*
X449580Y1008380D03*
X449580Y1033780D03*
X449580Y1059180D03*
X449580Y1084580D03*
X449580Y1109980D03*
X449580Y1135380D03*
X246380Y855980D03*
X246380Y881380D03*
X246380Y906780D03*
X246380Y932180D03*
X246380Y957580D03*
X246380Y982980D03*
X246380Y1008380D03*
X246380Y1033780D03*
X246380Y1059180D03*
X246380Y1084580D03*
X246380Y1109980D03*
X246380Y1135380D03*
D19*
X353441Y1120060D03*
X353441Y1110060D03*
X342980Y1139190D03*
X352980Y1139190D03*
D26*
X317500Y736600D03*
X373380Y736600D03*
X317500Y698500D03*
X373380Y698500D03*
D31*
X373079Y827380D03*
X373079Y817880D03*
X373079Y808380D03*
X399081Y808380D03*
X399081Y827380D03*
X366061Y861720D03*
X366061Y871220D03*
X366061Y880720D03*
X340059Y880720D03*
X340059Y861720D03*
D19*
X293370Y645240D03*
X293370Y655240D03*
X402590Y643970D03*
X402590Y653970D03*
X380920Y756920D03*
X370920Y756920D03*
X356870Y810340D03*
X356870Y820340D03*
X356870Y830660D03*
X356870Y840660D03*
X391080Y840740D03*
X381080Y840740D03*
X336630Y904494D03*
X346630Y904494D03*
X323850Y954960D03*
X323850Y944960D03*
D32*
X303530Y944880D03*
X303530Y957580D03*
X303530Y970280D03*
X303530Y982980D03*
X303530Y932180D03*
X290830Y944880D03*
X290830Y957580D03*
X290830Y970280D03*
X290830Y982980D03*
X290830Y932180D03*
D19*
X429180Y1041781D03*
X419180Y1041781D03*
X346630Y895350D03*
X336630Y895350D03*
X382270Y881300D03*
X382270Y871300D03*
X325120Y876220D03*
X325120Y866220D03*
X452120Y683180D03*
X452120Y673180D03*
D11*
X426920Y675960D02*
X426920Y682940D01*
X433900Y682940D01*
X433900Y675960D01*
X426920Y675960D01*
X426920Y680760D02*
X433900Y680760D01*
X409380Y682940D02*
X409380Y675960D01*
X409380Y682940D02*
X416360Y682940D01*
X416360Y675960D01*
X409380Y675960D01*
X409380Y680760D02*
X416360Y680760D01*
D10*
X619760Y791280D03*
X619760Y768280D03*
D11*
X586940Y915990D02*
X586940Y922970D01*
X593920Y922970D01*
X593920Y915990D01*
X586940Y915990D01*
X586940Y920790D02*
X593920Y920790D01*
X569400Y922970D02*
X569400Y915990D01*
X569400Y922970D02*
X576380Y922970D01*
X576380Y915990D01*
X569400Y915990D01*
X569400Y920790D02*
X576380Y920790D01*
D12*
X600550Y770280D03*
X600550Y789280D03*
X579550Y779780D03*
D11*
X576380Y941390D02*
X576380Y948370D01*
X576380Y941390D02*
X569400Y941390D01*
X569400Y948370D01*
X576380Y948370D01*
X576380Y946190D02*
X569400Y946190D01*
X593920Y948370D02*
X593920Y941390D01*
X586940Y941390D01*
X586940Y948370D01*
X593920Y948370D01*
X593920Y946190D02*
X586940Y946190D01*
D13*
X480060Y665480D03*
X645160Y1186180D03*
D14*
X481410Y736660D03*
X481410Y680660D03*
D15*
X518160Y723660D03*
X518160Y713660D03*
X518160Y703660D03*
X518160Y693660D03*
D16*
X539920Y785020D03*
X539920Y805020D03*
D17*
X487920Y761020D03*
X487920Y829020D03*
D18*
X492760Y1173480D03*
X670560Y1173480D03*
X670560Y640080D03*
X492760Y640080D03*
D19*
X526970Y1037590D03*
X516970Y1037590D03*
X516970Y1080770D03*
X526970Y1080770D03*
D20*
X614615Y1078135D02*
X614615Y1086095D01*
X614615Y1078135D02*
X613405Y1078135D01*
X613405Y1086095D01*
X614615Y1086095D01*
X614615Y1080816D02*
X613405Y1080816D01*
X613405Y1083497D02*
X614615Y1083497D01*
X610615Y1086095D02*
X610615Y1078135D01*
X609405Y1078135D01*
X609405Y1086095D01*
X610615Y1086095D01*
X610615Y1080816D02*
X609405Y1080816D01*
X609405Y1083497D02*
X610615Y1083497D01*
X606615Y1086095D02*
X606615Y1078135D01*
X605405Y1078135D01*
X605405Y1086095D01*
X606615Y1086095D01*
X606615Y1080816D02*
X605405Y1080816D01*
X605405Y1083497D02*
X606615Y1083497D01*
X602615Y1086095D02*
X602615Y1078135D01*
X601405Y1078135D01*
X601405Y1086095D01*
X602615Y1086095D01*
X602615Y1080816D02*
X601405Y1080816D01*
X601405Y1083497D02*
X602615Y1083497D01*
X598615Y1086095D02*
X598615Y1078135D01*
X597405Y1078135D01*
X597405Y1086095D01*
X598615Y1086095D01*
X598615Y1080816D02*
X597405Y1080816D01*
X597405Y1083497D02*
X598615Y1083497D01*
X594615Y1086095D02*
X594615Y1078135D01*
X593405Y1078135D01*
X593405Y1086095D01*
X594615Y1086095D01*
X594615Y1080816D02*
X593405Y1080816D01*
X593405Y1083497D02*
X594615Y1083497D01*
X589405Y1086095D02*
X589405Y1078135D01*
X589405Y1086095D02*
X590615Y1086095D01*
X590615Y1078135D01*
X589405Y1078135D01*
X589405Y1080816D02*
X590615Y1080816D01*
X590615Y1083497D02*
X589405Y1083497D01*
D21*
X588010Y1047750D03*
D20*
X586615Y1078135D02*
X586615Y1086095D01*
X586615Y1078135D02*
X585405Y1078135D01*
X585405Y1086095D01*
X586615Y1086095D01*
X586615Y1080816D02*
X585405Y1080816D01*
X585405Y1083497D02*
X586615Y1083497D01*
X582615Y1086095D02*
X582615Y1078135D01*
X581405Y1078135D01*
X581405Y1086095D01*
X582615Y1086095D01*
X582615Y1080816D02*
X581405Y1080816D01*
X581405Y1083497D02*
X582615Y1083497D01*
X578615Y1086095D02*
X578615Y1078135D01*
X577405Y1078135D01*
X577405Y1086095D01*
X578615Y1086095D01*
X578615Y1080816D02*
X577405Y1080816D01*
X577405Y1083497D02*
X578615Y1083497D01*
X574615Y1086095D02*
X574615Y1078135D01*
X573405Y1078135D01*
X573405Y1086095D01*
X574615Y1086095D01*
X574615Y1080816D02*
X573405Y1080816D01*
X573405Y1083497D02*
X574615Y1083497D01*
X570615Y1086095D02*
X570615Y1078135D01*
X569405Y1078135D01*
X569405Y1086095D01*
X570615Y1086095D01*
X570615Y1080816D02*
X569405Y1080816D01*
X569405Y1083497D02*
X570615Y1083497D01*
X566615Y1086095D02*
X566615Y1078135D01*
X565405Y1078135D01*
X565405Y1086095D01*
X566615Y1086095D01*
X566615Y1080816D02*
X565405Y1080816D01*
X565405Y1083497D02*
X566615Y1083497D01*
X561405Y1086095D02*
X561405Y1078135D01*
X561405Y1086095D02*
X562615Y1086095D01*
X562615Y1078135D01*
X561405Y1078135D01*
X561405Y1080816D02*
X562615Y1080816D01*
X562615Y1083497D02*
X561405Y1083497D01*
X557625Y1074355D02*
X549665Y1074355D01*
X557625Y1074355D02*
X557625Y1073145D01*
X549665Y1073145D01*
X549665Y1074355D01*
X549665Y1070355D02*
X557625Y1070355D01*
X557625Y1069145D01*
X549665Y1069145D01*
X549665Y1070355D01*
X549665Y1066355D02*
X557625Y1066355D01*
X557625Y1065145D01*
X549665Y1065145D01*
X549665Y1066355D01*
X549665Y1062355D02*
X557625Y1062355D01*
X557625Y1061145D01*
X549665Y1061145D01*
X549665Y1062355D01*
X549665Y1058355D02*
X557625Y1058355D01*
X557625Y1057145D01*
X549665Y1057145D01*
X549665Y1058355D01*
X549665Y1054355D02*
X557625Y1054355D01*
X557625Y1053145D01*
X549665Y1053145D01*
X549665Y1054355D01*
X549665Y1049145D02*
X557625Y1049145D01*
X549665Y1049145D02*
X549665Y1050355D01*
X557625Y1050355D01*
X557625Y1049145D01*
X557625Y1046355D02*
X549665Y1046355D01*
X557625Y1046355D02*
X557625Y1045145D01*
X549665Y1045145D01*
X549665Y1046355D01*
X549665Y1042355D02*
X557625Y1042355D01*
X557625Y1041145D01*
X549665Y1041145D01*
X549665Y1042355D01*
X549665Y1038355D02*
X557625Y1038355D01*
X557625Y1037145D01*
X549665Y1037145D01*
X549665Y1038355D01*
X549665Y1034355D02*
X557625Y1034355D01*
X557625Y1033145D01*
X549665Y1033145D01*
X549665Y1034355D01*
X549665Y1030355D02*
X557625Y1030355D01*
X557625Y1029145D01*
X549665Y1029145D01*
X549665Y1030355D01*
X549665Y1026355D02*
X557625Y1026355D01*
X557625Y1025145D01*
X549665Y1025145D01*
X549665Y1026355D01*
X549665Y1021145D02*
X557625Y1021145D01*
X549665Y1021145D02*
X549665Y1022355D01*
X557625Y1022355D01*
X557625Y1021145D01*
X561405Y1017365D02*
X561405Y1009405D01*
X561405Y1017365D02*
X562615Y1017365D01*
X562615Y1009405D01*
X561405Y1009405D01*
X561405Y1012086D02*
X562615Y1012086D01*
X562615Y1014767D02*
X561405Y1014767D01*
X565405Y1017365D02*
X565405Y1009405D01*
X565405Y1017365D02*
X566615Y1017365D01*
X566615Y1009405D01*
X565405Y1009405D01*
X565405Y1012086D02*
X566615Y1012086D01*
X566615Y1014767D02*
X565405Y1014767D01*
X569405Y1017365D02*
X569405Y1009405D01*
X569405Y1017365D02*
X570615Y1017365D01*
X570615Y1009405D01*
X569405Y1009405D01*
X569405Y1012086D02*
X570615Y1012086D01*
X570615Y1014767D02*
X569405Y1014767D01*
X573405Y1017365D02*
X573405Y1009405D01*
X573405Y1017365D02*
X574615Y1017365D01*
X574615Y1009405D01*
X573405Y1009405D01*
X573405Y1012086D02*
X574615Y1012086D01*
X574615Y1014767D02*
X573405Y1014767D01*
X577405Y1017365D02*
X577405Y1009405D01*
X577405Y1017365D02*
X578615Y1017365D01*
X578615Y1009405D01*
X577405Y1009405D01*
X577405Y1012086D02*
X578615Y1012086D01*
X578615Y1014767D02*
X577405Y1014767D01*
X581405Y1017365D02*
X581405Y1009405D01*
X581405Y1017365D02*
X582615Y1017365D01*
X582615Y1009405D01*
X581405Y1009405D01*
X581405Y1012086D02*
X582615Y1012086D01*
X582615Y1014767D02*
X581405Y1014767D01*
X586615Y1017365D02*
X586615Y1009405D01*
X585405Y1009405D01*
X585405Y1017365D01*
X586615Y1017365D01*
X586615Y1012086D02*
X585405Y1012086D01*
X585405Y1014767D02*
X586615Y1014767D01*
X589405Y1017365D02*
X589405Y1009405D01*
X589405Y1017365D02*
X590615Y1017365D01*
X590615Y1009405D01*
X589405Y1009405D01*
X589405Y1012086D02*
X590615Y1012086D01*
X590615Y1014767D02*
X589405Y1014767D01*
X593405Y1017365D02*
X593405Y1009405D01*
X593405Y1017365D02*
X594615Y1017365D01*
X594615Y1009405D01*
X593405Y1009405D01*
X593405Y1012086D02*
X594615Y1012086D01*
X594615Y1014767D02*
X593405Y1014767D01*
X597405Y1017365D02*
X597405Y1009405D01*
X597405Y1017365D02*
X598615Y1017365D01*
X598615Y1009405D01*
X597405Y1009405D01*
X597405Y1012086D02*
X598615Y1012086D01*
X598615Y1014767D02*
X597405Y1014767D01*
X601405Y1017365D02*
X601405Y1009405D01*
X601405Y1017365D02*
X602615Y1017365D01*
X602615Y1009405D01*
X601405Y1009405D01*
X601405Y1012086D02*
X602615Y1012086D01*
X602615Y1014767D02*
X601405Y1014767D01*
X605405Y1017365D02*
X605405Y1009405D01*
X605405Y1017365D02*
X606615Y1017365D01*
X606615Y1009405D01*
X605405Y1009405D01*
X605405Y1012086D02*
X606615Y1012086D01*
X606615Y1014767D02*
X605405Y1014767D01*
X609405Y1017365D02*
X609405Y1009405D01*
X609405Y1017365D02*
X610615Y1017365D01*
X610615Y1009405D01*
X609405Y1009405D01*
X609405Y1012086D02*
X610615Y1012086D01*
X610615Y1014767D02*
X609405Y1014767D01*
X614615Y1017365D02*
X614615Y1009405D01*
X613405Y1009405D01*
X613405Y1017365D01*
X614615Y1017365D01*
X614615Y1012086D02*
X613405Y1012086D01*
X613405Y1014767D02*
X614615Y1014767D01*
X618395Y1021145D02*
X626355Y1021145D01*
X618395Y1021145D02*
X618395Y1022355D01*
X626355Y1022355D01*
X626355Y1021145D01*
X626355Y1025145D02*
X618395Y1025145D01*
X618395Y1026355D01*
X626355Y1026355D01*
X626355Y1025145D01*
X626355Y1029145D02*
X618395Y1029145D01*
X618395Y1030355D01*
X626355Y1030355D01*
X626355Y1029145D01*
X626355Y1033145D02*
X618395Y1033145D01*
X618395Y1034355D01*
X626355Y1034355D01*
X626355Y1033145D01*
X626355Y1037145D02*
X618395Y1037145D01*
X618395Y1038355D01*
X626355Y1038355D01*
X626355Y1037145D01*
X626355Y1041145D02*
X618395Y1041145D01*
X618395Y1042355D01*
X626355Y1042355D01*
X626355Y1041145D01*
X626355Y1046355D02*
X618395Y1046355D01*
X626355Y1046355D02*
X626355Y1045145D01*
X618395Y1045145D01*
X618395Y1046355D01*
X618395Y1049145D02*
X626355Y1049145D01*
X618395Y1049145D02*
X618395Y1050355D01*
X626355Y1050355D01*
X626355Y1049145D01*
X626355Y1053145D02*
X618395Y1053145D01*
X618395Y1054355D01*
X626355Y1054355D01*
X626355Y1053145D01*
X626355Y1057145D02*
X618395Y1057145D01*
X618395Y1058355D01*
X626355Y1058355D01*
X626355Y1057145D01*
X626355Y1061145D02*
X618395Y1061145D01*
X618395Y1062355D01*
X626355Y1062355D01*
X626355Y1061145D01*
X626355Y1065145D02*
X618395Y1065145D01*
X618395Y1066355D01*
X626355Y1066355D01*
X626355Y1065145D01*
X626355Y1069145D02*
X618395Y1069145D01*
X618395Y1070355D01*
X626355Y1070355D01*
X626355Y1069145D01*
X626355Y1074355D02*
X618395Y1074355D01*
X626355Y1074355D02*
X626355Y1073145D01*
X618395Y1073145D01*
X618395Y1074355D01*
D19*
X516970Y1028319D03*
X526970Y1028319D03*
X526970Y1018921D03*
X516970Y1018921D03*
X652860Y1050925D03*
X662860Y1050925D03*
X652860Y1016508D03*
X662860Y1016508D03*
X652860Y1076579D03*
X662860Y1076579D03*
X614680Y1108790D03*
X614680Y1118790D03*
X577850Y1110060D03*
X577850Y1120060D03*
X652860Y1093470D03*
X662860Y1093470D03*
X652860Y1067435D03*
X662860Y1067435D03*
X526970Y1009650D03*
X516970Y1009650D03*
X584962Y1004490D03*
X584962Y994490D03*
X652860Y1025652D03*
X662860Y1025652D03*
D22*
X514870Y1067720D03*
X514870Y1050720D03*
X528870Y1050720D03*
X528870Y1067720D03*
D23*
X589160Y674780D03*
X584160Y674780D03*
D24*
X613910Y674780D03*
X606160Y674780D03*
D23*
X599160Y674780D03*
X594160Y674780D03*
X574160Y674780D03*
X579160Y674780D03*
D24*
X549410Y674780D03*
X557160Y674780D03*
D23*
X564160Y674780D03*
X569160Y674780D03*
D25*
X552760Y663730D03*
X610560Y663730D03*
D26*
X683260Y698500D03*
X627380Y698500D03*
X683260Y736600D03*
X627380Y736600D03*
D27*
X533520Y903980D03*
X538520Y903980D03*
X543520Y903980D03*
X548520Y903980D03*
X548520Y883980D03*
X543520Y883980D03*
X538520Y883980D03*
X533520Y883980D03*
D28*
X541020Y894080D03*
D19*
X537290Y872490D03*
X547290Y872490D03*
D29*
X590810Y1166280D03*
X590810Y1155280D03*
X572510Y1155280D03*
X572510Y1166280D03*
D30*
X683260Y754380D03*
X683260Y779780D03*
X683260Y805180D03*
X683260Y830580D03*
X683260Y855980D03*
X683260Y881380D03*
X683260Y906780D03*
X683260Y932180D03*
X683260Y957580D03*
X683260Y982980D03*
X683260Y1008380D03*
X683260Y1033780D03*
X683260Y1059180D03*
X683260Y1084580D03*
X683260Y1109980D03*
X683260Y1135380D03*
X480060Y855980D03*
X480060Y881380D03*
X480060Y906780D03*
X480060Y932180D03*
X480060Y957580D03*
X480060Y982980D03*
X480060Y1008380D03*
X480060Y1033780D03*
X480060Y1059180D03*
X480060Y1084580D03*
X480060Y1109980D03*
X480060Y1135380D03*
D19*
X587121Y1120060D03*
X587121Y1110060D03*
X576660Y1139190D03*
X586660Y1139190D03*
D26*
X551180Y736600D03*
X607060Y736600D03*
X551180Y698500D03*
X607060Y698500D03*
D31*
X606759Y827380D03*
X606759Y817880D03*
X606759Y808380D03*
X632761Y808380D03*
X632761Y827380D03*
X599741Y861720D03*
X599741Y871220D03*
X599741Y880720D03*
X573739Y880720D03*
X573739Y861720D03*
D19*
X527050Y645240D03*
X527050Y655240D03*
X636270Y643970D03*
X636270Y653970D03*
X614600Y756920D03*
X604600Y756920D03*
X590550Y810340D03*
X590550Y820340D03*
X590550Y830660D03*
X590550Y840660D03*
X624760Y840740D03*
X614760Y840740D03*
X570310Y904494D03*
X580310Y904494D03*
X557530Y954960D03*
X557530Y944960D03*
D32*
X537210Y944880D03*
X537210Y957580D03*
X537210Y970280D03*
X537210Y982980D03*
X537210Y932180D03*
X524510Y944880D03*
X524510Y957580D03*
X524510Y970280D03*
X524510Y982980D03*
X524510Y932180D03*
D19*
X662860Y1041781D03*
X652860Y1041781D03*
X580310Y895350D03*
X570310Y895350D03*
X615950Y881300D03*
X615950Y871300D03*
X558800Y876220D03*
X558800Y866220D03*
X685800Y683180D03*
X685800Y673180D03*
D11*
X660600Y675960D02*
X660600Y682940D01*
X667580Y682940D01*
X667580Y675960D01*
X660600Y675960D01*
X660600Y680760D02*
X667580Y680760D01*
X643060Y682940D02*
X643060Y675960D01*
X643060Y682940D02*
X650040Y682940D01*
X650040Y675960D01*
X643060Y675960D01*
X643060Y680760D02*
X650040Y680760D01*
D10*
X853440Y791280D03*
X853440Y768280D03*
D11*
X820620Y915990D02*
X820620Y922970D01*
X827600Y922970D01*
X827600Y915990D01*
X820620Y915990D01*
X820620Y920790D02*
X827600Y920790D01*
X803080Y922970D02*
X803080Y915990D01*
X803080Y922970D02*
X810060Y922970D01*
X810060Y915990D01*
X803080Y915990D01*
X803080Y920790D02*
X810060Y920790D01*
D12*
X834230Y770280D03*
X834230Y789280D03*
X813230Y779780D03*
D11*
X810060Y941390D02*
X810060Y948370D01*
X810060Y941390D02*
X803080Y941390D01*
X803080Y948370D01*
X810060Y948370D01*
X810060Y946190D02*
X803080Y946190D01*
X827600Y948370D02*
X827600Y941390D01*
X820620Y941390D01*
X820620Y948370D01*
X827600Y948370D01*
X827600Y946190D02*
X820620Y946190D01*
D13*
X713740Y665480D03*
X878840Y1186180D03*
D14*
X715090Y736660D03*
X715090Y680660D03*
D15*
X751840Y723660D03*
X751840Y713660D03*
X751840Y703660D03*
X751840Y693660D03*
D16*
X773600Y785020D03*
X773600Y805020D03*
D17*
X721600Y761020D03*
X721600Y829020D03*
D18*
X726440Y1173480D03*
X904240Y1173480D03*
X904240Y640080D03*
X726440Y640080D03*
D19*
X760650Y1037590D03*
X750650Y1037590D03*
X750650Y1080770D03*
X760650Y1080770D03*
D20*
X848295Y1078135D02*
X848295Y1086095D01*
X848295Y1078135D02*
X847085Y1078135D01*
X847085Y1086095D01*
X848295Y1086095D01*
X848295Y1080816D02*
X847085Y1080816D01*
X847085Y1083497D02*
X848295Y1083497D01*
X844295Y1086095D02*
X844295Y1078135D01*
X843085Y1078135D01*
X843085Y1086095D01*
X844295Y1086095D01*
X844295Y1080816D02*
X843085Y1080816D01*
X843085Y1083497D02*
X844295Y1083497D01*
X840295Y1086095D02*
X840295Y1078135D01*
X839085Y1078135D01*
X839085Y1086095D01*
X840295Y1086095D01*
X840295Y1080816D02*
X839085Y1080816D01*
X839085Y1083497D02*
X840295Y1083497D01*
X836295Y1086095D02*
X836295Y1078135D01*
X835085Y1078135D01*
X835085Y1086095D01*
X836295Y1086095D01*
X836295Y1080816D02*
X835085Y1080816D01*
X835085Y1083497D02*
X836295Y1083497D01*
X832295Y1086095D02*
X832295Y1078135D01*
X831085Y1078135D01*
X831085Y1086095D01*
X832295Y1086095D01*
X832295Y1080816D02*
X831085Y1080816D01*
X831085Y1083497D02*
X832295Y1083497D01*
X828295Y1086095D02*
X828295Y1078135D01*
X827085Y1078135D01*
X827085Y1086095D01*
X828295Y1086095D01*
X828295Y1080816D02*
X827085Y1080816D01*
X827085Y1083497D02*
X828295Y1083497D01*
X823085Y1086095D02*
X823085Y1078135D01*
X823085Y1086095D02*
X824295Y1086095D01*
X824295Y1078135D01*
X823085Y1078135D01*
X823085Y1080816D02*
X824295Y1080816D01*
X824295Y1083497D02*
X823085Y1083497D01*
D21*
X821690Y1047750D03*
D20*
X820295Y1078135D02*
X820295Y1086095D01*
X820295Y1078135D02*
X819085Y1078135D01*
X819085Y1086095D01*
X820295Y1086095D01*
X820295Y1080816D02*
X819085Y1080816D01*
X819085Y1083497D02*
X820295Y1083497D01*
X816295Y1086095D02*
X816295Y1078135D01*
X815085Y1078135D01*
X815085Y1086095D01*
X816295Y1086095D01*
X816295Y1080816D02*
X815085Y1080816D01*
X815085Y1083497D02*
X816295Y1083497D01*
X812295Y1086095D02*
X812295Y1078135D01*
X811085Y1078135D01*
X811085Y1086095D01*
X812295Y1086095D01*
X812295Y1080816D02*
X811085Y1080816D01*
X811085Y1083497D02*
X812295Y1083497D01*
X808295Y1086095D02*
X808295Y1078135D01*
X807085Y1078135D01*
X807085Y1086095D01*
X808295Y1086095D01*
X808295Y1080816D02*
X807085Y1080816D01*
X807085Y1083497D02*
X808295Y1083497D01*
X804295Y1086095D02*
X804295Y1078135D01*
X803085Y1078135D01*
X803085Y1086095D01*
X804295Y1086095D01*
X804295Y1080816D02*
X803085Y1080816D01*
X803085Y1083497D02*
X804295Y1083497D01*
X800295Y1086095D02*
X800295Y1078135D01*
X799085Y1078135D01*
X799085Y1086095D01*
X800295Y1086095D01*
X800295Y1080816D02*
X799085Y1080816D01*
X799085Y1083497D02*
X800295Y1083497D01*
X795085Y1086095D02*
X795085Y1078135D01*
X795085Y1086095D02*
X796295Y1086095D01*
X796295Y1078135D01*
X795085Y1078135D01*
X795085Y1080816D02*
X796295Y1080816D01*
X796295Y1083497D02*
X795085Y1083497D01*
X791305Y1074355D02*
X783345Y1074355D01*
X791305Y1074355D02*
X791305Y1073145D01*
X783345Y1073145D01*
X783345Y1074355D01*
X783345Y1070355D02*
X791305Y1070355D01*
X791305Y1069145D01*
X783345Y1069145D01*
X783345Y1070355D01*
X783345Y1066355D02*
X791305Y1066355D01*
X791305Y1065145D01*
X783345Y1065145D01*
X783345Y1066355D01*
X783345Y1062355D02*
X791305Y1062355D01*
X791305Y1061145D01*
X783345Y1061145D01*
X783345Y1062355D01*
X783345Y1058355D02*
X791305Y1058355D01*
X791305Y1057145D01*
X783345Y1057145D01*
X783345Y1058355D01*
X783345Y1054355D02*
X791305Y1054355D01*
X791305Y1053145D01*
X783345Y1053145D01*
X783345Y1054355D01*
X783345Y1049145D02*
X791305Y1049145D01*
X783345Y1049145D02*
X783345Y1050355D01*
X791305Y1050355D01*
X791305Y1049145D01*
X791305Y1046355D02*
X783345Y1046355D01*
X791305Y1046355D02*
X791305Y1045145D01*
X783345Y1045145D01*
X783345Y1046355D01*
X783345Y1042355D02*
X791305Y1042355D01*
X791305Y1041145D01*
X783345Y1041145D01*
X783345Y1042355D01*
X783345Y1038355D02*
X791305Y1038355D01*
X791305Y1037145D01*
X783345Y1037145D01*
X783345Y1038355D01*
X783345Y1034355D02*
X791305Y1034355D01*
X791305Y1033145D01*
X783345Y1033145D01*
X783345Y1034355D01*
X783345Y1030355D02*
X791305Y1030355D01*
X791305Y1029145D01*
X783345Y1029145D01*
X783345Y1030355D01*
X783345Y1026355D02*
X791305Y1026355D01*
X791305Y1025145D01*
X783345Y1025145D01*
X783345Y1026355D01*
X783345Y1021145D02*
X791305Y1021145D01*
X783345Y1021145D02*
X783345Y1022355D01*
X791305Y1022355D01*
X791305Y1021145D01*
X795085Y1017365D02*
X795085Y1009405D01*
X795085Y1017365D02*
X796295Y1017365D01*
X796295Y1009405D01*
X795085Y1009405D01*
X795085Y1012086D02*
X796295Y1012086D01*
X796295Y1014767D02*
X795085Y1014767D01*
X799085Y1017365D02*
X799085Y1009405D01*
X799085Y1017365D02*
X800295Y1017365D01*
X800295Y1009405D01*
X799085Y1009405D01*
X799085Y1012086D02*
X800295Y1012086D01*
X800295Y1014767D02*
X799085Y1014767D01*
X803085Y1017365D02*
X803085Y1009405D01*
X803085Y1017365D02*
X804295Y1017365D01*
X804295Y1009405D01*
X803085Y1009405D01*
X803085Y1012086D02*
X804295Y1012086D01*
X804295Y1014767D02*
X803085Y1014767D01*
X807085Y1017365D02*
X807085Y1009405D01*
X807085Y1017365D02*
X808295Y1017365D01*
X808295Y1009405D01*
X807085Y1009405D01*
X807085Y1012086D02*
X808295Y1012086D01*
X808295Y1014767D02*
X807085Y1014767D01*
X811085Y1017365D02*
X811085Y1009405D01*
X811085Y1017365D02*
X812295Y1017365D01*
X812295Y1009405D01*
X811085Y1009405D01*
X811085Y1012086D02*
X812295Y1012086D01*
X812295Y1014767D02*
X811085Y1014767D01*
X815085Y1017365D02*
X815085Y1009405D01*
X815085Y1017365D02*
X816295Y1017365D01*
X816295Y1009405D01*
X815085Y1009405D01*
X815085Y1012086D02*
X816295Y1012086D01*
X816295Y1014767D02*
X815085Y1014767D01*
X820295Y1017365D02*
X820295Y1009405D01*
X819085Y1009405D01*
X819085Y1017365D01*
X820295Y1017365D01*
X820295Y1012086D02*
X819085Y1012086D01*
X819085Y1014767D02*
X820295Y1014767D01*
X823085Y1017365D02*
X823085Y1009405D01*
X823085Y1017365D02*
X824295Y1017365D01*
X824295Y1009405D01*
X823085Y1009405D01*
X823085Y1012086D02*
X824295Y1012086D01*
X824295Y1014767D02*
X823085Y1014767D01*
X827085Y1017365D02*
X827085Y1009405D01*
X827085Y1017365D02*
X828295Y1017365D01*
X828295Y1009405D01*
X827085Y1009405D01*
X827085Y1012086D02*
X828295Y1012086D01*
X828295Y1014767D02*
X827085Y1014767D01*
X831085Y1017365D02*
X831085Y1009405D01*
X831085Y1017365D02*
X832295Y1017365D01*
X832295Y1009405D01*
X831085Y1009405D01*
X831085Y1012086D02*
X832295Y1012086D01*
X832295Y1014767D02*
X831085Y1014767D01*
X835085Y1017365D02*
X835085Y1009405D01*
X835085Y1017365D02*
X836295Y1017365D01*
X836295Y1009405D01*
X835085Y1009405D01*
X835085Y1012086D02*
X836295Y1012086D01*
X836295Y1014767D02*
X835085Y1014767D01*
X839085Y1017365D02*
X839085Y1009405D01*
X839085Y1017365D02*
X840295Y1017365D01*
X840295Y1009405D01*
X839085Y1009405D01*
X839085Y1012086D02*
X840295Y1012086D01*
X840295Y1014767D02*
X839085Y1014767D01*
X843085Y1017365D02*
X843085Y1009405D01*
X843085Y1017365D02*
X844295Y1017365D01*
X844295Y1009405D01*
X843085Y1009405D01*
X843085Y1012086D02*
X844295Y1012086D01*
X844295Y1014767D02*
X843085Y1014767D01*
X848295Y1017365D02*
X848295Y1009405D01*
X847085Y1009405D01*
X847085Y1017365D01*
X848295Y1017365D01*
X848295Y1012086D02*
X847085Y1012086D01*
X847085Y1014767D02*
X848295Y1014767D01*
X852075Y1021145D02*
X860035Y1021145D01*
X852075Y1021145D02*
X852075Y1022355D01*
X860035Y1022355D01*
X860035Y1021145D01*
X860035Y1025145D02*
X852075Y1025145D01*
X852075Y1026355D01*
X860035Y1026355D01*
X860035Y1025145D01*
X860035Y1029145D02*
X852075Y1029145D01*
X852075Y1030355D01*
X860035Y1030355D01*
X860035Y1029145D01*
X860035Y1033145D02*
X852075Y1033145D01*
X852075Y1034355D01*
X860035Y1034355D01*
X860035Y1033145D01*
X860035Y1037145D02*
X852075Y1037145D01*
X852075Y1038355D01*
X860035Y1038355D01*
X860035Y1037145D01*
X860035Y1041145D02*
X852075Y1041145D01*
X852075Y1042355D01*
X860035Y1042355D01*
X860035Y1041145D01*
X860035Y1046355D02*
X852075Y1046355D01*
X860035Y1046355D02*
X860035Y1045145D01*
X852075Y1045145D01*
X852075Y1046355D01*
X852075Y1049145D02*
X860035Y1049145D01*
X852075Y1049145D02*
X852075Y1050355D01*
X860035Y1050355D01*
X860035Y1049145D01*
X860035Y1053145D02*
X852075Y1053145D01*
X852075Y1054355D01*
X860035Y1054355D01*
X860035Y1053145D01*
X860035Y1057145D02*
X852075Y1057145D01*
X852075Y1058355D01*
X860035Y1058355D01*
X860035Y1057145D01*
X860035Y1061145D02*
X852075Y1061145D01*
X852075Y1062355D01*
X860035Y1062355D01*
X860035Y1061145D01*
X860035Y1065145D02*
X852075Y1065145D01*
X852075Y1066355D01*
X860035Y1066355D01*
X860035Y1065145D01*
X860035Y1069145D02*
X852075Y1069145D01*
X852075Y1070355D01*
X860035Y1070355D01*
X860035Y1069145D01*
X860035Y1074355D02*
X852075Y1074355D01*
X860035Y1074355D02*
X860035Y1073145D01*
X852075Y1073145D01*
X852075Y1074355D01*
D19*
X750650Y1028319D03*
X760650Y1028319D03*
X760650Y1018921D03*
X750650Y1018921D03*
X886540Y1050925D03*
X896540Y1050925D03*
X886540Y1016508D03*
X896540Y1016508D03*
X886540Y1076579D03*
X896540Y1076579D03*
X848360Y1108790D03*
X848360Y1118790D03*
X811530Y1110060D03*
X811530Y1120060D03*
X886540Y1093470D03*
X896540Y1093470D03*
X886540Y1067435D03*
X896540Y1067435D03*
X760650Y1009650D03*
X750650Y1009650D03*
X818642Y1004490D03*
X818642Y994490D03*
X886540Y1025652D03*
X896540Y1025652D03*
D22*
X748550Y1067720D03*
X748550Y1050720D03*
X762550Y1050720D03*
X762550Y1067720D03*
D23*
X822840Y674780D03*
X817840Y674780D03*
D24*
X847590Y674780D03*
X839840Y674780D03*
D23*
X832840Y674780D03*
X827840Y674780D03*
X807840Y674780D03*
X812840Y674780D03*
D24*
X783090Y674780D03*
X790840Y674780D03*
D23*
X797840Y674780D03*
X802840Y674780D03*
D25*
X786440Y663730D03*
X844240Y663730D03*
D26*
X916940Y698500D03*
X861060Y698500D03*
X916940Y736600D03*
X861060Y736600D03*
D27*
X767200Y903980D03*
X772200Y903980D03*
X777200Y903980D03*
X782200Y903980D03*
X782200Y883980D03*
X777200Y883980D03*
X772200Y883980D03*
X767200Y883980D03*
D28*
X774700Y894080D03*
D19*
X770970Y872490D03*
X780970Y872490D03*
D29*
X824490Y1166280D03*
X824490Y1155280D03*
X806190Y1155280D03*
X806190Y1166280D03*
D30*
X916940Y754380D03*
X916940Y779780D03*
X916940Y805180D03*
X916940Y830580D03*
X916940Y855980D03*
X916940Y881380D03*
X916940Y906780D03*
X916940Y932180D03*
X916940Y957580D03*
X916940Y982980D03*
X916940Y1008380D03*
X916940Y1033780D03*
X916940Y1059180D03*
X916940Y1084580D03*
X916940Y1109980D03*
X916940Y1135380D03*
X713740Y855980D03*
X713740Y881380D03*
X713740Y906780D03*
X713740Y932180D03*
X713740Y957580D03*
X713740Y982980D03*
X713740Y1008380D03*
X713740Y1033780D03*
X713740Y1059180D03*
X713740Y1084580D03*
X713740Y1109980D03*
X713740Y1135380D03*
D19*
X820801Y1120060D03*
X820801Y1110060D03*
X810340Y1139190D03*
X820340Y1139190D03*
D26*
X784860Y736600D03*
X840740Y736600D03*
X784860Y698500D03*
X840740Y698500D03*
D31*
X840439Y827380D03*
X840439Y817880D03*
X840439Y808380D03*
X866441Y808380D03*
X866441Y827380D03*
X833421Y861720D03*
X833421Y871220D03*
X833421Y880720D03*
X807419Y880720D03*
X807419Y861720D03*
D19*
X760730Y645240D03*
X760730Y655240D03*
X869950Y643970D03*
X869950Y653970D03*
X848280Y756920D03*
X838280Y756920D03*
X824230Y810340D03*
X824230Y820340D03*
X824230Y830660D03*
X824230Y840660D03*
X858440Y840740D03*
X848440Y840740D03*
X803990Y904494D03*
X813990Y904494D03*
X791210Y954960D03*
X791210Y944960D03*
D32*
X770890Y944880D03*
X770890Y957580D03*
X770890Y970280D03*
X770890Y982980D03*
X770890Y932180D03*
X758190Y944880D03*
X758190Y957580D03*
X758190Y970280D03*
X758190Y982980D03*
X758190Y932180D03*
D19*
X896540Y1041781D03*
X886540Y1041781D03*
X813990Y895350D03*
X803990Y895350D03*
X849630Y881300D03*
X849630Y871300D03*
X792480Y876220D03*
X792480Y866220D03*
X919480Y683180D03*
X919480Y673180D03*
D11*
X894280Y675960D02*
X894280Y682940D01*
X901260Y682940D01*
X901260Y675960D01*
X894280Y675960D01*
X894280Y680760D02*
X901260Y680760D01*
X876740Y682940D02*
X876740Y675960D01*
X876740Y682940D02*
X883720Y682940D01*
X883720Y675960D01*
X876740Y675960D01*
X876740Y680760D02*
X883720Y680760D01*
D32*
X68580Y1245235D03*
X860425Y1245235D03*
D33*
X59525Y-46355D02*
X59528Y-46133D01*
X59536Y-45911D01*
X59550Y-45689D01*
X59569Y-45467D01*
X59593Y-45247D01*
X59623Y-45026D01*
X59658Y-44807D01*
X59699Y-44588D01*
X59745Y-44371D01*
X59796Y-44155D01*
X59853Y-43940D01*
X59915Y-43726D01*
X59982Y-43515D01*
X60054Y-43304D01*
X60132Y-43096D01*
X60214Y-42890D01*
X60302Y-42686D01*
X60394Y-42483D01*
X60492Y-42284D01*
X60594Y-42087D01*
X60701Y-41892D01*
X60813Y-41700D01*
X60930Y-41511D01*
X61051Y-41324D01*
X61177Y-41141D01*
X61307Y-40961D01*
X61442Y-40784D01*
X61580Y-40611D01*
X61723Y-40441D01*
X61871Y-40274D01*
X62022Y-40111D01*
X62177Y-39952D01*
X62336Y-39797D01*
X62499Y-39646D01*
X62666Y-39498D01*
X62836Y-39355D01*
X63009Y-39217D01*
X63186Y-39082D01*
X63366Y-38952D01*
X63549Y-38826D01*
X63736Y-38705D01*
X63925Y-38588D01*
X64117Y-38476D01*
X64312Y-38369D01*
X64509Y-38267D01*
X64708Y-38169D01*
X64911Y-38077D01*
X65115Y-37989D01*
X65321Y-37907D01*
X65529Y-37829D01*
X65740Y-37757D01*
X65951Y-37690D01*
X66165Y-37628D01*
X66380Y-37571D01*
X66596Y-37520D01*
X66813Y-37474D01*
X67032Y-37433D01*
X67251Y-37398D01*
X67472Y-37368D01*
X67692Y-37344D01*
X67914Y-37325D01*
X68136Y-37311D01*
X68358Y-37303D01*
X68580Y-37300D01*
X68802Y-37303D01*
X69024Y-37311D01*
X69246Y-37325D01*
X69468Y-37344D01*
X69688Y-37368D01*
X69909Y-37398D01*
X70128Y-37433D01*
X70347Y-37474D01*
X70564Y-37520D01*
X70780Y-37571D01*
X70995Y-37628D01*
X71209Y-37690D01*
X71420Y-37757D01*
X71631Y-37829D01*
X71839Y-37907D01*
X72045Y-37989D01*
X72249Y-38077D01*
X72452Y-38169D01*
X72651Y-38267D01*
X72848Y-38369D01*
X73043Y-38476D01*
X73235Y-38588D01*
X73424Y-38705D01*
X73611Y-38826D01*
X73794Y-38952D01*
X73974Y-39082D01*
X74151Y-39217D01*
X74324Y-39355D01*
X74494Y-39498D01*
X74661Y-39646D01*
X74824Y-39797D01*
X74983Y-39952D01*
X75138Y-40111D01*
X75289Y-40274D01*
X75437Y-40441D01*
X75580Y-40611D01*
X75718Y-40784D01*
X75853Y-40961D01*
X75983Y-41141D01*
X76109Y-41324D01*
X76230Y-41511D01*
X76347Y-41700D01*
X76459Y-41892D01*
X76566Y-42087D01*
X76668Y-42284D01*
X76766Y-42483D01*
X76858Y-42686D01*
X76946Y-42890D01*
X77028Y-43096D01*
X77106Y-43304D01*
X77178Y-43515D01*
X77245Y-43726D01*
X77307Y-43940D01*
X77364Y-44155D01*
X77415Y-44371D01*
X77461Y-44588D01*
X77502Y-44807D01*
X77537Y-45026D01*
X77567Y-45247D01*
X77591Y-45467D01*
X77610Y-45689D01*
X77624Y-45911D01*
X77632Y-46133D01*
X77635Y-46355D01*
X77632Y-46577D01*
X77624Y-46799D01*
X77610Y-47021D01*
X77591Y-47243D01*
X77567Y-47463D01*
X77537Y-47684D01*
X77502Y-47903D01*
X77461Y-48122D01*
X77415Y-48339D01*
X77364Y-48555D01*
X77307Y-48770D01*
X77245Y-48984D01*
X77178Y-49195D01*
X77106Y-49406D01*
X77028Y-49614D01*
X76946Y-49820D01*
X76858Y-50024D01*
X76766Y-50227D01*
X76668Y-50426D01*
X76566Y-50623D01*
X76459Y-50818D01*
X76347Y-51010D01*
X76230Y-51199D01*
X76109Y-51386D01*
X75983Y-51569D01*
X75853Y-51749D01*
X75718Y-51926D01*
X75580Y-52099D01*
X75437Y-52269D01*
X75289Y-52436D01*
X75138Y-52599D01*
X74983Y-52758D01*
X74824Y-52913D01*
X74661Y-53064D01*
X74494Y-53212D01*
X74324Y-53355D01*
X74151Y-53493D01*
X73974Y-53628D01*
X73794Y-53758D01*
X73611Y-53884D01*
X73424Y-54005D01*
X73235Y-54122D01*
X73043Y-54234D01*
X72848Y-54341D01*
X72651Y-54443D01*
X72452Y-54541D01*
X72249Y-54633D01*
X72045Y-54721D01*
X71839Y-54803D01*
X71631Y-54881D01*
X71420Y-54953D01*
X71209Y-55020D01*
X70995Y-55082D01*
X70780Y-55139D01*
X70564Y-55190D01*
X70347Y-55236D01*
X70128Y-55277D01*
X69909Y-55312D01*
X69688Y-55342D01*
X69468Y-55366D01*
X69246Y-55385D01*
X69024Y-55399D01*
X68802Y-55407D01*
X68580Y-55410D01*
X68358Y-55407D01*
X68136Y-55399D01*
X67914Y-55385D01*
X67692Y-55366D01*
X67472Y-55342D01*
X67251Y-55312D01*
X67032Y-55277D01*
X66813Y-55236D01*
X66596Y-55190D01*
X66380Y-55139D01*
X66165Y-55082D01*
X65951Y-55020D01*
X65740Y-54953D01*
X65529Y-54881D01*
X65321Y-54803D01*
X65115Y-54721D01*
X64911Y-54633D01*
X64708Y-54541D01*
X64509Y-54443D01*
X64312Y-54341D01*
X64117Y-54234D01*
X63925Y-54122D01*
X63736Y-54005D01*
X63549Y-53884D01*
X63366Y-53758D01*
X63186Y-53628D01*
X63009Y-53493D01*
X62836Y-53355D01*
X62666Y-53212D01*
X62499Y-53064D01*
X62336Y-52913D01*
X62177Y-52758D01*
X62022Y-52599D01*
X61871Y-52436D01*
X61723Y-52269D01*
X61580Y-52099D01*
X61442Y-51926D01*
X61307Y-51749D01*
X61177Y-51569D01*
X61051Y-51386D01*
X60930Y-51199D01*
X60813Y-51010D01*
X60701Y-50818D01*
X60594Y-50623D01*
X60492Y-50426D01*
X60394Y-50227D01*
X60302Y-50024D01*
X60214Y-49820D01*
X60132Y-49614D01*
X60054Y-49406D01*
X59982Y-49195D01*
X59915Y-48984D01*
X59853Y-48770D01*
X59796Y-48555D01*
X59745Y-48339D01*
X59699Y-48122D01*
X59658Y-47903D01*
X59623Y-47684D01*
X59593Y-47463D01*
X59569Y-47243D01*
X59550Y-47021D01*
X59536Y-46799D01*
X59528Y-46577D01*
X59525Y-46355D01*
D34*
X68580Y-46355D03*
M02*
