G04 EAGLE Gerber RS-274X export*
G75*
%MOMM*%
%FSLAX34Y34*%
%LPD*%
%INSolderpaste Bottom*%
%IPPOS*%
%AMOC8*
5,1,8,0,0,1.08239X$1,22.5*%
G01*
%ADD10R,0.600000X0.600000*%
%ADD11R,0.850000X0.500000*%
%ADD12R,0.800000X0.800000*%
%ADD13R,1.800000X1.400000*%
%ADD14R,1.400000X1.900000*%
%ADD15R,0.800000X1.500000*%


D10*
X109300Y372110D03*
X119300Y372110D03*
D11*
X143320Y347980D03*
X143320Y335280D03*
X143320Y322580D03*
X143320Y309880D03*
X87820Y322580D03*
X87820Y309880D03*
X87820Y335280D03*
X87820Y347980D03*
D12*
X115570Y328930D03*
D10*
X109300Y361950D03*
X119300Y361950D03*
X156718Y364570D03*
X156718Y374570D03*
X166116Y364570D03*
X166116Y374570D03*
D13*
X137190Y387540D03*
X80190Y387540D03*
D14*
X64190Y519040D03*
X195690Y529040D03*
D15*
X149090Y490540D03*
X138090Y486540D03*
X127090Y490540D03*
X116090Y492540D03*
X105090Y490540D03*
X94090Y492540D03*
X83090Y490540D03*
X72090Y490540D03*
D10*
X101600Y71200D03*
X101600Y81200D03*
X101600Y119300D03*
X101600Y109300D03*
X131906Y286131D03*
X141906Y286131D03*
X131906Y295402D03*
X141906Y295402D03*
X342980Y372110D03*
X352980Y372110D03*
D11*
X377000Y347980D03*
X377000Y335280D03*
X377000Y322580D03*
X377000Y309880D03*
X321500Y322580D03*
X321500Y309880D03*
X321500Y335280D03*
X321500Y347980D03*
D12*
X349250Y328930D03*
D10*
X342980Y361950D03*
X352980Y361950D03*
X390398Y364570D03*
X390398Y374570D03*
X399796Y364570D03*
X399796Y374570D03*
D13*
X370870Y387540D03*
X313870Y387540D03*
D14*
X297870Y519040D03*
X429370Y529040D03*
D15*
X382770Y490540D03*
X371770Y486540D03*
X360770Y490540D03*
X349770Y492540D03*
X338770Y490540D03*
X327770Y492540D03*
X316770Y490540D03*
X305770Y490540D03*
D10*
X335280Y71200D03*
X335280Y81200D03*
X335280Y119300D03*
X335280Y109300D03*
X365586Y286131D03*
X375586Y286131D03*
X365586Y295402D03*
X375586Y295402D03*
X576660Y372110D03*
X586660Y372110D03*
D11*
X610680Y347980D03*
X610680Y335280D03*
X610680Y322580D03*
X610680Y309880D03*
X555180Y322580D03*
X555180Y309880D03*
X555180Y335280D03*
X555180Y347980D03*
D12*
X582930Y328930D03*
D10*
X576660Y361950D03*
X586660Y361950D03*
X624078Y364570D03*
X624078Y374570D03*
X633476Y364570D03*
X633476Y374570D03*
D13*
X604550Y387540D03*
X547550Y387540D03*
D14*
X531550Y519040D03*
X663050Y529040D03*
D15*
X616450Y490540D03*
X605450Y486540D03*
X594450Y490540D03*
X583450Y492540D03*
X572450Y490540D03*
X561450Y492540D03*
X550450Y490540D03*
X539450Y490540D03*
D10*
X568960Y71200D03*
X568960Y81200D03*
X568960Y119300D03*
X568960Y109300D03*
X599266Y286131D03*
X609266Y286131D03*
X599266Y295402D03*
X609266Y295402D03*
X810340Y372110D03*
X820340Y372110D03*
D11*
X844360Y347980D03*
X844360Y335280D03*
X844360Y322580D03*
X844360Y309880D03*
X788860Y322580D03*
X788860Y309880D03*
X788860Y335280D03*
X788860Y347980D03*
D12*
X816610Y328930D03*
D10*
X810340Y361950D03*
X820340Y361950D03*
X857758Y364570D03*
X857758Y374570D03*
X867156Y364570D03*
X867156Y374570D03*
D13*
X838230Y387540D03*
X781230Y387540D03*
D14*
X765230Y519040D03*
X896730Y529040D03*
D15*
X850130Y490540D03*
X839130Y486540D03*
X828130Y490540D03*
X817130Y492540D03*
X806130Y490540D03*
X795130Y492540D03*
X784130Y490540D03*
X773130Y490540D03*
D10*
X802640Y71200D03*
X802640Y81200D03*
X802640Y119300D03*
X802640Y109300D03*
X832946Y286131D03*
X842946Y286131D03*
X832946Y295402D03*
X842946Y295402D03*
X109300Y986790D03*
X119300Y986790D03*
D11*
X143320Y962660D03*
X143320Y949960D03*
X143320Y937260D03*
X143320Y924560D03*
X87820Y937260D03*
X87820Y924560D03*
X87820Y949960D03*
X87820Y962660D03*
D12*
X115570Y943610D03*
D10*
X109300Y976630D03*
X119300Y976630D03*
X156718Y979250D03*
X156718Y989250D03*
X166116Y979250D03*
X166116Y989250D03*
D13*
X137190Y1002220D03*
X80190Y1002220D03*
D14*
X64190Y1133720D03*
X195690Y1143720D03*
D15*
X149090Y1105220D03*
X138090Y1101220D03*
X127090Y1105220D03*
X116090Y1107220D03*
X105090Y1105220D03*
X94090Y1107220D03*
X83090Y1105220D03*
X72090Y1105220D03*
D10*
X101600Y685880D03*
X101600Y695880D03*
X101600Y733980D03*
X101600Y723980D03*
X131906Y900811D03*
X141906Y900811D03*
X131906Y910082D03*
X141906Y910082D03*
X342980Y986790D03*
X352980Y986790D03*
D11*
X377000Y962660D03*
X377000Y949960D03*
X377000Y937260D03*
X377000Y924560D03*
X321500Y937260D03*
X321500Y924560D03*
X321500Y949960D03*
X321500Y962660D03*
D12*
X349250Y943610D03*
D10*
X342980Y976630D03*
X352980Y976630D03*
X390398Y979250D03*
X390398Y989250D03*
X399796Y979250D03*
X399796Y989250D03*
D13*
X370870Y1002220D03*
X313870Y1002220D03*
D14*
X297870Y1133720D03*
X429370Y1143720D03*
D15*
X382770Y1105220D03*
X371770Y1101220D03*
X360770Y1105220D03*
X349770Y1107220D03*
X338770Y1105220D03*
X327770Y1107220D03*
X316770Y1105220D03*
X305770Y1105220D03*
D10*
X335280Y685880D03*
X335280Y695880D03*
X335280Y733980D03*
X335280Y723980D03*
X365586Y900811D03*
X375586Y900811D03*
X365586Y910082D03*
X375586Y910082D03*
X576660Y986790D03*
X586660Y986790D03*
D11*
X610680Y962660D03*
X610680Y949960D03*
X610680Y937260D03*
X610680Y924560D03*
X555180Y937260D03*
X555180Y924560D03*
X555180Y949960D03*
X555180Y962660D03*
D12*
X582930Y943610D03*
D10*
X576660Y976630D03*
X586660Y976630D03*
X624078Y979250D03*
X624078Y989250D03*
X633476Y979250D03*
X633476Y989250D03*
D13*
X604550Y1002220D03*
X547550Y1002220D03*
D14*
X531550Y1133720D03*
X663050Y1143720D03*
D15*
X616450Y1105220D03*
X605450Y1101220D03*
X594450Y1105220D03*
X583450Y1107220D03*
X572450Y1105220D03*
X561450Y1107220D03*
X550450Y1105220D03*
X539450Y1105220D03*
D10*
X568960Y685880D03*
X568960Y695880D03*
X568960Y733980D03*
X568960Y723980D03*
X599266Y900811D03*
X609266Y900811D03*
X599266Y910082D03*
X609266Y910082D03*
X810340Y986790D03*
X820340Y986790D03*
D11*
X844360Y962660D03*
X844360Y949960D03*
X844360Y937260D03*
X844360Y924560D03*
X788860Y937260D03*
X788860Y924560D03*
X788860Y949960D03*
X788860Y962660D03*
D12*
X816610Y943610D03*
D10*
X810340Y976630D03*
X820340Y976630D03*
X857758Y979250D03*
X857758Y989250D03*
X867156Y979250D03*
X867156Y989250D03*
D13*
X838230Y1002220D03*
X781230Y1002220D03*
D14*
X765230Y1133720D03*
X896730Y1143720D03*
D15*
X850130Y1105220D03*
X839130Y1101220D03*
X828130Y1105220D03*
X817130Y1107220D03*
X806130Y1105220D03*
X795130Y1107220D03*
X784130Y1105220D03*
X773130Y1105220D03*
D10*
X802640Y685880D03*
X802640Y695880D03*
X802640Y733980D03*
X802640Y723980D03*
X832946Y900811D03*
X842946Y900811D03*
X832946Y910082D03*
X842946Y910082D03*
X109300Y1601470D03*
X119300Y1601470D03*
D11*
X143320Y1577340D03*
X143320Y1564640D03*
X143320Y1551940D03*
X143320Y1539240D03*
X87820Y1551940D03*
X87820Y1539240D03*
X87820Y1564640D03*
X87820Y1577340D03*
D12*
X115570Y1558290D03*
D10*
X109300Y1591310D03*
X119300Y1591310D03*
X156718Y1593930D03*
X156718Y1603930D03*
X166116Y1593930D03*
X166116Y1603930D03*
D13*
X137190Y1616900D03*
X80190Y1616900D03*
D14*
X64190Y1748400D03*
X195690Y1758400D03*
D15*
X149090Y1719900D03*
X138090Y1715900D03*
X127090Y1719900D03*
X116090Y1721900D03*
X105090Y1719900D03*
X94090Y1721900D03*
X83090Y1719900D03*
X72090Y1719900D03*
D10*
X101600Y1300560D03*
X101600Y1310560D03*
X101600Y1348660D03*
X101600Y1338660D03*
X131906Y1515491D03*
X141906Y1515491D03*
X131906Y1524762D03*
X141906Y1524762D03*
X342980Y1601470D03*
X352980Y1601470D03*
D11*
X377000Y1577340D03*
X377000Y1564640D03*
X377000Y1551940D03*
X377000Y1539240D03*
X321500Y1551940D03*
X321500Y1539240D03*
X321500Y1564640D03*
X321500Y1577340D03*
D12*
X349250Y1558290D03*
D10*
X342980Y1591310D03*
X352980Y1591310D03*
X390398Y1593930D03*
X390398Y1603930D03*
X399796Y1593930D03*
X399796Y1603930D03*
D13*
X370870Y1616900D03*
X313870Y1616900D03*
D14*
X297870Y1748400D03*
X429370Y1758400D03*
D15*
X382770Y1719900D03*
X371770Y1715900D03*
X360770Y1719900D03*
X349770Y1721900D03*
X338770Y1719900D03*
X327770Y1721900D03*
X316770Y1719900D03*
X305770Y1719900D03*
D10*
X335280Y1300560D03*
X335280Y1310560D03*
X335280Y1348660D03*
X335280Y1338660D03*
X365586Y1515491D03*
X375586Y1515491D03*
X365586Y1524762D03*
X375586Y1524762D03*
X576660Y1601470D03*
X586660Y1601470D03*
D11*
X610680Y1577340D03*
X610680Y1564640D03*
X610680Y1551940D03*
X610680Y1539240D03*
X555180Y1551940D03*
X555180Y1539240D03*
X555180Y1564640D03*
X555180Y1577340D03*
D12*
X582930Y1558290D03*
D10*
X576660Y1591310D03*
X586660Y1591310D03*
X624078Y1593930D03*
X624078Y1603930D03*
X633476Y1593930D03*
X633476Y1603930D03*
D13*
X604550Y1616900D03*
X547550Y1616900D03*
D14*
X531550Y1748400D03*
X663050Y1758400D03*
D15*
X616450Y1719900D03*
X605450Y1715900D03*
X594450Y1719900D03*
X583450Y1721900D03*
X572450Y1719900D03*
X561450Y1721900D03*
X550450Y1719900D03*
X539450Y1719900D03*
D10*
X568960Y1300560D03*
X568960Y1310560D03*
X568960Y1348660D03*
X568960Y1338660D03*
X599266Y1515491D03*
X609266Y1515491D03*
X599266Y1524762D03*
X609266Y1524762D03*
X810340Y1601470D03*
X820340Y1601470D03*
D11*
X844360Y1577340D03*
X844360Y1564640D03*
X844360Y1551940D03*
X844360Y1539240D03*
X788860Y1551940D03*
X788860Y1539240D03*
X788860Y1564640D03*
X788860Y1577340D03*
D12*
X816610Y1558290D03*
D10*
X810340Y1591310D03*
X820340Y1591310D03*
X857758Y1593930D03*
X857758Y1603930D03*
X867156Y1593930D03*
X867156Y1603930D03*
D13*
X838230Y1616900D03*
X781230Y1616900D03*
D14*
X765230Y1748400D03*
X896730Y1758400D03*
D15*
X850130Y1719900D03*
X839130Y1715900D03*
X828130Y1719900D03*
X817130Y1721900D03*
X806130Y1719900D03*
X795130Y1721900D03*
X784130Y1719900D03*
X773130Y1719900D03*
D10*
X802640Y1300560D03*
X802640Y1310560D03*
X802640Y1348660D03*
X802640Y1338660D03*
X832946Y1515491D03*
X842946Y1515491D03*
X832946Y1524762D03*
X842946Y1524762D03*
M02*
