M48
;GenerationSoftware,Autodesk,EAGLE,9.6.2*%
;CreationDate,2020-12-02T20:43:44Z*%
FMAT,2
ICI,OFF
METRIC,TZ,000.000
T5C0.200
T4C0.508
T3C0.650
T2C1.016
T1C3.302
%
G90
M71
T1
X72644Y117348
X25908Y117348
X2540Y55880
X20320Y55880
X20320Y2540
X2540Y2540
X43688Y117348
X43688Y64008
X25908Y55880
X43688Y55880
X43688Y2540
X25908Y2540
X25908Y64008
X90424Y64008
X49276Y55880
X67056Y55880
X67056Y2540
X49276Y2540
X72644Y64008
X49276Y117348
X72644Y55880
X90424Y55880
X90424Y2540
X72644Y2540
X67056Y117348
X67056Y64008
X2540Y117348
X20320Y117348
X20320Y64008
X2540Y64008
X49276Y64008
X90424Y117348
T2
X91694Y46990
X68326Y98298
X68326Y100838
X68326Y103378
X68326Y105918
X68326Y108458
X68326Y110998
X68326Y113538
X48006Y85598
X48006Y88138
X48006Y90678
X48006Y93218
X48006Y95758
X48006Y98298
X48006Y100838
X44958Y13970
X48006Y103378
X48006Y105918
X21590Y13970
X21590Y16510
X21590Y19050
X21590Y21590
X21590Y24130
X21590Y26670
X21590Y29210
X21590Y31750
X21590Y34290
X21590Y36830
X21590Y39370
X21590Y41910
X21590Y44450
X21590Y46990
X21590Y49530
X21590Y52070
X1270Y24130
X1270Y26670
X1270Y29210
X1270Y31750
X1270Y34290
X1270Y36830
X1270Y39370
X1270Y41910
X1270Y44450
X1270Y46990
X1270Y49530
X1270Y52070
X48006Y108458
X48006Y110998
X48006Y113538
X91694Y75438
X91694Y77978
X91694Y80518
X91694Y83058
X91694Y85598
X91694Y88138
X91694Y90678
X91694Y93218
X44958Y16510
X44958Y19050
X44958Y21590
X44958Y24130
X44958Y26670
X44958Y29210
X44958Y31750
X44958Y34290
X44958Y36830
X44958Y39370
X44958Y41910
X44958Y44450
X44958Y46990
X44958Y49530
X44958Y52070
X24638Y24130
X24638Y26670
X24638Y29210
X24638Y31750
X24638Y34290
X24638Y36830
X24638Y39370
X24638Y41910
X24638Y44450
X24638Y46990
X24638Y49530
X24638Y52070
X91694Y95758
X91694Y98298
X91694Y100838
X91694Y103378
X91694Y105918
X91694Y108458
X91694Y110998
X91694Y113538
X71374Y85598
X71374Y88138
X68326Y13970
X68326Y16510
X68326Y19050
X68326Y21590
X68326Y24130
X68326Y26670
X68326Y29210
X68326Y31750
X68326Y34290
X68326Y36830
X68326Y39370
X68326Y41910
X68326Y44450
X68326Y46990
X68326Y49530
X68326Y52070
X48006Y24130
X48006Y26670
X48006Y29210
X48006Y31750
X48006Y34290
X48006Y36830
X48006Y39370
X48006Y41910
X48006Y44450
X48006Y46990
X48006Y49530
X48006Y52070
X71374Y90678
X71374Y93218
X71374Y95758
X71374Y98298
X71374Y100838
X71374Y103378
X71374Y105918
X71374Y108458
X71374Y110998
X71374Y113538
X91694Y13970
X91694Y16510
X91694Y19050
X91694Y21590
X91694Y24130
X91694Y26670
X91694Y29210
X91694Y31750
X91694Y34290
X91694Y36830
X91694Y39370
X91694Y41910
X91694Y44450
X91694Y49530
X91694Y52070
X71374Y24130
X71374Y26670
X71374Y29210
X71374Y31750
X71374Y34290
X71374Y36830
X71374Y39370
X71374Y41910
X71374Y44450
X71374Y46990
X71374Y49530
X71374Y52070
X21590Y75438
X21590Y77978
X21590Y80518
X21590Y83058
X21590Y85598
X21590Y88138
X21590Y90678
X21590Y93218
X21590Y95758
X21590Y98298
X21590Y100838
X21590Y103378
X21590Y105918
X21590Y108458
X21590Y110998
X21590Y113538
X1270Y85598
X1270Y88138
X1270Y90678
X1270Y93218
X1270Y95758
X1270Y98298
X1270Y100838
X1270Y103378
X1270Y105918
X1270Y108458
X1270Y110998
X1270Y113538
X44958Y75438
X44958Y77978
X44958Y80518
X44958Y83058
X44958Y85598
X44958Y88138
X44958Y90678
X44958Y93218
X44958Y95758
X44958Y98298
X44958Y100838
X44958Y103378
X44958Y105918
X44958Y108458
X44958Y110998
X44958Y113538
X24638Y85598
X24638Y88138
X24638Y90678
X24638Y93218
X24638Y95758
X24638Y98298
X24638Y100838
X24638Y103378
X24638Y105918
X24638Y108458
X24638Y110998
X24638Y113538
X68326Y75438
X68326Y77978
X68326Y80518
X68326Y83058
X68326Y85598
X68326Y88138
X68326Y90678
X68326Y93218
X68326Y95758
T3
X8540Y4905
X14320Y4905
X31908Y4905
X37688Y4905
X55276Y4905
X61056Y4905
X78644Y4905
X84424Y4905
X8540Y66373
X14320Y66373
X31908Y66373
X37688Y66373
X55276Y66373
X61056Y66373
X78644Y66373
X84424Y66373
T4
X6985Y33020
X6985Y34290
X6985Y35560
X6985Y36830
X6985Y31750
X5715Y33020
X5715Y34290
X5715Y35560
X5715Y36830
X5715Y31750
X75819Y93218
X30353Y33020
X30353Y34290
X30353Y35560
X30353Y36830
X30353Y31750
X29083Y33020
X29083Y34290
X29083Y35560
X29083Y36830
X29083Y31750
X53721Y33020
X53721Y34290
X53721Y35560
X53721Y36830
X53721Y31750
X52451Y33020
X52451Y34290
X52451Y35560
X52451Y36830
X52451Y31750
X29083Y95758
X29083Y97028
X53721Y94488
X53721Y95758
X53721Y97028
X53721Y98298
X53721Y93218
X52451Y94488
X52451Y95758
X52451Y97028
X52451Y98298
X52451Y93218
X29083Y98298
X29083Y93218
X75819Y34290
X75819Y35560
X6985Y94488
X6985Y95758
X6985Y97028
X6985Y98298
X6985Y93218
X5715Y94488
X5715Y95758
X5715Y97028
X5715Y98298
X5715Y93218
X75819Y36830
X75819Y31750
X77089Y33020
X77089Y34290
X77089Y35560
X77089Y36830
X77089Y31750
X75819Y33020
X30353Y94488
X30353Y95758
X30353Y97028
X30353Y98298
X30353Y93218
X29083Y94488
X77089Y94488
X77089Y95758
X77089Y97028
X77089Y98298
X77089Y93218
X75819Y94488
X75819Y95758
X75819Y97028
X75819Y98298
T5
X63881Y31623
X61849Y31623
X56261Y42291
X56769Y45085
X55118Y47879
X56134Y44691
X56388Y52070
X60325Y52070
X55880Y47498
X56388Y51435
X61595Y51435
X59436Y8983
X58828Y7718
X61341Y41819
X61341Y42396
X61341Y43053
X56261Y42926
X67043Y42736
X61214Y45881
X61214Y45304
X61341Y43815
X59944Y45339
X59309Y45720
X50292Y8890
X53086Y29718
X58928Y47879
X50292Y7874
X53848Y29718
X59055Y41021
X58587Y45807
X50419Y48514
X54356Y39878
X51054Y33020
X54991Y40190
X50546Y35560
X57023Y38354
X57023Y38989
X56985Y40656
X50800Y40640
X57785Y40860
X58420Y41275
X57887Y8382
X62738Y9398
X61570Y28600
X81178Y47879
X84769Y47879
X81169Y38481
X73660Y9906
X79756Y9525
X80619Y53213
X87490Y42532
X86741Y39871
X78994Y36195
X84938Y29540
X82842Y50533
X76784Y41021
X87884Y20320
X86503Y42494
X88646Y46981
X86995Y6477
X76708Y42291
X83312Y41021
X79629Y43561
X77724Y46482
X89154Y49530
X90678Y45720
X85725Y39243
X89154Y39370
X80162Y36779
X89637Y47041
X90551Y43459
X82982Y52451
X83490Y55169
X74168Y40030
X77699Y44755
X90526Y41123
X84455Y24790
X89408Y35712
X84455Y36982
X74930Y34950
X78105Y24917
X77724Y30353
X85217Y20345
X83058Y20345
X85217Y19329
X74168Y46609
X76073Y28194
X83693Y22631
X84836Y13360
X73660Y10947
X72771Y10947
X73660Y11836
X74168Y17043
X74168Y17805
X74168Y16281
X77597Y6883
X84709Y7264
X75057Y4089
X88011Y3962
X86995Y4978
X76073Y5232
X79502Y28194
X80899Y42037
X80899Y44450
X83439Y43942
X83439Y42037
X82042Y42037
X82042Y43434
X82042Y44577
X79629Y27178
X83947Y7239
X83820Y13335
X79121Y7239
X83312Y27432
X75692Y26543
X78994Y13970
X83058Y19370
X85765Y48641
X84455Y36068
X87672Y48727
X88646Y32258
X78105Y32258
X87122Y49149
X88646Y31115
X78105Y31496
X88138Y49149
X88738Y33528
X78105Y33528
X86233Y49149
X87122Y32893
X85217Y32893
X86707Y48641
X87249Y31623
X85217Y31623
X79629Y42291
X80137Y45085
X78486Y47879
X79502Y44691
X79756Y52070
X83693Y52070
X79248Y47498
X79756Y51435
X84963Y51435
X82804Y8983
X82196Y7718
X84709Y41819
X84709Y42396
X84709Y43053
X79629Y42926
X90411Y42736
X84582Y45881
X84582Y45304
X84709Y43815
X83312Y45339
X82677Y45720
X73660Y8890
X76454Y29718
X82296Y47879
X73660Y7874
X77216Y29718
X82423Y41021
X81955Y45807
X73787Y48514
X77724Y39878
X74422Y33020
X78359Y40190
X73914Y35560
X80391Y38354
X80391Y38989
X80354Y40656
X74168Y40640
X81153Y40860
X81788Y41275
X81255Y8382
X86106Y9398
X84938Y28600
X11074Y109347
X14665Y109347
X11065Y99949
X3556Y71374
X9652Y70993
X10515Y114681
X17386Y104000
X16637Y101338
X8890Y97663
X14834Y91008
X12738Y112001
X6680Y102489
X17780Y81788
X16399Y103962
X18542Y108449
X16891Y67945
X6604Y103759
X13208Y102489
X9525Y105029
X7620Y107950
X19050Y110998
X20574Y107188
X15621Y100711
X19050Y100838
X10058Y98247
X19533Y108509
X20447Y104927
X12878Y113919
X13386Y116637
X4064Y101498
X7595Y106223
X20422Y102591
X14351Y86258
X19304Y97180
X14351Y98450
X4826Y96418
X8001Y86385
X7620Y91821
X15113Y81813
X12954Y81813
X15113Y80797
X4064Y108077
X5969Y89662
X13589Y84099
X14732Y74828
X3556Y72415
X2667Y72415
X3556Y73304
X4064Y78511
X4064Y79273
X4064Y77749
X7493Y68351
X14605Y68732
X4953Y65557
X17907Y65430
X16891Y66446
X5969Y66700
X9398Y89662
X10795Y103505
X10795Y105918
X13335Y105410
X13335Y103505
X11938Y103505
X11938Y104902
X11938Y106045
X9525Y88646
X13843Y68707
X13716Y74803
X9017Y68707
X13208Y88900
X5588Y88011
X8890Y75438
X12954Y80838
X15661Y110109
X14351Y97536
X17568Y110195
X18542Y93726
X8001Y93726
X17018Y110617
X18542Y92583
X8001Y92964
X18034Y110617
X18635Y94996
X8001Y94996
X16129Y110617
X17018Y94361
X15113Y94361
X16603Y110109
X17145Y93091
X15113Y93091
X9525Y103759
X10033Y106553
X8382Y109347
X9398Y106159
X9652Y113538
X13589Y113538
X9144Y108966
X9652Y112903
X14859Y112903
X12700Y70451
X12092Y69186
X14605Y103286
X14605Y103863
X14605Y104521
X9525Y104394
X20307Y104203
X14478Y107349
X14478Y106772
X14605Y105283
X13208Y106807
X12573Y107188
X3556Y70358
X6350Y91186
X12192Y109347
X3556Y69342
X7112Y91186
X12319Y102489
X11851Y107275
X3683Y109982
X7620Y101346
X4318Y94488
X8255Y101658
X3810Y97028
X10287Y99822
X10287Y100457
X10250Y102124
X4064Y102108
X11049Y102327
X11684Y102743
X11151Y69850
X16002Y70866
X14834Y90068
X34442Y109347
X38033Y109347
X34433Y99949
X26924Y71374
X33020Y70993
X33883Y114681
X40754Y104000
X40005Y101338
X32258Y97663
X38202Y91008
X36106Y112001
X30048Y102489
X41148Y81788
X39767Y103962
X41910Y108449
X40259Y67945
X29972Y103759
X36576Y102489
X32893Y105029
X30988Y107950
X42418Y110998
X43942Y107188
X38989Y100711
X42418Y100838
X33426Y98247
X42901Y108509
X43815Y104927
X36246Y113919
X36754Y116637
X27432Y101498
X30963Y106223
X43790Y102591
X37719Y86258
X42672Y97180
X37719Y98450
X28194Y96418
X31369Y86385
X30988Y91821
X38481Y81813
X36322Y81813
X38481Y80797
X27432Y108077
X29337Y89662
X36957Y84099
X38100Y13360
X26924Y72415
X26035Y72415
X26924Y73304
X27432Y78511
X27432Y79273
X27432Y77749
X30861Y68351
X37973Y68732
X28321Y65557
X41275Y65430
X40259Y66446
X29337Y66700
X32766Y89662
X34163Y103505
X34163Y105918
X36703Y105410
X36703Y103505
X35306Y103505
X35306Y104902
X35306Y106045
X32893Y88646
X37211Y68707
X37084Y74803
X32385Y68707
X36576Y88900
X28956Y88011
X32258Y75438
X36322Y80838
X39029Y110109
X37719Y97536
X40936Y110195
X41910Y93726
X31369Y93726
X40386Y110617
X41910Y92583
X31369Y92964
X41402Y110617
X42003Y94996
X31369Y94996
X39497Y110617
X40386Y94361
X38481Y94361
X39971Y110109
X40513Y93091
X38481Y93091
X32893Y103759
X33401Y106553
X31750Y109347
X32766Y106159
X33020Y113538
X36957Y113538
X32512Y108966
X33020Y112903
X38227Y112903
X36068Y70451
X35460Y69186
X37973Y103286
X37973Y103863
X37973Y104521
X32893Y104394
X43675Y104203
X37846Y107349
X37846Y106772
X37973Y105283
X36576Y106807
X35941Y107188
X26924Y70358
X29718Y91186
X35560Y109347
X26924Y69342
X30480Y91186
X35687Y102489
X35219Y107275
X27051Y109982
X30988Y101346
X27686Y94488
X31623Y101658
X27178Y97028
X33655Y99822
X33655Y100457
X33618Y102124
X27432Y102108
X34417Y102327
X35052Y102743
X34519Y69850
X39370Y70866
X38202Y90068
X57810Y109347
X61401Y109347
X57801Y99949
X50292Y71374
X56388Y70993
X57251Y114681
X64122Y104000
X63373Y101338
X55626Y97663
X61570Y91008
X59474Y112001
X53416Y102489
X64516Y81788
X63135Y103962
X65278Y108449
X63627Y67945
X53340Y103759
X59944Y102489
X56261Y105029
X54356Y107950
X65786Y110998
X67310Y107188
X62357Y100711
X65786Y100838
X56794Y98247
X66269Y108509
X67183Y104927
X59614Y113919
X60122Y116637
X50800Y101498
X54331Y106223
X67158Y102591
X61087Y86258
X66040Y97180
X61087Y98450
X51562Y96418
X54737Y86385
X54356Y91821
X61849Y81813
X59690Y81813
X61849Y80797
X50800Y108077
X52705Y89662
X60325Y84099
X61468Y74828
X50292Y72415
X49403Y72415
X50292Y73304
X50800Y78511
X50800Y79273
X50800Y77749
X54229Y68351
X61341Y68732
X51689Y65557
X64643Y65430
X63627Y66446
X52705Y66700
X56134Y89662
X57531Y103505
X57531Y105918
X60071Y105410
X60071Y103505
X58674Y103505
X58674Y104902
X58674Y106045
X56261Y88646
X60579Y68707
X60452Y74803
X55753Y68707
X59944Y88900
X52324Y88011
X55626Y75438
X59690Y80838
X62397Y110109
X61087Y97536
X64304Y110195
X65278Y93726
X54737Y93726
X63754Y110617
X65278Y92583
X54737Y92964
X64770Y110617
X65370Y94996
X54737Y94996
X62865Y110617
X63754Y94361
X61849Y94361
X63338Y110109
X63881Y93091
X61849Y93091
X56261Y103759
X56769Y106553
X55118Y109347
X56134Y106159
X56388Y113538
X60325Y113538
X55880Y108966
X56388Y112903
X61595Y112903
X59436Y70451
X58828Y69186
X61341Y103286
X61341Y103863
X61341Y104521
X56261Y104394
X67043Y104203
X61214Y107349
X61214Y106772
X61341Y105283
X59944Y106807
X59309Y107188
X50292Y70358
X53086Y91186
X58928Y109347
X50292Y69342
X53848Y91186
X59055Y102489
X58587Y107275
X50419Y109982
X54356Y101346
X51054Y94488
X54991Y101658
X50546Y97028
X57023Y99822
X57023Y100457
X56985Y102124
X50800Y102108
X57785Y102327
X58420Y102743
X57887Y69850
X62738Y70866
X61570Y90068
X81178Y109347
X84769Y109347
X81169Y99949
X73660Y71374
X79756Y70993
X80619Y114681
X87490Y104000
X86741Y101338
X78994Y97663
X84938Y91008
X82842Y112001
X76784Y102489
X87884Y81788
X86503Y103962
X88646Y108449
X86995Y67945
X76708Y103759
X83312Y102489
X79629Y105029
X77724Y107950
X89154Y110998
X90678Y107188
X85725Y100711
X89154Y100838
X80162Y98247
X89637Y108509
X90551Y104927
X82982Y113919
X83490Y116637
X74168Y101498
X77699Y106223
X90526Y102591
X84455Y86258
X89408Y97180
X84455Y98450
X74930Y96418
X78105Y86385
X77724Y91821
X85217Y81813
X83058Y81813
X85217Y80797
X74168Y108077
X76073Y89662
X83693Y84099
X84836Y74828
X73660Y72415
X72771Y72415
X73660Y73304
X74168Y78511
X74168Y79273
X74168Y77749
X77597Y68351
X84709Y68732
X75057Y65557
X88011Y65430
X86995Y66446
X76073Y66700
X79502Y89662
X80899Y103505
X80899Y105918
X83439Y105410
X83439Y103505
X82042Y103505
X82042Y104902
X82042Y106045
X79629Y88646
X83947Y68707
X83820Y74803
X79121Y68707
X83312Y88900
X75692Y88011
X78994Y75438
X83058Y80838
X85765Y110109
X84455Y97536
X87672Y110195
X88646Y93726
X78105Y93726
X87122Y110617
X88646Y92583
X78105Y92964
X88138Y110617
X88738Y94996
X78105Y94996
X86233Y110617
X87122Y94361
X85217Y94361
X86707Y110109
X87249Y93091
X85217Y93091
X79629Y103759
X80137Y106553
X78486Y109347
X79502Y106159
X79756Y113538
X83693Y113538
X79248Y108966
X79756Y112903
X84963Y112903
X82804Y70451
X82196Y69186
X84709Y103286
X84709Y103863
X84709Y104521
X79629Y104394
X90411Y104203
X84582Y107349
X84582Y106772
X84709Y105283
X83312Y106807
X82677Y107188
X73660Y70358
X76454Y91186
X82296Y109347
X73660Y69342
X77216Y91186
X82423Y102489
X81955Y107275
X73787Y109982
X77724Y101346
X74422Y94488
X78359Y101658
X73914Y97028
X80391Y99822
X80391Y100457
X80354Y102124
X74168Y102108
X81153Y102327
X81788Y102743
X81255Y69850
X86106Y70866
X11074Y47879
X14665Y47879
X11065Y38481
X3556Y9906
X9652Y9525
X10515Y53213
X17386Y42532
X16637Y39871
X8890Y36195
X14834Y29540
X12738Y50533
X6680Y41021
X17780Y20320
X16399Y42494
X18542Y46981
X16891Y6477
X6604Y42291
X13208Y41021
X9525Y43561
X7620Y46482
X19050Y49530
X20574Y45720
X15621Y39243
X19050Y39370
X10058Y36779
X19533Y47041
X20447Y43459
X12878Y52451
X13386Y55169
X4064Y40030
X7595Y44755
X20422Y41123
X14351Y24790
X19304Y35712
X14351Y36982
X4826Y34950
X8001Y24917
X7620Y30353
X15113Y20345
X12954Y20345
X15113Y19329
X4064Y46609
X5969Y28194
X13589Y22631
X14732Y13360
X3556Y10947
X2667Y10947
X3556Y11836
X4064Y17043
X4064Y17805
X4064Y16281
X7493Y6883
X14605Y7264
X4953Y4089
X17907Y3962
X16891Y4978
X5969Y5232
X9398Y28194
X10795Y42037
X10795Y44450
X13335Y43942
X13335Y42037
X11938Y42037
X11938Y43434
X11938Y44577
X9525Y27178
X13843Y7239
X13716Y13335
X9017Y7239
X13208Y27432
X5588Y26543
X8890Y13970
X12954Y19370
X15661Y48641
X14351Y36068
X17568Y48727
X18542Y32258
X8001Y32258
X17018Y49149
X18542Y31115
X8001Y31496
X18034Y49149
X18635Y33528
X8001Y33528
X16129Y49149
X17018Y32893
X15113Y32893
X16603Y48641
X17145Y31623
X15113Y31623
X9525Y42291
X10033Y45085
X8382Y47879
X9398Y44691
X9652Y52070
X13589Y52070
X9144Y47498
X9652Y51435
X14859Y51435
X12700Y8983
X12092Y7718
X14605Y41819
X14605Y42396
X14605Y43053
X9525Y42926
X20307Y42736
X14478Y45881
X14478Y45304
X14605Y43815
X13208Y45339
X12573Y45720
X3556Y8890
X6350Y29718
X12192Y47879
X3556Y7874
X7112Y29718
X12319Y41021
X11851Y45807
X3683Y48514
X7620Y39878
X4318Y33020
X8255Y40190
X3810Y35560
X10287Y38354
X10287Y38989
X10250Y40656
X4064Y40640
X11049Y40860
X11684Y41275
X11151Y8382
X16002Y9398
X14834Y28600
X34442Y47879
X38033Y47879
X34433Y38481
X26924Y9906
X33020Y9525
X33883Y53213
X40754Y42532
X40005Y39871
X32258Y36195
X38202Y29540
X36106Y50533
X30048Y41021
X41148Y20320
X39767Y42494
X41910Y46981
X40259Y6477
X29972Y42291
X36576Y41021
X32893Y43561
X30988Y46482
X42418Y49530
X43942Y45720
X38989Y39243
X42418Y39370
X33426Y36779
X42901Y47041
X43815Y43459
X36246Y52451
X36754Y55169
X27432Y40030
X30963Y44755
X43790Y41123
X37719Y24790
X42672Y35712
X37719Y36982
X28194Y34950
X31369Y24917
X30988Y30353
X38481Y20345
X36322Y20345
X38481Y19329
X27432Y46609
X29337Y28194
X36957Y22631
X38100Y74828
X26924Y10947
X26035Y10947
X26924Y11836
X27432Y17043
X27432Y17805
X27432Y16281
X30861Y6883
X37973Y7264
X28321Y4089
X41275Y3962
X40259Y4978
X29337Y5232
X32766Y28194
X34163Y42037
X34163Y44450
X36703Y43942
X36703Y42037
X35306Y42037
X35306Y43434
X35306Y44577
X32893Y27178
X37211Y7239
X37084Y13335
X32385Y7239
X36576Y27432
X28956Y26543
X32258Y13970
X36322Y19370
X39029Y48641
X37719Y36068
X40936Y48727
X41910Y32258
X31369Y32258
X40386Y49149
X41910Y31115
X31369Y31496
X41402Y49149
X42003Y33528
X31369Y33528
X39497Y49149
X40386Y32893
X38481Y32893
X39971Y48641
X40513Y31623
X38481Y31623
X32893Y42291
X33401Y45085
X31750Y47879
X32766Y44691
X33020Y52070
X36957Y52070
X32512Y47498
X33020Y51435
X38227Y51435
X36068Y8983
X35460Y7718
X37973Y41819
X37973Y42396
X37973Y43053
X32893Y42926
X43675Y42736
X37846Y45881
X37846Y45304
X37973Y43815
X36576Y45339
X35941Y45720
X26924Y8890
X29718Y29718
X35560Y47879
X26924Y7874
X30480Y29718
X35687Y41021
X35219Y45807
X27051Y48514
X30988Y39878
X27686Y33020
X31623Y40190
X27178Y35560
X33655Y38354
X33655Y38989
X33618Y40656
X27432Y40640
X34417Y40860
X35052Y41275
X34519Y8382
X39370Y9398
X38202Y28600
X57810Y47879
X61401Y47879
X57801Y38481
X50292Y9906
X56388Y9525
X57251Y53213
X64122Y42532
X63373Y39871
X55626Y36195
X61570Y29540
X59474Y50533
X53416Y41021
X64516Y20320
X63135Y42494
X65278Y46981
X63627Y6477
X53340Y42291
X59944Y41021
X56261Y43561
X54356Y46482
X65786Y49530
X67310Y45720
X62357Y39243
X65786Y39370
X56794Y36779
X66269Y47041
X67183Y43459
X59614Y52451
X60122Y55169
X50800Y40030
X54331Y44755
X67158Y41123
X61087Y24790
X66040Y35712
X61087Y36982
X51562Y34950
X54737Y24917
X54356Y30353
X61849Y20345
X59690Y20345
X61849Y19329
X50800Y46609
X52705Y28194
X60325Y22631
X61468Y13360
X50292Y10947
X49403Y10947
X50292Y11836
X50800Y17043
X50800Y17805
X50800Y16281
X54229Y6883
X61341Y7264
X51689Y4089
X64643Y3962
X63627Y4978
X52705Y5232
X56134Y28194
X57531Y42037
X57531Y44450
X60071Y43942
X60071Y42037
X58674Y42037
X58674Y43434
X58674Y44577
X56261Y27178
X60579Y7239
X60452Y13335
X55753Y7239
X59944Y27432
X52324Y26543
X55626Y13970
X59690Y19370
X62397Y48641
X61087Y36068
X64304Y48727
X65278Y32258
X54737Y32258
X63754Y49149
X65278Y31115
X54737Y31496
X64770Y49149
X65370Y33528
X54737Y33528
X62865Y49149
X63754Y32893
X61849Y32893
X63338Y48641
X84938Y90068
M30